<svg xmlns="http://www.w3.org/2000/svg" xmlns:xlink="http://www.w3.org/1999/xlink" viewBox="0 0 1024 1024"><defs><style>.cls-1,.cls-11,.cls-2,.cls-3,.cls-4,.cls-5,.cls-6,.cls-7,.cls-9{stroke:#b68bcc;stroke-linejoin:round;}.cls-1,.cls-2,.cls-3,.cls-4,.cls-5,.cls-6,.cls-7,.cls-9{stroke-width:2.6px;}.cls-1{fill:url(#linear-gradient);}.cls-2{fill:url(#linear-gradient-2);}.cls-3{fill:url(#linear-gradient-3);}.cls-4{fill:url(#linear-gradient-4);}.cls-5{fill:url(#linear-gradient-5);}.cls-6{fill:url(#linear-gradient-6);}.cls-7{fill:url(#linear-gradient-7);}.cls-8{fill:#18131f;isolation:isolate;opacity:0.5;}.cls-9{fill:url(#linear-gradient-8);}.cls-10{fill:url(#linear-gradient-9);}.cls-11{stroke-linecap:round;stroke-width:12.99px;fill:url(#linear-gradient-10);}.cls-12,.cls-15,.cls-16,.cls-17,.cls-18,.cls-19,.cls-20,.cls-21,.cls-22,.cls-23,.cls-24,.cls-25,.cls-26,.cls-27,.cls-28,.cls-29,.cls-30,.cls-31,.cls-32,.cls-33,.cls-34,.cls-35,.cls-36,.cls-37,.cls-38{stroke:#c98049;stroke-miterlimit:10;}.cls-12{stroke-width:1.3px;fill:url(#linear-gradient-11);}.cls-13{fill:url(#linear-gradient-12);}.cls-14{fill:#c98049;}.cls-15,.cls-16,.cls-17,.cls-18,.cls-19,.cls-20,.cls-21,.cls-22,.cls-23,.cls-24,.cls-25,.cls-26,.cls-27,.cls-28,.cls-29,.cls-30,.cls-31,.cls-32,.cls-33,.cls-34,.cls-35,.cls-36,.cls-37,.cls-38{stroke-width:0.84px;}.cls-15{fill:url(#linear-gradient-13);}.cls-16{fill:url(#linear-gradient-14);}.cls-17{fill:url(#linear-gradient-15);}.cls-18{fill:url(#linear-gradient-16);}.cls-19{fill:url(#linear-gradient-17);}.cls-20{fill:url(#linear-gradient-18);}.cls-21{fill:url(#linear-gradient-19);}.cls-22{fill:url(#linear-gradient-20);}.cls-23{fill:url(#linear-gradient-21);}.cls-24{fill:url(#linear-gradient-22);}.cls-25{fill:url(#linear-gradient-23);}.cls-26{fill:url(#linear-gradient-24);}.cls-27{fill:url(#linear-gradient-25);}.cls-28{fill:url(#linear-gradient-26);}.cls-29{fill:url(#linear-gradient-27);}.cls-30{fill:url(#linear-gradient-28);}.cls-31{fill:url(#linear-gradient-29);}.cls-32{fill:url(#linear-gradient-30);}.cls-33{fill:url(#linear-gradient-31);}.cls-34{fill:url(#linear-gradient-32);}.cls-35{fill:url(#linear-gradient-33);}.cls-36{fill:url(#linear-gradient-34);}.cls-37{fill:url(#linear-gradient-35);}.cls-38{fill:url(#linear-gradient-36);}</style><linearGradient id="linear-gradient" x1="479.32" y1="736.64" x2="479.32" y2="760.68" gradientUnits="userSpaceOnUse"><stop offset="0" stop-color="#9d79b3"/><stop offset="1" stop-color="#5c5396"/></linearGradient><linearGradient id="linear-gradient-2" x1="479.31" y1="579.53" x2="479.31" y2="799.91" xlink:href="#linear-gradient"/><linearGradient id="linear-gradient-3" x1="479.31" y1="495.97" x2="479.31" y2="663.08" xlink:href="#linear-gradient"/><linearGradient id="linear-gradient-4" x1="479.32" y1="467.89" x2="479.32" y2="635" xlink:href="#linear-gradient"/><linearGradient id="linear-gradient-5" x1="479.32" y1="635" x2="479.32" y2="799.91" xlink:href="#linear-gradient"/><linearGradient id="linear-gradient-6" x1="479.32" y1="421.64" x2="479.32" y2="608.06" xlink:href="#linear-gradient"/><linearGradient id="linear-gradient-7" x1="479.33" y1="464.09" x2="479.33" y2="608.06" xlink:href="#linear-gradient"/><linearGradient id="linear-gradient-8" x1="341.77" y1="418.48" x2="616.78" y2="418.48" xlink:href="#linear-gradient"/><linearGradient id="linear-gradient-9" x1="479.28" y1="258.74" x2="479.28" y2="448.83" xlink:href="#linear-gradient"/><linearGradient id="linear-gradient-10" x1="477.59" y1="206.96" x2="477.59" y2="278.6" xlink:href="#linear-gradient"/><linearGradient id="linear-gradient-11" x1="549.21" y1="370.75" x2="549.21" y2="500.19" gradientUnits="userSpaceOnUse"><stop offset="0" stop-color="#fffab8"/><stop offset="1" stop-color="#ffbd6b"/></linearGradient><linearGradient id="linear-gradient-12" x1="564.38" y1="376.17" x2="564.38" y2="502.6" gradientTransform="translate(974.89 -146.34) rotate(87.12)" xlink:href="#linear-gradient-11"/><linearGradient id="linear-gradient-13" x1="701.74" y1="736.58" x2="701.74" y2="777.77" xlink:href="#linear-gradient-11"/><linearGradient id="linear-gradient-14" x1="701.75" y1="719.83" x2="701.75" y2="761.02" xlink:href="#linear-gradient-11"/><linearGradient id="linear-gradient-15" x1="701.74" y1="715.98" x2="701.74" y2="757.17" xlink:href="#linear-gradient-11"/><linearGradient id="linear-gradient-16" x1="701.75" y1="699.23" x2="701.75" y2="740.42" xlink:href="#linear-gradient-11"/><linearGradient id="linear-gradient-17" x1="701.74" y1="695.39" x2="701.74" y2="736.58" xlink:href="#linear-gradient-11"/><linearGradient id="linear-gradient-18" x1="701.75" y1="678.64" x2="701.75" y2="719.83" xlink:href="#linear-gradient-11"/><linearGradient id="linear-gradient-19" x1="701.74" y1="674.79" x2="701.74" y2="715.98" xlink:href="#linear-gradient-11"/><linearGradient id="linear-gradient-20" x1="701.75" y1="658.04" x2="701.75" y2="699.23" xlink:href="#linear-gradient-11"/><linearGradient id="linear-gradient-21" x1="701.74" y1="654.2" x2="701.74" y2="695.39" xlink:href="#linear-gradient-11"/><linearGradient id="linear-gradient-22" x1="701.75" y1="637.45" x2="701.75" y2="678.64" xlink:href="#linear-gradient-11"/><linearGradient id="linear-gradient-23" x1="701.74" y1="633.6" x2="701.74" y2="674.79" xlink:href="#linear-gradient-11"/><linearGradient id="linear-gradient-24" x1="701.75" y1="616.85" x2="701.75" y2="658.04" xlink:href="#linear-gradient-11"/><linearGradient id="linear-gradient-25" x1="701.74" y1="613.01" x2="701.74" y2="654.2" xlink:href="#linear-gradient-11"/><linearGradient id="linear-gradient-26" x1="701.75" y1="596.26" x2="701.75" y2="637.45" xlink:href="#linear-gradient-11"/><linearGradient id="linear-gradient-27" x1="701.74" y1="592.41" x2="701.74" y2="633.6" xlink:href="#linear-gradient-11"/><linearGradient id="linear-gradient-28" x1="701.75" y1="575.66" x2="701.75" y2="616.85" xlink:href="#linear-gradient-11"/><linearGradient id="linear-gradient-29" x1="605.23" y1="775.85" x2="605.23" y2="817.04" xlink:href="#linear-gradient-11"/><linearGradient id="linear-gradient-30" x1="605.23" y1="759.1" x2="605.23" y2="800.29" xlink:href="#linear-gradient-11"/><linearGradient id="linear-gradient-31" x1="605.23" y1="755.25" x2="605.23" y2="796.44" xlink:href="#linear-gradient-11"/><linearGradient id="linear-gradient-32" x1="605.23" y1="738.5" x2="605.23" y2="779.69" xlink:href="#linear-gradient-11"/><linearGradient id="linear-gradient-33" x1="605.23" y1="734.66" x2="605.23" y2="775.85" xlink:href="#linear-gradient-11"/><linearGradient id="linear-gradient-34" x1="605.23" y1="717.91" x2="605.23" y2="759.1" xlink:href="#linear-gradient-11"/><linearGradient id="linear-gradient-35" x1="605.23" y1="714.06" x2="605.23" y2="755.25" xlink:href="#linear-gradient-11"/><linearGradient id="linear-gradient-36" x1="605.23" y1="697.31" x2="605.23" y2="738.5" xlink:href="#linear-gradient-11"/></defs><g id="Master"><line class="cls-1" x1="479.32" y1="760.68" x2="479.32" y2="736.64"/><path class="cls-2" d="M688.21,579.53l-1.08,1.14a106.07,106.07,0,0,0-29,72.86v74.84L479.32,799.91,300.48,728.37V653.51a106.09,106.09,0,0,0-30.06-74H688.21Z"/><polygon class="cls-3" points="688.21 551.44 688.21 579.53 479.32 663.08 270.42 579.53 270.42 551.44 308.81 551.44 319.22 560 479.32 495.97 618 551.44 688.21 551.44"/><polygon class="cls-4" points="270.42 551.45 479.31 467.89 688.21 551.45 479.31 635 270.42 551.45"/><polyline class="cls-5" points="479.32 799.91 479.32 663.08 479.32 635"/><polygon class="cls-6" points="615.91 421.64 615.91 553.42 479.32 608.06 342.73 553.42 342.73 421.64 615.91 421.64"/><line class="cls-7" x1="479.33" y1="608.06" x2="479.33" y2="464.09"/><path class="cls-8" d="M635,645v31.58a17.3,17.3,0,0,1-1.19,5.85c-1.57,3.94-4.55,6.65-8.08,6.83-5.49.27-10.26-5.7-10.65-13.33,0-.57,0-1.13,0-1.69v-26.9c0-.55,0-1.11,0-1.69.39-7.63,5.16-13.59,10.65-13.32,3.53.18,6.51,2.89,8.08,6.82A17.35,17.35,0,0,1,635,645Z"/><path class="cls-8" d="M586.29,664.54v31.58a17.12,17.12,0,0,1-1.2,5.85c-1.57,3.93-4.55,6.65-8.08,6.82-5.49.27-10.26-5.69-10.64-13.32a15.91,15.91,0,0,1,0-1.69v-26.9a15.89,15.89,0,0,1,0-1.69c.38-7.63,5.15-13.6,10.64-13.32,3.53.17,6.51,2.89,8.08,6.82A17.07,17.07,0,0,1,586.29,664.54Z"/><path class="cls-8" d="M537.62,684.11v31.57a17.25,17.25,0,0,1-1.19,5.85c-1.58,3.94-4.55,6.65-8.09,6.83-5.49.27-10.25-5.69-10.64-13.33a15.72,15.72,0,0,1,0-1.68V686.44a15.72,15.72,0,0,1,0-1.68c.39-7.64,5.15-13.6,10.64-13.33,3.54.18,6.51,2.89,8.09,6.83A17.3,17.3,0,0,1,537.62,684.11Z"/><path class="cls-8" d="M635,645v31.57a17,17,0,0,1-1.18,5.85A11.67,11.67,0,0,1,629.4,688a13.27,13.27,0,0,0,1.37-2.62,16.79,16.79,0,0,0,1.2-5.85V648a16.89,16.89,0,0,0-1.2-5.86c-1.57-3.93-4.54-6.64-8.08-6.82a7.87,7.87,0,0,0-4.76,1.39c2-2.82,4.76-4.52,7.75-4.38,3.53.17,6.51,2.88,8.09,6.82A17.12,17.12,0,0,1,635,645Z"/><path class="cls-8" d="M586.3,664.54v31.58a17.6,17.6,0,0,1-1.2,5.85,11.63,11.63,0,0,1-4.35,5.59,13.92,13.92,0,0,0,1.37-2.6,17.61,17.61,0,0,0,1.19-5.86V667.53a17.5,17.5,0,0,0-1.19-5.85c-1.58-3.93-4.56-6.65-8.08-6.83a7.85,7.85,0,0,0-4.75,1.38c2-2.81,4.75-4.51,7.73-4.37,3.52.18,6.51,2.9,8.08,6.83A17.5,17.5,0,0,1,586.3,664.54Z"/><path class="cls-8" d="M537.63,684.11v31.58a17.49,17.49,0,0,1-1.2,5.84,11.62,11.62,0,0,1-4.36,5.62,15.21,15.21,0,0,0,1.38-2.63,17.54,17.54,0,0,0,1.19-5.84V687.1a17.66,17.66,0,0,0-1.19-5.86c-1.58-3.93-4.55-6.65-8.08-6.82a7.93,7.93,0,0,0-4.76,1.38c2-2.8,4.76-4.51,7.74-4.36,3.54.17,6.51,2.88,8.08,6.82A17.6,17.6,0,0,1,537.63,684.11Z"/><path class="cls-8" d="M453.44,715.68V684.11a17.31,17.31,0,0,0-1.2-5.85c-1.57-3.94-4.55-6.65-8.08-6.83-5.49-.27-10.26,5.69-10.64,13.33a15.72,15.72,0,0,0,0,1.68v26.91a15.72,15.72,0,0,0,0,1.68c.38,7.64,5.15,13.6,10.64,13.33,3.53-.18,6.51-2.89,8.08-6.83A17.26,17.26,0,0,0,453.44,715.68Z"/><path class="cls-8" d="M404.77,696.12V664.54a17.07,17.07,0,0,0-1.2-5.85c-1.57-3.93-4.55-6.65-8.08-6.82-5.49-.28-10.26,5.69-10.64,13.32a15.89,15.89,0,0,0,0,1.69v26.9a15.91,15.91,0,0,0,0,1.69c.38,7.63,5.15,13.59,10.64,13.32,3.53-.17,6.51-2.89,8.08-6.82A17.12,17.12,0,0,0,404.77,696.12Z"/><path class="cls-8" d="M356.1,676.55V645a17.35,17.35,0,0,0-1.19-5.85c-1.58-3.93-4.55-6.64-8.08-6.82-5.49-.27-10.26,5.69-10.65,13.32,0,.58,0,1.14,0,1.69v26.9c0,.56,0,1.12,0,1.69.39,7.63,5.16,13.6,10.65,13.33,3.53-.18,6.5-2.89,8.08-6.83A17.3,17.3,0,0,0,356.1,676.55Z"/><path class="cls-8" d="M591.06,502.12v51.49l-29.47,11.81V505.57c0-.82,0-1.65,0-2.49.57-11.29,7.62-20.11,15.75-19.7,5.22.26,9.62,4.26,11.94,10.08A25.72,25.72,0,0,1,591.06,502.12Z"/><path class="cls-8" d="M591.06,502.11v51.5l-4.3,1.73V506.41a25.42,25.42,0,0,0-1.76-8.65c-2.33-5.82-6.73-9.83-11.94-10.09a11.64,11.64,0,0,0-7.12,2.1c2.91-4.13,7-6.61,11.41-6.39,5.22.26,9.61,4.26,11.95,10.08A26.15,26.15,0,0,1,591.06,502.11Z"/><path class="cls-8" d="M533.77,525v51.5l-4.3,1.73V529.28a25.61,25.61,0,0,0-1.77-8.65c-2.32-5.82-6.73-9.83-11.93-10.09a11.6,11.6,0,0,0-7.12,2.1c2.91-4.13,7-6.61,11.4-6.39,5.22.26,9.61,4.26,12,10.08A26.1,26.1,0,0,1,533.77,525Z"/><path class="cls-8" d="M533.77,525v51.5l-29.48,11.8V528.44c0-.81,0-1.65,0-2.49.57-11.29,7.62-20.11,15.75-19.7,5.21.26,9.61,4.27,11.94,10.09A25.85,25.85,0,0,1,533.77,525Z"/><path class="cls-8" d="M366.5,501.43v51.5L396,564.73V504.88c0-.81,0-1.65,0-2.49-.57-11.29-7.62-20.11-15.75-19.7-5.22.26-9.62,4.27-11.95,10.09A25.85,25.85,0,0,0,366.5,501.43Z"/><path class="cls-8" d="M423.79,524.31V575.8l29.48,11.81V527.76c0-.82,0-1.65,0-2.49-.57-11.29-7.62-20.11-15.75-19.7-5.22.26-9.61,4.26-11.94,10.08A26,26,0,0,0,423.79,524.31Z"/><path class="cls-9" d="M616.78,418.47c0,.2,0,.39,0,.59-.78,29.9-62,54.06-137.49,54.06S342.56,449,341.78,419.06c0-.2,0-.39,0-.59,0-.45,0-.91,0-1.36v-.05c1.88-29.51,62.71-53.22,137.47-53.22s135.58,23.71,137.47,53.22v.05C616.77,417.56,616.78,418,616.78,418.47Z"/><path class="cls-10" d="M616.77,394.77c-.78,29.9-62,54.06-137.49,54.06s-136.72-24.16-137.5-54.06q0-1,0-1.95v-.05a137.51,137.51,0,0,1,274.94,0v.05C616.76,393.47,616.77,394.12,616.77,394.77Z"/><line class="cls-11" x1="477.59" y1="278.6" x2="477.59" y2="206.96"/><path class="cls-8" d="M366.5,501.42v51.5l4.3,1.73V505.72a25.61,25.61,0,0,1,1.77-8.65c2.33-5.82,6.73-9.83,11.94-10.09a11.64,11.64,0,0,1,7.12,2.1c-2.91-4.13-7-6.61-11.41-6.39-5.22.26-9.61,4.26-12,10.08A26.36,26.36,0,0,0,366.5,501.42Z"/><path class="cls-8" d="M423.8,524.29v51.5l4.3,1.73V528.59a25.61,25.61,0,0,1,1.76-8.65c2.33-5.82,6.73-9.83,11.94-10.09a11.64,11.64,0,0,1,7.12,2.1c-2.91-4.13-7-6.61-11.4-6.39-5.23.26-9.62,4.26-11.95,10.08A26.1,26.1,0,0,0,423.8,524.29Z"/><path class="cls-8" d="M336.19,644.26v31.58a17,17,0,0,0,1.18,5.84,11.69,11.69,0,0,0,4.38,5.61,12.54,12.54,0,0,1-1.38-2.62,16.78,16.78,0,0,1-1.2-5.84V647.25a16.89,16.89,0,0,1,1.2-5.86c1.57-3.92,4.54-6.64,8.08-6.82a7.87,7.87,0,0,1,4.76,1.39c-2-2.82-4.76-4.52-7.75-4.38-3.53.17-6.51,2.89-8.09,6.82A17.17,17.17,0,0,0,336.19,644.26Z"/><path class="cls-8" d="M384.84,663.82V695.4a17.66,17.66,0,0,0,1.2,5.86,11.6,11.6,0,0,0,4.35,5.58,13.33,13.33,0,0,1-1.36-2.6,17.36,17.36,0,0,1-1.2-5.85V666.81A17.2,17.2,0,0,1,389,661c1.57-3.94,4.55-6.66,8.07-6.84a7.92,7.92,0,0,1,4.75,1.38c-2-2.81-4.75-4.51-7.73-4.36-3.52.18-6.51,2.89-8.08,6.83A17.49,17.49,0,0,0,384.84,663.82Z"/><path class="cls-8" d="M433.51,683.4V715a17.55,17.55,0,0,0,1.2,5.85,11.6,11.6,0,0,0,4.36,5.61,15.12,15.12,0,0,1-1.38-2.62A17.6,17.6,0,0,1,436.5,718V686.38a17.6,17.6,0,0,1,1.19-5.85c1.58-3.94,4.55-6.65,8.08-6.82a7.85,7.85,0,0,1,4.76,1.37c-2-2.8-4.76-4.5-7.74-4.36-3.54.17-6.51,2.88-8.08,6.82A17.61,17.61,0,0,0,433.51,683.4Z"/><path class="cls-12" d="M594.69,436.25c-1.55,31-18.88,55.91-40.31,60.25l-4,3.69-13.22-4.71c-20.57-6.8-35-33.15-33.46-63.8,1.75-34.89,23.54-62.16,48.66-60.89a33.77,33.77,0,0,1,7.53,1.25H560l4.25,1.53,0,0,15.67,5.65-1.5,4.86C589.27,396.17,595.75,415.19,594.69,436.25Z"/><ellipse class="cls-13" cx="564.38" cy="439.39" rx="63.25" ry="45.55" transform="translate(97.22 981.01) rotate(-87.12)"/><path class="cls-14" d="M565.88,376.17v2.08c.52,0,1,0,1.57,0,23.95,1.2,42,29.59,40.35,63.28-.8,16.05-6,31-14.55,42.09-8.41,10.88-19.2,16.87-30.37,16.87-.52,0-1,0-1.57,0-23.94-1.2-42-29.59-40.35-63.28.81-16,6-31,14.55-42.09,8.42-10.88,19.2-16.87,30.37-16.87v-2.08m0,0c-24.41,0-45.28,26.82-47,60.93-1.75,34.89,17.19,64.2,42.32,65.46.56,0,1.12,0,1.67,0,24.41,0,45.28-26.81,47-60.92,1.76-34.89-17.19-64.2-42.31-65.46-.56,0-1.12-.05-1.68-.05Z"/><rect class="cls-14" x="513.91" y="462.6" width="3.76" height="12.02" rx="1.4" transform="translate(-102.97 789.18) rotate(-69.64)"/><rect class="cls-14" x="509.09" y="433.1" width="3.76" height="12.02" rx="1.4" transform="translate(-78.46 765.42) rotate(-69.64)"/><path class="cls-14" d="M525.94,386.62l8.2,3a1.36,1.36,0,0,0,1.74-.85l.33-.89a1.37,1.37,0,0,0-.76-1.78l-8.2-3a1.36,1.36,0,0,0-1.74.85l-.33.89A1.37,1.37,0,0,0,525.94,386.62Z"/><rect class="cls-14" x="514.72" y="403.6" width="3.76" height="12.02" rx="1.4" transform="translate(-47.13 751.47) rotate(-69.64)"/><path class="cls-14" d="M595.18,412.28a13.13,13.13,0,0,0-5.9,1.88c-2,1.12-4,2.33-6,3.49h0l-6,3.54a3.06,3.06,0,0,0-1.69,2.54l-3,19.25q-1.14,7.38-2.29,14.77c-.22,1.35.1,1.57,1.24.91l5.17-3a3.06,3.06,0,0,0,1.68-2.56c.55-3.6,1.12-7.2,1.64-10.78a1,1,0,0,1,.56-.83c1.72-1,3.45-2,5.17-3a33.81,33.81,0,0,0,4.88-3.42,23.61,23.61,0,0,0,6.33-8.25,23.3,23.3,0,0,0,2.31-9.49C599.31,413.87,597.92,412.21,595.18,412.28Zm-4.06,11a10.47,10.47,0,0,1-4.84,8.07c-1.71,1.05-3.41,2-5.14,3,.48-3.09,1-6.17,1.43-9.24a.64.64,0,0,1,.36-.55c1.88-1.06,3.75-2.28,5.63-3.21S591.27,421.17,591.12,423.31ZM568.62,436c-.22-3.69-1.88-5.54-4.87-5.6-2.17-.06-4.54.84-7.15,2.4a27,27,0,0,0-3,2,29.19,29.19,0,0,0-5.89,5.91,31.72,31.72,0,0,0-5.15,10.88,72.09,72.09,0,0,0-1.51,8.1,47.12,47.12,0,0,0-.81,6.87v.06c0,2.1.4,3.89,1.52,5,1.46,1.52,3.59,1.51,6,.83a24.88,24.88,0,0,0,7.76-4.21,28.25,28.25,0,0,0,5.83-5.79,31,31,0,0,0,5-10.7,74.26,74.26,0,0,0,1.69-9A35.41,35.41,0,0,0,568.62,436Zm-8,7c-.3,3.18-.92,6.47-1.47,9.73a17.12,17.12,0,0,1-1.83,5.53c-1.74,3.18-4.3,5.19-6.57,5.74-1.41.35-2-.51-2.25-1.95a16.65,16.65,0,0,1,.34-4.69c.43-2.86.79-5.7,1.49-8.63a14.57,14.57,0,0,1,2.52-5.51,13,13,0,0,1,3.69-3.36c1.41-.76,2.77-1.28,3.57-.17A5.1,5.1,0,0,1,560.57,442.92Z"/><path class="cls-15" d="M753.58,741.51v15.66c0,11.38-23.21,20.6-51.84,20.6s-51.83-9.22-51.83-20.6V741.56l5,6.82c8.3-7,26.18-11.8,46.88-11.8s38.58,4.82,46.89,11.8Z"/><ellipse class="cls-16" cx="701.75" cy="740.42" rx="51.83" ry="20.6"/><path class="cls-14" d="M681.12,770.36v-6a.83.83,0,0,0-.7-.91H680a.83.83,0,0,0-.69.91v6c0,.51.31.92.69.92h.46C680.81,771.28,681.12,770.87,681.12,770.36Z"/><path class="cls-14" d="M659.77,763v-6a.83.83,0,0,0-.69-.91h-.47a.83.83,0,0,0-.69.91v6c0,.51.31.92.69.92h.47C659.46,763.92,659.77,763.51,659.77,763Z"/><path class="cls-14" d="M670.5,768v-6c0-.51-.31-.92-.69-.92h-.47c-.38,0-.69.41-.69.92v6a.83.83,0,0,0,.69.91h.47A.83.83,0,0,0,670.5,768Z"/><path class="cls-14" d="M691.65,772.14v-6c0-.51-.31-.92-.69-.92h-.47c-.38,0-.69.41-.69.92v6a.83.83,0,0,0,.69.91H691A.83.83,0,0,0,691.65,772.14Z"/><path class="cls-14" d="M702.45,772.57v-6a.83.83,0,0,0-.69-.91h-.47a.83.83,0,0,0-.69.91v6a.83.83,0,0,0,.69.91h.47A.83.83,0,0,0,702.45,772.57Z"/><path class="cls-14" d="M734.72,768v-6c0-.51-.31-.92-.69-.92h-.47c-.38,0-.69.41-.69.92v6a.83.83,0,0,0,.69.91H734A.83.83,0,0,0,734.72,768Z"/><path class="cls-14" d="M713.37,772.14v-6c0-.51-.31-.92-.69-.92h-.47c-.38,0-.69.41-.69.92v6a.83.83,0,0,0,.69.91h.47A.83.83,0,0,0,713.37,772.14Z"/><path class="cls-14" d="M724.1,770.36v-6a.83.83,0,0,0-.69-.91h-.47a.83.83,0,0,0-.69.91v6c0,.51.31.92.69.92h.47C723.79,771.28,724.1,770.87,724.1,770.36Z"/><path class="cls-14" d="M745.25,763v-6a.83.83,0,0,0-.69-.91h-.47a.83.83,0,0,0-.69.91v6c0,.51.31.92.69.92h.47C744.94,763.92,745.25,763.51,745.25,763Z"/><path class="cls-17" d="M753.58,720.91v15.67c0,11.37-23.21,20.59-51.84,20.59s-51.83-9.22-51.83-20.59V721l5,6.82c8.3-7,26.18-11.81,46.88-11.81s38.58,4.83,46.89,11.81Z"/><ellipse class="cls-18" cx="701.75" cy="719.83" rx="51.83" ry="20.6"/><path class="cls-14" d="M681.12,749.77v-6c0-.51-.31-.92-.7-.92H680c-.38,0-.69.41-.69.92v6a.83.83,0,0,0,.69.91h.46A.83.83,0,0,0,681.12,749.77Z"/><path class="cls-14" d="M659.77,742.41v-6c0-.51-.31-.92-.69-.92h-.47c-.38,0-.69.41-.69.92v6a.83.83,0,0,0,.69.91h.47A.83.83,0,0,0,659.77,742.41Z"/><path class="cls-14" d="M670.5,747.36v-6a.83.83,0,0,0-.69-.91h-.47a.83.83,0,0,0-.69.91v6c0,.51.31.92.69.92h.47C670.19,748.28,670.5,747.87,670.5,747.36Z"/><path class="cls-14" d="M691.65,751.54v-6a.83.83,0,0,0-.69-.91h-.47a.83.83,0,0,0-.69.91v6c0,.51.31.92.69.92H691C691.34,752.46,691.65,752.05,691.65,751.54Z"/><path class="cls-14" d="M702.45,752v-6c0-.51-.31-.92-.69-.92h-.47c-.38,0-.69.41-.69.92v6c0,.51.31.92.69.92h.47C702.14,752.89,702.45,752.48,702.45,752Z"/><path class="cls-14" d="M734.72,747.36v-6a.83.83,0,0,0-.69-.91h-.47a.83.83,0,0,0-.69.91v6c0,.51.31.92.69.92H734C734.41,748.28,734.72,747.87,734.72,747.36Z"/><path class="cls-14" d="M713.37,751.54v-6a.83.83,0,0,0-.69-.91h-.47a.83.83,0,0,0-.69.91v6c0,.51.31.92.69.92h.47C713.06,752.46,713.37,752.05,713.37,751.54Z"/><path class="cls-14" d="M724.1,749.77v-6c0-.51-.31-.92-.69-.92h-.47c-.38,0-.69.41-.69.92v6a.83.83,0,0,0,.69.91h.47A.83.83,0,0,0,724.1,749.77Z"/><path class="cls-14" d="M745.25,742.41v-6c0-.51-.31-.92-.69-.92h-.47c-.38,0-.69.41-.69.92v6a.83.83,0,0,0,.69.91h.47A.83.83,0,0,0,745.25,742.41Z"/><path class="cls-19" d="M753.58,700.32V716c0,11.38-23.21,20.6-51.84,20.6s-51.83-9.22-51.83-20.6V700.37l5,6.82c8.3-7,26.18-11.8,46.88-11.8s38.58,4.82,46.89,11.8Z"/><ellipse class="cls-20" cx="701.75" cy="699.23" rx="51.83" ry="20.6"/><path class="cls-14" d="M681.12,729.17v-6a.83.83,0,0,0-.7-.91H680a.83.83,0,0,0-.69.91v6c0,.51.31.92.69.92h.46C680.81,730.09,681.12,729.68,681.12,729.17Z"/><path class="cls-14" d="M659.77,721.81v-6a.83.83,0,0,0-.69-.91h-.47a.83.83,0,0,0-.69.91v6c0,.51.31.92.69.92h.47C659.46,722.73,659.77,722.32,659.77,721.81Z"/><path class="cls-14" d="M670.5,726.77v-6c0-.51-.31-.92-.69-.92h-.47c-.38,0-.69.41-.69.92v6a.83.83,0,0,0,.69.91h.47A.83.83,0,0,0,670.5,726.77Z"/><path class="cls-14" d="M691.65,731v-6c0-.51-.31-.92-.69-.92h-.47c-.38,0-.69.41-.69.92v6a.83.83,0,0,0,.69.91H691A.83.83,0,0,0,691.65,731Z"/><path class="cls-14" d="M702.45,731.38v-6a.83.83,0,0,0-.69-.91h-.47a.83.83,0,0,0-.69.91v6a.83.83,0,0,0,.69.91h.47A.83.83,0,0,0,702.45,731.38Z"/><path class="cls-14" d="M734.72,726.77v-6c0-.51-.31-.92-.69-.92h-.47c-.38,0-.69.41-.69.92v6a.83.83,0,0,0,.69.91H734A.83.83,0,0,0,734.72,726.77Z"/><path class="cls-14" d="M713.37,731v-6c0-.51-.31-.92-.69-.92h-.47c-.38,0-.69.41-.69.92v6a.83.83,0,0,0,.69.91h.47A.83.83,0,0,0,713.37,731Z"/><path class="cls-14" d="M724.1,729.17v-6a.83.83,0,0,0-.69-.91h-.47a.83.83,0,0,0-.69.91v6c0,.51.31.92.69.92h.47C723.79,730.09,724.1,729.68,724.1,729.17Z"/><path class="cls-14" d="M745.25,721.81v-6a.83.83,0,0,0-.69-.91h-.47a.83.83,0,0,0-.69.91v6c0,.51.31.92.69.92h.47C744.94,722.73,745.25,722.32,745.25,721.81Z"/><path class="cls-21" d="M753.58,679.72v15.67c0,11.37-23.21,20.59-51.84,20.59s-51.83-9.22-51.83-20.59V679.78l5,6.82c8.3-7,26.18-11.81,46.88-11.81s38.58,4.83,46.89,11.81Z"/><ellipse class="cls-22" cx="701.75" cy="678.64" rx="51.83" ry="20.6"/><path class="cls-14" d="M681.12,708.58v-6c0-.51-.31-.92-.7-.92H680c-.38,0-.69.41-.69.92v6a.83.83,0,0,0,.69.91h.46A.83.83,0,0,0,681.12,708.58Z"/><path class="cls-14" d="M659.77,701.22v-6c0-.51-.31-.92-.69-.92h-.47c-.38,0-.69.41-.69.92v6a.83.83,0,0,0,.69.91h.47A.83.83,0,0,0,659.77,701.22Z"/><path class="cls-14" d="M670.5,706.17v-6a.83.83,0,0,0-.69-.91h-.47a.83.83,0,0,0-.69.91v6c0,.51.31.92.69.92h.47C670.19,707.09,670.5,706.68,670.5,706.17Z"/><path class="cls-14" d="M691.65,710.35v-6a.83.83,0,0,0-.69-.91h-.47a.83.83,0,0,0-.69.91v6c0,.51.31.92.69.92H691C691.34,711.27,691.65,710.86,691.65,710.35Z"/><path class="cls-14" d="M702.45,710.78v-6c0-.51-.31-.92-.69-.92h-.47c-.38,0-.69.41-.69.92v6c0,.51.31.92.69.92h.47C702.14,711.7,702.45,711.29,702.45,710.78Z"/><path class="cls-14" d="M734.72,706.17v-6a.83.83,0,0,0-.69-.91h-.47a.83.83,0,0,0-.69.91v6c0,.51.31.92.69.92H734C734.41,707.09,734.72,706.68,734.72,706.17Z"/><path class="cls-14" d="M713.37,710.35v-6a.83.83,0,0,0-.69-.91h-.47a.83.83,0,0,0-.69.91v6c0,.51.31.92.69.92h.47C713.06,711.27,713.37,710.86,713.37,710.35Z"/><path class="cls-14" d="M724.1,708.58v-6c0-.51-.31-.92-.69-.92h-.47c-.38,0-.69.41-.69.92v6a.83.83,0,0,0,.69.91h.47A.83.83,0,0,0,724.1,708.58Z"/><path class="cls-14" d="M745.25,701.22v-6c0-.51-.31-.92-.69-.92h-.47c-.38,0-.69.41-.69.92v6a.83.83,0,0,0,.69.91h.47A.83.83,0,0,0,745.25,701.22Z"/><path class="cls-23" d="M753.58,659.13v15.66c0,11.38-23.21,20.6-51.84,20.6s-51.83-9.22-51.83-20.6V659.18l5,6.82c8.3-7,26.18-11.8,46.88-11.8S740.32,659,748.63,666Z"/><ellipse class="cls-24" cx="701.75" cy="658.04" rx="51.83" ry="20.6"/><path class="cls-14" d="M681.12,688v-6a.83.83,0,0,0-.7-.91H680a.83.83,0,0,0-.69.91v6c0,.51.31.92.69.92h.46C680.81,688.9,681.12,688.49,681.12,688Z"/><path class="cls-14" d="M659.77,680.62v-6a.83.83,0,0,0-.69-.91h-.47a.83.83,0,0,0-.69.91v6c0,.51.31.92.69.92h.47C659.46,681.54,659.77,681.13,659.77,680.62Z"/><path class="cls-14" d="M670.5,685.58v-6c0-.51-.31-.92-.69-.92h-.47c-.38,0-.69.41-.69.92v6a.83.83,0,0,0,.69.91h.47A.83.83,0,0,0,670.5,685.58Z"/><path class="cls-14" d="M691.65,689.76v-6c0-.51-.31-.92-.69-.92h-.47c-.38,0-.69.41-.69.92v6a.83.83,0,0,0,.69.91H691A.83.83,0,0,0,691.65,689.76Z"/><path class="cls-14" d="M702.45,690.19v-6a.83.83,0,0,0-.69-.91h-.47a.83.83,0,0,0-.69.91v6a.83.83,0,0,0,.69.91h.47A.83.83,0,0,0,702.45,690.19Z"/><path class="cls-14" d="M734.72,685.58v-6c0-.51-.31-.92-.69-.92h-.47c-.38,0-.69.41-.69.92v6a.83.83,0,0,0,.69.91H734A.83.83,0,0,0,734.72,685.58Z"/><path class="cls-14" d="M713.37,689.76v-6c0-.51-.31-.92-.69-.92h-.47c-.38,0-.69.41-.69.92v6a.83.83,0,0,0,.69.91h.47A.83.83,0,0,0,713.37,689.76Z"/><path class="cls-14" d="M724.1,688v-6a.83.83,0,0,0-.69-.91h-.47a.83.83,0,0,0-.69.91v6c0,.51.31.92.69.92h.47C723.79,688.9,724.1,688.49,724.1,688Z"/><path class="cls-14" d="M745.25,680.62v-6a.83.83,0,0,0-.69-.91h-.47a.83.83,0,0,0-.69.91v6c0,.51.31.92.69.92h.47C744.94,681.54,745.25,681.13,745.25,680.62Z"/><path class="cls-25" d="M753.58,638.53V654.2c0,11.37-23.21,20.59-51.84,20.59s-51.83-9.22-51.83-20.59V638.59l5,6.82c8.3-7,26.18-11.81,46.88-11.81s38.58,4.83,46.89,11.81Z"/><ellipse class="cls-26" cx="701.75" cy="637.45" rx="51.83" ry="20.6"/><path class="cls-14" d="M681.12,667.39v-6c0-.51-.31-.92-.7-.92H680c-.38,0-.69.41-.69.92v6a.83.83,0,0,0,.69.91h.46A.83.83,0,0,0,681.12,667.39Z"/><path class="cls-14" d="M659.77,660v-6c0-.51-.31-.92-.69-.92h-.47c-.38,0-.69.41-.69.92v6a.83.83,0,0,0,.69.91h.47A.83.83,0,0,0,659.77,660Z"/><path class="cls-14" d="M670.5,665v-6a.83.83,0,0,0-.69-.91h-.47a.83.83,0,0,0-.69.91v6c0,.51.31.92.69.92h.47C670.19,665.9,670.5,665.49,670.5,665Z"/><path class="cls-14" d="M691.65,669.16v-6a.83.83,0,0,0-.69-.91h-.47a.83.83,0,0,0-.69.91v6c0,.51.31.92.69.92H691C691.34,670.08,691.65,669.67,691.65,669.16Z"/><path class="cls-14" d="M702.45,669.59v-6c0-.51-.31-.92-.69-.92h-.47c-.38,0-.69.41-.69.92v6c0,.51.31.92.69.92h.47C702.14,670.51,702.45,670.1,702.45,669.59Z"/><path class="cls-14" d="M734.72,665v-6a.83.83,0,0,0-.69-.91h-.47a.83.83,0,0,0-.69.91v6c0,.51.31.92.69.92H734C734.41,665.9,734.72,665.49,734.72,665Z"/><path class="cls-14" d="M713.37,669.16v-6a.83.83,0,0,0-.69-.91h-.47a.83.83,0,0,0-.69.91v6c0,.51.31.92.69.92h.47C713.06,670.08,713.37,669.67,713.37,669.16Z"/><path class="cls-14" d="M724.1,667.39v-6c0-.51-.31-.92-.69-.92h-.47c-.38,0-.69.41-.69.92v6a.83.83,0,0,0,.69.91h.47A.83.83,0,0,0,724.1,667.39Z"/><path class="cls-14" d="M745.25,660v-6c0-.51-.31-.92-.69-.92h-.47c-.38,0-.69.41-.69.92v6a.83.83,0,0,0,.69.91h.47A.83.83,0,0,0,745.25,660Z"/><path class="cls-27" d="M753.58,617.94V633.6c0,11.38-23.21,20.6-51.84,20.6s-51.83-9.22-51.83-20.6V618l5,6.82c8.3-7,26.18-11.8,46.88-11.8s38.58,4.82,46.89,11.8Z"/><ellipse class="cls-28" cx="701.75" cy="616.85" rx="51.83" ry="20.6"/><path class="cls-14" d="M681.12,646.79v-6a.83.83,0,0,0-.7-.91H680a.83.83,0,0,0-.69.91v6c0,.51.31.92.69.92h.46C680.81,647.71,681.12,647.3,681.12,646.79Z"/><path class="cls-14" d="M659.77,639.43v-6a.83.83,0,0,0-.69-.91h-.47a.83.83,0,0,0-.69.91v6c0,.51.31.92.69.92h.47C659.46,640.35,659.77,639.94,659.77,639.43Z"/><path class="cls-14" d="M670.5,644.39v-6c0-.51-.31-.92-.69-.92h-.47c-.38,0-.69.41-.69.92v6a.83.83,0,0,0,.69.91h.47A.83.83,0,0,0,670.5,644.39Z"/><path class="cls-14" d="M691.65,648.57v-6c0-.51-.31-.92-.69-.92h-.47c-.38,0-.69.41-.69.92v6a.83.83,0,0,0,.69.91H691A.83.83,0,0,0,691.65,648.57Z"/><path class="cls-14" d="M702.45,649v-6a.83.83,0,0,0-.69-.91h-.47a.83.83,0,0,0-.69.91v6c0,.51.31.92.69.92h.47C702.14,649.91,702.45,649.5,702.45,649Z"/><path class="cls-14" d="M734.72,644.39v-6c0-.51-.31-.92-.69-.92h-.47c-.38,0-.69.41-.69.92v6a.83.83,0,0,0,.69.91H734A.83.83,0,0,0,734.72,644.39Z"/><path class="cls-14" d="M713.37,648.57v-6c0-.51-.31-.92-.69-.92h-.47c-.38,0-.69.41-.69.92v6a.83.83,0,0,0,.69.91h.47A.83.83,0,0,0,713.37,648.57Z"/><path class="cls-14" d="M724.1,646.79v-6a.83.83,0,0,0-.69-.91h-.47a.83.83,0,0,0-.69.91v6c0,.51.31.92.69.92h.47C723.79,647.71,724.1,647.3,724.1,646.79Z"/><path class="cls-14" d="M745.25,639.43v-6a.83.83,0,0,0-.69-.91h-.47a.83.83,0,0,0-.69.91v6c0,.51.31.92.69.92h.47C744.94,640.35,745.25,639.94,745.25,639.43Z"/><path class="cls-29" d="M753.58,597.34V613c0,11.37-23.21,20.59-51.84,20.59s-51.83-9.22-51.83-20.59V597.4l5,6.82c8.3-7,26.18-11.81,46.88-11.81s38.58,4.83,46.89,11.81Z"/><ellipse class="cls-30" cx="701.75" cy="596.26" rx="51.83" ry="20.6"/><path class="cls-14" d="M681.12,626.2v-6c0-.51-.31-.92-.7-.92H680c-.38,0-.69.41-.69.92v6a.83.83,0,0,0,.69.91h.46A.83.83,0,0,0,681.12,626.2Z"/><path class="cls-14" d="M659.77,618.84v-6c0-.51-.31-.92-.69-.92h-.47c-.38,0-.69.41-.69.92v6a.83.83,0,0,0,.69.91h.47A.83.83,0,0,0,659.77,618.84Z"/><path class="cls-14" d="M670.5,623.79v-6a.83.83,0,0,0-.69-.91h-.47a.83.83,0,0,0-.69.91v6c0,.51.31.92.69.92h.47C670.19,624.71,670.5,624.3,670.5,623.79Z"/><path class="cls-14" d="M691.65,628v-6a.83.83,0,0,0-.69-.91h-.47a.83.83,0,0,0-.69.91v6c0,.51.31.92.69.92H691C691.34,628.89,691.65,628.48,691.65,628Z"/><path class="cls-14" d="M702.45,628.4v-6c0-.51-.31-.92-.69-.92h-.47c-.38,0-.69.41-.69.92v6c0,.51.31.91.69.91h.47C702.14,629.31,702.45,628.91,702.45,628.4Z"/><path class="cls-14" d="M734.72,623.79v-6a.83.83,0,0,0-.69-.91h-.47a.83.83,0,0,0-.69.91v6c0,.51.31.92.69.92H734C734.41,624.71,734.72,624.3,734.72,623.79Z"/><path class="cls-14" d="M713.37,628v-6a.83.83,0,0,0-.69-.91h-.47a.83.83,0,0,0-.69.91v6c0,.51.31.92.69.92h.47C713.06,628.89,713.37,628.48,713.37,628Z"/><path class="cls-14" d="M724.1,626.2v-6c0-.51-.31-.92-.69-.92h-.47c-.38,0-.69.41-.69.92v6a.83.83,0,0,0,.69.91h.47A.83.83,0,0,0,724.1,626.2Z"/><path class="cls-14" d="M745.25,618.84v-6c0-.51-.31-.92-.69-.92h-.47c-.38,0-.69.41-.69.92v6a.83.83,0,0,0,.69.91h.47A.83.83,0,0,0,745.25,618.84Z"/><path class="cls-31" d="M657.06,780.77v15.67c0,11.38-23.2,20.6-51.83,20.6s-51.83-9.22-51.83-20.6V780.83l5,6.82c8.3-7,26.18-11.8,46.88-11.8s38.58,4.82,46.88,11.8Z"/><ellipse class="cls-32" cx="605.23" cy="779.69" rx="51.83" ry="20.6"/><path class="cls-14" d="M584.6,809.63v-6c0-.51-.31-.91-.69-.91h-.47c-.38,0-.69.4-.69.91v6c0,.51.31.92.69.92h.47C584.29,810.55,584.6,810.14,584.6,809.63Z"/><path class="cls-14" d="M563.26,802.27v-6c0-.51-.31-.92-.7-.92h-.46c-.39,0-.7.41-.7.92v6c0,.51.31.92.7.92h.46C563,803.19,563.26,802.78,563.26,802.27Z"/><path class="cls-14" d="M574,807.23v-6c0-.51-.31-.92-.69-.92h-.47c-.38,0-.69.41-.69.92v6a.83.83,0,0,0,.69.91h.47A.83.83,0,0,0,574,807.23Z"/><path class="cls-14" d="M595.13,811.41v-6c0-.51-.31-.92-.69-.92H594c-.39,0-.7.41-.7.92v6a.83.83,0,0,0,.7.91h.46A.83.83,0,0,0,595.13,811.41Z"/><path class="cls-14" d="M605.94,811.83v-6a.83.83,0,0,0-.69-.91h-.47a.83.83,0,0,0-.69.91v6c0,.51.31.92.69.92h.47C605.63,812.75,605.94,812.34,605.94,811.83Z"/><path class="cls-14" d="M638.2,807.23v-6c0-.51-.31-.92-.69-.92h-.46c-.39,0-.7.41-.7.92v6a.83.83,0,0,0,.7.91h.46A.83.83,0,0,0,638.2,807.23Z"/><path class="cls-14" d="M616.86,811.41v-6c0-.51-.31-.92-.7-.92h-.46c-.38,0-.69.41-.69.92v6a.83.83,0,0,0,.69.91h.46A.83.83,0,0,0,616.86,811.41Z"/><path class="cls-14" d="M627.59,809.63v-6c0-.51-.31-.91-.69-.91h-.47c-.38,0-.69.4-.69.91v6c0,.51.31.92.69.92h.47C627.28,810.55,627.59,810.14,627.59,809.63Z"/><path class="cls-14" d="M648.74,802.27v-6c0-.51-.31-.92-.7-.92h-.46c-.39,0-.7.41-.7.92v6c0,.51.31.92.7.92H648C648.43,803.19,648.74,802.78,648.74,802.27Z"/><path class="cls-33" d="M657.06,760.18v15.67c0,11.37-23.2,20.59-51.83,20.59s-51.83-9.22-51.83-20.59V760.23l5,6.83c8.3-7,26.18-11.81,46.88-11.81s38.58,4.83,46.88,11.81Z"/><ellipse class="cls-34" cx="605.23" cy="759.1" rx="51.83" ry="20.6"/><path class="cls-14" d="M584.6,789v-6c0-.51-.31-.92-.69-.92h-.47c-.38,0-.69.41-.69.92v6a.83.83,0,0,0,.69.91h.47A.83.83,0,0,0,584.6,789Z"/><path class="cls-14" d="M563.26,781.68v-6a.83.83,0,0,0-.7-.91h-.46a.83.83,0,0,0-.7.91v6a.83.83,0,0,0,.7.91h.46A.83.83,0,0,0,563.26,781.68Z"/><path class="cls-14" d="M574,786.63v-6a.83.83,0,0,0-.69-.91h-.47a.83.83,0,0,0-.69.91v6c0,.51.31.92.69.92h.47C573.68,787.55,574,787.14,574,786.63Z"/><path class="cls-14" d="M595.13,790.81v-6a.83.83,0,0,0-.69-.91H594a.83.83,0,0,0-.7.91v6c0,.51.31.92.7.92h.46C594.82,791.73,595.13,791.32,595.13,790.81Z"/><path class="cls-14" d="M605.94,791.24v-6c0-.51-.31-.92-.69-.92h-.47c-.38,0-.69.41-.69.92v6a.83.83,0,0,0,.69.91h.47A.83.83,0,0,0,605.94,791.24Z"/><path class="cls-14" d="M638.2,786.63v-6a.83.83,0,0,0-.69-.91h-.46a.83.83,0,0,0-.7.91v6c0,.51.31.92.7.92h.46C637.89,787.55,638.2,787.14,638.2,786.63Z"/><path class="cls-14" d="M616.86,790.81v-6a.83.83,0,0,0-.7-.91h-.46a.83.83,0,0,0-.69.91v6c0,.51.31.92.69.92h.46C616.55,791.73,616.86,791.32,616.86,790.81Z"/><path class="cls-14" d="M627.59,789v-6c0-.51-.31-.92-.69-.92h-.47c-.38,0-.69.41-.69.92v6a.83.83,0,0,0,.69.91h.47A.83.83,0,0,0,627.59,789Z"/><path class="cls-14" d="M648.74,781.68v-6a.83.83,0,0,0-.7-.91h-.46a.83.83,0,0,0-.7.91v6a.83.83,0,0,0,.7.91H648A.83.83,0,0,0,648.74,781.68Z"/><path class="cls-35" d="M657.06,739.58v15.67c0,11.38-23.2,20.6-51.83,20.6s-51.83-9.22-51.83-20.6V739.64l5,6.82c8.3-7,26.18-11.8,46.88-11.8s38.58,4.82,46.88,11.8Z"/><ellipse class="cls-36" cx="605.23" cy="738.5" rx="51.83" ry="20.6"/><path class="cls-14" d="M584.6,768.44v-6c0-.51-.31-.92-.69-.92h-.47c-.38,0-.69.41-.69.92v6c0,.51.31.92.69.92h.47C584.29,769.36,584.6,769,584.6,768.44Z"/><path class="cls-14" d="M563.26,761.08v-6c0-.51-.31-.92-.7-.92h-.46c-.39,0-.7.41-.7.92v6c0,.51.31.92.7.92h.46C563,762,563.26,761.59,563.26,761.08Z"/><path class="cls-14" d="M574,766v-6c0-.51-.31-.92-.69-.92h-.47c-.38,0-.69.41-.69.92v6a.83.83,0,0,0,.69.91h.47A.83.83,0,0,0,574,766Z"/><path class="cls-14" d="M595.13,770.22v-6c0-.51-.31-.92-.69-.92H594c-.39,0-.7.41-.7.92v6a.83.83,0,0,0,.7.91h.46A.83.83,0,0,0,595.13,770.22Z"/><path class="cls-14" d="M605.94,770.64v-6a.83.83,0,0,0-.69-.91h-.47a.83.83,0,0,0-.69.91v6c0,.51.31.92.69.92h.47C605.63,771.56,605.94,771.15,605.94,770.64Z"/><path class="cls-14" d="M638.2,766v-6c0-.51-.31-.92-.69-.92h-.46c-.39,0-.7.41-.7.92v6a.83.83,0,0,0,.7.91h.46A.83.83,0,0,0,638.2,766Z"/><path class="cls-14" d="M616.86,770.22v-6c0-.51-.31-.92-.7-.92h-.46c-.38,0-.69.41-.69.92v6a.83.83,0,0,0,.69.91h.46A.83.83,0,0,0,616.86,770.22Z"/><path class="cls-14" d="M627.59,768.44v-6c0-.51-.31-.92-.69-.92h-.47c-.38,0-.69.41-.69.92v6c0,.51.31.92.69.92h.47C627.28,769.36,627.59,769,627.59,768.44Z"/><path class="cls-14" d="M648.74,761.08v-6c0-.51-.31-.92-.7-.92h-.46c-.39,0-.7.41-.7.92v6c0,.51.31.92.7.92H648C648.43,762,648.74,761.59,648.74,761.08Z"/><path class="cls-37" d="M657.06,719v15.67c0,11.37-23.2,20.59-51.83,20.59S553.4,746,553.4,734.66V719l5,6.83c8.3-7,26.18-11.81,46.88-11.81s38.58,4.83,46.88,11.81Z"/><ellipse class="cls-38" cx="605.23" cy="717.91" rx="51.83" ry="20.6"/><path class="cls-14" d="M584.6,747.85v-6a.83.83,0,0,0-.69-.91h-.47a.83.83,0,0,0-.69.91v6a.83.83,0,0,0,.69.91h.47A.83.83,0,0,0,584.6,747.85Z"/><path class="cls-14" d="M563.26,740.49v-6a.83.83,0,0,0-.7-.91h-.46a.83.83,0,0,0-.7.91v6a.83.83,0,0,0,.7.91h.46A.83.83,0,0,0,563.26,740.49Z"/><path class="cls-14" d="M574,745.44v-6a.83.83,0,0,0-.69-.91h-.47a.83.83,0,0,0-.69.91v6c0,.51.31.92.69.92h.47C573.68,746.36,574,746,574,745.44Z"/><path class="cls-14" d="M595.13,749.62v-6a.83.83,0,0,0-.69-.91H594a.83.83,0,0,0-.7.91v6c0,.51.31.92.7.92h.46C594.82,750.54,595.13,750.13,595.13,749.62Z"/><path class="cls-14" d="M605.94,750.05v-6c0-.51-.31-.92-.69-.92h-.47c-.38,0-.69.41-.69.92v6a.83.83,0,0,0,.69.91h.47A.83.83,0,0,0,605.94,750.05Z"/><path class="cls-14" d="M638.2,745.44v-6a.83.83,0,0,0-.69-.91h-.46a.83.83,0,0,0-.7.91v6c0,.51.31.92.7.92h.46C637.89,746.36,638.2,746,638.2,745.44Z"/><path class="cls-14" d="M616.86,749.62v-6a.83.83,0,0,0-.7-.91h-.46a.83.83,0,0,0-.69.91v6c0,.51.31.92.69.92h.46C616.55,750.54,616.86,750.13,616.86,749.62Z"/><path class="cls-14" d="M627.59,747.85v-6a.83.83,0,0,0-.69-.91h-.47a.83.83,0,0,0-.69.91v6a.83.83,0,0,0,.69.91h.47A.83.83,0,0,0,627.59,747.85Z"/><path class="cls-14" d="M648.74,740.49v-6a.83.83,0,0,0-.7-.91h-.46a.83.83,0,0,0-.7.91v6a.83.83,0,0,0,.7.91H648A.83.83,0,0,0,648.74,740.49Z"/></g></svg>