<svg id="Layer_1" data-name="Layer 1" xmlns="http://www.w3.org/2000/svg" viewBox="0 0 141.63 163.04"><defs><style>.cls-1{fill:#fff;}</style></defs><path class="cls-1" d="M78.57,70.87a7,7,0,0,0,2.25-.93,4.93,4.93,0,0,0,1.61-1.72,5.17,5.17,0,0,0,.6-2.57A4.61,4.61,0,0,0,82.35,63a4.66,4.66,0,0,0-1.75-1.61,8.38,8.38,0,0,0-2.43-.82,14.27,14.27,0,0,0-2.64-.25H68v10.8H76A11.44,11.44,0,0,0,78.57,70.87Z" transform="translate(-5.85 -3.1)"/><path class="cls-1" d="M82.25,81.59a11.59,11.59,0,0,0-2.93-.78,20.82,20.82,0,0,0-2.94-.22H68V92.1H78a12.33,12.33,0,0,0,2.61-.28,7,7,0,0,0,2.39-1A5.67,5.67,0,0,0,84.71,89a5.29,5.29,0,0,0,.68-2.79,4.52,4.52,0,0,0-.89-2.9A5.9,5.9,0,0,0,82.25,81.59Z" transform="translate(-5.85 -3.1)"/><path class="cls-1" d="M75.78,33.61a51,51,0,1,0,51.9,50.12A51,51,0,0,0,75.78,33.61ZM90,76.48a12,12,0,0,1,3.51,2.65,11.27,11.27,0,0,1,2.25,3.75,13.32,13.32,0,0,1,.79,4.58,12.19,12.19,0,0,1-1.72,6.68,13.48,13.48,0,0,1-4.43,4.33,19.65,19.65,0,0,1-6.12,2.36,33.08,33.08,0,0,1-6.75.71H56.8V50.92H75.67a47.61,47.61,0,0,1,6.61.47,18,18,0,0,1,6,1.86,11.31,11.31,0,0,1,4.29,3.89,11.93,11.93,0,0,1,1.65,6.65,10.63,10.63,0,0,1-2.4,7.12,13.24,13.24,0,0,1-6.33,4v.14A14.43,14.43,0,0,1,90,76.48Zm10.54,33.84v8H52.8v-8Z" transform="translate(-5.85 -3.1)"/><path class="cls-1" d="M77.11,166.14,6.29,125.76,5.85,44.24,76.23,3.1l70.82,40.38.44,81.52ZM16.26,119.93l60.79,34.66,60.41-35.31-.38-70L76.29,14.64,15.89,50Z" transform="translate(-5.85 -3.1)"/><rect class="cls-1" x="122.97" y="45.92" width="21.62" height="10" transform="translate(-13.07 72.53) rotate(-30.78)"/><rect class="cls-1" x="66.22" y="137.25" width="10" height="21.02"/><rect class="cls-1" x="14.2" y="40.68" width="10" height="21.48" transform="translate(-40.83 39.51) rotate(-60.28)"/></svg>