<?xml version="1.0" encoding="UTF-8"?>
<svg id="Layer_1" data-name="Layer 1" xmlns="http://www.w3.org/2000/svg" viewBox="0 0 1429.42 486.09">
  <defs>
    <style>
      .cls-1 {
        fill: #fff;
        stroke-width: 0px;
      }
    </style>
  </defs>
  <path class="cls-1" d="M213.99,197.39c2.5-.57,4.75-1.5,6.75-2.78,2-1.28,3.6-3,4.82-5.14,1.21-2.14,1.82-4.71,1.82-7.71s-.68-5.75-2.03-7.82c-1.36-2.07-3.11-3.68-5.25-4.82-2.14-1.14-4.57-1.96-7.28-2.46-2.71-.5-5.35-.75-7.92-.75h-22.7v32.34h24.2c2.57,0,5.1-.29,7.6-.86Z"/>
  <path class="cls-1" d="M634.99,186.8h51.49l8.89,27.15h27.92l-44.35-133.71h-35.46l-44.25,133.71h27.05l8.69-27.15ZM660.78,107.67l17.97,55.26h-36.04l18.07-55.26Z"/>
  <path class="cls-1" d="M574.32,204.62c9.21-6.21,13.82-16.02,13.82-29.42,0-9.53-2.56-17.07-7.68-22.61-5.12-5.54-13.28-9.08-24.49-10.63,8.57-1.74,14.86-5.18,18.89-10.34,4.02-5.15,6.04-11.88,6.04-20.19,0-10.82-3.7-18.73-11.11-23.72-7.41-4.99-19.68-7.49-36.81-7.49h-47.24v133.71h50.24c16.36,0,29.14-3.11,38.35-9.32ZM512.97,103.91h17.39c7.86,0,13.65.98,17.39,2.95,3.73,1.96,5.6,5.49,5.6,10.58,0,5.6-1.95,9.53-5.84,11.79-3.9,2.26-9.87,3.38-17.92,3.38h-16.62v-28.69ZM512.97,189.79v-33.43h18.45c11.14,0,18.74,1.24,22.8,3.72,4.06,2.48,6.09,6.72,6.09,12.7,0,4.38-.92,7.79-2.75,10.24-1.84,2.45-4.77,4.19-8.79,5.22-4.03,1.03-11.35,1.54-21.98,1.54h-13.82Z"/>
  <polygon class="cls-1" points="1190.4 189.02 1130.8 189.02 1130.8 156.95 1181.03 156.95 1181.03 132.79 1130.8 132.79 1130.8 104.29 1190.4 104.29 1190.4 80.23 1103.55 80.23 1103.55 213.95 1190.4 213.95 1190.4 189.02"/>
  <path class="cls-1" d="M1395.27,188.78c-4.15,2.55-9.94,3.82-17.34,3.82-4.96,0-9.34-.61-13.14-1.83-3.8-1.22-7.09-2.93-9.85-5.12-2.77-2.19-5.7-5.47-8.79-9.85l-20.96,16.04c5.47,8.76,12.57,15.11,21.3,19.03,8.73,3.93,19.02,5.89,30.87,5.89,17.13,0,30.09-3.58,38.89-10.72,8.79-7.15,13.19-17.42,13.19-30.82,0-7.66-1.32-13.94-3.96-18.84-2.64-4.89-6.14-8.86-10.48-11.88-4.35-3.03-9.29-5.39-14.83-7.1-5.54-1.71-11.14-3.3-16.81-4.78-10.24-2.32-17.42-4.62-21.54-6.91-4.12-2.29-6.18-5.59-6.18-9.9,0-4.9,1.98-8.49,5.94-10.77,3.96-2.28,9.1-3.43,15.41-3.43s11.75,1.22,16.33,3.67c4.57,2.45,8.7,6.51,12.37,12.17l20.77-16.23c-9.6-15.84-25.96-23.77-49.08-23.77-15.97,0-28.25,3.56-36.81,10.67-8.57,7.12-12.85,17.02-12.85,29.71,0,6.95,1.29,12.72,3.86,17.29,2.58,4.57,6.1,8.37,10.58,11.4,4.48,3.03,9.79,5.49,15.94,7.39,6.15,1.9,12.7,3.79,19.66,5.65,7.15,1.87,12.17,3.53,15.07,4.98,2.9,1.45,5.07,3.17,6.52,5.17,1.45,2,2.17,4.48,2.17,7.44,0,5.22-2.08,9.1-6.23,11.64Z"/>
  <polygon class="cls-1" points="769.95 118.4 818.64 213.95 850.72 213.95 850.72 80.23 823.95 80.23 823.95 170.37 778.64 80.23 743.28 80.23 743.28 213.95 769.95 213.95 769.95 118.4"/>
  <polygon class="cls-1" points="903.86 167.48 911.98 158.1 948.98 213.95 982.99 213.95 929.56 137.82 979.41 80.23 947.63 80.23 903.86 132.41 903.86 80.23 876.62 80.23 876.62 213.95 903.86 213.95 903.86 167.48"/>
  <polygon class="cls-1" points="1083.75 189.02 1027.52 189.02 1027.52 80.23 1000.28 80.23 1000.28 213.95 1083.75 213.95 1083.75 189.02"/>
  <polygon class="cls-1" points="1220.72 336.49 1183.05 267.93 1149.13 267.93 1149.13 412.36 1177.52 412.36 1177.52 315.31 1211.74 375.63 1228.76 375.63 1263.4 315.31 1263.4 412.36 1291.89 412.36 1291.89 267.93 1258.7 267.93 1220.72 336.49"/>
  <polygon class="cls-1" points="1032.27 412.36 1126.08 412.36 1126.08 385.44 1061.7 385.44 1061.7 350.79 1115.96 350.79 1115.96 324.7 1061.7 324.7 1061.7 293.92 1126.08 293.92 1126.08 267.93 1032.27 267.93 1032.27 412.36"/>
  <path class="cls-1" d="M981.19,275.34c-10.05-4.94-23.6-7.41-40.64-7.41h-43.62v144.42h44.04c17.53,0,31.13-2.4,40.8-7.2,9.67-4.8,16.9-12.49,21.71-23.06,4.8-10.57,7.2-24.56,7.2-41.95s-2.4-31.22-7.2-41.69c-4.8-10.47-12.23-18.17-22.28-23.11ZM976.55,368.01c-2.5,6.26-6.7,10.73-12.57,13.41-5.88,2.68-14.63,4.02-26.24,4.02h-11.27v-90.58h11.27c11.62,0,20.38,1.32,26.3,3.97,5.91,2.65,10.1,7.01,12.57,13.1,2.47,6.09,3.7,15.43,3.7,28.02s-1.25,21.81-3.76,28.07Z"/>
  <path class="cls-1" d="M790.69,267.93l-47.79,144.42h29.22l9.39-29.32h55.62l9.6,29.32h30.16l-47.9-144.42h-38.3ZM789.86,357.26l19.51-59.69,19.41,59.69h-38.92Z"/>
  <path class="cls-1" d="M219.98,260.13c2.64-.57,5.03-1.57,7.17-3,2.14-1.43,3.89-3.28,5.25-5.57,1.36-2.28,2.03-5.07,2.03-8.35,0-3.57-.89-6.46-2.68-8.67-1.78-2.21-4.03-3.89-6.75-5.03-2.71-1.14-5.64-1.93-8.78-2.36-3.14-.43-6.07-.64-8.78-.64h-25.27v34.48h29.98c2.57,0,5.18-.29,7.82-.86Z"/>
  <polygon class="cls-1" points="1369.63 328.35 1341.46 267.93 1309.32 267.93 1354.5 357.89 1354.5 412.36 1384.13 412.36 1384.13 357.26 1429.42 267.93 1398.43 267.93 1369.63 328.35"/>
  <path class="cls-1" d="M1306.73,156.37c-2.64-4.89-6.14-8.86-10.48-11.88-4.35-3.03-9.29-5.39-14.83-7.1-5.54-1.71-11.14-3.3-16.81-4.78-10.24-2.32-17.42-4.62-21.54-6.91-4.12-2.29-6.18-5.59-6.18-9.9,0-4.9,1.98-8.49,5.94-10.77,3.96-2.28,9.1-3.43,15.41-3.43s11.75,1.22,16.33,3.67c4.57,2.45,8.7,6.51,12.37,12.17l20.77-16.23c-9.6-15.84-25.96-23.77-49.08-23.77-15.97,0-28.25,3.56-36.81,10.67-8.57,7.12-12.85,17.02-12.85,29.71,0,6.95,1.29,12.72,3.86,17.29,2.58,4.57,6.1,8.37,10.58,11.4,4.48,3.03,9.79,5.49,15.94,7.39,6.15,1.9,12.7,3.79,19.66,5.65,7.15,1.87,12.17,3.53,15.07,4.98,2.9,1.45,5.07,3.17,6.52,5.17,1.45,2,2.17,4.48,2.17,7.44,0,5.22-2.08,9.1-6.23,11.64-4.15,2.55-9.94,3.82-17.34,3.82-4.96,0-9.34-.61-13.14-1.83-3.8-1.22-7.09-2.93-9.85-5.12-2.77-2.19-5.7-5.47-8.79-9.85l-20.96,16.04c5.47,8.76,12.57,15.11,21.3,19.03,8.73,3.93,19.02,5.89,30.87,5.89,17.13,0,30.09-3.58,38.89-10.72,8.79-7.15,13.19-17.42,13.19-30.82,0-7.66-1.32-13.94-3.96-18.84Z"/>
  <path class="cls-1" d="M694.84,384.39c-4.77,3.27-11.43,4.9-19.98,4.9-12.73,0-22-4.07-27.81-12.21-5.81-8.14-8.71-20.45-8.71-36.94,0-17.67,3.09-30.28,9.29-37.83,6.19-7.55,15.2-11.32,27.03-11.32,4.94,0,9.18.56,12.73,1.67,3.55,1.11,6.71,2.78,9.5,5.01,2.78,2.23,5.84,5.84,9.18,10.85l22.85-17.74c-4.66-7.72-11.44-13.97-20.35-18.73-8.91-4.77-20.42-7.15-34.54-7.15-21.36,0-37.71,6.12-49.05,18.36-11.34,12.25-17.01,31.2-17.01,56.87,0,50.16,22.36,75.23,67.1,75.23,13.15,0,24.23-2.17,33.24-6.52,9.01-4.35,16.61-11.15,22.8-20.4l-23.27-17.11c-3.9,5.43-8.23,9.78-12.99,13.04Z"/>
  <path class="cls-1" d="M208.88,96.86c-80.74,1.41-145.05,68.01-143.64,148.74,1.41,80.74,68.01,145.05,148.74,143.64,80.74-1.41,145.05-68.01,143.64-148.74-1.41-80.74-68.01-145.05-148.74-143.64ZM148.78,137.64h56.54c6.57,0,13.17.46,19.81,1.39,6.64.93,12.6,2.78,17.88,5.57,5.28,2.78,9.57,6.67,12.85,11.67,3.28,5,4.93,11.64,4.93,19.92s-2.39,15.67-7.17,21.31c-4.78,5.64-11.1,9.67-18.95,12.1v.43c5,.71,9.53,2.11,13.6,4.18,4.07,2.07,7.57,4.71,10.49,7.92,2.93,3.21,5.18,6.96,6.75,11.24,1.57,4.28,2.36,8.85,2.36,13.71,0,8-1.71,14.67-5.14,20.02-3.43,5.35-7.85,9.67-13.28,12.96-5.43,3.28-11.53,5.64-18.31,7.07-6.78,1.43-13.53,2.14-20.24,2.14h-62.1v-151.62ZM279.82,339.49h-143.01v-23.93h143.01v23.93Z"/>
  <path class="cls-1" d="M419.32,118.92L214.99.95c-2.2-1.27-4.91-1.27-7.11,0L3.55,118.92c-2.2,1.27-3.55,3.62-3.55,6.16v235.94c0,2.54,1.36,4.89,3.55,6.16l204.33,117.97c2.2,1.27,4.91,1.27,7.11,0l204.33-117.97c2.2-1.27,3.55-3.62,3.55-6.16V125.08c0-2.54-1.36-4.89-3.55-6.16ZM392.49,343.31c0,2.64-1.41,5.08-3.69,6.4l-160.1,92.43v-34.17s-8.89.89-17.27.89-17.27-.89-17.27-.89v34.17l-160.1-92.43c-2.29-1.32-3.69-3.76-3.69-6.4v-183.44l28.74,16.59s2.47-6.05,7.86-15.4c5.4-9.35,9.4-14.51,9.4-14.51l-29.97-17.3L207.74,36.11c2.29-1.32,5.1-1.32,7.39,0l161.4,93.19-29.9,17.26s4,5.16,9.4,14.51c5.4,9.35,7.86,15.4,7.86,15.4l28.59-16.51v183.35Z"/>
  <path class="cls-1" d="M514.16,267.93l-47.79,144.42h29.22l9.39-29.32h55.62l9.6,29.32h30.16l-47.9-144.42h-38.3ZM513.33,357.26l19.51-59.69,19.41,59.69h-38.92Z"/>
</svg>