<svg id="Layer_1" data-name="Layer 1" xmlns="http://www.w3.org/2000/svg" viewBox="0 0 478.54 163.04"><defs><style>.cls-1{fill:#fff;}</style></defs><path class="cls-1" d="M229.22,82.67q0,6.74-4.62,9.85t-12.84,3.12H194.94V50.88h15.82q8.6,0,12.32,2.51c2.48,1.67,3.72,4.31,3.72,7.94a10.73,10.73,0,0,1-2,6.76,10.34,10.34,0,0,1-6.33,3.46c3.76.51,6.49,1.7,8.2,3.55A10.7,10.7,0,0,1,229.22,82.67ZM217.58,63.33a3.65,3.65,0,0,0-1.87-3.54,13.09,13.09,0,0,0-5.83-1h-5.82v9.61h5.57a12.36,12.36,0,0,0,6-1.13A4.17,4.17,0,0,0,217.58,63.33Zm2.33,18.53a4.58,4.58,0,0,0-2-4.25q-2-1.24-7.63-1.25h-6.18V87.55h4.63A35,35,0,0,0,216,87a5.16,5.16,0,0,0,3-1.75A5.64,5.64,0,0,0,219.91,81.86Z" transform="translate(-32.31 -24.41)"/><path class="cls-1" d="M232.94,95.64l14.82-44.76h11.86l14.85,44.76h-9.35l-3-9.09H244.91L242,95.64ZM247.5,78.56h12.06l-6-18.49Z" transform="translate(-32.31 -24.41)"/><path class="cls-1" d="M306.39,95.64l-16.3-32v32h-8.93V50.88H293l15.17,30.17V50.88h8.95V95.64Z" transform="translate(-32.31 -24.41)"/><path class="cls-1" d="M350,95.64,337.63,77l-2.71,3.13V95.64h-9.13V50.88h9.13V68.34l14.65-17.46h10.64L343.52,70.16,361.4,95.64Z" transform="translate(-32.31 -24.41)"/><path class="cls-1" d="M367.19,95.64V50.88h9.12V87.3h18.82v8.34Z" transform="translate(-32.31 -24.41)"/><path class="cls-1" d="M401.76,95.64V50.88h29.08v8h-20v9.54H427.7v8.09H410.88V87.3h20v8.34Z" transform="translate(-32.31 -24.41)"/><path class="cls-1" d="M471.1,82.67c0,4.49-1.47,7.92-4.41,10.32s-7.29,3.59-13,3.59a25.05,25.05,0,0,1-10.33-2,16.08,16.08,0,0,1-7.13-6.38l7-5.36a16,16,0,0,0,2.95,3.29,10.18,10.18,0,0,0,3.29,1.72,14.4,14.4,0,0,0,4.4.61,11.16,11.16,0,0,0,5.81-1.27,4.28,4.28,0,0,0,2.08-3.9,4.17,4.17,0,0,0-.72-2.49,5.87,5.87,0,0,0-2.19-1.73,28.86,28.86,0,0,0-5-1.67q-3.49-.93-6.58-1.89a20.28,20.28,0,0,1-5.34-2.47,11.23,11.23,0,0,1-3.54-3.82,11.7,11.7,0,0,1-1.29-5.79q0-6.37,4.3-9.94t12.32-3.58q11.61,0,16.43,8l-7,5.43a10.4,10.4,0,0,0-9.6-5.3,10.22,10.22,0,0,0-5.16,1.15,3.86,3.86,0,0,0-2,3.6,3.62,3.62,0,0,0,2.07,3.32,30.61,30.61,0,0,0,7.21,2.31q2.85.75,5.63,1.6a17.59,17.59,0,0,1,5,2.38,11.43,11.43,0,0,1,3.51,4A13.3,13.3,0,0,1,471.1,82.67Z" transform="translate(-32.31 -24.41)"/><path class="cls-1" d="M510.85,82.67c0,4.49-1.47,7.92-4.42,10.32s-7.28,3.59-13,3.59a25.1,25.1,0,0,1-10.34-2A16.13,16.13,0,0,1,476,88.23l7-5.36a16,16,0,0,0,2.94,3.29,10.34,10.34,0,0,0,3.3,1.72,14.35,14.35,0,0,0,4.4.61,11.18,11.18,0,0,0,5.81-1.27,4.28,4.28,0,0,0,2.08-3.9,4.1,4.1,0,0,0-.73-2.49,5.75,5.75,0,0,0-2.18-1.73,28.86,28.86,0,0,0-5-1.67q-3.49-.93-6.59-1.89a20.36,20.36,0,0,1-5.33-2.47,11.23,11.23,0,0,1-3.54-3.82,11.59,11.59,0,0,1-1.3-5.79q0-6.37,4.3-9.94t12.33-3.58q11.61,0,16.43,8l-7,5.43a11.59,11.59,0,0,0-4.14-4.07A11.4,11.4,0,0,0,493.29,58a10.16,10.16,0,0,0-5.16,1.15,3.84,3.84,0,0,0-2,3.6,3.62,3.62,0,0,0,2.07,3.32,30.44,30.44,0,0,0,7.21,2.31c1.9.5,3.77,1,5.63,1.6a17.53,17.53,0,0,1,5,2.38,11.23,11.23,0,0,1,3.51,4A13.18,13.18,0,0,1,510.85,82.67Z" transform="translate(-32.31 -24.41)"/><path class="cls-1" d="M188.46,162.06l16-48.35h12.82l16,48.35h-10.1L220,152.24H201.39l-3.15,9.82Zm15.72-18.45h13l-6.49-20Z" transform="translate(-32.31 -24.41)"/><path class="cls-1" d="M277.08,154.06a19.17,19.17,0,0,1-7.63,6.83,25.51,25.51,0,0,1-11.12,2.18q-22.47,0-22.47-25.18,0-12.9,5.7-19T258,112.7q7.08,0,11.56,2.39a17.27,17.27,0,0,1,6.81,6.27l-7.65,5.94a16.11,16.11,0,0,0-3.07-3.63,9.61,9.61,0,0,0-3.18-1.68,14.43,14.43,0,0,0-4.26-.56q-5.94,0-9.05,3.79T246,137.89q0,8.28,2.92,12.36t9.31,4.09A11.77,11.77,0,0,0,265,152.7a17.84,17.84,0,0,0,4.34-4.37Z" transform="translate(-32.31 -24.41)"/><path class="cls-1" d="M281,162.06l16-48.35h12.82l16,48.35h-10.1l-3.21-9.82H294l-3.15,9.82Zm15.72-18.45h13l-6.5-20Z" transform="translate(-32.31 -24.41)"/><path class="cls-1" d="M370.67,137.89q0,8.73-2.41,14a15.4,15.4,0,0,1-7.27,7.72c-3.23,1.61-7.79,2.41-13.65,2.41H332.59V113.71H347.2q8.55,0,13.6,2.48a15.62,15.62,0,0,1,7.46,7.74Q370.68,129.2,370.67,137.89Zm-10.17-.07q0-6.33-1.24-9.38a7.87,7.87,0,0,0-4.2-4.39c-2-.88-4.92-1.33-8.81-1.33h-3.77v30.33h3.77q5.83,0,8.79-1.35a8,8,0,0,0,4.21-4.49C360.09,145.12,360.5,142,360.5,137.82Z" transform="translate(-32.31 -24.41)"/><path class="cls-1" d="M377.9,162.06V113.71h31.4v8.7H387.75v10.31h18.16v8.73H387.75v11.6H409.3v9Z" transform="translate(-32.31 -24.41)"/><path class="cls-1" d="M455.27,162.06V129.57l-11.6,20.19H438l-11.46-20.19v32.49H417V113.71h11.35l12.61,23,12.72-23h11.11v48.35Z" transform="translate(-32.31 -24.41)"/><path class="cls-1" d="M495.69,143.61v18.45h-9.92V143.82l-15.13-30.11H481.4l9.43,20.23,9.64-20.23h10.38Z" transform="translate(-32.31 -24.41)"/><path class="cls-1" d="M105,92.18a7,7,0,0,0,2.25-.93,4.75,4.75,0,0,0,1.61-1.72,5.07,5.07,0,0,0,.61-2.57,4.69,4.69,0,0,0-.68-2.61,4.74,4.74,0,0,0-1.75-1.61,8.59,8.59,0,0,0-2.43-.82,14.38,14.38,0,0,0-2.65-.25H94.4V92.46h8.08A11.36,11.36,0,0,0,105,92.18Z" transform="translate(-32.31 -24.41)"/><path class="cls-1" d="M108.7,102.9a11.37,11.37,0,0,0-2.93-.78,20.79,20.79,0,0,0-2.93-.22H94.4v11.51h10a12.33,12.33,0,0,0,2.61-.28,7.1,7.1,0,0,0,2.4-1,5.77,5.77,0,0,0,1.75-1.86,5.44,5.44,0,0,0,.68-2.79,4.47,4.47,0,0,0-.9-2.9A5.57,5.57,0,0,0,108.7,102.9Z" transform="translate(-32.31 -24.41)"/><path class="cls-1" d="M102.23,54.92A51,51,0,1,0,154.13,105,51,51,0,0,0,102.23,54.92Zm14.23,42.87a12,12,0,0,1,3.5,2.65,11.1,11.1,0,0,1,2.25,3.75,13.08,13.08,0,0,1,.79,4.58,12.13,12.13,0,0,1-1.72,6.68,13.48,13.48,0,0,1-4.43,4.33,19.43,19.43,0,0,1-6.11,2.35,32.51,32.51,0,0,1-6.76.72H83.25V72.23h18.87a47.75,47.75,0,0,1,6.62.47,18.15,18.15,0,0,1,6,1.86A11.38,11.38,0,0,1,119,78.45a12,12,0,0,1,1.64,6.65,10.63,10.63,0,0,1-2.39,7.11,13.15,13.15,0,0,1-6.33,4v.15A14.51,14.51,0,0,1,116.46,97.79ZM127,131.63v8H79.25v-8Z" transform="translate(-32.31 -24.41)"/><path class="cls-1" d="M103.56,187.44,32.75,147.07l-.44-81.52,70.38-41.14L173.5,64.79l.44,81.51Zm-60.84-46.2L103.5,175.9l60.41-35.31-.38-70L102.75,36,42.34,71.27Z" transform="translate(-32.31 -24.41)"/><rect class="cls-1" x="149.42" y="67.23" width="21.62" height="10" transform="translate(-46.7 67.76) rotate(-30.78)"/><rect class="cls-1" x="66.22" y="137.25" width="10" height="21.02"/><rect class="cls-1" x="40.65" y="61.99" width="10" height="21.48" transform="translate(-72.45 51.92) rotate(-60.28)"/></svg>