<svg width="24" height="24" viewBox="0 0 24 24" fill="none" xmlns="http://www.w3.org/2000/svg"><path fill-rule="evenodd" clip-rule="evenodd" d="M4.9782 15.2552C5.62726 10.9152 8.65163 7.85002 12 7.85002C14.8124 7.85002 17.3962 10.0125 18.536 13.2764C18.9894 13.098 19.4832 13 20 13C20.0765 13 20.1524 13.0022 20.2278 13.0064C18.9535 9.06158 15.8403 6.15002 12 6.15002C7.49656 6.15002 3.99305 10.1539 3.28221 15.1327C2.53224 15.4212 2 16.1484 2 17C2 18.1046 2.89543 19 4 19C5.10457 19 6 18.1046 6 17C6 16.2508 5.588 15.5978 4.9782 15.2552ZM20 19C21.1046 19 22 18.1046 22 17C22 15.8955 21.1046 15 20 15C18.8954 15 18 15.8955 18 17C18 18.1046 18.8954 19 20 19Z" fill="white"></path></svg>
