<svg fill="#FFFFFF" xmlns="http://www.w3.org/2000/svg"  viewBox="0 0 72 72" width="64px" height="64px"><path d="M54.657,19.077c0,0,8.343,9.663,8.343,27.069v3.65c0,0-10.536,6.866-13.747,6.866l-3.115-4.529	c1.936-0.867,4.577-2.372,4.577-2.372l-0.965-0.747c0,0-6.173,2.86-13.749,2.86s-13.749-2.86-13.749-2.86l-0.965,0.747	c0,0,2.641,1.505,4.577,2.372l-3.115,4.529C19.536,56.662,9,49.796,9,49.796v-3.65c0-17.406,8.343-27.069,8.343-27.069	s5.707-2.762,10.977-3.489l1.635,3.1c0,0,2.599-0.602,6.045-0.602s6.045,0.602,6.045,0.602l1.635-3.1	C48.95,16.315,54.657,19.077,54.657,19.077z M27.01,43.603c2.656,0,4.808-2.418,4.808-5.401c0-2.983-2.153-5.401-4.808-5.401	s-4.808,2.418-4.808,5.401C22.202,41.185,24.354,43.603,27.01,43.603z M44.99,43.603c2.656,0,4.808-2.418,4.808-5.401	c0-2.983-2.153-5.401-4.808-5.401c-2.656,0-4.808,2.418-4.808,5.401C40.182,41.185,42.334,43.603,44.99,43.603z"/></svg>