<svg xmlns="http://www.w3.org/2000/svg" fill="none" viewBox="0 0 202 231" height="20px"><path fill="white" d="M98.36 2.803 34.834 107.327a1.405 1.405 0 0 1-2.273.178c-5.593-6.641-26.427-34.89-.647-60.638C55.44 23.373 85.405 6.621 96.51.832c1.26-.657 2.587.758 1.85 1.971M94.846 230.385c1.268.888 2.83-.626 1.98-1.918-14.189-21.581-61.355-93.386-67.87-104.165C22.529 113.67 9.89 96.001 8.836 80.884c-.106-1.509-2.193-1.815-2.718-.396a94 94 0 0 0-2.588 8.141c-10.604 39.394 4.797 81.197 38.245 104.609l53.07 37.148zM103.571 228.526l63.524-104.523a1.405 1.405 0 0 1 2.274-.178c5.592 6.64 26.427 34.89.646 60.638-23.525 23.494-53.489 40.246-64.594 46.035-1.26.657-2.587-.758-1.85-1.972M107.154.93c-1.268-.887-2.83.627-1.98 1.919 14.189 21.581 61.355 93.386 67.87 104.165 6.427 10.632 19.066 28.301 20.121 43.418.105 1.509 2.192 1.815 2.717.396a94 94 0 0 0 2.588-8.141c10.604-39.394-4.797-81.197-38.245-104.609z"></path></svg>
