  <svg width="49" height="51" viewBox="0 0 49 51" fill="none" xmlns="http://www.w3.org/2000/svg">
<path d="M13.3669 35.3803C11.4539 32.0573 11.4647 28.1552 13.041 24.9607L5.48517 20.5871C5.29814 20.4798 5.12715 20.3566 4.94546 20.2387C4.84927 20.8282 4.78516 21.4231 4.78516 22.0395V39.5397C4.78516 45.6338 9.7066 50.5703 15.7822 50.5703C21.6388 50.5703 26.416 45.9715 26.7473 40.1775C21.7991 42.0481 16.0869 40.1239 13.3563 35.375L13.3669 35.3803Z" fill="#6F3FF5"/>
<path d="M15.793 11.0089C19.619 11.0089 22.9801 12.9706 24.9518 15.94L32.5077 11.5663C32.6948 11.4591 32.8871 11.368 33.0795 11.2714C32.6199 10.8963 32.1337 10.5425 31.6047 10.2317L16.493 1.47895C11.2349 -1.56547 4.50731 0.240816 1.47216 5.51496C-1.45614 10.6015 0.125566 17.0495 4.96152 20.2333C5.82183 15.002 10.3372 11.0035 15.7984 11.0035L15.793 11.0089Z" fill="#FFCC00"/>
<path d="M13.0464 24.9606C13.9762 23.0793 15.4456 21.4391 17.3961 20.3135L24.9519 15.9346C22.9801 12.9652 19.6136 11.0034 15.793 11.0034C10.3318 11.0034 5.81115 15.0019 4.95618 20.2332C5.13252 20.351 5.30886 20.4743 5.49588 20.5815L13.0518 24.9552L13.0464 24.9606Z" fill="#8C65F7"/>
<path d="M47.5286 15.5969C44.6003 10.5104 38.2415 8.66119 33.0742 11.2662C37.162 14.6267 38.3536 20.5548 35.6231 25.2984C33.71 28.6215 30.3383 30.5618 26.7847 30.7922V39.5395C26.7847 39.754 26.7634 39.9684 26.7527 40.1828C27.3085 39.9738 27.8588 39.7272 28.3879 39.4217L43.4995 30.669C48.7576 27.6245 50.5638 20.8764 47.5232 15.6023L47.5286 15.5969Z" fill="#02E2AC"/>
<path d="M26.7901 30.7924C24.7007 30.9263 22.5525 30.4653 20.6022 29.3398L13.0463 24.9607C11.4646 28.1553 11.4592 32.0626 13.3722 35.3804C16.1028 40.1239 21.8151 42.0535 26.7633 40.1828C26.7739 39.9685 26.7953 39.7594 26.7953 39.5397V30.7924H26.7901Z" fill="#5BF1CD"/>
<path d="M24.9518 15.9346C26.1114 17.682 26.7901 19.7777 26.7901 22.0342V30.7869C30.3382 30.5618 33.7153 28.6162 35.6283 25.293C38.3588 20.5495 37.1672 14.6268 33.0795 11.2608C32.8871 11.3573 32.6947 11.4431 32.5076 11.5555L24.9518 15.9293V15.9346Z" fill="#FFDB4C"/>
<path d="M24.9519 15.9347L17.3961 20.3138C15.4456 21.4446 13.9762 23.0795 13.0464 24.9608L20.6022 29.3398C22.5527 30.4707 24.7007 30.9263 26.7901 30.7924V22.0397C26.7901 19.7831 26.1115 17.6874 24.9519 15.9401V15.9347Z" fill="white"/>
</svg>
