<svg width="68" height="68" viewBox="0 0 68 68" fill="none" xmlns="http://www.w3.org/2000/svg">
<path d="M28.7569 66.4661L1.78656 50.895C1.17918 50.5441 0.804932 49.8962 0.804932 49.1943V18.0521C0.804932 17.3502 1.17918 16.7023 1.78656 16.3514L28.7569 0.78029C29.3642 0.429357 30.1127 0.429357 30.7201 0.78029L57.6904 16.3514C58.2978 16.7023 58.6721 17.3502 58.6721 18.0521V49.1943C58.6721 49.8962 58.2978 50.5441 57.6904 50.895L30.7201 66.4661C30.1127 66.817 29.3642 66.817 28.7569 66.4661ZM6.69471 48.0617L28.7569 60.7996C29.3642 61.1506 30.1127 61.1506 30.7201 60.7996L52.7823 48.0617C53.3897 47.7108 53.7639 47.0629 53.7639 46.3611V20.8865C53.7639 20.1847 53.3897 19.5368 52.7823 19.1859L30.7201 6.44799C30.1127 6.09705 29.3642 6.09705 28.7569 6.44799L6.69471 19.1859C6.08733 19.5368 5.71308 20.1847 5.71308 20.8865V46.3611C5.71308 47.0629 6.08733 47.7108 6.69471 48.0617Z" fill="url(#paint0_linear_1401_1288)"/>
<path d="M28.7565 10.9539L10.5964 21.4389C9.98899 21.7899 9.61475 22.4377 9.61475 23.1396V42.9759C9.61475 44.3784 10.3632 45.6754 11.578 46.376L13.7867 47.6509C14.1143 47.8399 14.5229 47.6043 14.5229 47.2264V25.9741C14.5229 25.2722 14.8971 24.6243 15.5045 24.2734L28.7565 16.6228C29.3639 16.2719 30.1124 16.2719 30.7198 16.6228L43.9718 24.2734C44.5792 24.6243 44.9534 25.2722 44.9534 25.9741V41.2765C44.9534 41.9783 44.5792 42.6262 43.9718 42.9771L30.7198 50.6277C30.1124 50.9786 29.3639 50.9786 28.7565 50.6277L24.3392 48.0779C23.7318 47.727 23.3576 47.0791 23.3576 46.3773V31.0749C23.3576 30.373 23.7318 29.7251 24.3392 29.3742L28.7565 26.8244C29.3639 26.4735 30.1124 26.4735 30.7198 26.8244L35.1371 29.3742C35.7445 29.7251 36.1188 30.373 36.1188 31.0749V36.1757C36.1188 36.8775 35.7445 37.5254 35.1371 37.8763L32.9285 39.1512C32.6008 39.3402 32.1922 39.1046 32.1922 38.7267V35.5891V33.3768C32.1922 32.6749 31.818 32.0271 31.2106 31.6761L30.229 31.1092C29.9247 30.9338 29.5517 30.9338 29.2474 31.1092L28.0203 31.8172C27.5651 32.0798 27.2841 32.5669 27.2841 33.0921V33.6234V44.1306C27.2841 44.8349 27.662 45.4852 28.2731 45.8349L28.7467 46.1049C29.3529 46.4509 30.0977 46.4496 30.7026 46.0999L40.0453 40.7059C40.6527 40.355 41.0269 39.7071 41.0269 39.0052V28.2367C41.0269 27.5349 40.6527 26.887 40.0453 26.5361L30.7198 21.1518C30.1124 20.8009 29.3639 20.8009 28.7565 21.1518L19.431 26.5361C18.8237 26.887 18.4494 27.5349 18.4494 28.2367V49.2056C18.4494 49.9074 18.8237 50.5553 19.431 50.9063L28.7565 56.2905C29.3639 56.6414 30.1124 56.6414 30.7198 56.2905L48.88 45.8055C49.4873 45.4545 49.8616 44.8066 49.8616 44.1048V23.1359C49.8616 22.4341 49.4873 21.7862 48.88 21.4352L30.7198 10.9502C30.1124 10.5993 29.3639 10.5993 28.7565 10.9502V10.9539Z" fill="url(#paint1_linear_1401_1288)"/>
<defs>
<linearGradient id="paint0_linear_1401_1288" x1="13.1406" y1="1.89789" x2="43.2173" y2="65.6869" gradientUnits="userSpaceOnUse">
<stop stop-color="#4A47D3"/>
<stop offset="1" stop-color="#6CB6AD"/>
</linearGradient>
<linearGradient id="paint1_linear_1401_1288" x1="18.1943" y1="11.6435" x2="38.9759" y2="55.8959" gradientUnits="userSpaceOnUse">
<stop stop-color="#4A47D3"/>
<stop offset="1" stop-color="#6CB6AD"/>
</linearGradient>
</defs>
</svg>
