<svg width="67" height="66" viewBox="0 0 67 66" fill="none" xmlns="http://www.w3.org/2000/svg">
<g clip-path="url(#clip0_5459_2841)">
<path d="M54.8172 49.4686L44.5073 39.0834C44.4823 39.0582 44.4574 39.0377 44.4324 39.0148C46.1651 36.2803 47.1721 33.0341 47.1721 29.548C47.1743 19.8093 39.3365 11.9165 29.6707 11.9165C20.0049 11.9165 12.167 19.8093 12.167 29.548C12.167 39.2867 20.0026 47.1795 29.6707 47.1795C33.7574 47.1795 37.5153 45.7631 40.4931 43.3987L50.6669 53.6468C51.2429 54.2271 52.175 54.2271 52.7511 53.6468L54.8172 51.5657C55.3932 50.9854 55.3932 50.0465 54.8172 49.4663V49.4686ZM29.648 41.594C23.0416 41.594 17.6871 36.2004 17.6871 29.5457C17.6871 22.8911 23.0416 17.4975 29.648 17.4975C36.2544 17.4975 41.6089 22.8911 41.6089 29.5457C41.6089 36.2004 36.2544 41.594 29.648 41.594Z" fill="white"/>
<path d="M29.6475 32.7942C31.4273 32.7942 32.8702 31.3408 32.8702 29.548C32.8702 27.7551 31.4273 26.3018 29.6475 26.3018C27.8677 26.3018 26.4248 27.7551 26.4248 29.548C26.4248 31.3408 27.8677 32.7942 29.6475 32.7942Z" fill="white"/>
</g>
<defs>
<clipPath id="clip0_5459_2841">
<rect width="43.0833" height="42.1667" fill="white" transform="translate(12.167 11.9165)"/>
</clipPath>
</defs>
</svg>
