<svg width="47" height="46" viewBox="0 0 47 46" fill="none" xmlns="http://www.w3.org/2000/svg">
<g clip-path="url(#clip0_5484_6924)">
<path d="M46.5275 40.9659L35.2803 29.6366C35.2531 29.6092 35.2259 29.5867 35.1987 29.5618C37.0889 26.5787 38.1873 23.0374 38.1873 19.2344C38.1898 8.61036 29.6394 0 19.0949 0C8.5504 0 0 8.61036 0 19.2344C0 29.8584 8.54793 38.4687 19.0949 38.4687C23.5532 38.4687 27.6527 36.9236 30.9012 34.3442L41.9999 45.524C42.6283 46.157 43.6452 46.157 44.2736 45.524L46.5275 43.2537C47.1559 42.6207 47.1559 41.5964 46.5275 40.9634V40.9659ZM19.0702 32.3754C11.8632 32.3754 6.0219 26.4915 6.0219 19.2319C6.0219 11.9723 11.8632 6.08831 19.0702 6.08831C26.2771 6.08831 32.1184 11.9723 32.1184 19.2319C32.1184 26.4915 26.2771 32.3754 19.0702 32.3754Z" fill="white"/>
<path d="M19.0703 22.7755C21.012 22.7755 22.586 21.19 22.586 19.2342C22.586 17.2784 21.012 15.6929 19.0703 15.6929C17.1287 15.6929 15.5547 17.2784 15.5547 19.2342C15.5547 21.19 17.1287 22.7755 19.0703 22.7755Z" fill="white"/>
</g>
<defs>
<clipPath id="clip0_5484_6924">
<rect width="47" height="46" fill="white"/>
</clipPath>
</defs>
</svg>
