<svg width="72" height="72" viewBox="0 0 72 72" fill="none" xmlns="http://www.w3.org/2000/svg">
<path d="M49.913 17H25.6977C24.1866 17 22.7374 17.6003 21.6688 18.6688C20.6003 19.7374 20 21.1866 20 22.6977V52.6108C20 52.9885 20.1501 53.3509 20.4172 53.618C20.6843 53.8851 21.0466 54.0352 21.4244 54.0352H47.0642C47.442 54.0352 47.8043 53.8851 48.0714 53.618C48.3385 53.3509 48.4886 52.9885 48.4886 52.6108C48.4886 52.233 48.3385 51.8707 48.0714 51.6035C47.8043 51.3364 47.442 51.1863 47.0642 51.1863H22.8489C22.8489 50.4308 23.149 49.7062 23.6833 49.1719C24.2175 48.6376 24.9422 48.3375 25.6977 48.3375H49.913C50.2908 48.3375 50.6531 48.1874 50.9203 47.9203C51.1874 47.6531 51.3375 47.2908 51.3375 46.913V18.4244C51.3375 18.0466 51.1874 17.6843 50.9203 17.4172C50.6531 17.1501 50.2908 17 49.913 17ZM48.4886 45.4886H25.6977C24.6973 45.4872 23.7144 45.7508 22.8489 46.2525V22.6977C22.8489 21.9422 23.149 21.2175 23.6833 20.6833C24.2175 20.149 24.9422 19.8489 25.6977 19.8489H48.4886V45.4886Z" fill="white"/>
</svg>
