<svg width="46" height="45" viewBox="0 0 46 45" fill="none" xmlns="http://www.w3.org/2000/svg">
<g clip-path="url(#clip0_5484_6930)">
<path d="M45.942 1.07875C45.942 0.251899 45.0571 -0.264274 44.3487 0.149154L23.5077 12.3196C23.1789 12.5104 22.7752 12.5104 22.4463 12.3196L1.59329 0.144261C0.884894 -0.269167 0 0.249453 0 1.07631V30.7624C0 31.1464 0.203091 31.5012 0.531904 31.6944L22.4463 44.496C22.7752 44.6868 23.1789 44.6868 23.5077 44.496L45.4681 31.6675C45.7969 31.4742 46 31.1195 46 30.7355L45.942 1.0812V1.07875ZM20.3405 36.9295L5.39641 28.25C5.06759 28.0592 4.86208 27.702 4.86208 27.318V10.2696C4.86208 9.44271 5.74456 8.92654 6.45296 9.33752L20.3405 17.4006V36.9295ZM40.548 28.2182L25.6595 36.8977V17.3688L39.4527 9.33018C40.1611 8.91675 41.0436 9.43293 41.046 10.2598L41.0799 27.2861C41.0799 27.6702 40.8768 28.0274 40.548 28.2206V28.2182Z" fill="white"/>
<path d="M33.3701 40.802L35.6863 44.8262C35.8483 45.1051 36.2642 45.0341 36.3246 44.7161L37.0693 40.7531C37.108 40.5451 37.3207 40.4179 37.5214 40.4864L41.2955 41.7854C41.5977 41.8906 41.8661 41.5579 41.7065 41.279L39.4048 37.2769L33.3725 40.802H33.3701Z" fill="white"/>
</g>
<defs>
<clipPath id="clip0_5484_6930">
<rect width="46" height="45" fill="white"/>
</clipPath>
</defs>
</svg>
