<svg width="40" height="47" viewBox="0 0 40 47" fill="none" xmlns="http://www.w3.org/2000/svg">
<path d="M37.7209 0.584961H7.46163C5.57333 0.584961 3.76237 1.33508 2.42715 2.67031C1.09192 4.00554 0.341797 5.81649 0.341797 7.70479V45.0839C0.341797 45.556 0.529328 46.0087 0.863135 46.3425C1.19694 46.6763 1.64968 46.8639 2.12175 46.8639H34.161C34.6331 46.8639 35.0858 46.6763 35.4196 46.3425C35.7534 46.0087 35.941 45.556 35.941 45.0839C35.941 44.6118 35.7534 44.1591 35.4196 43.8253C35.0858 43.4915 34.6331 43.3039 34.161 43.3039H3.90171C3.90171 42.3598 4.27677 41.4543 4.94439 40.7867C5.612 40.1191 6.51748 39.744 7.46163 39.744H37.7209C38.193 39.744 38.6457 39.5565 38.9795 39.2227C39.3133 38.8889 39.5009 38.4361 39.5009 37.9641V2.36492C39.5009 1.89284 39.3133 1.44011 38.9795 1.1063C38.6457 0.772492 38.193 0.584961 37.7209 0.584961ZM35.941 36.1841H7.46163C6.21153 36.1824 4.98327 36.5117 3.90171 37.1386V7.70479C3.90171 6.76064 4.27677 5.85516 4.94439 5.18755C5.612 4.51994 6.51748 4.14488 7.46163 4.14488H35.941V36.1841Z" fill="white"/>
</svg>
