<svg xmlns="http://www.w3.org/2000/svg" width="100" height="100" viewBox="0 0 100 100" fill="none">
  <g filter="url(#filter0_d_4832_4488)">
    <path d="M15.7858 21.5658L14.0146 20.6566V52.597L37.614 64.3777L41.6778 62.3485C42.0345 62.7403 42.4925 63.228 43.1126 63.6469C44.9972 64.9222 45.439 66.6015 45.439 66.6015C45.439 66.6015 45.6565 63.9549 45.8578 63.3807C46.5549 63.4982 49.3002 64.4007 49.3002 64.4007C49.3002 64.4007 47.8965 62.3837 46.4833 61.4015C46.0834 61.1232 45.7308 60.7692 45.4309 60.4747L61.2133 52.597V20.6566L59.4678 21.5523L57.3684 20.3783L37.6126 30.8931L17.734 20.3242L15.7858 21.5658Z" fill="url(#paint0_linear_4832_4488)"/>
    <path d="M57.4481 49.0591C57.1914 49.0591 56.6767 49.2064 56.3011 49.4644C56.0836 46.7165 53.6437 44.463 50.2472 46.3895L50.2243 46.3814C49.3475 45.0736 47.656 44.2468 45.87 45.0655L45.8551 45.0601C44.8581 42.8566 40.8389 43.0404 40.8389 46.2693H34.4256C34.4256 43.0404 30.4159 42.8364 29.4188 45.0412H29.3959C27.626 44.2387 25.9684 45.0588 25.0983 46.3841L25.0416 46.4044C21.6438 44.4778 19.1809 46.7178 18.9634 49.4657C18.5878 49.2091 18.0744 49.0604 17.8164 49.0604V50.3912L28.0773 55.4831H47.0954L57.413 50.3696L57.4481 49.0604V49.0591Z" fill="url(#paint1_linear_4832_4488)"/>
    <path d="M25.0048 46.3584C23.7889 45.8626 22.3299 45.5897 21.1342 46.2382C19.9602 46.8583 19.2712 48.1323 19.0604 49.4293C19.0604 49.536 18.9307 49.6022 18.8483 49.5306C18.543 49.2874 18.1688 49.0956 17.7783 49.0145C18.2012 48.9767 18.6295 49.1091 19.001 49.3077L18.7889 49.409C18.8456 45.9464 22.2137 44.2157 25.0021 46.3584H25.0048Z" fill="#C395DA"/>
    <path d="M30.898 46.116C30.2914 45.6594 29.6429 45.2514 28.9134 45.065C27.4773 44.6691 25.9925 45.3514 25.1414 46.5335C24.7158 47.1279 24.4308 47.8386 24.401 48.6194C24.197 47.8467 24.3875 46.9928 24.7861 46.3038C26.2235 43.8909 29.2836 43.8572 30.8967 46.116H30.898Z" fill="#C395DA"/>
    <path d="M34.3893 46.2227C34.2718 45.6269 34.0772 45.0703 33.7138 44.6569C32.9897 43.8125 31.7441 43.6261 30.7213 43.9882C30.1985 44.1719 29.723 44.5137 29.373 45.0136C29.5163 44.4016 29.9905 43.8868 30.5498 43.6004C32.456 42.6277 34.8 43.9855 34.3893 46.2227Z" fill="#C395DA"/>
    <path d="M57.4113 49.0124C57.0209 49.0935 56.6466 49.2853 56.3413 49.5285C56.2873 49.5731 56.2076 49.5663 56.163 49.5123C56.1414 49.488 56.1346 49.4569 56.1306 49.4272C55.9212 48.1302 55.2294 46.8549 54.0568 46.2361C52.8625 45.5876 51.4034 45.8605 50.1875 46.355C51.3318 45.4647 52.949 45.077 54.3 45.7606C55.651 46.4266 56.4075 47.9519 56.4008 49.4056L56.19 49.3056C56.5683 49.1057 56.9871 48.976 57.4127 49.0124H57.4113Z" fill="#C395DA"/>
    <path d="M50.7896 48.6206C50.7153 46.3915 48.4875 44.4568 46.2786 45.0662C45.549 45.2526 44.9005 45.6606 44.2939 46.1172C44.7627 45.4782 45.395 44.9446 46.1516 44.6649C48.5712 43.6962 51.3705 46.0983 50.7909 48.6206H50.7896Z" fill="#C395DA"/>
    <path d="M45.8183 45.0145C44.8591 43.6013 42.6083 43.3676 41.4789 44.6578C41.1168 45.0712 40.9209 45.6265 40.802 46.2223C40.6899 45.6089 40.7872 44.9415 41.1371 44.4052C42.2179 42.688 45.286 43.0055 45.8183 45.0145Z" fill="#C395DA"/>
    <path d="M26.9121 54.8877C27.1634 54.2311 27.8808 52.7382 29.3088 52.8612C29.0764 49.5175 33.4442 47.6922 35.5991 50.07L35.6261 50.0781C35.6261 50.0781 40.7464 48.1178 43.5659 52.0952C47.6243 51.5926 48.1904 54.9147 48.1904 54.9147L37.6283 60.1498L26.9121 54.8877Z" fill="url(#paint2_linear_4832_4488)"/>
    <path d="M26.8773 54.7924C27.1894 53.7116 28.0419 52.57 29.2875 52.6564L29.1146 52.8267C28.9173 51.2487 29.936 49.7383 31.3627 49.1114C33.4013 48.1711 35.7223 48.9857 36.5451 51.1149C36.7315 51.5932 36.8437 52.0904 36.9072 52.5889L36.6059 52.42C37.507 52.1174 38.5405 52.1444 39.343 52.6848C40.128 53.2279 40.3995 54.2114 40.409 55.1098C40.2833 54.2682 39.9564 53.3549 39.1931 52.9158C38.4824 52.4984 37.5286 52.5294 36.7788 52.8185L36.5289 52.9293L36.4762 52.6497C36.1952 50.7407 34.959 49.1546 32.8906 49.2668C31.5329 49.3411 30.1886 50.1733 29.6658 51.454C29.4686 51.935 29.4078 52.4727 29.4375 52.9969C28.1986 52.7591 27.3434 53.7683 26.876 54.7951L26.8773 54.7924Z" fill="#CD9CE5"/>
    <path d="M48.1592 54.9539C47.4958 52.8896 45.6314 52.156 43.6049 52.4694L43.455 52.4897L43.3617 52.3614C42.0769 50.5402 39.9613 49.7904 37.7861 49.8971C37.062 49.9255 36.3352 50.0228 35.6191 50.1998C36.2919 49.8904 37.0201 49.6999 37.7605 49.5972C40.0964 49.25 42.4323 50.066 43.7873 52.0601L43.5428 51.952C45.6976 51.671 47.8309 52.6289 48.1605 54.9526L48.1592 54.9539Z" fill="#CD9CE5"/>
    <path d="M59.4532 21.5774L61.1987 20.6816V52.6221L45.5527 60.4322" stroke="#BB8ED1" stroke-width="0.667493" stroke-linecap="round" stroke-linejoin="round"/>
    <path d="M41.5605 62.406L37.5993 64.4028L14 52.6221V20.6816L15.7712 21.5922" stroke="#BB8ED1" stroke-width="0.667493" stroke-linecap="round" stroke-linejoin="round"/>
    <path d="M59.5096 51.5862L37.599 62.4064L15.7168 51.6159V21.6263L17.7176 20.3496L37.599 30.9185L57.3547 20.4036L59.5096 21.5966V51.5862Z" stroke="#BB8ED1" stroke-width="0.333746" stroke-linecap="round" stroke-linejoin="round"/>
    <path d="M17.7178 20.3496V50.4905L37.5991 60.2799L57.3495 50.4905V20.3496" stroke="#BB8ED1" stroke-width="0.333746" stroke-linecap="round" stroke-linejoin="round"/>
    <path d="M15.7168 51.6156L17.7176 50.4902" stroke="#BB8ED1" stroke-width="0.333746" stroke-linecap="round" stroke-linejoin="round"/>
    <path d="M57.3496 50.4902L59.5099 51.5859" stroke="#BB8ED1" stroke-width="0.333746" stroke-linecap="round" stroke-linejoin="round"/>
    <path d="M40.6777 60.9985C40.6777 60.9985 41.2127 62.3968 43.0974 63.6735C44.982 64.9489 45.4238 66.6282 45.4238 66.6282C45.4238 66.6282 45.6413 63.9816 45.8426 63.4074C46.5397 63.5249 49.285 64.4274 49.285 64.4274C49.285 64.4274 47.8813 62.4103 46.4681 61.4282C45.055 60.446 44.2403 59.1328 44.2403 59.1328" stroke="#BB8ED1" stroke-width="0.50062" stroke-linecap="round" stroke-linejoin="round"/>
  </g>
  <g filter="url(#filter1_d_4832_4488)">
    <path d="M39.8946 48.5053L39.8325 46.5531L39.569 45.4655L40.8498 42.9972L38.2964 44.7657L37.2818 46.8314L37.7384 48.4985C37.1845 48.5823 36.5725 48.6998 35.8808 48.8592C34.8176 47.8622 33.58 47.5042 32.1912 47.7041L31.9278 45.1724L31.7346 41.9083L32.071 41.1274L31.7562 39.5116L32.3749 37.4865L31.713 29.7763L31.6819 27.3675L30.9902 26.442L30.7997 25.4626L30.0242 21.4636L30.1998 21.0353L29.5986 19.2642L29.627 17.52L31.413 10.1341L31.2968 7.44017L33.499 6L34.673 7.62526L32.9897 11.5053L32.6195 12.2214L32.7681 12.9374L32.891 18.8629L34.6811 26.8487L35.031 25.1437L34.2772 21.2542L35.2756 19.7802L38.5801 19.7505L39.9054 22.0472L38.8084 25.4977L37.271 26.7014L40.0365 25.6787L41.9833 26.5731L44.1219 31.3273L45.6269 31.4786L49.1652 31.0368L50.5932 29.3791L52.0969 29.5885L52.2185 31.6029L49.0463 32.9728L45.3716 33.9185L44.3367 34.0603L44.0773 34.2495L43.3978 34.4238L42.2548 33.9793L40.7903 30.1749L40.431 31.03L40.739 36.738L39.7231 37.3568L38.6585 38.5646L42.448 36.5394L44.3705 36.915L45.8742 38.7956L44.711 46.8138L43.8585 47.719L43.9314 48.3877L43.2789 50.3251C42.3967 49.3159 41.2443 48.7471 39.8906 48.5039L39.8946 48.5053ZM38.9543 19.0615L40.6363 22.0932L39.8879 24.3628L40.6674 24.6357L42.0171 21.3217L41.555 20.5989C41.555 21.365 41.555 18.3536 41.4713 18.1239C41.3875 17.8942 40.8417 16.7851 39.8663 16.1568C38.8908 15.5286 37.86 15.4894 37.0602 15.4894C35.947 15.4894 34.5095 16.0326 33.7205 16.8945C33.6854 17.3187 33.5679 18.6494 33.5679 18.6494L33.9907 20.3274L34.9648 19.1196L38.957 19.0629L38.9543 19.0615Z" fill="white"/>
  </g>
  <rect opacity="0.05" x="0.5" y="0.5" width="74" height="74" rx="7.5" stroke="white"/>
  <defs>
    <filter id="filter0_d_4832_4488" x="11.8304" y="18.348" width="51.5374" height="50.3665" filterUnits="userSpaceOnUse" color-interpolation-filters="sRGB">
      <feFlood flood-opacity="0" result="BackgroundImageFix"/>
      <feColorMatrix in="SourceAlpha" type="matrix" values="0 0 0 0 0 0 0 0 0 0 0 0 0 0 0 0 0 0 127 0" result="hardAlpha"/>
      <feOffset/>
      <feGaussianBlur stdDeviation="0.917803"/>
      <feColorMatrix type="matrix" values="0 0 0 0 0.54902 0 0 0 0 0.160784 0 0 0 0 1 0 0 0 1 0"/>
      <feBlend mode="normal" in2="BackgroundImageFix" result="effect1_dropShadow_4832_4488"/>
      <feBlend mode="normal" in="SourceGraphic" in2="effect1_dropShadow_4832_4488" result="shape"/>
    </filter>
    <filter id="filter1_d_4832_4488" x="27.9299" y="4.33127" width="25.9576" height="47.6617" filterUnits="userSpaceOnUse" color-interpolation-filters="sRGB">
      <feFlood flood-opacity="0" result="BackgroundImageFix"/>
      <feColorMatrix in="SourceAlpha" type="matrix" values="0 0 0 0 0 0 0 0 0 0 0 0 0 0 0 0 0 0 127 0" result="hardAlpha"/>
      <feOffset/>
      <feGaussianBlur stdDeviation="0.834366"/>
      <feColorMatrix type="matrix" values="0 0 0 0 1 0 0 0 0 1 0 0 0 0 1 0 0 0 0.3 0"/>
      <feBlend mode="normal" in2="BackgroundImageFix" result="effect1_dropShadow_4832_4488"/>
      <feBlend mode="normal" in="SourceGraphic" in2="effect1_dropShadow_4832_4488" result="shape"/>
    </filter>
    <linearGradient id="paint0_linear_4832_4488" x1="37.614" y1="19.057" x2="37.614" y2="67.2216" gradientUnits="userSpaceOnUse">
      <stop stop-color="#A47EBB"/>
      <stop offset="1" stop-color="#6259A0"/>
    </linearGradient>
    <linearGradient id="paint1_linear_4832_4488" x1="37.6316" y1="43.1255" x2="37.6316" y2="59.6131" gradientUnits="userSpaceOnUse">
      <stop stop-color="#AF87C8"/>
      <stop offset="1" stop-color="#6E64B3"/>
    </linearGradient>
    <linearGradient id="paint2_linear_4832_4488" x1="37.5513" y1="48.6933" x2="37.5513" y2="63.5152" gradientUnits="userSpaceOnUse">
      <stop stop-color="#BE92D8"/>
      <stop offset="1" stop-color="#7C70CA"/>
    </linearGradient>
  </defs>
</svg>
