<svg width="67" height="66" viewBox="0 0 67 66" fill="none" xmlns="http://www.w3.org/2000/svg">
<g clip-path="url(#clip0_5459_2839)">
<path d="M54.1965 13.8223C54.1965 13.0643 53.3853 12.5912 52.736 12.9701L33.6318 24.1264C33.3303 24.3013 32.9602 24.3013 32.6588 24.1264L13.5435 12.9657C12.8942 12.5867 12.083 13.0621 12.083 13.82V41.0322C12.083 41.3843 12.2692 41.7095 12.5706 41.8866L32.6588 53.6214C32.9602 53.7963 33.3303 53.7963 33.6318 53.6214L53.7621 41.862C54.0635 41.6848 54.2497 41.3596 54.2497 41.0076L54.1965 13.8245V13.8223ZM30.7285 46.6855L17.0297 38.7292C16.7283 38.5543 16.5399 38.2269 16.5399 37.8749V22.2472C16.5399 21.4892 17.3489 21.0161 17.9982 21.3928L30.7285 28.7839V46.6855ZM49.252 38.7001L35.6042 46.6563V28.7548L48.248 21.3861C48.8974 21.0071 49.7063 21.4803 49.7085 22.2382L49.7396 37.8457C49.7396 38.1978 49.5534 38.5252 49.252 38.7023V38.7001Z" fill="#9d72dc"/>
<path d="M42.6719 50.2353L44.7951 53.9241C44.9435 54.1798 45.3247 54.1147 45.3802 53.8232L46.0628 50.1904C46.0982 49.9998 46.2933 49.8832 46.4772 49.946L49.9368 51.1368C50.2138 51.2332 50.4598 50.9282 50.3136 50.6726L48.2037 47.0039L42.6741 50.2353H42.6719Z" fill="#9d72dc"/>
</g>
<defs>
<clipPath id="clip0_5459_2839">
<rect width="42.1667" height="41.25" fill="#9d72dc" transform="translate(12.083 12.8335)"/>
</clipPath>
</defs>
</svg>
