<svg width="67" height="66" viewBox="0 0 67 66" fill="none" xmlns="http://www.w3.org/2000/svg">
<path d="M45.9193 15.583H23.7219C22.3367 15.583 21.0083 16.1333 20.0288 17.1128C19.0493 18.0922 18.499 19.4207 18.499 20.8059V48.2262C18.499 48.5725 18.6366 48.9046 18.8815 49.1495C19.1263 49.3944 19.4585 49.5319 19.8048 49.5319H43.3079C43.6542 49.5319 43.9863 49.3944 44.2311 49.1495C44.476 48.9046 44.6136 48.5725 44.6136 48.2262C44.6136 47.8799 44.476 47.5478 44.2311 47.3029C43.9863 47.058 43.6542 46.9205 43.3079 46.9205H21.1105C21.1105 46.2279 21.3856 45.5636 21.8754 45.0739C22.3651 44.5842 23.0293 44.309 23.7219 44.309H45.9193C46.2656 44.309 46.5977 44.1715 46.8426 43.9266C47.0875 43.6817 47.225 43.3496 47.225 43.0033V16.8887C47.225 16.5424 47.0875 16.2103 46.8426 15.9654C46.5977 15.7206 46.2656 15.583 45.9193 15.583ZM44.6136 41.6976H23.7219C22.8049 41.6963 21.9039 41.9379 21.1105 42.3978V20.8059C21.1105 20.1133 21.3856 19.4491 21.8754 18.9593C22.3651 18.4696 23.0293 18.1945 23.7219 18.1945H44.6136V41.6976Z" fill="white"/>
<circle cx="33.166" cy="33" r="33" fill="#3F3154"/>
<g clip-path="url(#clip0_5459_2839)">
<path d="M54.1965 13.8223C54.1965 13.0643 53.3853 12.5912 52.736 12.9701L33.6318 24.1264C33.3303 24.3013 32.9602 24.3013 32.6588 24.1264L13.5435 12.9657C12.8942 12.5867 12.083 13.0621 12.083 13.82V41.0322C12.083 41.3843 12.2692 41.7095 12.5706 41.8866L32.6588 53.6214C32.9602 53.7963 33.3303 53.7963 33.6318 53.6214L53.7621 41.862C54.0635 41.6848 54.2497 41.3596 54.2497 41.0076L54.1965 13.8245V13.8223ZM30.7285 46.6855L17.0297 38.7292C16.7283 38.5543 16.5399 38.2269 16.5399 37.8749V22.2472C16.5399 21.4892 17.3489 21.0161 17.9982 21.3928L30.7285 28.7839V46.6855ZM49.252 38.7001L35.6042 46.6563V28.7548L48.248 21.3861C48.8974 21.0071 49.7063 21.4803 49.7085 22.2382L49.7396 37.8457C49.7396 38.1978 49.5534 38.5252 49.252 38.7023V38.7001Z" fill="white"/>
<path d="M42.6719 50.2353L44.7951 53.9241C44.9435 54.1798 45.3247 54.1147 45.3802 53.8232L46.0628 50.1904C46.0982 49.9998 46.2933 49.8832 46.4772 49.946L49.9368 51.1368C50.2138 51.2332 50.4598 50.9282 50.3136 50.6726L48.2037 47.0039L42.6741 50.2353H42.6719Z" fill="white"/>
</g>
<defs>
<clipPath id="clip0_5459_2839">
<rect width="42.1667" height="41.25" fill="white" transform="translate(12.083 12.8335)"/>
</clipPath>
</defs>
</svg>
