<svg width="46" height="53" viewBox="0 0 46 53" fill="none" xmlns="http://www.w3.org/2000/svg">
<g clip-path="url(#clip0_5484_6913)">
<path d="M23.4764 38.7819C30.321 38.7819 35.8697 33.2825 35.8697 26.4986C35.8697 19.7147 30.321 14.2153 23.4764 14.2153C16.6317 14.2153 11.083 19.7147 11.083 26.4986C11.083 33.2825 16.6317 38.7819 23.4764 38.7819Z" fill="white"/>
<path d="M39.633 37.6396L24.6756 46.1977C23.9328 46.6233 23.0173 46.6233 22.2745 46.1977L6.70011 37.2849C5.9573 36.8593 5.49828 36.0742 5.49828 35.223V17.3974C5.49828 16.5462 5.9573 15.7611 6.70011 15.3355L22.2745 6.42267C23.0173 5.99708 23.9328 5.99708 24.6756 6.42267L39.5393 14.927L45.0376 11.9675L24.6781 0.317724C23.9353 -0.107861 23.0197 -0.107861 22.2769 0.317724L1.20182 12.3784C0.459013 12.804 0 13.5891 0 14.4403V38.5592C0 39.4104 0.459013 40.1955 1.20182 40.6211L22.2769 52.6793C23.0197 53.1049 23.9353 53.1049 24.6781 52.6793L45.1338 40.9733L39.6355 37.6396H39.633Z" fill="white"/>
<path d="M40.6152 17.1162V21.8759H46V14.2153L40.6152 17.1162Z" fill="#FFC05C"/>
<path d="M40.6152 35.6858L46 38.7847V23.8379H40.6152V35.6858Z" fill="#FFC05C"/>
</g>
<defs>
<clipPath id="clip0_5484_6913">
<rect width="46" height="53" fill="white"/>
</clipPath>
</defs>
</svg>
