<svg width="72" height="72" viewBox="0 0 72 72" fill="none" xmlns="http://www.w3.org/2000/svg">
<path d="M36.5908 13.9092C32.1407 13.9092 27.7906 15.2288 24.0905 17.7011C20.3904 20.1734 17.5065 23.6875 15.8035 27.7988C14.1006 31.9101 13.655 36.4341 14.5232 40.7987C15.3913 45.1633 17.5342 49.1724 20.6809 52.3191C23.8276 55.4658 27.8367 57.6087 32.2013 58.4768C36.5659 59.345 41.0899 58.8994 45.2012 57.1965C49.3125 55.4935 52.8266 52.6096 55.2989 48.9095C57.7712 45.2094 59.0908 40.8593 59.0908 36.4092C59.0845 30.4437 56.712 24.7244 52.4938 20.5062C48.2756 16.288 42.5563 13.9155 36.5908 13.9092ZM45.0716 34.6784C44.8487 33.5971 44.4197 32.5688 43.8081 31.6496L51.2137 24.2419C53.6858 27.2018 55.1954 30.846 55.5406 34.6871L45.0716 34.6784ZM41.7831 36.4092C41.7831 37.4361 41.4786 38.44 40.9081 39.2939C40.3375 40.1477 39.5266 40.8132 38.5778 41.2062C37.6291 41.5992 36.5851 41.7021 35.5779 41.5017C34.5706 41.3014 33.6455 40.8068 32.9193 40.0807C32.1932 39.3545 31.6986 38.4294 31.4983 37.4221C31.2979 36.4149 31.4008 35.3709 31.7938 34.4222C32.1868 33.4734 32.8523 32.6625 33.7061 32.0919C34.56 31.5214 35.5639 31.2169 36.5908 31.2169C37.9679 31.2169 39.2886 31.7639 40.2623 32.7377C41.2361 33.7114 41.7831 35.0321 41.7831 36.4092ZM36.5908 55.4476C33.5323 55.4497 30.5183 54.7149 27.804 53.3054C25.0896 51.8959 22.7548 49.8532 20.9971 47.3502C19.2394 44.8472 18.1107 41.9575 17.7064 38.9259C17.3021 35.8942 17.6341 32.8098 18.6744 29.9336C19.7147 27.0574 21.4326 24.4743 23.6828 22.4027C25.9329 20.3311 28.649 18.8322 31.6012 18.0327C34.5533 17.2332 37.6546 17.1567 40.6426 17.8097C43.6306 18.4627 46.4173 19.826 48.7668 21.7842L41.3504 29.1919C39.8032 28.1728 37.9697 27.6773 36.1198 27.7781C34.2699 27.8788 32.5011 28.5707 31.0737 29.7517C29.6463 30.9328 28.6357 32.5408 28.1904 34.3392C27.7451 36.1376 27.8887 38.0314 28.6001 39.742C29.3115 41.4527 30.5531 42.8898 32.1423 43.8422C33.7315 44.7945 35.5843 45.2116 37.4283 45.0323C39.2723 44.8529 41.01 44.0865 42.3859 42.8458C43.7618 41.6051 44.7032 39.9556 45.0716 38.1399H55.5492C55.1122 42.8677 52.9266 47.2622 49.4201 50.4634C45.9136 53.6646 41.3387 55.4419 36.5908 55.4476Z" fill="white"/>
</svg>
