<svg width="66" height="66" viewBox="0 0 66 66" fill="none" xmlns="http://www.w3.org/2000/svg">
<g clip-path="url(#clip0_5459_2837)">
<path d="M33.5197 44.7166C39.794 44.7166 44.8803 39.6755 44.8803 33.4569C44.8803 27.2384 39.794 22.1973 33.5197 22.1973C27.2455 22.1973 22.1592 27.2384 22.1592 33.4569C22.1592 39.6755 27.2455 44.7166 33.5197 44.7166Z" fill="#9d72dc"/>
<path d="M48.3303 43.6698L34.6193 51.5148C33.9384 51.9049 33.0992 51.9049 32.4183 51.5148L18.1418 43.3447C17.4609 42.9546 17.0401 42.2349 17.0401 41.4546V25.1145C17.0401 24.3342 17.4609 23.6145 18.1418 23.2244L32.4183 15.0543C33.0992 14.6642 33.9384 14.6642 34.6193 15.0543L48.2443 22.85L53.2844 20.1371L34.6216 9.45812C33.9407 9.068 33.1014 9.068 32.4205 9.45812L13.1017 20.5137C12.4208 20.9039 12 21.6236 12 22.4038V44.5128C12 45.2931 12.4208 46.0128 13.1017 46.4029L32.4205 57.4563C33.1014 57.8464 33.9407 57.8464 34.6216 57.4563L53.3727 46.7257L48.3326 43.6698H48.3303Z" fill="#9d72dc"/>
<path d="M49.2305 24.8564V29.2194H54.1665V22.1973L49.2305 24.8564Z" fill="#FFC05C"/>
<path d="M49.2305 41.8786L54.1665 44.7193V31.0181H49.2305V41.8786Z" fill="#FFC05C"/>
</g>
<defs>
<clipPath id="clip0_5459_2837">
<rect width="42.1667" height="48.5833" fill="#9d72dc" transform="translate(12 9.16699)"/>
</clipPath>
</defs>
</svg>
