<svg width="48" height="47" viewBox="0 0 48 47" fill="none" xmlns="http://www.w3.org/2000/svg">
<path d="M23.9227 0.366211C19.3461 0.366211 14.8723 1.72332 11.0671 4.26591C7.26181 6.80851 4.29597 10.4224 2.5446 14.6506C0.793229 18.8788 0.334991 23.5313 1.22783 28.0199C2.12067 32.5086 4.32449 36.6316 7.5606 39.8677C10.7967 43.1038 14.9198 45.3077 19.4084 46.2005C23.897 47.0933 28.5496 46.6351 32.7777 44.8837C37.0059 43.1324 40.6198 40.1665 43.1624 36.3612C45.705 32.556 47.0621 28.0822 47.0621 23.5057C47.0556 17.3707 44.6157 11.4888 40.2776 7.15075C35.9395 2.81267 30.0576 0.37269 23.9227 0.366211ZM32.6445 21.7257C32.4152 20.6136 31.9741 19.5561 31.3451 18.6108L38.9611 10.9926C41.5035 14.0367 43.056 17.7844 43.411 21.7346L32.6445 21.7257ZM29.2625 23.5057C29.2625 24.5618 28.9494 25.5942 28.3626 26.4723C27.7759 27.3505 26.9419 28.0349 25.9661 28.4391C24.9904 28.8432 23.9167 28.949 22.8809 28.7429C21.8451 28.5369 20.8936 28.0283 20.1468 27.2815C19.4 26.5347 18.8914 25.5833 18.6854 24.5474C18.4794 23.5116 18.5851 22.4379 18.9893 21.4622C19.3934 20.4864 20.0779 19.6525 20.956 19.0657C21.8341 18.479 22.8665 18.1658 23.9227 18.1658C25.3389 18.1658 26.6971 18.7284 27.6985 19.7298C28.6999 20.7312 29.2625 22.0894 29.2625 23.5057ZM23.9227 43.0852C20.7772 43.0874 17.6776 42.3317 14.8861 40.8821C12.0946 39.4325 9.69338 37.3318 7.88576 34.7576C6.07815 32.1835 4.91731 29.2117 4.50152 26.0939C4.08572 22.9761 4.42721 19.8039 5.49707 16.846C6.56693 13.8882 8.33367 11.2316 10.6477 9.10111C12.9618 6.97067 15.7551 5.4291 18.7912 4.60689C21.8273 3.78468 25.0167 3.70604 28.0896 4.37761C31.1625 5.04919 34.0284 6.45121 36.4447 8.46502L28.8175 16.0832C27.2263 15.0353 25.3408 14.5256 23.4383 14.6292C21.5358 14.7329 19.7167 15.4444 18.2488 16.659C16.7808 17.8737 15.7414 19.5274 15.2835 21.3768C14.8256 23.2263 14.9733 25.1739 15.7049 26.9332C16.4365 28.6925 17.7134 30.1705 19.3477 31.1499C20.9821 32.1293 22.8876 32.5583 24.784 32.3738C26.6803 32.1894 28.4675 31.4012 29.8824 30.1253C31.2974 28.8493 32.2656 27.1529 32.6445 25.2856H43.4199C42.9704 30.1478 40.7227 34.6672 37.1166 37.9593C33.5104 41.2514 28.8055 43.0793 23.9227 43.0852Z" fill="white"/>
</svg>
