<svg width="1155" height="205" viewBox="0 0 1155 205" fill="none" xmlns="http://www.w3.org/2000/svg">
<g clip-path="url(#clip0_5698_5298)">
<path d="M1096.15 103.472H1130.06C1133.87 103.472 1137.23 104.306 1140.13 105.976C1143.08 107.592 1145.36 109.881 1146.97 112.843C1148.58 115.805 1149.39 119.198 1149.39 123.022C1149.39 128.354 1148.05 132.824 1145.36 136.433C1142.73 140.041 1139.13 142.33 1134.57 143.3L1134.81 139.664L1154.55 168.102H1138.44L1121.6 143.785H1109.04V168.102H1096.15V103.472ZM1128.29 132.959C1130.97 132.959 1133.23 132.07 1135.06 130.293C1136.88 128.516 1137.79 126.334 1137.79 123.749C1137.79 121.11 1136.93 118.983 1135.21 117.367C1133.55 115.697 1131.51 114.863 1129.1 114.863H1109.04V132.959H1128.29Z" fill="#FAFAFA"/>
<path d="M1066.05 168.102C1064.86 168.102 1063.74 167.805 1062.66 167.213C1061.64 166.621 1060.84 165.813 1060.25 164.789C1059.66 163.712 1059.36 162.581 1059.36 161.396V139.907C1059.36 138.722 1059.66 137.618 1060.25 136.594C1060.84 135.517 1061.64 134.683 1062.66 134.09C1063.74 133.498 1064.86 133.201 1066.05 133.201H1087.71C1087.87 133.201 1087.98 133.174 1088.04 133.12C1088.14 133.013 1088.19 132.878 1088.19 132.717V131.989C1088.19 131.882 1088.14 131.801 1088.04 131.747C1087.98 131.639 1087.87 131.586 1087.71 131.586H1066.37C1064.97 131.586 1063.79 131.101 1062.82 130.132C1061.91 129.162 1061.46 128.004 1061.46 126.657V108.319C1061.46 106.972 1061.91 105.841 1062.82 104.926C1063.79 103.956 1064.97 103.472 1066.37 103.472H1092.87V115.266C1092.87 115.913 1092.62 116.478 1092.14 116.963C1091.66 117.394 1091.1 117.609 1090.45 117.609H1086.18C1085.54 117.609 1084.97 117.394 1084.49 116.963C1084.01 116.478 1083.76 115.913 1083.76 115.266V106.865H1082.15V118.579H1088.6C1089.99 118.579 1091.2 119.09 1092.22 120.114C1093.24 121.137 1093.75 122.322 1093.75 123.668V143.623C1093.75 144.7 1093.49 145.696 1092.95 146.612C1092.41 147.474 1091.68 148.174 1090.77 148.713C1089.91 149.251 1088.95 149.521 1087.87 149.521H1082.15V165.031H1083.76V153.075C1083.76 152.375 1084.01 151.783 1084.49 151.298C1084.97 150.813 1085.54 150.571 1086.18 150.571H1091.1C1091.74 150.571 1092.3 150.813 1092.79 151.298C1093.27 151.783 1093.51 152.375 1093.51 153.075V168.102H1066.05Z" fill="#FAFAFA"/>
<path d="M978.839 110.421C978.839 109.074 979.161 107.835 979.805 106.704C980.449 105.573 981.336 104.685 982.463 104.039C983.644 103.338 984.933 102.988 986.329 102.988H1008.32C1009.66 102.988 1010.89 103.338 1012.02 104.039C1013.2 104.685 1014.12 105.573 1014.76 106.704C1015.46 107.835 1015.81 109.074 1015.81 110.421V149.764C1015.81 150.195 1015.94 150.572 1016.21 150.895C1016.53 151.165 1016.91 151.3 1017.34 151.3H1018.47C1018.9 151.3 1019.24 151.165 1019.51 150.895C1019.84 150.572 1020 150.195 1020 149.764V110.421C1020 109.074 1020.32 107.835 1020.96 106.704C1021.66 105.573 1022.57 104.685 1023.7 104.039C1024.88 103.338 1026.14 102.988 1027.49 102.988H1049.56C1050.84 102.988 1052.05 103.338 1053.18 104.039C1054.36 104.685 1055.27 105.573 1055.92 106.704C1056.62 107.835 1056.97 109.074 1056.97 110.421V168.103H1043.43C1045.42 164.71 1047.09 161.721 1048.43 159.136C1049.77 156.551 1050.84 153.696 1051.65 150.572C1052.51 147.395 1052.94 143.571 1052.94 139.1C1052.94 136.515 1052.27 134.118 1050.92 131.91C1049.64 129.702 1047.89 127.952 1045.69 126.659C1043.49 125.367 1041.1 124.72 1038.52 124.72C1035.84 124.72 1033.39 125.367 1031.19 126.659C1028.99 127.898 1027.25 129.648 1025.96 131.91C1024.67 134.118 1024.02 136.515 1024.02 139.1C1024.02 143.571 1024.43 147.395 1025.23 150.572C1026.09 153.696 1027.19 156.551 1028.53 159.136C1029.93 161.721 1031.62 164.71 1033.61 168.103H1002.2C1004.18 164.71 1005.85 161.721 1007.19 159.136C1008.59 156.551 1009.69 153.696 1010.49 150.572C1011.35 147.395 1011.78 143.571 1011.78 139.1C1011.78 136.515 1011.11 134.118 1009.77 131.91C1008.48 129.702 1006.73 127.952 1004.53 126.659C1002.33 125.367 999.914 124.72 997.283 124.72C994.652 124.72 992.236 125.367 990.034 126.659C987.833 127.898 986.088 129.648 984.799 131.91C983.51 134.118 982.866 136.515 982.866 139.1C982.866 143.571 983.269 147.395 984.074 150.572C984.933 153.696 986.034 156.551 987.376 159.136C988.719 161.721 990.41 164.71 992.451 168.103H978.839V110.421Z" fill="#FAFAFA"/>
<path d="M907.292 103.472H923.642L941.039 151.783H941.845L959.242 103.472H975.592V168.102H962.706V128.112H961.9L947.241 168.102H935.643L920.984 128.112H920.179V168.102H907.292V103.472Z" fill="#FAFAFA"/>
<path d="M801.082 168.506C799.203 168.506 797.592 168.103 796.249 167.295C794.907 166.433 793.887 165.302 793.189 163.902C792.491 162.448 792.142 160.885 792.142 159.216V103.472H830.4V141.362C830.4 143.732 830.963 145.94 832.091 147.986C833.272 149.979 834.856 151.568 836.843 152.753C838.883 153.938 841.112 154.53 843.528 154.53C845.89 154.53 848.065 153.938 850.052 152.753C852.092 151.568 853.676 149.979 854.804 147.986C855.985 145.94 856.576 143.732 856.576 141.362V108.32C856.576 106.542 857.032 105.223 857.945 104.361C858.858 103.499 859.985 103.068 861.328 103.068H865.677C866.59 103.068 867.395 103.284 868.094 103.715C868.792 104.146 869.436 104.765 870.027 105.573C870.617 106.327 871.315 107.458 872.121 108.966L903.291 163.579C903.72 164.386 903.962 165.14 904.016 165.841C904.069 166.487 903.908 167.025 903.533 167.456C903.211 167.887 902.646 168.103 901.841 168.103H867.369L867.449 122.7C867.449 122.054 867.208 121.515 866.724 121.084C866.241 120.599 865.677 120.357 865.033 120.357H863.744C862.939 120.357 862.321 120.599 861.892 121.084C861.516 121.569 861.328 122.107 861.328 122.7V159.216C861.328 162.07 860.71 164.332 859.476 166.002C858.294 167.672 856.066 168.506 852.791 168.506H801.082Z" fill="#FAFAFA"/>
<path d="M760.002 168.83C751.196 168.83 744.054 166.891 738.578 163.013C733.154 159.136 730.47 153.238 730.523 145.321H743.33C743.276 149.037 744.833 151.946 748.001 154.046C751.169 156.146 755.169 157.197 760.002 157.197C769.989 157.197 774.983 154.746 774.983 149.845C774.983 148.122 774.473 146.721 773.452 145.644C772.432 144.567 770.821 143.705 768.62 143.059C766.472 142.359 763.465 141.766 759.599 141.282C750.901 140.15 744.162 138.05 739.383 134.98C734.658 131.91 732.295 127.494 732.295 121.731C732.295 117.638 733.476 114.164 735.839 111.309C738.202 108.455 741.45 106.3 745.585 104.846C749.773 103.392 754.579 102.665 760.002 102.665C766.606 102.665 771.922 103.769 775.949 105.977C779.977 108.132 782.876 110.825 784.648 114.056C786.42 117.234 787.44 120.492 787.709 123.832H774.741C774.473 120.815 773.05 118.473 770.472 116.803C767.949 115.079 764.459 114.218 760.002 114.218C755.33 114.218 751.706 114.864 749.129 116.157C746.605 117.395 745.343 119.254 745.343 121.731C745.343 123.347 745.853 124.693 746.873 125.771C747.947 126.794 749.585 127.655 751.787 128.356C754.042 129.002 757.102 129.621 760.968 130.214C769.775 131.506 776.433 133.499 780.943 136.192C785.507 138.885 787.789 142.978 787.789 148.472C787.789 151.973 786.742 155.285 784.648 158.408C782.554 161.532 779.413 164.064 775.225 166.003C771.036 167.888 765.962 168.83 760.002 168.83Z" fill="#FAFAFA"/>
<path d="M1096.11 35.9678H1110.69L1140.01 80.4817H1140.81V35.9678H1153.7V100.598H1138.64L1109.8 57.8612H1109V100.598H1096.11V35.9678Z" fill="#FAFAFA"/>
<path d="M1080.02 35.9678H1092.91V100.598H1080.02V35.9678Z" fill="#FAFAFA"/>
<path d="M1011.48 101.002C1009.98 101.002 1008.61 100.652 1007.38 99.9514C1006.14 99.1975 1005.15 98.2279 1004.4 97.0432C1003.7 95.8045 1003.35 94.4311 1003.35 92.923V81.4513C1003.35 77.8966 1004.21 74.6379 1005.93 71.6757C1007.64 68.6598 1009.98 66.29 1012.93 64.5666C1015.94 62.8431 1019.24 61.9814 1022.84 61.9814H1044.75C1046.47 61.9814 1047.89 61.4967 1049.02 60.5272C1050.14 59.5578 1050.87 58.3729 1051.19 56.9725C1051.57 55.5184 1051.57 54.1719 1051.19 52.9332C1050.82 51.6944 1050.12 50.7249 1049.1 50.0248C1048.13 49.2708 1046.98 48.813 1045.63 48.6514C1044.29 48.4899 1042.92 48.6514 1041.53 49.1362L1023.4 55.1952V35.9678H1044.18C1045.47 35.9678 1046.57 36.2371 1047.49 36.7756C1048.45 37.3142 1049.23 38.176 1049.82 39.3608L1076.96 94.7812C1077.5 95.9122 1077.69 96.9355 1077.53 97.8511C1077.37 98.7127 1076.96 99.3859 1076.32 99.8707C1075.68 100.356 1074.98 100.598 1074.23 100.598H1051.43C1050.31 100.598 1049.37 100.221 1048.61 99.4669C1047.92 98.659 1047.81 97.6357 1048.29 96.397L1051.27 89.1259L1052.32 86.5408C1053.55 83.4169 1054.44 80.9125 1054.98 79.0276C1055.57 77.0887 1055.86 75.3382 1055.86 73.7764C1055.86 71.9452 1055.27 70.4102 1054.09 69.1714C1052.96 67.9327 1051.43 67.3133 1049.5 67.3133C1047.73 67.3133 1046.2 67.9597 1044.91 69.2522C1043.67 70.491 1043.06 71.9992 1043.06 73.7764V92.923C1043.06 94.3771 1042.68 95.7235 1041.93 96.9625C1041.23 98.2012 1040.26 99.1975 1039.03 99.9514C1037.79 100.652 1036.45 101.002 1035 101.002H1011.48ZM1023.4 92.7613C1025.5 92.7613 1027.4 92.2768 1029.12 91.3072C1030.84 90.2839 1032.18 88.9105 1033.15 87.187C1034.17 85.4635 1034.68 83.5246 1034.68 81.3703C1034.68 79.27 1034.17 77.3581 1033.15 75.6346C1032.18 73.9111 1030.84 72.5647 1029.12 71.5951C1027.4 70.5718 1025.5 70.0601 1023.4 70.0601C1021.31 70.0601 1019.38 70.5718 1017.6 71.5951C1015.89 72.5647 1014.52 73.9111 1013.5 75.6346C1012.53 77.3581 1012.05 79.27 1012.05 81.3703C1012.05 83.5246 1012.53 85.4635 1013.5 87.187C1014.52 88.9105 1015.89 90.2839 1017.6 91.3072C1019.32 92.2768 1021.26 92.7613 1023.4 92.7613Z" fill="#FAFAFA"/>
<path d="M945.742 35.9685H958.629V62.3052H988.027V35.8877H1000.91V100.518H988.027V74.6659H958.629V100.598H945.742V35.9685Z" fill="#FAFAFA"/>
<path d="M878.336 35.9678H942.528V66.1823H938.501C938.126 61.3889 936.675 56.9995 934.152 53.014C931.628 48.9746 928.299 45.7969 924.165 43.481C920.03 41.1113 915.493 39.9264 910.553 39.9264C905.452 39.9264 900.727 41.192 896.377 43.7234C892.082 46.2547 888.672 49.7017 886.149 54.0642C883.625 58.3729 882.363 63.0855 882.363 68.202C882.363 73.3186 883.625 78.0313 886.149 82.3399C888.672 86.6485 892.082 90.0685 896.377 92.5999C900.727 95.0773 905.452 96.316 910.553 96.316C915.6 96.316 920.218 95.1043 924.406 92.6806C928.648 90.2032 932.004 86.9716 934.474 82.9861C936.944 78.9469 938.286 74.692 938.501 70.2217H942.528V100.598H878.336V35.9678Z" fill="#FAFAFA"/>
<path d="M817.487 35.9678H832.066L861.383 80.4817H862.189V35.9678H875.075V100.598H860.014L831.18 57.8612H830.374V100.598H817.487V35.9678Z" fill="#FAFAFA"/>
<path d="M729.314 63.3546C729.314 57.5918 730.925 52.6099 734.147 48.4089C737.422 44.1541 742.04 40.9226 748 38.7144C753.961 36.4523 760.887 35.3213 768.78 35.3213H774.982C782.822 35.3213 789.695 36.4523 795.601 38.7144C801.562 40.9226 806.152 44.1541 809.374 48.4089C812.649 52.6099 814.287 57.5918 814.287 63.3546V73.2108C814.287 78.9735 812.649 83.9826 809.374 88.2372C806.152 92.4381 801.562 95.6697 795.601 97.9317C789.695 100.14 782.822 101.244 774.982 101.244H768.78C760.887 101.244 753.961 100.14 748 97.9317C742.04 95.6697 737.422 92.4381 734.147 88.2372C730.925 83.9826 729.314 78.9735 729.314 73.2108V63.3546ZM803.092 86.2176C803.575 86.2176 804.004 86.1099 804.38 85.8945C804.756 85.6791 805.052 85.3827 805.266 85.0059C805.481 84.6288 805.588 84.198 805.588 83.7132V56.4069C805.588 55.976 805.481 55.5721 805.266 55.1951C805.052 54.8181 804.756 54.5218 804.38 54.3064C804.004 54.091 803.575 53.9832 803.092 53.9832H740.429C740 53.9832 739.597 54.091 739.221 54.3064C738.845 54.5218 738.55 54.8181 738.335 55.1951C738.12 55.5721 738.013 55.976 738.013 56.4069V83.7132C738.013 84.198 738.12 84.6288 738.335 85.0059C738.55 85.3827 738.845 85.6791 739.221 85.8945C739.597 86.1099 740 86.2176 740.429 86.2176H803.092Z" fill="#FAFAFA"/>
</g>
<path d="M648.942 65.4213L664.853 92.312H665.469L681.457 65.4213H700.296L676.218 104.871L700.835 144.321H681.65L665.469 117.392H664.853L648.672 144.321H629.564L654.258 104.871L630.026 65.4213H648.942Z" fill="white"/>
<g clip-path="url(#clip1_5698_5298)">
<path d="M89.9726 82.9926C91.0237 82.753 91.9697 82.3619 92.8106 81.8238C93.6515 81.2856 94.3242 80.5624 94.8372 79.6626C95.3459 78.7629 95.6024 77.6823 95.6024 76.421C95.6024 75.1596 95.3165 74.0034 94.7489 73.1331C94.1771 72.2627 93.4413 71.5858 92.5415 71.1065C91.6417 70.6272 90.6201 70.2824 89.4806 70.0722C88.3412 69.8619 87.2312 69.7568 86.1507 69.7568H76.6064V83.3542H86.7813C87.8619 83.3542 88.9256 83.2323 89.9768 82.9926H89.9726Z" fill="white"/>
<path d="M266.982 78.5405H288.631L292.368 89.9557H304.107L285.46 33.7373H270.551L251.946 89.9557H263.319L266.973 78.5405H266.982ZM277.825 45.2703L285.381 68.5043H270.227L277.825 45.2703Z" fill="white"/>
<path d="M241.473 86.0325C245.345 83.4215 247.284 79.2969 247.284 73.6629C247.284 69.656 246.207 66.4858 244.055 64.1565C241.902 61.8272 238.471 60.3388 233.758 59.6871C237.361 58.9555 240.006 57.5092 241.7 55.3397C243.39 53.1743 244.24 50.3447 244.24 46.8508C244.24 42.3015 242.684 38.9757 239.568 36.8777C236.453 34.7796 231.294 33.7285 224.092 33.7285H204.229V89.9469H225.353C232.231 89.9469 237.605 88.6393 241.477 86.0283L241.473 86.0325ZM215.678 43.689H222.99C226.295 43.689 228.729 44.101 230.302 44.9293C231.87 45.7534 232.656 47.2376 232.656 49.3777C232.656 51.7322 231.836 53.3846 230.201 54.3348C228.561 55.285 226.051 55.7559 222.666 55.7559H215.678V43.6932V43.689ZM215.678 79.7972V65.7416H223.436C228.119 65.7416 231.315 66.263 233.022 67.3057C234.729 68.3484 235.582 70.1311 235.582 72.6454C235.582 74.487 235.196 75.9207 234.426 76.9508C233.653 77.9809 232.421 78.7125 230.73 79.1456C229.036 79.5786 225.958 79.793 221.489 79.793H215.678V79.7972Z" fill="white"/>
<path d="M500.504 79.4732H475.446V65.9894H496.565V55.8313H475.446V43.8485H500.504V33.7324H463.988V89.955H500.504V79.4732Z" fill="white"/>
<path d="M586.641 79.3722C584.896 80.4444 582.462 80.9783 579.35 80.9783C577.265 80.9783 575.423 80.7219 573.826 80.2089C572.228 79.696 570.845 78.977 569.684 78.0562C568.52 77.1354 567.288 75.7563 565.988 73.9148L557.176 80.6588C559.476 84.3419 562.461 87.0118 566.131 88.6599C569.802 90.3123 574.128 91.1364 579.111 91.1364C586.313 91.1364 591.762 89.6312 595.462 86.6292C599.158 83.623 601.008 79.3049 601.008 73.6709C601.008 70.4502 600.453 67.8098 599.343 65.7496C598.233 63.6936 596.761 62.0244 594.936 60.7547C593.107 59.4807 591.03 58.4884 588.701 57.7695C586.372 57.0505 584.017 56.382 581.633 55.7597C577.328 54.7843 574.309 53.8172 572.577 52.8544C570.845 51.8916 569.979 50.5041 569.979 48.6919C569.979 46.6317 570.811 45.1223 572.476 44.1637C574.141 43.2051 576.302 42.7216 578.955 42.7216C581.608 42.7216 583.895 43.2345 585.821 44.2646C587.743 45.2947 589.479 47.0017 591.022 49.3815L599.755 42.5576C595.718 35.8976 588.84 32.5635 579.119 32.5635C572.405 32.5635 567.241 34.0603 563.642 37.0497C560.039 40.0433 558.24 44.2057 558.24 49.5413C558.24 52.4634 558.782 54.8894 559.862 56.8108C560.947 58.7323 562.427 60.33 564.311 61.604C566.194 62.8779 568.427 63.9122 571.013 64.7111C573.599 65.51 576.353 66.3046 579.279 67.0866C582.285 67.8729 584.396 68.5708 585.615 69.1805C586.834 69.7901 587.747 70.5133 588.356 71.3542C588.966 72.1951 589.269 73.2378 589.269 74.4824C589.269 76.6771 588.394 78.3085 586.649 79.3764L586.641 79.3722Z" fill="white"/>
<path d="M323.726 49.781L344.198 89.955H357.686V33.7324H346.43V71.6318L327.38 33.7324H312.513V89.955H323.726V49.781Z" fill="white"/>
<path d="M380.028 70.4167L383.442 66.4729L398.999 89.955H413.298L390.834 57.9462L411.793 33.7324H398.431L380.028 55.6715V33.7324H368.575V89.955H380.028V70.4167Z" fill="white"/>
<path d="M455.663 79.4732H432.021V33.7324H420.568V89.955H455.663V79.4732Z" fill="white"/>
<path d="M513.252 141.477L497.414 112.651H483.152V173.377H495.089V132.572L509.477 157.934H516.633L531.197 132.572V173.377H543.176V112.651H529.221L513.252 141.477Z" fill="white"/>
<path d="M434.019 173.377H473.461V162.058H446.392V147.49H469.206V136.52H446.392V123.579H473.461V112.651H434.019V173.377Z" fill="white"/>
<path d="M412.541 115.767C408.316 113.69 402.619 112.651 395.454 112.651H377.114V173.373H395.631C403.001 173.373 408.72 172.364 412.785 170.346C416.851 168.327 419.891 165.094 421.913 160.65C423.931 156.206 424.94 150.324 424.94 143.012C424.94 135.7 423.931 129.886 421.913 125.484C419.895 121.081 416.771 117.844 412.546 115.767H412.541ZM410.591 154.73C409.539 157.362 407.773 159.241 405.305 160.368C402.833 161.495 399.154 162.058 394.273 162.058H389.534V123.974H394.273C399.158 123.974 402.842 124.529 405.331 125.643C407.816 126.757 409.577 128.591 410.616 131.151C411.654 133.712 412.171 137.639 412.171 142.932C412.171 148.226 411.646 152.102 410.591 154.734V154.73Z" fill="white"/>
<path d="M332.447 112.651L312.354 173.373H324.639L328.587 161.045H351.973L356.009 173.373H368.69L348.55 112.651H332.447ZM332.098 150.21L340.301 125.114L348.462 150.21H332.098Z" fill="white"/>
<path d="M92.491 109.372C93.601 109.132 94.6058 108.712 95.5056 108.111C96.4054 107.509 97.1412 106.731 97.713 105.769C98.2848 104.81 98.5665 103.637 98.5665 102.258C98.5665 100.757 98.1923 99.5417 97.4397 98.6125C96.6913 97.6833 95.7453 96.977 94.6016 96.4977C93.4622 96.0184 92.2303 95.6862 90.9101 95.5054C89.5899 95.3246 88.3579 95.2363 87.2185 95.2363H76.5938V109.733H89.1988C90.2794 109.733 91.3768 109.612 92.4868 109.372H92.491Z" fill="white"/>
<path d="M575.861 138.055L564.017 112.651H550.504L569.5 150.475V173.377H581.958V150.21L601 112.651H587.97L575.861 138.055Z" fill="white"/>
<path d="M549.415 65.7467C548.305 63.6907 546.834 62.0215 545.009 60.7517C543.18 59.4778 541.103 58.4855 538.774 57.7665C536.445 57.0476 534.09 56.3791 531.706 55.7568C527.401 54.7813 524.382 53.8143 522.65 52.8515C520.917 51.8886 520.051 50.5012 520.051 48.689C520.051 46.6288 520.884 45.1194 522.549 44.1608C524.214 43.2021 526.375 42.7186 529.028 42.7186C531.681 42.7186 533.968 43.2316 535.894 44.2617C537.815 45.2918 539.552 46.9988 541.095 49.3786L549.827 42.5546C545.791 35.8947 538.913 32.5605 529.192 32.5605C522.477 32.5605 517.314 34.0573 513.715 37.0468C510.112 40.0404 508.312 44.2028 508.312 49.5383C508.312 52.4605 508.855 54.8865 509.935 56.8079C511.02 58.7294 512.5 60.3271 514.383 61.601C516.267 62.875 518.5 63.9093 521.085 64.7082C523.671 65.507 526.425 66.3017 529.352 67.0837C532.358 67.87 534.468 68.5679 535.688 69.1776C536.907 69.7872 537.819 70.5104 538.429 71.3513C539.039 72.1922 539.341 73.2349 539.341 74.4794C539.341 76.6742 538.467 78.3055 536.722 79.3735C534.977 80.4456 532.543 80.9796 529.431 80.9796C527.346 80.9796 525.504 80.7231 523.907 80.2102C522.309 79.6972 520.926 78.9782 519.765 78.0575C518.601 77.1367 517.369 75.7576 516.07 73.916L507.257 80.6601C509.557 84.3432 512.542 87.0131 516.212 88.6612C519.883 90.3136 524.209 91.1377 529.192 91.1377C536.394 91.1377 541.843 89.6325 545.543 86.6304C549.239 83.6242 551.089 79.3062 551.089 73.6722C551.089 70.4515 550.534 67.8111 549.424 65.7509L549.415 65.7467Z" fill="white"/>
<path d="M292.146 161.617C290.14 162.991 287.34 163.677 283.745 163.677C278.393 163.677 274.495 161.966 272.052 158.543C269.609 155.121 268.39 149.945 268.39 143.012C268.39 135.582 269.689 130.28 272.296 127.106C274.899 123.932 278.687 122.346 283.661 122.346C285.738 122.346 287.521 122.582 289.013 123.049C290.506 123.515 291.834 124.218 293.008 125.155C294.176 126.093 295.463 127.611 296.867 129.717L306.475 122.258C304.515 119.012 301.665 116.385 297.918 114.383C294.172 112.378 289.333 111.377 283.396 111.377C274.415 111.377 267.541 113.95 262.773 119.096C258.005 124.247 255.621 132.214 255.621 143.007C255.621 164.097 265.022 174.638 283.833 174.638C289.362 174.638 294.021 173.726 297.809 171.897C301.597 170.068 304.793 167.209 307.395 163.319L297.611 156.125C295.972 158.409 294.151 160.237 292.15 161.608L292.146 161.617Z" fill="white"/>
<path d="M87.8239 40.7254C53.8768 41.3182 26.8376 69.3202 27.4305 103.263C28.0233 137.21 56.0253 164.249 89.9682 163.657C123.915 163.064 150.955 135.062 150.362 101.119C149.769 67.1717 121.767 40.1326 87.8239 40.7254ZM62.5549 57.8713H86.3271C89.0895 57.8713 91.8645 58.0648 94.6563 58.4558C97.448 58.8468 99.9539 59.6246 102.174 60.7977C104.394 61.9665 106.198 63.6021 107.577 65.7043C108.956 67.8066 109.65 70.5984 109.65 74.0797C109.65 77.561 108.645 80.6682 106.635 83.0395C104.625 85.4108 101.968 87.1053 98.6673 88.1269V88.3077C100.77 88.6063 102.674 89.1949 104.385 90.0652C106.097 90.9356 107.568 92.0455 108.796 93.3952C110.028 94.7448 110.974 96.3215 111.634 98.121C112.294 99.9206 112.626 101.842 112.626 103.885C112.626 107.249 111.907 110.053 110.465 112.303C109.023 114.552 107.165 116.369 104.882 117.752C102.599 119.131 100.034 120.123 97.1832 120.724C94.3325 121.326 91.4945 121.624 88.6732 121.624H62.5633V57.8755L62.5549 57.8713ZM117.651 142.739H57.5221V132.678H117.651V142.739Z" fill="white"/>
<path d="M176.303 50L90.3926 0.399502C89.4676 -0.13447 88.3282 -0.13447 87.4032 0.399502L1.4926 50C0.567608 50.534 0 51.5221 0 52.59V151.791C0 152.859 0.571812 153.847 1.4926 154.381L87.4032 203.982C88.3282 204.515 89.4676 204.515 90.3926 203.982L176.303 154.381C177.228 153.847 177.796 152.859 177.796 151.791V52.59C177.796 51.5221 177.224 50.534 176.303 50ZM165.023 144.345C165.023 145.455 164.43 146.481 163.471 147.036L96.157 185.898V171.531C96.157 171.531 92.4192 171.905 88.8958 171.905C85.3724 171.905 81.6346 171.531 81.6346 171.531V185.898L14.3205 147.036C13.3577 146.481 12.7691 145.455 12.7691 144.345V67.2175L24.8528 74.1927C24.8528 74.1927 25.8913 71.649 28.1576 67.7178C30.428 63.7866 32.1098 61.6171 32.1098 61.6171L19.5089 54.3433L87.3443 15.1825C88.3072 14.6275 89.4886 14.6275 90.4515 15.1825L158.312 54.3643L145.741 61.6213C145.741 61.6213 147.422 63.7908 149.693 67.722C151.963 71.6532 152.998 74.1969 152.998 74.1969L165.018 67.2553V144.345H165.023Z" fill="white"/>
<path d="M216.179 112.651L196.086 173.373H208.371L212.32 161.045H235.705L239.741 173.373H252.422L232.283 112.651H216.179ZM215.83 150.21L224.033 125.114L232.194 150.21H215.83Z" fill="white"/>
</g>
<defs>
<clipPath id="clip0_5698_5298">
<rect width="425.231" height="133.644" fill="white" transform="translate(729.315 35.3213)"/>
</clipPath>
<clipPath id="clip1_5698_5298">
<rect width="601" height="204.377" fill="white"/>
</clipPath>
</defs>
</svg>
