<svg width="24" height="24" viewBox="0 0 24 24" fill="none" xmlns="http://www.w3.org/2000/svg">
<path d="M2.23919 13.2348L2.31795 13.1157L7.06538 5.96401C7.13473 5.85927 7.29788 5.87013 7.35036 5.98385C8.14348 7.69552 8.82784 9.82423 8.50722 11.1495C8.37034 11.6947 7.99538 12.4332 7.57349 13.1157C7.51911 13.215 7.45912 13.3125 7.39537 13.4064C7.36536 13.4497 7.31475 13.475 7.26037 13.475H2.37793C2.24669 13.475 2.16984 13.3378 2.23919 13.2348Z" fill="white"/>
<path d="M20.7496 16.9531L20.7497 16.9529C21.0746 16.5178 21.594 16.1622 22.0333 15.9089C22.3616 15.7196 22.6775 15.5695 22.9003 15.4707V15.0122L17.8618 16.4149C17.2759 17.0302 16.7851 17.4425 16.6514 17.5548L16.6421 17.5626L16.6366 17.5672L16.6366 17.5672C16.2025 17.9216 15.6634 18.115 15.0979 18.115H13.088H12.588V17.615V15.6415V15.1415H13.088H14.5618L14.6711 15.0449L14.6718 15.0443C14.7572 14.969 14.8561 14.8806 14.9742 14.7668C14.9858 14.7556 14.9972 14.7447 15.0083 14.734C15.0747 14.6703 15.1342 14.6132 15.1931 14.5499L15.2044 14.5377L15.2165 14.5263C15.2834 14.4634 15.3526 14.3894 15.4226 14.3102L15.43 14.3019L15.4377 14.2938C15.5543 14.1732 15.6673 14.0459 15.7933 13.9028L15.8003 13.8949L15.8076 13.8872C15.8753 13.8166 15.9423 13.7311 16.023 13.6246L16.035 13.6087L16.0482 13.5939C16.1227 13.5102 16.199 13.4124 16.2793 13.3069C16.3117 13.2614 16.3451 13.2165 16.3755 13.1757L16.3755 13.1756L16.3758 13.1752C16.4081 13.1318 16.4376 13.0921 16.4663 13.052C16.5206 12.9735 16.5724 12.8936 16.6142 12.8219L16.6221 12.8084L16.6308 12.7955C16.7695 12.5889 16.8894 12.3637 16.9929 12.1329L16.9983 12.1209L16.9984 12.1209C17.0387 12.0371 17.0712 11.9482 17.1126 11.835C17.1171 11.8225 17.1218 11.8098 17.1266 11.7968C17.1672 11.6807 17.1975 11.5814 17.2195 11.4809L17.22 11.4789C17.2752 11.2322 17.2878 10.9863 17.2628 10.737L17.2618 10.727L17.2619 10.727C17.2538 10.6253 17.2486 10.5773 17.2389 10.54L17.2229 10.4783V10.4364C17.2186 10.4124 17.2122 10.386 17.2045 10.3622L17.1975 10.341L17.1925 10.3193C17.1341 10.0659 17.0416 9.80625 16.9205 9.54521L16.9169 9.53732L16.9135 9.52931C16.8761 9.44085 16.8311 9.34732 16.7848 9.25611C16.6691 9.04919 16.5535 8.8526 16.4256 8.66621L16.419 8.65661L16.4192 8.65654C16.3889 8.61021 16.3702 8.58432 16.3478 8.55333C16.3265 8.5238 16.3018 8.48965 16.2606 8.42878L16.26 8.42786C16.1808 8.31028 16.0931 8.19851 15.9955 8.07412C15.9727 8.04499 15.9493 8.01517 15.9253 7.98442C15.8734 7.9189 15.823 7.86073 15.7653 7.79422C15.7294 7.75279 15.6907 7.70812 15.647 7.65642C15.5532 7.54692 15.4616 7.44328 15.3688 7.34184C15.0355 6.97954 14.6832 6.64864 14.3629 6.36153L14.3562 6.35551L14.3497 6.34926C14.3008 6.30207 14.2448 6.25265 14.1842 6.20243L14.1737 6.19368L14.1738 6.19354C13.9268 5.97681 13.7059 5.79188 13.5243 5.65078C13.4684 5.60919 13.4186 5.56923 13.3767 5.53518C13.3671 5.52741 13.3581 5.52014 13.3497 5.51328C13.3204 5.4894 13.2972 5.47055 13.2747 5.45306C13.2181 5.41237 13.159 5.36904 13.1145 5.33645C13.1123 5.33487 13.1102 5.33331 13.1081 5.33177L12.9575 5.29107L12.588 5.1912V4.80839V3.10398C12.588 2.97014 12.533 2.84672 12.4356 2.75105C12.3426 2.65965 12.2094 2.6001 12.0567 2.6001C11.7503 2.6001 11.5255 2.83823 11.5255 3.10398V4.25228V4.90546L10.8949 4.73494L10.7881 4.70604L10.7868 4.70569L10.4993 4.62711L10.4962 4.62626L10.2914 4.57174H10.2863L10.2242 4.55553L9.10466 4.26334C9.15903 4.36835 9.21287 4.47764 9.26433 4.58595M20.7496 16.9531L8.81302 4.80116M20.7496 16.9531C20.4478 17.3576 20.1618 17.7996 19.8853 18.2269C19.8447 18.2896 19.8043 18.3521 19.7641 18.414C19.445 18.9058 19.1344 19.3722 18.8004 19.7801C18.1327 20.5955 17.4354 21.0998 16.5154 21.0998H7.00368C3.97602 21.0998 1.5352 18.7971 1.40601 15.9411H6.03167C6.04924 16.2529 6.13444 16.5605 6.28442 16.8454C6.68964 17.6345 7.51817 18.115 8.40054 18.115H11.0255H11.5255V17.615V15.6415V15.1415H11.0255H9.08019M20.7496 16.9531L9.08019 15.1415M9.26433 4.58595C9.26444 4.58617 9.26454 4.58639 9.26465 4.58661L8.81302 4.80116M9.26433 4.58595C9.26421 4.58568 9.26408 4.58541 9.26395 4.58514L8.81302 4.80116M9.26433 4.58595C9.308 4.67709 9.35034 4.76361 9.39924 4.85776L9.40437 4.86763L9.40905 4.87772C9.43005 4.92294 9.45183 4.96952 9.47421 5.01738C9.55812 5.19683 9.6504 5.39417 9.74063 5.60467L9.73988 5.60296L9.28175 5.80325M8.81302 4.80116C8.858 4.89504 8.90301 4.98713 8.95553 5.08824C8.97764 5.13587 9.00018 5.18407 9.02304 5.23297C9.10679 5.41208 9.19484 5.60041 9.28175 5.80325M9.28175 5.80325L9.74134 5.60634L9.74309 5.61029C9.81535 5.77558 9.89419 5.95591 9.9642 6.14578M9.28175 5.80325L9.28248 5.80492C9.35722 5.97588 9.43198 6.14687 9.49738 6.32503M9.10432 4.26267C9.08634 4.22584 9.06691 4.18893 9.05231 4.1612C9.04868 4.1543 9.04534 4.14796 9.04241 4.14234C9.02402 4.10716 9.01454 4.08761 9.00859 4.07326L8.99721 4.04585L8.98267 4.01998L8.78166 3.66229L8.71294 3.64435C8.71274 3.74091 8.67757 3.83172 8.62377 3.89811C8.57279 3.96103 8.49963 4.00983 8.4158 4.03185L8.44985 4.09243L8.72565 4.16442L8.76452 4.17456L9.09389 4.26053M9.10432 4.26267C9.10329 4.26068 9.10226 4.2587 9.10123 4.25672L9.09389 4.26053M9.10432 4.26267C9.10443 4.26289 9.10453 4.26311 9.10464 4.26333M9.10432 4.26267L9.10464 4.26333M9.09389 4.26053L8.65741 4.48699L9.10761 4.26945C9.10663 4.26741 9.10564 4.26537 9.10464 4.26333M9.09389 4.26053L9.10464 4.26333M10.3636 4.07354L10.3561 4.10171L10.3505 4.12288L10.235 4.5565M10.3636 4.07354L10.2443 4.5592M10.3636 4.07354V4.57354C10.3486 4.57354 10.3344 4.57287 10.3212 4.57174M10.3636 4.07354L10.3212 4.57174M10.235 4.5565C10.2314 4.55558 10.228 4.55466 10.2247 4.55374C10.2045 4.54809 10.1894 4.5425 10.1822 4.53974L10.1867 4.54147C10.1905 4.54287 10.1959 4.54483 10.2024 4.54703C10.2082 4.54898 10.2157 4.5514 10.2246 4.55397C10.2306 4.55568 10.2372 4.55745 10.2443 4.5592M10.235 4.5565L10.2349 4.55669L10.2443 4.5592M10.235 4.5565C10.2387 4.55745 10.2426 4.55839 10.2466 4.55931C10.2623 4.56293 10.2796 4.56609 10.2984 4.56832C10.3153 4.57033 10.3327 4.5715 10.3505 4.57171C10.3524 4.57173 10.3542 4.57174 10.3561 4.57174H10.3505H10.3212M10.2443 4.5592C10.2498 4.56054 10.2557 4.56187 10.2618 4.56313C10.2786 4.5666 10.2986 4.56983 10.3212 4.57174M9.08019 15.1415C9.28859 14.8347 9.52725 14.4623 9.76478 14.0578M9.08019 15.1415L10.1517 8.29847M9.76478 14.0578C9.76457 14.0581 9.76435 14.0585 9.76414 14.0589L9.33427 13.8035L9.76545 14.0567C9.76522 14.057 9.765 14.0574 9.76478 14.0578ZM9.76478 14.0578C10.0077 13.6488 10.2477 13.2046 10.4437 12.7525M10.4437 12.7525C10.4857 12.6642 10.5196 12.5761 10.5454 12.5089C10.5479 12.5025 10.5503 12.4963 10.5526 12.4903L10.5526 12.4903L10.5552 12.4835C10.5649 12.4571 10.5759 12.4281 10.5876 12.3974C10.6251 12.2984 10.6697 12.181 10.7032 12.0689M10.4437 12.7525C10.4421 12.7559 10.4404 12.7592 10.4388 12.7626L9.98862 12.5451M10.4437 12.7525C10.445 12.7494 10.4463 12.7464 10.4476 12.7434L9.98862 12.5451M10.7032 12.0689C10.7377 11.9676 10.7671 11.8617 10.7909 11.776C10.7961 11.7575 10.8009 11.74 10.8055 11.7237L10.8081 11.7147L10.8103 11.7056C10.9096 11.2945 10.9499 10.8675 10.9499 10.4362C10.9499 10.2681 10.9421 10.0925 10.9263 9.92283M10.7032 12.0689C10.7019 12.0727 10.7006 12.0765 10.6993 12.0802L10.2268 11.9168M10.7032 12.0689C10.7043 12.065 10.7055 12.0611 10.7066 12.0572L10.2268 11.9168M10.9263 9.92283C10.9173 9.73401 10.893 9.54908 10.8718 9.38714L10.8716 9.38567M10.9263 9.92283C10.9265 9.92718 10.9267 9.93153 10.9269 9.93588L10.4274 9.95773M10.9263 9.92283C10.9259 9.91862 10.9255 9.9144 10.9251 9.91019L10.4274 9.95773M10.8716 9.38567C10.8541 9.21367 10.8228 9.04776 10.7941 8.89715M10.8716 9.38567C10.8719 9.38843 10.8722 9.39119 10.8724 9.39395L10.3749 9.44318M10.8716 9.38567L10.8706 9.37812L10.3749 9.44318M10.7941 8.89715C10.7536 8.65128 10.698 8.41153 10.6369 8.17735M10.7941 8.89715C10.7937 8.89501 10.7933 8.89288 10.7929 8.89075L10.3017 8.98458M10.7941 8.89715C10.7944 8.89938 10.7948 8.90162 10.7952 8.90386L10.3017 8.98458M10.6369 8.17735L10.6176 8.09617L10.6149 8.08505L10.6118 8.07406C10.6011 8.03669 10.5899 7.99613 10.5781 7.95341C10.5476 7.84293 10.5131 7.71803 10.4728 7.59675M10.6369 8.17735L10.6382 8.18283L10.1517 8.29847M10.6369 8.17735C10.6364 8.17552 10.6359 8.17369 10.6354 8.17186L10.1517 8.29847M10.4728 7.59675C10.3213 7.09338 10.1474 6.60385 9.9642 6.14578M10.4728 7.59675C10.4735 7.59914 10.4743 7.60152 10.475 7.60391L9.99612 7.74779M10.4728 7.59675C10.472 7.59424 10.4712 7.59174 10.4703 7.58924L9.99612 7.74779M9.9642 6.14578C9.96505 6.14809 9.9659 6.15041 9.96675 6.15272L9.49738 6.32503M9.9642 6.14578C9.96332 6.14359 9.96244 6.14139 9.96156 6.1392L9.49738 6.32503M9.49738 6.32503C9.67736 6.7746 9.84801 7.25487 9.99612 7.74779M9.99612 7.74779C10.033 7.85797 10.0624 7.96461 10.0922 8.07267C10.1049 8.11867 10.1177 8.16492 10.1311 8.21181L10.1517 8.29847M10.3017 8.98458C10.3317 9.14165 10.3599 9.2915 10.3749 9.44318M10.3017 8.98458L10.2268 11.9168M10.3749 9.44318C10.3974 9.61469 10.4199 9.78621 10.4274 9.95773M10.4274 9.95773C10.4424 10.1148 10.4499 10.2791 10.4499 10.4362C10.4499 10.837 10.4124 11.2234 10.3242 11.5881C10.3188 11.6076 10.3133 11.6274 10.3077 11.6473C10.283 11.7361 10.2574 11.8282 10.2268 11.9168M9.98862 12.5451C10.0234 12.473 10.0518 12.3994 10.0796 12.3271C10.0818 12.3215 10.084 12.3159 10.0861 12.3103L9.98862 12.5451ZM10.5984 4.25228H10.5991H10.5984Z" fill="white" stroke="white"/>
</svg>
