<svg class="col-start-1 row-start-1" width="82" height="94" viewBox="0 0 81.40638795573723 94"><path class="translate-x-[3.5px] translate-y-[4.0px] transition-[stroke-dashoffset] delay-300 duration-1000 ease-in-out" fill="transparent" stroke="currentColor" stroke-width="8" stroke-dasharray="255" stroke-dashoffset="154.4025276" d="M31.176914536239785 3.4999999999999996Q37.23909236273086 0 43.30127018922193 3.5L68.41600689897065 18Q74.47818472546172 21.5 74.47818472546172 28.5L74.47818472546172 57.5Q74.47818472546172 64.5 68.41600689897065 68L43.30127018922193 82.5Q37.23909236273086 86 31.17691453623979 82.5L6.06217782649107 68Q0 64.5 0 57.5L0 28.5Q0 21.5 6.062177826491071 18Z"></path><path class="translate-x-[3.5px] translate-y-[4.0px]" fill="transparent" stroke="rgb(var(--color-background))" stroke-width="8" stroke-dasharray="255" stroke-dashoffset="249" d="M31.176914536239785 3.4999999999999996Q37.23909236273086 0 43.30127018922193 3.5L68.41600689897065 18Q74.47818472546172 21.5 74.47818472546172 28.5L74.47818472546172 57.5Q74.47818472546172 64.5 68.41600689897065 68L43.30127018922193 82.5Q37.23909236273086 86 31.17691453623979 82.5L6.06217782649107 68Q0 64.5 0 57.5L0 28.5Q0 21.5 6.062177826491071 18Z"></path><path class="translate-x-[3.5px] translate-y-[4.0px]" fill="transparent" stroke="rgb(var(--color-background-4) / .6)" stroke-width="8" stroke-dasharray="255" stroke-dashoffset="249" d="M31.176914536239785 3.4999999999999996Q37.23909236273086 0 43.30127018922193 3.5L68.41600689897065 18Q74.47818472546172 21.5 74.47818472546172 28.5L74.47818472546172 57.5Q74.47818472546172 64.5 68.41600689897065 68L43.30127018922193 82.5Q37.23909236273086 86 31.17691453623979 82.5L6.06217782649107 68Q0 64.5 0 57.5L0 28.5Q0 21.5 6.062177826491071 18Z"></path><path fill="transparent" stroke="currentColor" stroke-width="2" class="translate-x-[7.8px] translate-y-[9px]" d="M26.846787517317594 3.4999999999999996Q32.90896534380867 0 38.97114317029974 3.5L59.75575286112626 15.5Q65.81793068761733 19 65.81793068761733 26L65.81793068761733 50Q65.81793068761733 57 59.75575286112626 60.5L38.97114317029974 72.5Q32.90896534380867 76 26.846787517317598 72.5L6.06217782649107 60.5Q0 57 0 50L0 26Q0 19 6.062177826491071 15.5Z"></path><path fill="transparent" stroke="currentColor" stroke-width="2" d="M34.64101615137754 3.4999999999999996Q40.703193977868615 0 46.76537180435969 3.4999999999999996L75.34421012924616 20Q81.40638795573723 23.5 81.40638795573723 30.5L81.40638795573723 63.5Q81.40638795573723 70.5 75.34421012924616 74L46.76537180435969 90.5Q40.703193977868615 94 34.64101615137754 90.5L6.062177826491071 74Q0 70.5 0 63.5L0 30.5Q0 23.5 6.062177826491071 20Z"></path></svg>
