<svg width="400" height="400" viewBox="0 0 400 400" fill="none" xmlns="http://www.w3.org/2000/svg">
<g clip-path="url(#clip0_1843_845)">
<path fill-rule="evenodd" clip-rule="evenodd" d="M228.779 194.668C189.563 173.476 141.847 145.995 105.935 123.596C95.339 115.962 100.717 99.761 113.523 99.761H291.215C301.127 99.761 307.758 110.813 302.79 119.175C290.85 139.797 273.418 165.98 258.857 186.738C251.041 197.881 238.304 199.795 228.779 194.668ZM171.584 201.55C209.501 221.762 262.64 252.501 300.398 275.744C312.088 282.944 307.416 300.217 293.79 300.217C271.492 300.217 235.258 300.223 199.213 300.228C163.54 300.234 128.051 300.24 106.436 300.24C95.5444 300.24 89.9616 288.937 94.5874 281.053C110.219 254.415 127.788 227.527 142.394 207.452C148.888 198.496 162.105 196.491 171.584 201.55Z" fill="white"/>
</g>
<defs>
<clipPath id="clip0_1843_845">
<rect width="400" height="400" fill="white"/>
</clipPath>
</defs>
</svg>
