<svg width="72" height="72" viewBox="0 0 72 72" fill="none" xmlns="http://www.w3.org/2000/svg">
<g clip-path="url(#clip0_4861_1107)">
<path d="M36.0099 27.63H35.9999C31.3773 27.63 27.6299 31.3774 27.6299 36V36.01C27.6299 40.6326 31.3773 44.38 35.9999 44.38H36.0099C40.6325 44.38 44.3799 40.6326 44.3799 36.01V36C44.3799 31.3774 40.6325 27.63 36.0099 27.63Z" fill="#00FFB6"/>
<path d="M19.58 28.25C19.58 23.28 23.61 19.25 28.58 19.25H45.96L65.21 0H17.22L0 17.22V45.55H19.58V28.24V28.25Z" fill="white"/>
<path d="M52.42 26.38V43.09C52.42 48.06 48.39 52.09 43.42 52.09H26.71L6.79004 72.01H54.78L72 54.79V26.39H52.42V26.38Z" fill="white"/>
</g>
<defs>
<clipPath id="clip0_4861_1107">
<rect width="72" height="72" fill="white"/>
</clipPath>
</defs>
</svg>
