<?xml version="1.0" encoding="UTF-8"?><svg xmlns="http://www.w3.org/2000/svg" xmlns:xlink="http://www.w3.org/1999/xlink" viewBox="0 0 1024 1024"><defs><style>.cls-1{stroke:#b68bcc;stroke-width:2.7px;}.cls-1,.cls-2,.cls-3,.cls-4,.cls-5{stroke-miterlimit:10;}.cls-1,.cls-3,.cls-4,.cls-5{fill:none;}.cls-6{fill:url(#linear-gradient-2);}.cls-7{filter:url(#outer-glow-3);}.cls-8{filter:url(#outer-glow-4);}.cls-2{fill:url(#linear-gradient-12);stroke:#79468f;}.cls-2,.cls-5{stroke-width:3.52px;}.cls-9{filter:url(#luminosity-noclip-5);}.cls-3{stroke-linecap:square;stroke-width:10.92px;}.cls-3,.cls-4{stroke:#ffe69f;}.cls-4{stroke-linecap:round;stroke-width:10.92px;}.cls-10{mask:url(#mask-2);}.cls-11{fill:url(#linear-gradient-6);}.cls-5{filter:url(#outer-glow-8);stroke:#d64961;}.cls-12{mask:url(#mask-3);}.cls-13{filter:url(#outer-glow-1);}.cls-14{fill:#18131f;isolation:isolate;opacity:.5;}.cls-15{fill:url(#linear-gradient-10);}.cls-16{fill:url(#linear-gradient-9);filter:url(#outer-glow-6);}.cls-17{filter:url(#luminosity-noclip-4);}.cls-18{filter:url(#luminosity-noclip-6);}.cls-19{mask:url(#mask-4);}.cls-20{fill:url(#linear-gradient-5);}.cls-21{opacity:0;}.cls-22{fill:url(#linear-gradient-11);filter:url(#outer-glow-7);}.cls-23{fill:url(#linear-gradient-7);filter:url(#outer-glow-5);}.cls-24{filter:url(#luminosity-noclip-2);}.cls-25{mask:url(#mask-1);}.cls-26{mask:url(#mask);}.cls-27{fill:url(#linear-gradient-3);}.cls-28{fill:url(#linear-gradient);}.cls-29{fill:url(#linear-gradient-4);}.cls-30{filter:url(#outer-glow-2);}.cls-31{fill:url(#linear-gradient-8);}.cls-32{filter:url(#luminosity-noclip-3);}</style><filter id="luminosity-noclip-2" x="-59.01" y="272.68" width="619.69" height="619.31" color-interpolation-filters="sRGB" filterUnits="userSpaceOnUse"><feFlood flood-color="#fff" result="bg"/><feBlend in="SourceGraphic" in2="bg"/></filter><linearGradient id="linear-gradient" x1="1158.32" y1="-104.49" x2="1607.58" y2="-104.49" gradientTransform="translate(-1132.12 686.82)" gradientUnits="userSpaceOnUse"><stop offset="0" stop-color="#231f20"/><stop offset="1" stop-color="#fff"/></linearGradient><mask id="mask" x="-59.01" y="272.68" width="619.69" height="619.31" maskUnits="userSpaceOnUse"><g class="cls-24"><rect class="cls-28" x="26.2" y="357.11" width="449.27" height="450.45" transform="translate(-111.48 1102.67) rotate(-121.85)"/></g></mask><filter id="outer-glow-1" filterUnits="userSpaceOnUse"><feOffset dx="0" dy="0"/><feGaussianBlur result="blur" stdDeviation="5.4"/><feFlood flood-color="#8c29ff" flood-opacity="1"/><feComposite in2="blur" operator="in"/><feComposite in="SourceGraphic"/></filter><linearGradient id="linear-gradient-2" x1="-274.19" y1="634.96" x2="-274.19" y2="238.02" gradientTransform="translate(524.01 1024.14) scale(1 -1)" gradientUnits="userSpaceOnUse"><stop offset="0" stop-color="#9d79b3"/><stop offset="1" stop-color="#5c5396"/></linearGradient><filter id="outer-glow-2" filterUnits="userSpaceOnUse"><feOffset dx="0" dy="0"/><feGaussianBlur result="blur-2" stdDeviation="3.6"/><feFlood flood-color="#3b6dff" flood-opacity=".75"/><feComposite in2="blur-2" operator="in"/><feComposite in="SourceGraphic"/></filter><linearGradient id="linear-gradient-3" x1="-266.9" y1="459.15" x2="-266.9" y2="126.82" gradientTransform="translate(515.92 899.05) scale(1 -1)" gradientUnits="userSpaceOnUse"><stop offset="0" stop-color="#6bcdff"/><stop offset=".17" stop-color="#65c7fd"/><stop offset=".39" stop-color="#55b7f8"/><stop offset=".63" stop-color="#3a9df0"/><stop offset=".9" stop-color="#1479e5"/><stop offset="1" stop-color="#0469e0"/></linearGradient><filter id="outer-glow-3" filterUnits="userSpaceOnUse"><feOffset dx="0" dy="0"/><feGaussianBlur result="blur-3" stdDeviation="4.07"/><feFlood flood-color="#ff4545" flood-opacity=".7"/><feComposite in2="blur-3" operator="in"/><feComposite in="SourceGraphic"/></filter><linearGradient id="linear-gradient-4" x1="600.05" y1="647.69" x2="600.05" y2="511.93" gradientUnits="userSpaceOnUse"><stop offset="0" stop-color="#ffbd6b"/><stop offset="1" stop-color="#fffab8"/></linearGradient><filter id="outer-glow-4" filterUnits="userSpaceOnUse"><feOffset dx="0" dy="0"/><feGaussianBlur result="blur-4" stdDeviation="4.07"/><feFlood flood-color="#ff4545" flood-opacity=".7"/><feComposite in2="blur-4" operator="in"/><feComposite in="SourceGraphic"/></filter><linearGradient id="linear-gradient-5" x1="752.79" y1="887.51" x2="752.79" y2="751.74" gradientTransform="translate(0 -104.82)" xlink:href="#linear-gradient-4"/><filter id="luminosity-noclip-3" x="423.75" y="-89.35" width="595.16" height="639.96" color-interpolation-filters="sRGB" filterUnits="userSpaceOnUse"><feFlood flood-color="#fff" result="bg"/><feBlend in="SourceGraphic" in2="bg"/></filter><linearGradient id="linear-gradient-6" x1="717.74" y1="4.54" x2="718.62" y2="424.9" gradientTransform="translate(-3.11 -21.87) scale(1.01 1.25)" gradientUnits="userSpaceOnUse"><stop offset="0" stop-color="#fff"/><stop offset="1" stop-color="#000"/></linearGradient><mask id="mask-1" x="423.75" y="-89.35" width="595.16" height="639.96" maskUnits="userSpaceOnUse"><g class="cls-32"><rect class="cls-11" x="525.89" y="-26.02" width="390.88" height="513.29" transform="translate(-18.68 391.56) rotate(-30)"/></g></mask><linearGradient id="linear-gradient-7" x1="684.88" y1="44.91" x2="684.88" y2="344.84" gradientUnits="userSpaceOnUse"><stop offset="0" stop-color="#ff545d"/><stop offset="1" stop-color="#c42f4f"/></linearGradient><filter id="outer-glow-5" filterUnits="userSpaceOnUse"><feOffset dx="0" dy="0"/><feGaussianBlur result="blur-5" stdDeviation="4"/><feFlood flood-color="red" flood-opacity=".7"/><feComposite in2="blur-5" operator="in"/><feComposite in="SourceGraphic"/></filter><filter id="luminosity-noclip-4" x="420.06" y="168.16" width="586.35" height="624.71" color-interpolation-filters="sRGB" filterUnits="userSpaceOnUse"><feFlood flood-color="#fff" result="bg"/><feBlend in="SourceGraphic" in2="bg"/></filter><linearGradient id="linear-gradient-8" x1="586.94" y1="187.56" x2="587.82" y2="607.92" gradientTransform="translate(120.75 15.51) scale(1.01 1.21)" xlink:href="#linear-gradient-6"/><mask id="mask-2" x="420.06" y="168.16" width="586.35" height="624.71" maskUnits="userSpaceOnUse"><g class="cls-17"><rect class="cls-31" x="517.79" y="232.67" width="390.88" height="495.68" transform="translate(-144.7 420.99) rotate(-30)"/></g></mask><linearGradient id="linear-gradient-9" x1="684.91" y1="320.72" x2="684.91" y2="492.18" gradientUnits="userSpaceOnUse"><stop offset="0" stop-color="#ff545d"/><stop offset="1" stop-color="#c42f4f"/></linearGradient><filter id="outer-glow-6" filterUnits="userSpaceOnUse"><feOffset dx="0" dy="0"/><feGaussianBlur result="blur-6" stdDeviation="4"/><feFlood flood-color="red" flood-opacity=".7"/><feComposite in2="blur-6" operator="in"/><feComposite in="SourceGraphic"/></filter><filter id="luminosity-noclip-5" x="412.39" y="634.86" width="605.26" height="635.63" color-interpolation-filters="sRGB" filterUnits="userSpaceOnUse"><feFlood flood-color="#fff" result="bg"/><feBlend in="SourceGraphic" in2="bg"/></filter><linearGradient id="linear-gradient-10" x1="353.96" y1="526.66" x2="354.84" y2="947.03" gradientTransform="translate(337.58 77.88) scale(1.07 1.21)" xlink:href="#linear-gradient-6"/><mask id="mask-3" x="412.39" y="634.86" width="605.26" height="635.63" maskUnits="userSpaceOnUse"><g class="cls-9"><rect class="cls-15" x="508.66" y="704.83" width="412.71" height="495.68" transform="translate(-380.54 485.14) rotate(-30)"/></g></mask><linearGradient id="linear-gradient-11" x1="684.91" y1="832.8" x2="684.91" y2="985.87" gradientTransform="translate(1369.82) rotate(-180) scale(1 -1)" xlink:href="#linear-gradient-9"/><filter id="outer-glow-7" filterUnits="userSpaceOnUse"><feOffset dx="0" dy="0"/><feGaussianBlur result="blur-7" stdDeviation="4"/><feFlood flood-color="red" flood-opacity=".7"/><feComposite in2="blur-7" operator="in"/><feComposite in="SourceGraphic"/></filter><filter id="luminosity-noclip-6" x="365" y="301.38" width="718.97" height="955.22" color-interpolation-filters="sRGB" filterUnits="userSpaceOnUse"><feFlood flood-color="#fff" result="bg"/><feBlend in="SourceGraphic" in2="bg"/></filter><linearGradient id="linear-gradient-12" x1="835.02" y1="886.55" x2="1612.18" y2="886.55" gradientTransform="translate(-611.22 1817.06) scale(1.09 -1.17)" gradientUnits="userSpaceOnUse"><stop offset="0" stop-color="#fff"/><stop offset="1" stop-color="#000"/></linearGradient><mask id="mask-4" x="365" y="301.38" width="718.97" height="955.22" maskUnits="userSpaceOnUse"><g class="cls-18"><rect class="cls-2" x="300.3" y="518.64" width="848.36" height="520.69" transform="translate(1299.64 -115.94) rotate(75.65)"/></g></mask><filter id="outer-glow-8" filterUnits="userSpaceOnUse"><feOffset dx="0" dy="0"/><feGaussianBlur result="blur-8" stdDeviation="4"/><feFlood flood-color="red" flood-opacity=".7"/><feComposite in2="blur-8" operator="in"/><feComposite in="SourceGraphic"/></filter></defs><g id="Frame"><rect class="cls-21" width="1024" height="1024"/></g><g id="Master"><g id="Cadet"><g class="cls-26"><g class="cls-13"><g id="HexPlate-3"><polygon class="cls-6" points="249.69 779.46 80.4 682.2 80.4 486.58 249.82 388.77 419.23 486.58 419.23 682.2 249.69 779.46"/><polygon class="cls-1" points="249.69 779.46 80.4 682.2 80.4 486.58 249.82 388.77 419.23 486.58 419.23 682.2 249.69 779.46"/></g></g></g><polygon id="HexPlate-4" class="cls-14" points="249.73 758.77 97.81 671.79 97.81 496.44 249.67 408.76 401.53 496.44 401.53 671.79 249.73 758.77"/><g id="Cadet-2" class="cls-30"><path class="cls-27" d="M248.56,518.97c-30.74,0-35.81,2.85-35.81,2.85l-13.27,13.21-26.36,9.05v26.59s7.86,8.41,7.86,8.41l14.14,42.88-18.33,5.16-25.49-62.59,8.73-13.66c0,14.47,0-42.43,1.57-46.76s11.17-19.18,33.94-33.53c25.5-16.08,53-16.22,53-16.22h5.87s21.45,.15,46.95,16.22c22.77,14.35,32.37,29.18,33.94,33.53,1.57,4.34,1.57,46.76,1.57,46.76l8.73,13.66-25.49,62.59-18.33-5.15,14.14-42.88,7.86-8.41v-26.6s-26.36-9.05-26.36-9.05l-13.27-13.21s-4.86-2.85-35.6-2.85Zm7.87,59.18c4.26,2.32,7.01,10.61,12.9,11.58,12.27,2.01,38.3-8.11,38.3-8.11l3.01-9.15,5.76-4.86v-16.72l-21.32-6.41-14.69-14.08-12.21-1.37-3.71,3.17h-31.34l-3.45-3.17-12.96,1.37-14.69,14.08-21.32,6.41v16.72l5.76,4.86,3.01,9.15s26.02,10.11,38.3,8.11c5.89-.96,8.64-9.26,12.9-11.58,4.97-2.4,10.77-2.4,15.75,0h0Zm15.89,71.8c2.78-1.57,16.95-18.51,19.38-23.7,2.43-5.19,12.33-34.07,12.33-34.07,0,0-32.28,8.69-38.43,6.67-4.67-1.54-8.82-9.36-12.31-13.12-1.66-1.73-4.83-1.6-4.83-1.6,0,0-3.06-.09-4.71,1.63-3.49,3.75-7.64,11.58-12.31,13.12-6.16,2.03-38.43-6.67-38.43-6.67,0,0,9.32,28.19,12.33,34.07,3.01,5.88,16.02,22.34,19.38,23.7,3.36,1.36,44.83,1.54,47.61-.03h0Zm-50.35,11.77c7.09,8.99,26.27,30.89,26.27,30.89,0,0,18.47-21.08,26.27-30.89-3.57,.64-16.79,1.06-26.27,1.1-9.35,.04-23.03-.57-26.27-1.1h0Zm143.76,6l-42.95-9.76-1.36-14.51-20.99-2.58-50.04,58.46v14.66h-4.3v-14.69s-49.5-58.44-49.5-58.44l-20.99,2.58-2.63,14.51-41.68,9.76-8.96,18.16,127.4,72.89,125.97-72.18-9.97-18.87Z"/></g></g><g><line class="cls-4" x1="678.51" y1="580.09" x2="831.87" y2="580.09"/><polyline class="cls-3" points="820.67 564.82 836.7 580.09 820.67 595.36"/><line class="cls-4" x1="370.92" y1="580.09" x2="522.1" y2="580.09"/></g><g><line class="cls-4" x1="673.55" y1="715.73" x2="504.92" y2="715.73"/><polyline class="cls-3" points="516.11 731 500.09 715.74 516.11 700.47"/><line class="cls-4" x1="943.6" y1="715.73" x2="831.51" y2="715.73"/></g><g id="ETH" class="cls-7"><path class="cls-29" d="M621.59,569.07h-36.29v-11.54h16.28c4.84,0,15.91,.3,20.01,11.54Zm-36.49,33.6s11.91,0,17.13,0c4.2,0,15.06,.05,19.14-10.98h-36.27v10.98Zm82.82-23.12c.65,37.48-29.2,68.4-66.69,69.06-37.48,.65-68.4-29.2-69.06-66.69-.65-37.48,29.2-68.4,66.69-69.06,37.48-.65,68.4,29.2,69.06,66.69Zm-71.21-57.38l.08,4.4,2.2-.04c5.26-.09,10.53,.6,16.09,2.12,5.25,1.54,10.14,3.77,14.49,6.6l.78,.53c1.25,.85,2.33,1.59,3.46,2.59,3.46,2.78,6.32,5.72,8.76,8.99l.09,.12c2.22,2.6,3.94,5.56,5.45,8.36,3.89,7.35,5.94,15.5,6.09,24.24l.04,2.2,4.4-.08-.04-2.2c-.16-9.43-2.39-18.26-6.61-26.24-1.55-2.87-3.46-6.19-5.94-9.09-2.65-3.55-5.76-6.73-9.4-9.66-1.26-1.12-2.51-1.97-3.82-2.86l-.81-.55c-4.76-3.09-10.04-5.5-15.74-7.17-6-1.64-11.68-2.39-17.36-2.28l-2.2,.04Zm36.71,54.7h9.05v-7.06h-10.22c-5.22-19.82-24.41-22.7-32.48-22.7h-25.54v22.7h-16.61v7.06h16.61v7.27h-16.61v7.06h16.61v22.7s18.68,0,26.86,0c7.12,0,26.47-2.36,31.36-22.7h10.02v-7.06h-8.99c.07-1.05,.11-2.13,.11-3.25,0-1.4-.07-2.73-.17-4.02Zm-65.55,47.76l-1.75-1.33c-2.21-1.68-4.15-3.6-5.72-5.2-2.99-3.26-5.11-6.06-6.71-8.83-5.01-8.48-7.64-17.67-7.8-27.3-.08-4.71,.48-9.6,1.71-14.91,1.18-4.63,3.26-9.54,5.86-13.82,4.48-7.33,10.07-13.24,16.66-17.59,4.47-3.06,9.54-5.4,14.66-6.78l2.13-.57-1.14-4.25-2.13,.57c-5.59,1.5-11.13,4.06-15.97,7.37-7.1,4.69-13.15,11.06-17.97,18.95-2.86,4.71-5.06,9.91-6.38,15.07-1.32,5.7-1.92,10.94-1.83,16.02,.18,10.41,3.01,20.32,8.4,29.44,1.75,3.04,4.05,6.08,7.31,9.64,1.72,1.77,3.81,3.83,6.25,5.68l1.75,1.33,2.67-3.5Zm23.41,9.87l-2.14-.52c-3.68-.9-7.97-2.06-11.83-3.85l-2-.93-1.85,3.99,2,.93c4.2,1.95,8.74,3.18,12.63,4.13l2.14,.52,1.04-4.27Zm64.78-37.46l-4.21-1.28-.64,2.11c-1.08,3.56-2.68,6.75-4.69,10.37-2,3.25-3.77,5.72-5.6,7.82-1.24,1.52-2.62,2.83-4.08,4.22-.52,.49-1.04,.99-1.47,1.41-3.21,2.81-7,5.31-11.54,7.62-7.26,3.56-15.31,5.51-23.29,5.65l-2.2,.04,.08,4.4,2.2-.04c8.62-.15,17.31-2.26,25.18-6.12,4.9-2.49,8.98-5.19,12.56-8.33,.51-.5,1.01-.97,1.51-1.45,1.5-1.42,3.05-2.89,4.41-4.57,1.95-2.23,3.85-4.89,6.03-8.43,2.2-3.95,3.91-7.38,5.11-11.31l.64-2.11Zm-70.76-20.09v6.67h37.69c.1-1.06,.16-2.17,.16-3.35s-.06-2.26-.16-3.32h-37.69Z"/></g><g id="ETH-2" class="cls-8"><path id="Coin" class="cls-20" d="M754.75,701.5c.86-.2,1.64-.52,2.33-.96,.69-.44,1.25-1.04,1.67-1.78,.42-.74,.63-1.63,.63-2.66s-.23-1.99-.7-2.7-1.07-1.27-1.81-1.67c-.74-.39-1.58-.68-2.52-.85-.94-.17-1.85-.26-2.74-.26h-7.85s0,11.18,0,11.18h8.36c.89,0,1.76-.1,2.63-.3Zm3.81,11.1c-.94-.39-1.95-.67-3.03-.81-1.09-.15-2.1-.22-3.03-.22h-8.73s0,11.92,0,11.92h10.36c.89,0,1.79-.1,2.7-.3s1.74-.54,2.48-1.04,1.34-1.13,1.81-1.92c.47-.79,.7-1.75,.7-2.89,0-1.23-.31-2.23-.93-3-.62-.76-1.39-1.34-2.33-1.74Zm-6.96-64.74c-37.48,.65-67.34,31.57-66.69,69.06,.65,37.48,31.57,67.34,69.06,66.69,37.48-.65,67.34-31.57,66.69-69.06-.65-37.48-31.57-67.34-69.06-66.69Zm.05,9.26c5.69-.1,11.36,.65,17.36,2.28,5.7,1.67,10.99,4.08,15.74,7.17l.81,.55c1.32,.9,2.56,1.75,3.82,2.86,3.65,2.93,6.75,6.11,9.4,9.66,2.48,2.91,4.39,6.23,5.94,9.09,4.23,7.98,6.45,16.8,6.61,26.24l.04,2.2-4.4,.08-.04-2.2c-.15-8.74-2.2-16.89-6.09-24.24-1.51-2.8-3.22-5.76-5.45-8.36l-.09-.12c-2.44-3.27-5.3-6.21-8.76-8.99-1.14-1-2.21-1.74-3.46-2.59l-.78-.53c-4.35-2.83-9.24-5.06-14.49-6.6-5.55-1.51-10.82-2.21-16.09-2.12l-2.2,.04-.08-4.4,2.2-.04Zm14.94,50.19c1.41,.72,2.62,1.63,3.63,2.74s1.79,2.41,2.33,3.89c.54,1.48,.81,3.06,.81,4.74,0,2.76-.59,5.07-1.78,6.92-1.18,1.85-2.71,3.34-4.59,4.48-1.88,1.13-3.98,1.95-6.33,2.44-2.34,.49-4.68,.74-6.99,.74h-21.46s0-52.4,0-52.4h19.54c2.27,0,4.55,.16,6.85,.48,2.29,.32,4.35,.96,6.18,1.92s3.31,2.31,4.44,4.03c1.13,1.73,1.7,4.02,1.7,6.88s-.83,5.42-2.48,7.36c-1.65,1.95-3.84,3.34-6.55,4.18v.15c1.73,.25,3.29,.73,4.7,1.44Zm10.91,35.03v8.27s-49.43,0-49.43,0v-8.27s49.43,0,49.43,0Zm-71.06,1.92c1.59,2.77,3.72,5.57,6.71,8.83,1.56,1.6,3.51,3.52,5.72,5.2l1.75,1.33-2.67,3.5-1.75-1.33c-2.43-1.85-4.52-3.91-6.25-5.68-3.26-3.55-5.57-6.6-7.31-9.64-5.39-9.12-8.22-19.03-8.4-29.44-.09-5.08,.51-10.32,1.83-16.02,1.31-5.16,3.51-10.36,6.38-15.07,4.82-7.89,10.86-14.27,17.97-18.95,4.85-3.32,10.38-5.87,15.97-7.37l2.13-.57,1.14,4.25-2.13,.57c-5.12,1.37-10.19,3.72-14.66,6.78-6.59,4.35-12.18,10.26-16.66,17.59-2.6,4.28-4.68,9.19-5.86,13.82-1.23,5.3-1.79,10.19-1.71,14.91,.17,9.64,2.79,18.82,7.8,27.3Zm36.54,29.5l-2.14-.52c-3.89-.95-8.43-2.19-12.63-4.13l-2-.93,1.85-3.99,2,.93c3.86,1.79,8.14,2.95,11.83,3.85l2.14,.52-1.04,4.27Zm65.18-39.63c-1.2,3.93-2.91,7.37-5.11,11.31-2.18,3.55-4.08,6.2-6.03,8.43-1.37,1.68-2.91,3.15-4.41,4.57-.5,.48-1.01,.96-1.51,1.45-3.58,3.14-7.66,5.83-12.56,8.33-7.86,3.86-16.56,5.97-25.18,6.12l-2.2,.04-.08-4.4,2.2-.04c7.97-.14,16.03-2.09,23.29-5.65,4.54-2.31,8.33-4.81,11.54-7.62,.43-.43,.95-.92,1.47-1.41,1.46-1.39,2.84-2.69,4.08-4.22,1.84-2.11,3.6-4.57,5.6-7.82,2.01-3.62,3.61-6.81,4.69-10.37l.64-2.11,4.21,1.28-.64,2.11Z"/></g><g><g class="cls-25"><path class="cls-23" d="M586.09,144.47c-17.23-21.21-25.12-66.96-25.14-86.37,18.97,22.51,50.57,46.39,65.62,52.4-2.22,7.97-11.59,23.37-23.45,30.93-6.27,4-11.99,5.02-17.03,3.05Zm180.55-4.74c6.27,4,11.99,5.02,17.03,3.05,17.23-21.21,25.12-66.96,25.14-86.37-18.98,22.51-50.57,46.39-65.62,52.4,2.22,7.97,11.59,23.37,23.45,30.93Zm32.78,70.37c-12.32,81.99-10.13,113.19-113.38,113.19s-102.07-31.19-115.27-107.41c-8.05-46.5-9.79-47.8,5.14-69.4,1.17,1.68,2.41,3.3,3.72,4.86,.43,.51,.97,.92,1.58,1.21,3.2,1.5,6.57,2.25,10.05,2.25,5.44,0,11.15-1.84,16.88-5.5,15.27-9.74,28.31-31.17,28.27-41.87,0-1.98-1.26-3.74-3.13-4.39-1.19-.41-2.61-.96-4.21-1.63,17.28-8.15,36.58-12.72,56.96-12.72,19.19,0,37.44,4.04,53.94,11.32-1.31,.54-2.49,.99-3.5,1.34-1.87,.65-3.12,2.41-3.13,4.39-.04,10.71,13,32.13,28.27,41.87,5.73,3.65,11.43,5.5,16.88,5.5,3.47,0,6.84-.75,10.05-2.25,.61-.29,1.15-.7,1.58-1.21,1.52-1.8,2.94-3.69,4.27-5.66,16.01,22.06,11.75,21.46,5.03,66.12Zm-192.96-44.12s3.87,.76,5.76,1.26c6.22,1.53,12.66,4.13,18.26,7.21,3.97,2.08,7.27,5.31,10.89,7.91-8.7,2.13-15.17,9.95-15.17,19.31,0,10.99,8.91,19.9,19.9,19.9s19.9-9.47,19.9-19.9-4.69-17.03-8.18-21.53c-4.41-6.11-10.9-10.49-17.97-12.96-9.78-4.23-31.21-6.28-31.21-6.28l-2.19,5.07Zm156.25-5.07s-21.7,2.08-31.6,6.36c-7.16,2.5-13.74,6.93-18.2,13.12-3.53,4.55-8.28,11.23-8.28,21.8,0,10.56,9.02,20.15,20.15,20.15,11.13,0,20.15-9.02,20.15-20.15,0-9.47-6.55-17.4-15.36-19.55,3.67-2.64,7.01-5.9,11.03-8.01,5.68-3.12,12.19-5.75,18.49-7.3,1.91-.5,5.83-1.27,5.83-1.27l-2.21-5.14Zm5.72,62.02s-16.31,13.4-81.92,13.4-85.53-13.4-85.53-13.4c0,0,17.47,75.14,85.53,75.14s81.92-75.14,81.92-75.14Zm-136.46,15.19c-.3,4.38,3.06,18.95,10.72,28.54,1.92,2.4-.87-13.39,7.9-26.19,0,0-3.09-.35-9.32-1-5.23-.54-9.3-1.35-9.3-1.35Zm96.16,1.35c-6.23,.65-9.32,1-9.32,1,8.77,12.81,5.98,28.59,7.9,26.19,7.67-9.59,11.02-24.15,10.72-28.54,0,0-4.07,.8-9.3,1.35Zm-42.77,52.63c20.39,0,30.09-6.04,30.09-6.04,0,0-9.9-12.43-29.75-12.43s-30.43,12.43-30.43,12.43c0,0,9.71,6.04,30.09,6.04Z"/></g><g class="cls-10"><path class="cls-16" d="M527.19,414.04c13.79,5.16,45.14,12.03,157.75,12.03s144.26-7.02,158.36-12.3c18.48-6.92,27.51-12.09,26.89-15.37-.16-.17-.32-.34-.47-.49-.4-.49-.91-.96-1.51-1.41-.06-.05-.11-.09-.11-.09h0c-8.61-6.23-35.24-8.31-35.24-8.31l-20.56-33.24c-1.63-2.64-4.63-4.26-7.87-4.26h-240.25c-2.52,0-4.88,1.16-6.33,3.1l-25.68,34.4s-27.8,2.52-32.48,10.34c-.36,2.37,4.39,6.95,27.5,15.6Zm244.19-23.7c8.51,0,15.41,2.7,15.41,6.02s-6.9,6.02-15.41,6.02-15.41-2.7-15.41-6.02,6.9-6.02,15.41-6.02Zm-131.68-26.27c6.08,0,11.02,1.93,11.02,4.31s-4.93,4.31-11.02,4.31-11.02-1.93-11.02-4.31,4.93-4.31,11.02-4.31Zm-52.94,17.37c9.33,0,16.89,2.96,16.89,6.6s-7.56,6.6-16.89,6.6-16.89-2.96-16.89-6.6,7.56-6.6,16.89-6.6Zm291.48,46.29c.89,21.74-60.73,33.71-193.33,33.71s-194.22-11.97-193.33-33.71c.47-11.56,.82-17.44,2.39-22.62,6.79,6.56,19.68,11.39,29.42,15.04,15.81,5.92,48.45,12.71,161.55,12.71s146.02-6.94,162.16-12.98c9.98-3.74,22.24-8.33,28.81-14.58,1.53,5.14,1.87,11.01,2.34,22.43Z"/></g><g class="cls-12"><path class="cls-22" d="M870.13,888.26c-4.68-7.82-32.48-10.34-32.48-10.34l-25.68-34.4c-1.45-1.94-3.81-3.1-6.33-3.1h-240.25c-3.24,0-6.23,1.62-7.87,4.26l-20.56,33.24s-26.62,2.08-35.24,8.31h0s-.05,.04-.11,.09c-.6,.45-1.11,.92-1.51,1.41-.15,.15-.31,.32-.47,.49-.63,3.28,8.41,8.45,26.89,15.37,14.1,5.28,45.85,12.3,158.36,12.3,112.61,0,143.96-6.87,157.75-12.03,23.11-8.65,27.86-13.23,27.5-15.6Zm-256.28-2.07c0,3.33-6.9,6.02-15.41,6.02s-15.41-2.7-15.41-6.02,6.9-6.02,15.41-6.02,15.41,2.7,15.41,6.02Zm127.29-27.99c0,2.38-4.93,4.31-11.02,4.31s-11.02-1.93-11.02-4.31,4.93-4.31,11.02-4.31,11.02,1.93,11.02,4.31Zm58.82,19.66c0,3.65-7.56,6.6-16.89,6.6-9.33,0-16.89-2.96-16.89-6.6s7.56-6.6,16.89-6.6c9.33,0,16.89,2.96,16.89,6.6Zm-306.04,17.25c6.57,6.25,18.83,10.85,28.81,14.58,16.14,6.04,49.16,12.98,162.16,12.98,113.09,0,145.74-6.79,161.55-12.71,9.74-3.65,22.63-8.48,29.42-15.04,1.57,5.18,1.92,11.06,2.39,22.62,.89,21.74-60.73,33.71-193.33,33.71s-194.22-11.97-193.33-33.71c.47-11.42,.81-17.29,2.34-22.43Z"/></g><g class="cls-19"><path class="cls-5" d="M490.5,472.01l16.69,16.01v70.02m360.66-76.04l-30.51,29.26v26.68m-308.17-58.77v47.45m.03,295.94v-22.06s14.6-10.54,14.6-10.54v-37.45m126.14-64v-47.57m19.31,3.55v-31.55m52.05-118.76v31.55m69.6,258.15v31.55m-256.68-124.78v-31.56s-29.09-27.9-29.09-27.9m214.75-78.06l21.96-21.05v-44.07m71.09,265.98v70.28s21.96,21.05,21.96,21.05m-290-106.58v38.86m56.85-34.48v73.4"/></g></g></g></svg>