<?xml version="1.0" encoding="UTF-8"?><svg xmlns="http://www.w3.org/2000/svg" xmlns:xlink="http://www.w3.org/1999/xlink" viewBox="0 0 1024 1024"><defs><style>.cls-1{stroke-width:2.7px;}.cls-1,.cls-2,.cls-3,.cls-4{fill:none;stroke-miterlimit:10;}.cls-1,.cls-4{stroke:#b68bcc;}.cls-5{fill:url(#linear-gradient-2);}.cls-6{filter:url(#outer-glow-3);}.cls-7{filter:url(#outer-glow-4);}.cls-2{stroke-linecap:square;stroke-width:10.92px;}.cls-2,.cls-3{stroke:#ffe69f;}.cls-3{stroke-linecap:round;stroke-width:10.92px;}.cls-8{fill:url(#linear-gradient-6);}.cls-9{filter:url(#outer-glow-1);}.cls-10{fill:#18131f;isolation:isolate;opacity:.5;}.cls-4{stroke-width:3px;}.cls-11{fill:url(#linear-gradient-5);}.cls-12{opacity:0;}.cls-13{filter:url(#outer-glow-5);}.cls-14{fill:url(#linear-gradient-7);}.cls-15{filter:url(#luminosity-noclip-2);}.cls-16{mask:url(#mask-1);}.cls-17{mask:url(#mask);}.cls-18{fill:url(#linear-gradient-3);}.cls-19{fill:url(#linear-gradient);}.cls-20{fill:url(#linear-gradient-4);}.cls-21{filter:url(#outer-glow-6);}.cls-22{filter:url(#outer-glow-2);}.cls-23{fill:url(#linear-gradient-8);}.cls-24{filter:url(#luminosity-noclip-3);}</style><filter id="luminosity-noclip-2" x="-26.39" y="229.81" width="490.42" height="490.12" color-interpolation-filters="sRGB" filterUnits="userSpaceOnUse"><feFlood flood-color="#fff" result="bg"/><feBlend in="SourceGraphic" in2="bg"/></filter><linearGradient id="linear-gradient" x1="1313.35" y1="-74.98" x2="1668.9" y2="-74.98" gradientTransform="translate(-1272.3 549.85)" gradientUnits="userSpaceOnUse"><stop offset="0" stop-color="#231f20"/><stop offset="1" stop-color="#fff"/></linearGradient><mask id="mask" x="-26.39" y="229.81" width="490.42" height="490.12" maskUnits="userSpaceOnUse"><g class="cls-15"><rect class="cls-19" x="41.05" y="296.63" width="355.55" height="356.48" transform="translate(-69.09 911.31) rotate(-121.85)"/></g></mask><filter id="outer-glow-1" filterUnits="userSpaceOnUse"><feOffset dx="0" dy="0"/><feGaussianBlur result="blur" stdDeviation="5.4"/><feFlood flood-color="#8c29ff" flood-opacity="1"/><feComposite in2="blur" operator="in"/><feComposite in="SourceGraphic"/></filter><linearGradient id="linear-gradient-2" x1="-305.99" y1="702.13" x2="-305.99" y2="387.99" gradientTransform="translate(524.01 1024.14) scale(1 -1)" gradientUnits="userSpaceOnUse"><stop offset="0" stop-color="#9d79b3"/><stop offset="1" stop-color="#5c5396"/></linearGradient><filter id="outer-glow-2" filterUnits="userSpaceOnUse"><feOffset dx="0" dy="0"/><feGaussianBlur result="blur-2" stdDeviation="3.6"/><feFlood flood-color="#3b6dff" flood-opacity=".75"/><feComposite in2="blur-2" operator="in"/><feComposite in="SourceGraphic"/></filter><linearGradient id="linear-gradient-3" x1="-298.53" y1="536.9" x2="-298.53" y2="273.9" gradientTransform="translate(515.92 899.05) scale(1 -1)" gradientUnits="userSpaceOnUse"><stop offset="0" stop-color="#6bcdff"/><stop offset=".17" stop-color="#65c7fd"/><stop offset=".39" stop-color="#55b7f8"/><stop offset=".63" stop-color="#3a9df0"/><stop offset=".9" stop-color="#1479e5"/><stop offset="1" stop-color="#0469e0"/></linearGradient><filter id="luminosity-noclip-3" x="562.24" y="261.03" width="505.07" height="504.76" color-interpolation-filters="sRGB" filterUnits="userSpaceOnUse"><feFlood flood-color="#fff" result="bg"/><feBlend in="SourceGraphic" in2="bg"/></filter><linearGradient id="linear-gradient-4" x1="684.36" y1="856.05" x2="1050.53" y2="856.05" gradientTransform="translate(-52.67 -342.64)" xlink:href="#linear-gradient"/><mask id="mask-1" x="562.24" y="261.03" width="505.07" height="504.76" maskUnits="userSpaceOnUse"><g class="cls-24"><rect class="cls-20" x="631.69" y="329.85" width="366.17" height="367.13" transform="translate(808.56 1476.43) rotate(-121.85)"/></g></mask><filter id="outer-glow-3" filterUnits="userSpaceOnUse"><feOffset dx="0" dy="0"/><feGaussianBlur result="blur-3" stdDeviation="6"/><feFlood flood-color="#8c29ff" flood-opacity="1"/><feComposite in2="blur-3" operator="in"/><feComposite in="SourceGraphic"/></filter><linearGradient id="linear-gradient-5" x1="806.54" y1="670.09" x2="806.54" y2="346.57" gradientTransform="translate(0 1024.14) scale(1 -1)" xlink:href="#linear-gradient-2"/><filter id="outer-glow-4" filterUnits="userSpaceOnUse"><feOffset dx="0" dy="0"/><feGaussianBlur result="blur-4" stdDeviation="4"/><feFlood flood-color="#3b6dff" flood-opacity=".75"/><feComposite in2="blur-4" operator="in"/><feComposite in="SourceGraphic"/></filter><linearGradient id="linear-gradient-6" x1="814.86" y1="488.28" x2="814.86" y2="238.93" gradientTransform="translate(-8.1 899.05) scale(1 -1)" xlink:href="#linear-gradient-3"/><filter id="outer-glow-5" filterUnits="userSpaceOnUse"><feOffset dx="0" dy="0"/><feGaussianBlur result="blur-5" stdDeviation="4.07"/><feFlood flood-color="#ff4545" flood-opacity=".7"/><feComposite in2="blur-5" operator="in"/><feComposite in="SourceGraphic"/></filter><linearGradient id="linear-gradient-7" x1="555" y1="375.06" x2="555" y2="482.24" gradientTransform="translate(-81.69)" gradientUnits="userSpaceOnUse"><stop offset="0" stop-color="#fffab8"/><stop offset="1" stop-color="#ffbd6b"/></linearGradient><filter id="outer-glow-6" filterUnits="userSpaceOnUse"><feOffset dx="0" dy="0"/><feGaussianBlur result="blur-6" stdDeviation="4.07"/><feFlood flood-color="#ff4545" flood-opacity=".7"/><feComposite in2="blur-6" operator="in"/><feComposite in="SourceGraphic"/></filter><linearGradient id="linear-gradient-8" x1="545.1" y1="721.41" x2="545.1" y2="613.97" gradientTransform="translate(0 -104.82)" gradientUnits="userSpaceOnUse"><stop offset="0" stop-color="#ffbd6b"/><stop offset="1" stop-color="#fffab8"/></linearGradient></defs><g id="Frame"><rect class="cls-12" width="1024" height="1024"/></g><g id="Master"><g id="Cadet"><g class="cls-17"><g class="cls-9"><g id="HexPlate-3"><polygon class="cls-5" points="217.92 630.87 83.95 553.9 83.95 399.09 218.02 321.69 352.09 399.09 352.09 553.9 217.92 630.87"/><polygon class="cls-1" points="217.92 630.87 83.95 553.9 83.95 399.09 218.02 321.69 352.09 399.09 352.09 553.9 217.92 630.87"/></g></g></g><polygon id="HexPlate-4" class="cls-10" points="217.95 614.5 97.72 545.67 97.72 406.89 217.91 337.51 338.09 406.89 338.09 545.67 217.95 614.5"/><g id="Cadet-2" class="cls-22"><path class="cls-18" d="M217.02,424.72c-24.33,0-28.34,2.25-28.34,2.25l-10.5,10.45-20.86,7.16v21.05s6.22,6.66,6.22,6.66l11.19,33.93-14.51,4.08-20.17-49.54,6.91-10.81c0,11.45,0-33.58,1.24-37.01s8.84-15.18,26.86-26.53c20.18-12.72,41.95-12.84,41.95-12.84h4.65s16.98,.12,37.16,12.84c18.02,11.36,25.62,23.1,26.86,26.53,1.24,3.44,1.24,37.01,1.24,37.01l6.91,10.81-20.17,49.54-14.5-4.08,11.19-33.93,6.22-6.66v-21.05s-20.86-7.16-20.86-7.16l-10.5-10.45s-3.84-2.25-28.17-2.25Zm6.23,46.84c3.37,1.83,5.54,8.4,10.21,9.16,9.71,1.59,30.31-6.42,30.31-6.42l2.38-7.24,4.56-3.85v-13.23l-16.87-5.08-11.63-11.14-9.66-1.09-2.94,2.51h-24.8l-2.73-2.51-10.26,1.09-11.63,11.14-16.87,5.07v13.23l4.56,3.85,2.38,7.24s20.6,8,30.31,6.42c4.66-.76,6.84-7.33,10.21-9.16,3.94-1.9,8.52-1.9,12.46,0h0Zm12.57,56.82c2.2-1.24,13.41-14.64,15.34-18.75,1.93-4.11,9.76-26.96,9.76-26.96,0,0-25.54,6.88-30.42,5.28-3.7-1.22-6.98-7.41-9.74-10.38-1.31-1.37-3.83-1.27-3.83-1.27,0,0-2.42-.07-3.73,1.29-2.76,2.97-6.05,9.16-9.74,10.38-4.87,1.6-30.42-5.28-30.42-5.28,0,0,7.38,22.31,9.76,26.96s12.68,17.68,15.34,18.75,35.47,1.22,37.68-.03h0Zm-39.85,9.32c5.61,7.12,20.79,24.44,20.79,24.44,0,0,14.62-16.69,20.79-24.44-2.83,.51-13.29,.84-20.79,.87-7.4,.03-18.23-.45-20.79-.87h0Zm113.77,4.75l-33.99-7.72-1.08-11.48-16.61-2.04-39.6,46.26v11.6h-3.4v-11.62s-39.18-46.25-39.18-46.25l-16.61,2.04-2.08,11.48-32.98,7.72-7.09,14.37,100.82,57.68,99.69-57.12-7.89-14.93Z"/></g></g><g id="User"><g class="cls-16"><g class="cls-6"><g id="HexPlate"><polygon class="cls-11" points="806.43 672.14 668.46 592.87 668.46 433.44 806.54 353.72 944.62 433.44 944.62 592.87 806.43 672.14"/><polygon class="cls-4" points="806.43 672.14 668.46 592.87 668.46 433.44 806.54 353.72 944.62 433.44 944.62 592.87 806.43 672.14"/></g></g></g><polygon id="HexPlate-2" class="cls-10" points="806.47 655.28 682.65 584.39 682.65 441.47 806.42 370.01 930.19 441.47 930.19 584.39 806.47 655.28"/><g id="User-2" class="cls-7"><path class="cls-8" d="M783.52,555.96c-2.74-1.49-16.67-16.71-19.06-21.64s-9.05-19.16-12.13-48.2c-6.87-54.76,26.3-75.62,54.63-75.62s61.49,20.85,54.61,75.62c-3.08,29.04-9.74,43.27-12.13,48.2s-16.33,20.15-19.06,21.64c-2.93,1.6-43.59,1.54-46.85,0Zm117.22,18.99l-52.21-21.47-15.97,13.74s-7.03,1.26-23.53,1.35v50.31h-5.09v-50.32c-15.71-.15-22.48-1.35-22.48-1.35l-15.97-13.74-18.38,10.48s-30.06,7.99-33.83,10.99c-3.78,3-9.89,21.31-9.89,21.31l103.16,58.88,103.61-59.21-9.41-20.98Z"/></g></g><g><g><line class="cls-3" x1="535.29" y1="428.23" x2="613.52" y2="428.23"/><polyline class="cls-2" points="604.66 416.15 617.34 428.23 604.66 440.31"/><line class="cls-3" x1="313.87" y1="428.23" x2="411.51" y2="428.23"/></g><g id="ETH" class="cls-13"><path class="cls-14" d="M526.89,426.98c-.52-29.59-24.92-53.16-54.51-52.64-29.59,.52-53.16,24.92-52.64,54.51,.52,29.59,24.92,53.16,54.51,52.64,29.59-.52,53.16-24.92,52.64-54.51m-77.22-34.64c-5.18,3.41-9.59,8.08-13.13,13.87-1.01,1.67-1.93,3.45-2.71,5.28-.8,1.87-1.44,3.77-1.92,5.62-.97,4.22-1.42,8.07-1.35,11.78,.13,7.61,2.21,14.86,6.16,21.55v.02c1.25,2.16,2.93,4.37,5.28,6.93,1.27,1.3,2.79,2.8,4.53,4.13l1.38,1.05-2.1,2.76-1.38-1.05c-1.92-1.47-3.57-3.09-4.93-4.48l-.04-.04c-2.53-2.76-4.35-5.17-5.73-7.56-2.05-3.48-3.66-7.17-4.77-10.96-1.17-3.99-1.8-8.12-1.87-12.29-.07-4.01,.4-8.14,1.45-12.65v-.04c1.04-4.04,2.77-8.14,5.03-11.86h0c1.84-3.01,3.94-5.79,6.26-8.25,2.42-2.58,5.08-4.83,7.91-6.7,3.85-2.63,8.21-4.64,12.62-5.83l1.68-.45,.9,3.36-1.68,.45c-4.04,1.09-8.04,2.94-11.57,5.35l-.02,.02Zm23.64,45.73l-19.38-7.33,19.45-36.34,19.29,36.3-19.37,7.37Zm19.37-3.99l-19.37,25.01-19.38-25.01,19.38,7.73,19.37-7.73Zm-27.11,39.65l-1.69-.41c-3.07-.75-6.66-1.73-9.97-3.26l-1.58-.73,1.46-3.15,1.58,.73c3.04,1.41,6.43,2.33,9.34,3.04l1.69,.41-.83,3.37Zm51.46-31.28c-.94,3.1-2.3,5.82-4.03,8.93l-.02,.03-.02,.03c-1.67,2.72-3.17,4.81-4.7,6.57-1.11,1.36-2.33,2.52-3.5,3.63-.39,.37-.8,.76-1.19,1.15l-.03,.03-.04,.03c-2.76,2.41-5.98,4.54-9.85,6.51h-.02c-3.02,1.49-6.2,2.65-9.45,3.46-3.41,.85-6.91,1.31-10.4,1.37l-1.74,.03-.06-3.47,1.74-.03c6.29-.11,12.64-1.65,18.37-4.46,3.59-1.83,6.56-3.79,9.09-5.99,.4-.39,.81-.78,1.2-1.15,1.15-1.09,2.24-2.13,3.22-3.33l.04-.05c1.41-1.61,2.79-3.55,4.36-6.1,1.62-2.91,2.87-5.42,3.72-8.22l.51-1.66,3.32,1.01-.51,1.66Zm-.93-13.32l-.03-1.74c-.12-6.89-1.74-13.33-4.81-19.13-1.2-2.22-2.55-4.56-4.31-6.61l-.04-.04-.03-.05c-1.92-2.58-4.19-4.9-6.91-7.09l-.03-.03-.03-.03c-.83-.74-1.68-1.32-2.67-1.99-.19-.13-.39-.27-.6-.41-3.46-2.25-7.31-4-11.44-5.22-4.41-1.2-8.57-1.75-12.72-1.68l-1.74,.03-.06-3.47,1.74-.03c4.49-.08,8.97,.51,13.71,1.8h.03c4.47,1.32,8.64,3.22,12.39,5.66l.04,.03c.21,.14,.41,.28,.6,.41,1.03,.7,2,1.36,2.99,2.23,2.93,2.36,5.37,4.86,7.45,7.65,1.96,2.3,3.47,4.92,4.69,7.18h0c3.33,6.3,5.08,13.27,5.21,20.71l.03,1.74-3.47,.06Z"/></g></g><g><g><line class="cls-3" x1="482.39" y1="563.6" x2="403.08" y2="563.6"/><polyline class="cls-2" points="411.94 575.69 399.26 563.61 411.94 551.53"/><line class="cls-3" x1="701.61" y1="563.6" x2="607.4" y2="563.6"/></g><g id="ETH-2" class="cls-21"><path id="Coin" class="cls-23" d="M546.65,552.35c.68-.16,1.3-.41,1.85-.76,.55-.35,.99-.82,1.32-1.41,.33-.59,.5-1.29,.5-2.11s-.19-1.57-.56-2.14-.85-1.01-1.44-1.32c-.59-.31-1.25-.54-1.99-.67-.74-.14-1.46-.2-2.17-.2h-6.21v8.84h6.62c.7,0,1.4-.08,2.08-.23Zm3.02,8.79c-.74-.31-1.54-.53-2.4-.64-.86-.12-1.66-.18-2.4-.18h-6.91v9.43h8.2c.7,0,1.42-.08,2.14-.23s1.38-.43,1.96-.82,1.06-.9,1.44-1.52c.37-.62,.56-1.39,.56-2.28,0-.98-.24-1.77-.73-2.37-.49-.61-1.1-1.06-1.85-1.38Zm-5.51-51.24c-29.67,.52-53.29,24.99-52.78,54.65,.52,29.66,24.99,53.29,54.65,52.78,29.67-.52,53.29-24.99,52.78-54.65-.52-29.66-24.99-53.29-54.65-52.78Zm.04,7.33c4.5-.08,8.99,.51,13.74,1.81,4.51,1.32,8.69,3.23,12.46,5.68l.64,.44c1.04,.71,2.03,1.38,3.03,2.27,2.89,2.32,5.34,4.84,7.44,7.65,1.96,2.3,3.47,4.93,4.7,7.2,3.34,6.32,5.1,13.3,5.23,20.77l.03,1.74-3.48,.06-.03-1.74c-.12-6.91-1.74-13.37-4.82-19.18-1.2-2.22-2.55-4.56-4.31-6.62l-.07-.09c-1.93-2.59-4.2-4.91-6.93-7.11-.9-.79-1.75-1.37-2.74-2.05l-.62-.42c-3.44-2.24-7.31-4-11.47-5.22-4.39-1.2-8.57-1.75-12.73-1.68l-1.74,.03-.06-3.48,1.74-.03Zm11.82,39.72c1.11,.57,2.07,1.29,2.87,2.17s1.42,1.9,1.85,3.08,.64,2.42,.64,3.75c0,2.19-.47,4.01-1.41,5.48-.94,1.46-2.15,2.65-3.63,3.54-1.48,.9-3.15,1.54-5.01,1.93-1.85,.39-3.7,.59-5.54,.59h-16.99s0-41.47,0-41.47h15.46c1.8,0,3.6,.13,5.42,.38,1.82,.25,3.45,.76,4.89,1.52s2.62,1.83,3.51,3.19c.9,1.37,1.35,3.18,1.35,5.45s-.65,4.29-1.96,5.83c-1.31,1.54-3.04,2.65-5.18,3.31v.12c1.37,.2,2.61,.58,3.72,1.14Zm8.63,27.72v6.55s-39.12,0-39.12,0v-6.55s39.12,0,39.12,0Zm-56.23,1.52c1.26,2.19,2.94,4.41,5.31,6.99,1.24,1.27,2.78,2.79,4.52,4.12l1.39,1.05-2.11,2.77-1.39-1.06c-1.93-1.47-3.58-3.09-4.94-4.49-2.58-2.81-4.41-5.22-5.79-7.63-4.27-7.22-6.51-15.06-6.65-23.3-.07-4.02,.4-8.17,1.45-12.68,1.04-4.09,2.78-8.2,5.05-11.93,3.81-6.25,8.6-11.29,14.22-15,3.84-2.62,8.22-4.65,12.64-5.84l1.68-.45,.9,3.36-1.68,.45c-4.05,1.09-8.06,2.94-11.6,5.36-5.21,3.44-9.64,8.12-13.19,13.92-2.06,3.39-3.7,7.27-4.64,10.94-.97,4.2-1.42,8.07-1.35,11.8,.13,7.63,2.21,14.9,6.18,21.61Zm28.92,23.35l-1.69-.41c-3.08-.75-6.67-1.73-10-3.27l-1.58-.73,1.46-3.16,1.58,.73c3.05,1.41,6.44,2.33,9.36,3.05l1.69,.41-.83,3.38Zm51.58-31.36c-.95,3.11-2.3,5.83-4.04,8.95-1.73,2.81-3.23,4.91-4.78,6.67-1.08,1.33-2.31,2.49-3.49,3.62-.4,.38-.8,.76-1.2,1.15-2.84,2.48-6.06,4.62-9.94,6.59-6.22,3.05-13.11,4.72-19.93,4.84l-1.74,.03-.06-3.48,1.74-.03c6.31-.11,12.68-1.66,18.43-4.48,3.6-1.83,6.59-3.81,9.13-6.03,.34-.34,.75-.73,1.16-1.12,1.16-1.1,2.25-2.13,3.23-3.34,1.45-1.67,2.85-3.62,4.43-6.19,1.59-2.86,2.86-5.39,3.71-8.21l.51-1.67,3.33,1.01-.51,1.67Z"/></g></g></g></svg>