<?xml version="1.0" encoding="UTF-8"?><svg xmlns="http://www.w3.org/2000/svg" xmlns:xlink="http://www.w3.org/1999/xlink" viewBox="0 0 1024 1024"><defs><style>.cls-1{stroke-linecap:round;}.cls-1,.cls-2{fill:none;stroke:#ffe69f;stroke-miterlimit:10;stroke-width:7.29px;}.cls-3{fill:url(#linear-gradient-2);}.cls-4{filter:url(#outer-glow-4);}.cls-5{fill:#ffe69f;}.cls-6{fill:url(#GlassPanel);filter:url(#outer-glow-3);}.cls-6,.cls-7,.cls-8{stroke:#b68bcc;stroke-miterlimit:54.61;stroke-width:2.97px;}.cls-9{fill:url(#linear-gradient-6);filter:url(#outer-glow-6);}.cls-10{mask:url(#mask-2);}.cls-2{stroke-linecap:square;}.cls-11{fill:url(#GlassPanel_6-2);}.cls-11,.cls-12,.cls-13{opacity:.7;}.cls-14{filter:url(#outer-glow-1);}.cls-15{fill:#18131f;isolation:isolate;opacity:.5;}.cls-16{opacity:.8;}.cls-7{fill:url(#GlassPanel-2);filter:url(#outer-glow-5);}.cls-17{filter:url(#outer-glow-9);}.cls-18{filter:url(#luminosity-noclip-4);}.cls-12{fill:url(#GlassPanel_6);}.cls-19{fill:url(#linear-gradient-5);}.cls-13{fill:url(#GlassPanel_6-3);}.cls-20{filter:url(#outer-glow-8);}.cls-21{opacity:0;}.cls-22{fill:url(#linear-gradient-7);}.cls-23{filter:url(#luminosity-noclip-2);}.cls-8{fill:url(#GlassPanel-3);filter:url(#outer-glow-7);}.cls-24{mask:url(#mask-1);}.cls-25{mask:url(#mask);}.cls-26{fill:url(#linear-gradient-3);}.cls-27{fill:url(#linear-gradient);}.cls-28{fill:url(#linear-gradient-4);}.cls-29{filter:url(#outer-glow-2);}.cls-30{fill:url(#linear-gradient-8);}.cls-31{filter:url(#luminosity-noclip-3);}</style><filter id="outer-glow-1" filterUnits="userSpaceOnUse"><feOffset dx="0" dy="0"/><feGaussianBlur result="blur" stdDeviation="5.31"/><feFlood flood-color="#ff4545" flood-opacity=".7"/><feComposite in2="blur" operator="in"/><feComposite in="SourceGraphic"/></filter><linearGradient id="linear-gradient" x1="201.55" y1="454.74" x2="201.55" y2="568.17" gradientTransform="translate(-81.69)" gradientUnits="userSpaceOnUse"><stop offset="0" stop-color="#fffab8"/><stop offset="1" stop-color="#ffbd6b"/></linearGradient><filter id="outer-glow-2" filterUnits="userSpaceOnUse"><feOffset dx="0" dy="0"/><feGaussianBlur result="blur-2" stdDeviation="4.23"/><feFlood flood-color="#ff4545" flood-opacity=".7"/><feComposite in2="blur-2" operator="in"/><feComposite in="SourceGraphic"/></filter><linearGradient id="linear-gradient-2" x1="897.6" y1="673.05" x2="897.6" y2="556.35" gradientTransform="translate(0 -104.82)" gradientUnits="userSpaceOnUse"><stop offset="0" stop-color="#ffbd6b"/><stop offset="1" stop-color="#fffab8"/></linearGradient><filter id="luminosity-noclip-2" x="272.39" y="424.06" width="480.98" height="364.91" color-interpolation-filters="sRGB" filterUnits="userSpaceOnUse"><feFlood flood-color="#fff" result="bg"/><feBlend in="SourceGraphic" in2="bg"/></filter><linearGradient id="linear-gradient-3" x1="2152.71" y1="1105.72" x2="2152.71" y2="1498.65" gradientTransform="translate(-2907.82 -330.36) scale(1.59 .72)" gradientUnits="userSpaceOnUse"><stop offset="0" stop-color="#000"/><stop offset="1" stop-color="#fff"/></linearGradient><mask id="mask" x="272.39" y="424.06" width="480.98" height="364.91" maskUnits="userSpaceOnUse"><g class="cls-23"><rect class="cls-26" x="297.9" y="469.16" width="429.95" height="274.71" transform="translate(1149.74 1081.18) rotate(166.92)"/></g></mask><linearGradient id="GlassPanel" x1="518.32" y1="521.5" x2="518.32" y2="656.32" gradientTransform="translate(-11.42)" gradientUnits="userSpaceOnUse"><stop offset="0" stop-color="#9d79b3"/><stop offset="1" stop-color="#5c5396"/></linearGradient><filter id="outer-glow-3" filterUnits="userSpaceOnUse"><feOffset dx="0" dy="0"/><feGaussianBlur result="blur-3" stdDeviation="3.34"/><feFlood flood-color="#6636c6" flood-opacity="1"/><feComposite in2="blur-3" operator="in"/><feComposite in="SourceGraphic"/></filter><linearGradient id="GlassPanel_6" x1="196.57" y1="429.67" x2="196.57" y2="276.32" gradientTransform="translate(309.81 234.1)" gradientUnits="userSpaceOnUse"><stop offset="0" stop-color="#f099ff"/><stop offset="1" stop-color="#605ee0"/></linearGradient><filter id="outer-glow-4" filterUnits="userSpaceOnUse"><feOffset dx="0" dy="0"/><feGaussianBlur result="blur-4" stdDeviation="1.25"/><feFlood flood-color="#ff4545" flood-opacity=".6"/><feComposite in2="blur-4" operator="in"/><feComposite in="SourceGraphic"/></filter><linearGradient id="linear-gradient-4" x1="504.9" y1="733.88" x2="504.9" y2="651.99" xlink:href="#linear-gradient-2"/><filter id="luminosity-noclip-3" x="238.91" y="272.54" width="351.51" height="357.81" color-interpolation-filters="sRGB" filterUnits="userSpaceOnUse"><feFlood flood-color="#fff" result="bg"/><feBlend in="SourceGraphic" in2="bg"/></filter><linearGradient id="linear-gradient-5" x1="2149.46" y1="1372.19" x2="2149.46" y2="1765.11" gradientTransform="translate(-1515.14 -646.61) scale(.9 .7)" xlink:href="#linear-gradient-3"/><mask id="mask-1" x="238.91" y="272.54" width="351.51" height="357.81" maskUnits="userSpaceOnUse"><g class="cls-31"><rect class="cls-19" x="293.2" y="317.82" width="242.92" height="267.26" transform="translate(1011.99 589.12) rotate(145.55)"/></g></mask><linearGradient id="GlassPanel-2" x1="419.25" y1="363.97" x2="419.25" y2="498.79" xlink:href="#GlassPanel"/><filter id="outer-glow-5" filterUnits="userSpaceOnUse"><feOffset dx="0" dy="0"/><feGaussianBlur result="blur-5" stdDeviation="3.34"/><feFlood flood-color="#6636c6" flood-opacity="1"/><feComposite in2="blur-5" operator="in"/><feComposite in="SourceGraphic"/></filter><linearGradient id="GlassPanel_6-2" x1="295.63" y1="587.2" x2="295.63" y2="433.85" gradientTransform="translate(111.68 -80.96)" xlink:href="#GlassPanel_6"/><linearGradient id="linear-gradient-6" x1="409.14" y1="472.35" x2="409.14" y2="390.07" gradientTransform="matrix(1, 0, 0, 1, 0, 0)" xlink:href="#linear-gradient-2"/><filter id="outer-glow-6" filterUnits="userSpaceOnUse"><feOffset dx="0" dy="0"/><feGaussianBlur result="blur-6" stdDeviation="1.15"/><feFlood flood-color="#ff4545" flood-opacity=".6"/><feComposite in2="blur-6" operator="in"/><feComposite in="SourceGraphic"/></filter><filter id="luminosity-noclip-4" x="439.88" y="272.54" width="351.51" height="357.81" color-interpolation-filters="sRGB" filterUnits="userSpaceOnUse"><feFlood flood-color="#fff" result="bg"/><feBlend in="SourceGraphic" in2="bg"/></filter><linearGradient id="linear-gradient-7" x1="1964.88" y1="1209.84" x2="1964.88" y2="1602.76" gradientTransform="translate(-1148.45 -532.91) scale(.9 .7)" xlink:href="#linear-gradient-3"/><mask id="mask-2" x="439.88" y="272.54" width="351.51" height="357.81" maskUnits="userSpaceOnUse"><g class="cls-18"><rect class="cls-22" x="494.17" y="317.82" width="242.92" height="267.26" transform="translate(1378.68 475.43) rotate(145.55)"/></g></mask><linearGradient id="GlassPanel-3" x1="620.22" y1="363.97" x2="620.22" y2="498.79" xlink:href="#GlassPanel"/><filter id="outer-glow-7" filterUnits="userSpaceOnUse"><feOffset dx="0" dy="0"/><feGaussianBlur result="blur-7" stdDeviation="3.34"/><feFlood flood-color="#6636c6" flood-opacity="1"/><feComposite in2="blur-7" operator="in"/><feComposite in="SourceGraphic"/></filter><linearGradient id="GlassPanel_6-3" x1="94.66" y1="587.2" x2="94.66" y2="433.85" gradientTransform="translate(513.62 -80.96)" xlink:href="#GlassPanel_6"/><filter id="outer-glow-8" filterUnits="userSpaceOnUse"><feOffset dx="0" dy="0"/><feGaussianBlur result="blur-8" stdDeviation="1.25"/><feFlood flood-color="#ff4545" flood-opacity=".6"/><feComposite in2="blur-8" operator="in"/><feComposite in="SourceGraphic"/></filter><linearGradient id="linear-gradient-8" x1="610.11" y1="576.35" x2="610.11" y2="494.46" xlink:href="#linear-gradient-2"/><filter id="outer-glow-9" filterUnits="userSpaceOnUse"><feOffset dx="0" dy="0"/><feGaussianBlur result="blur-9" stdDeviation="3"/><feFlood flood-color="#ff4545" flood-opacity=".7"/><feComposite in2="blur-9" operator="in"/><feComposite in="SourceGraphic"/></filter></defs><g id="Frame"><rect class="cls-21" width="1024" height="1024"/></g><g id="Master"><g id="ETH" class="cls-14"><path class="cls-27" d="M176.57,509.69c-.55-31.32-26.38-56.26-57.7-55.72-31.32,.55-56.26,26.38-55.72,57.7,.55,31.32,26.38,56.26,57.7,55.72,31.32-.55,56.26-26.38,55.72-57.7m-81.73-36.66c-5.48,3.61-10.15,8.55-13.89,14.68-1.07,1.77-2.04,3.65-2.86,5.59-.85,1.98-1.53,3.99-2.03,5.95-1.03,4.46-1.5,8.54-1.43,12.47,.14,8.05,2.33,15.73,6.52,22.81v.02c1.33,2.29,3.1,4.62,5.58,7.34,1.34,1.38,2.96,2.97,4.8,4.37l1.46,1.11-2.23,2.93-1.46-1.11c-2.04-1.55-3.78-3.27-5.22-4.74l-.04-.04c-2.68-2.93-4.61-5.47-6.06-8-2.17-3.68-3.87-7.58-5.05-11.6-1.24-4.22-1.9-8.6-1.98-13.01-.07-4.24,.43-8.62,1.53-13.39v-.04c1.1-4.28,2.93-8.62,5.33-12.55h0c1.94-3.19,4.17-6.13,6.62-8.74,2.56-2.73,5.38-5.11,8.37-7.09,4.07-2.78,8.69-4.92,13.36-6.17l1.78-.48,.95,3.55-1.78,.48c-4.28,1.15-8.51,3.11-12.25,5.66l-.03,.02Zm25.02,48.4l-20.51-7.75,20.59-38.46,20.42,38.42-20.5,7.8Zm20.5-4.22l-20.5,26.47-20.51-26.47,20.51,8.18,20.5-8.18Zm-28.69,41.96l-1.79-.44c-3.25-.8-7.05-1.83-10.55-3.45l-1.67-.77,1.55-3.34,1.67,.77c3.22,1.49,6.8,2.46,9.88,3.22l1.79,.44-.87,3.57Zm54.46-33.11c-1,3.29-2.43,6.15-4.27,9.45l-.02,.03-.02,.03c-1.77,2.88-3.36,5.09-4.98,6.95-1.18,1.44-2.46,2.66-3.71,3.84-.42,.39-.85,.8-1.26,1.21l-.04,.04-.04,.03c-2.92,2.55-6.33,4.8-10.42,6.89h-.02c-3.19,1.58-6.56,2.81-10,3.66-3.61,.9-7.32,1.39-11.01,1.45l-1.84,.03-.06-3.68,1.84-.03c6.66-.12,13.38-1.75,19.44-4.72,3.8-1.93,6.94-4.01,9.62-6.34,.43-.42,.85-.82,1.27-1.21,1.22-1.16,2.37-2.25,3.41-3.52l.04-.05c1.49-1.7,2.96-3.75,4.62-6.45,1.71-3.08,3.04-5.74,3.94-8.7l.54-1.76,3.52,1.07-.54,1.76Zm-.99-14.09l-.03-1.84c-.13-7.3-1.84-14.11-5.09-20.25-1.27-2.35-2.7-4.82-4.56-7l-.04-.05-.04-.05c-2.04-2.73-4.43-5.19-7.32-7.51l-.03-.03-.03-.03c-.88-.78-1.78-1.39-2.83-2.11-.21-.14-.42-.28-.63-.43-3.66-2.38-7.74-4.24-12.11-5.52-4.67-1.27-9.07-1.85-13.46-1.78l-1.84,.03-.06-3.68,1.84-.03c4.75-.08,9.49,.54,14.51,1.91h.03c4.73,1.4,9.15,3.41,13.12,5.99l.04,.03c.22,.15,.43,.29,.64,.44,1.09,.74,2.12,1.44,3.16,2.36,3.1,2.5,5.68,5.15,7.89,8.1,2.07,2.43,3.67,5.2,4.96,7.6h0c3.52,6.67,5.38,14.04,5.52,21.92l.03,1.84-3.68,.06Z"/></g><g id="ETH-2" class="cls-29"><path id="Coin" class="cls-3" d="M899.28,498.44c.74-.17,1.41-.45,2-.83,.59-.38,1.07-.89,1.43-1.53,.36-.64,.54-1.4,.54-2.29s-.2-1.71-.6-2.32-.92-1.09-1.56-1.43c-.64-.34-1.36-.58-2.16-.73-.81-.15-1.59-.22-2.35-.22h-6.74v9.61h7.19c.76,0,1.52-.08,2.26-.25Zm3.28,9.54c-.81-.34-1.68-.57-2.61-.7-.93-.13-1.8-.19-2.61-.19h-7.51v10.24s8.91,0,8.91,0c.76,0,1.54-.08,2.32-.25s1.5-.47,2.13-.89,1.16-.98,1.56-1.65c.4-.68,.6-1.51,.6-2.48,0-1.06-.27-1.92-.8-2.58-.53-.66-1.2-1.16-2-1.5Zm-5.98-55.65c-32.22,.56-57.89,27.14-57.32,59.36,.56,32.22,27.14,57.89,59.36,57.32,32.22-.56,57.89-27.14,57.32-59.36-.56-32.22-27.14-57.89-59.36-57.32Zm.04,7.96c4.89-.09,9.77,.56,14.92,1.96,4.9,1.44,9.44,3.51,13.53,6.17l.7,.48c1.13,.77,2.2,1.5,3.29,2.46,3.14,2.52,5.8,5.25,8.08,8.3,2.13,2.5,3.77,5.35,5.1,7.82,3.63,6.86,5.54,14.45,5.68,22.56l.03,1.89-3.78,.07-.03-1.89c-.13-7.51-1.89-14.52-5.24-20.84-1.3-2.41-2.77-4.95-4.68-7.19l-.08-.1c-2.1-2.81-4.56-5.34-7.53-7.72-.98-.86-1.9-1.49-2.98-2.23l-.67-.46c-3.74-2.43-7.94-4.35-12.46-5.67-4.77-1.3-9.3-1.9-13.83-1.82l-1.89,.03-.07-3.78,1.89-.03Zm12.84,43.14c1.21,.62,2.25,1.4,3.12,2.35s1.54,2.07,2,3.34,.7,2.63,.7,4.07c0,2.38-.51,4.36-1.53,5.95-1.02,1.59-2.33,2.87-3.94,3.85-1.61,.98-3.43,1.68-5.44,2.1-2.01,.42-4.02,.64-6.01,.64h-18.45s0-45.05,0-45.05h16.8c1.95,0,3.91,.14,5.89,.41,1.97,.28,3.74,.83,5.31,1.65s2.84,1.98,3.82,3.47c.98,1.48,1.46,3.46,1.46,5.92s-.71,4.66-2.13,6.33c-1.42,1.68-3.3,2.87-5.63,3.59v.13c1.48,.21,2.83,.63,4.04,1.24Zm9.38,30.11v7.11s-42.49,0-42.49,0v-7.11s42.49,0,42.49,0Zm-61.08,1.65c1.37,2.38,3.2,4.79,5.77,7.59,1.34,1.38,3.02,3.03,4.91,4.47l1.5,1.14-2.29,3.01-1.51-1.15c-2.09-1.59-3.89-3.36-5.37-4.88-2.8-3.05-4.78-5.67-6.29-8.28-4.63-7.84-7.07-16.36-7.22-25.31-.08-4.37,.44-8.87,1.57-13.77,1.13-4.44,3.02-8.9,5.48-12.96,4.14-6.78,9.34-12.26,15.44-16.29,4.17-2.85,8.92-5.05,13.73-6.34l1.83-.49,.98,3.65-1.83,.49c-4.4,1.18-8.76,3.2-12.6,5.83-5.66,3.74-10.47,8.82-14.32,15.12-2.24,3.68-4.02,7.9-5.04,11.88-1.06,4.56-1.54,8.76-1.47,12.81,.15,8.28,2.4,16.18,6.71,23.47Zm31.41,25.36l-1.84-.45c-3.34-.82-7.25-1.88-10.86-3.55l-1.72-.8,1.59-3.43,1.72,.8c3.32,1.54,7,2.54,10.17,3.31l1.84,.45-.9,3.67Zm56.03-34.07c-1.03,3.38-2.5,6.33-4.39,9.72-1.87,3.05-3.51,5.33-5.19,7.25-1.17,1.45-2.51,2.71-3.79,3.93-.43,.41-.87,.82-1.3,1.25-3.08,2.7-6.59,5.01-10.8,7.16-6.76,3.32-14.24,5.13-21.64,5.26l-1.89,.03-.07-3.78,1.89-.03c6.86-.12,13.78-1.8,20.02-4.86,3.9-1.99,7.16-4.13,9.92-6.55,.37-.37,.82-.79,1.26-1.22,1.26-1.19,2.44-2.32,3.5-3.62,1.58-1.81,3.1-3.93,4.82-6.72,1.73-3.11,3.1-5.86,4.03-8.91l.55-1.81,3.62,1.1-.55,1.81Z"/></g><g><g class="cls-25"><g class="cls-16"><rect class="cls-6" x="324.15" y="523.21" width="365.49" height="130.95" rx="15.02" ry="15.02"/><path class="cls-12" d="M340.16,530h332.19c5.56,0,10.08,4.52,10.08,10.08v96.89c0,5.73-4.65,10.39-10.39,10.39H340.16c-5.43,0-9.83-4.41-9.83-9.83v-97.69c0-5.43,4.41-9.83,9.83-9.83Z" transform="translate(1012.76 1177.36) rotate(180)"/></g></g><circle class="cls-15" cx="504.9" cy="588.68" r="50.33"/><g id="ETH-3" class="cls-4"><path id="Coin-2" class="cls-28" d="M506.44,577.49c.68-.16,1.29-.41,1.83-.76,.54-.35,.98-.81,1.31-1.4,.33-.58,.49-1.28,.49-2.09s-.18-1.56-.55-2.12-.84-1-1.43-1.31c-.58-.31-1.24-.53-1.98-.67-.74-.14-1.45-.2-2.15-.2h-6.17v8.79h6.58c.7,0,1.39-.08,2.07-.23Zm3,8.73c-.74-.31-1.53-.52-2.39-.64-.85-.12-1.65-.17-2.39-.17h-6.87v9.37h8.15c.7,0,1.41-.08,2.12-.23s1.37-.43,1.95-.81,1.06-.89,1.43-1.51c.37-.62,.55-1.38,.55-2.27,0-.97-.24-1.76-.73-2.36-.48-.6-1.1-1.06-1.83-1.37Zm-5.25-38.48c-22.61,.39-40.62,19.04-40.23,41.66,.39,22.61,19.05,40.62,41.66,40.23,22.61-.39,40.62-19.04,40.23-41.66-.39-22.61-19.05-40.62-41.66-40.23Zm11.57,34.32c1.11,.56,2.06,1.28,2.85,2.15s1.41,1.89,1.83,3.05,.64,2.41,.64,3.72c0,2.17-.47,3.99-1.4,5.44-.93,1.45-2.13,2.63-3.61,3.52-1.47,.89-3.13,1.53-4.98,1.92-1.84,.39-3.68,.58-5.5,.58h-16.87s0-41.2,0-41.2h15.36c1.78,0,3.58,.13,5.38,.38,1.8,.25,3.42,.76,4.86,1.51s2.6,1.81,3.49,3.17c.89,1.36,1.34,3.16,1.34,5.41,0,2.33-.65,4.26-1.95,5.79-1.3,1.53-3.02,2.63-5.15,3.29v.12c1.36,.19,2.59,.57,3.69,1.13Zm8.58,27.54v6.5s-38.86,0-38.86,0v-6.5s38.86,0,38.86,0Z"/></g></g><g><g class="cls-24"><g class="cls-16"><rect class="cls-7" x="324.15" y="365.67" width="167.36" height="130.95" rx="15.02" ry="15.02"/><path class="cls-11" d="M340.16,372.47h134.05c5.56,0,10.08,4.52,10.08,10.08v96.89c0,5.73-4.65,10.39-10.39,10.39h-133.75c-5.43,0-9.83-4.41-9.83-9.83v-97.69c0-5.43,4.41-9.83,9.83-9.83Z" transform="translate(814.63 862.29) rotate(180)"/></g></g><circle class="cls-15" cx="409.14" cy="431.15" r="50.33"/><path class="cls-9" d="M398.91,440.04h26.79c-3.01,8.15-11.04,8.11-14.14,8.11-3.85,0-12.65,0-12.65,0v-8.11Zm12.03-25.09h-12.03v8.52h26.81c-3.02-8.3-11.21-8.52-14.78-8.52Zm-12.03,14.34v4.92h27.85c.07-.78,.12-1.6,.12-2.48s-.04-1.67-.12-2.45h-27.85Zm51.37,2.48c0,22.72-18.42,41.14-41.14,41.14s-41.14-18.42-41.14-41.14,18.42-41.14,41.14-41.14,41.14,18.42,41.14,41.14Zm-15.67-2.69h6.68v-5.21h-7.55c-3.86-14.64-18.03-16.77-24-16.77h-18.87v16.77h-12.27v5.21h12.27v5.37h-12.27v5.21h12.27v16.77s13.8,0,19.85,0c5.26,0,19.55-1.75,23.17-16.77h7.4v-5.21h-6.64c.05-.78,.08-1.57,.08-2.4,0-1.04-.05-2.02-.13-2.97Z"/></g><g><g class="cls-10"><g class="cls-16"><rect class="cls-8" x="525.12" y="365.67" width="167.36" height="130.95" rx="15.02" ry="15.02"/><path class="cls-13" d="M541.13,372.47h134.05c5.56,0,10.08,4.52,10.08,10.08v96.89c0,5.73-4.65,10.39-10.39,10.39h-133.75c-5.43,0-9.83-4.41-9.83-9.83v-97.69c0-5.43,4.41-9.83,9.83-9.83Z" transform="translate(1216.57 862.29) rotate(180)"/></g></g><circle class="cls-15" cx="610.11" cy="431.15" r="50.33"/><g id="ETH-4" class="cls-20"><path id="Coin-3" class="cls-30" d="M611.65,419.96c.68-.16,1.29-.41,1.83-.76,.54-.35,.98-.81,1.31-1.4,.33-.58,.49-1.28,.49-2.09s-.18-1.56-.55-2.12-.84-1-1.43-1.31c-.58-.31-1.24-.53-1.98-.67-.74-.14-1.45-.2-2.15-.2h-6.17v8.79h6.58c.7,0,1.39-.08,2.07-.23Zm3,8.73c-.74-.31-1.53-.52-2.39-.64-.85-.12-1.65-.17-2.39-.17h-6.87v9.37h8.15c.7,0,1.41-.08,2.12-.23s1.37-.43,1.95-.81,1.06-.89,1.43-1.51c.37-.62,.55-1.38,.55-2.27,0-.97-.24-1.76-.73-2.36-.48-.6-1.1-1.06-1.83-1.37Zm-5.25-38.48c-22.61,.39-40.62,19.04-40.23,41.66,.39,22.61,19.05,40.62,41.66,40.23,22.61-.39,40.62-19.04,40.23-41.66-.39-22.61-19.05-40.62-41.66-40.23Zm11.57,34.32c1.11,.56,2.06,1.28,2.85,2.15s1.41,1.89,1.83,3.05,.64,2.41,.64,3.72c0,2.17-.47,3.99-1.4,5.44-.93,1.45-2.13,2.63-3.61,3.52-1.47,.89-3.13,1.53-4.98,1.92-1.84,.39-3.68,.58-5.5,.58h-16.87s0-41.2,0-41.2h15.36c1.78,0,3.58,.13,5.38,.38,1.8,.25,3.42,.76,4.86,1.51s2.6,1.81,3.49,3.17c.89,1.36,1.34,3.16,1.34,5.41,0,2.33-.65,4.26-1.95,5.79-1.3,1.53-3.02,2.63-5.15,3.29v.12c1.36,.19,2.59,.57,3.69,1.13Zm8.58,27.54v6.5s-38.86,0-38.86,0v-6.5s38.86,0,38.86,0Z"/></g></g><g><g><path class="cls-1" d="M661.07,431.11h68.03c5.88,0,11.25,3.37,13.8,8.67l33.73,70.11h42.32"/><path class="cls-1" d="M776.76,509.9l-33.73,70.11c-2.55,5.3-7.91,8.67-13.8,8.67h-173.56"/><polyline class="cls-2" points="803.24 494.14 819.92 510.04 803.24 525.93"/></g><g><path class="cls-1" d="M358.54,431.11h-75.17c-5.88,0-11.25,3.37-13.8,8.67l-33.73,70.11h-42.32"/><path class="cls-1" d="M235.72,509.9l33.73,70.11c2.55,5.3,7.91,8.67,13.8,8.67h170.1"/></g><line class="cls-1" x1="458.97" y1="430.73" x2="558.88" y2="430.73"/></g><g class="cls-17"><g><path class="cls-5" d="M208.69,401.87h-5.76v-2.4c0-1.28-.96-1.92-2.88-1.92s-2.88,.64-2.88,1.92v6c.13-.16,.34-.36,.62-.6,.29-.24,.93-.56,1.92-.96,.99-.4,2.06-.6,3.22-.6,1.86,0,3.28,.5,4.27,1.49,.99,.99,1.49,2.74,1.49,5.23v7.2c0,2.27-.79,3.96-2.38,5.06s-3.67,1.66-6.26,1.66-4.68-.55-6.26-1.66-2.38-2.79-2.38-5.06v-18.24c0-2.27,.79-3.96,2.38-5.06s3.67-1.66,6.26-1.66,4.68,.55,6.26,1.66,2.38,2.79,2.38,5.06v2.88Zm-8.64,6.72c-.58,0-1.1,.06-1.58,.19-.48,.13-.82,.26-1.01,.38l-.29,.14v7.44c0,1.28,.96,1.92,2.88,1.92s2.88-.64,2.88-1.92v-6.24c0-1.28-.96-1.92-2.88-1.92Z"/><path class="cls-5" d="M214.91,393.93c1.58-1.1,3.67-1.66,6.26-1.66s4.68,.55,6.26,1.66,2.38,2.79,2.38,5.06v18.24c0,2.27-.79,3.96-2.38,5.06s-3.67,1.66-6.26,1.66-4.68-.55-6.26-1.66-2.38-2.79-2.38-5.06v-18.24c0-2.27,.79-3.96,2.38-5.06Zm9.14,22.82v-17.28c0-1.28-.96-1.92-2.88-1.92s-2.88,.64-2.88,1.92v17.28c0,1.28,.96,1.92,2.88,1.92s2.88-.64,2.88-1.92Z"/><path class="cls-5" d="M244.21,404.27c0,2.88-1.76,4.32-5.28,4.32s-5.28-1.44-5.28-4.32v-7.68c0-2.88,1.76-4.32,5.28-4.32s5.28,1.44,5.28,4.32v7.68Zm12-11.52l-.02,.95-14.84,29.77h-4.35v-.96s14.83-29.76,14.83-29.76h4.37Zm-18.24,11.04c0,.35,.07,.6,.22,.74s.39,.22,.74,.22,.6-.07,.74-.22,.22-.39,.22-.74v-6.72c0-.35-.07-.6-.22-.74s-.39-.22-.74-.22-.6,.07-.74,.22-.22,.39-.22,.74v6.72Zm16.32,3.84c3.52,0,5.28,1.44,5.28,4.32v7.68c0,2.88-1.76,4.32-5.28,4.32s-5.28-1.44-5.28-4.32v-7.68c0-2.88,1.76-4.32,5.28-4.32Zm.96,11.52v-6.72c0-.35-.07-.6-.22-.74s-.39-.22-.74-.22-.6,.07-.74,.22-.22,.39-.22,.74v6.72c0,.35,.07,.6,.22,.74s.39,.22,.74,.22,.6-.07,.74-.22,.22-.39,.22-.74Z"/></g><g><path class="cls-5" d="M202.45,609.47h5.76v20.16h-5.76v-6.24h-12.48v-1.2l8.69-23.28h5.71v1.2s-6.73,18-6.73,18h4.81v-8.64Z"/><path class="cls-5" d="M214.43,600.08c1.58-1.1,3.67-1.66,6.26-1.66s4.68,.55,6.26,1.66c1.58,1.1,2.38,2.79,2.38,5.06v18.24c0,2.27-.79,3.96-2.38,5.06-1.58,1.1-3.67,1.66-6.26,1.66s-4.68-.55-6.26-1.66c-1.58-1.1-2.38-2.79-2.38-5.06v-18.24c0-2.27,.79-3.96,2.38-5.06Zm9.14,22.82v-17.28c0-1.28-.96-1.92-2.88-1.92s-2.88,.64-2.88,1.92v17.28c0,1.28,.96,1.92,2.88,1.92s2.88-.64,2.88-1.92Z"/><path class="cls-5" d="M243.73,610.43c0,2.88-1.76,4.32-5.28,4.32s-5.28-1.44-5.28-4.32v-7.68c0-2.88,1.76-4.32,5.28-4.32s5.28,1.44,5.28,4.32v7.68Zm12-11.52l-.02,.95-14.84,29.77h-4.35v-.96s14.83-29.76,14.83-29.76h4.37Zm-18.24,11.04c0,.35,.07,.6,.22,.74,.14,.14,.39,.22,.74,.22s.6-.07,.74-.22c.14-.14,.22-.39,.22-.74v-6.72c0-.35-.07-.6-.22-.74-.14-.14-.39-.22-.74-.22s-.6,.07-.74,.22c-.14,.14-.22,.39-.22,.74v6.72Zm16.32,3.84c3.52,0,5.28,1.44,5.28,4.32v7.68c0,2.88-1.76,4.32-5.28,4.32s-5.28-1.44-5.28-4.32v-7.68c0-2.88,1.76-4.32,5.28-4.32Zm.96,11.52v-6.72c0-.35-.07-.6-.22-.74-.14-.14-.39-.22-.74-.22s-.6,.07-.74,.22c-.14,.14-.22,.39-.22,.74v6.72c0,.35,.07,.6,.22,.74,.14,.14,.39,.22,.74,.22s.6-.07,.74-.22c.14-.14,.22-.39,.22-.74Z"/></g></g></g></svg>