<?xml version="1.0" encoding="UTF-8"?><svg xmlns="http://www.w3.org/2000/svg" xmlns:xlink="http://www.w3.org/1999/xlink" viewBox="0 0 1024 1024"><defs><style>.cls-1{fill:url(#linear-gradient-2);}.cls-2{fill:url(#GlassPanel_6-2);}.cls-3{fill:url(#GlassPanel-3);filter:url(#outer-glow-3);}.cls-3,.cls-4,.cls-5,.cls-6{stroke:#b68bcc;stroke-miterlimit:54.61;stroke-width:2.85px;}.cls-7{filter:url(#luminosity-noclip-5);}.cls-4{fill:url(#GlassPanel-4);filter:url(#outer-glow-4);}.cls-8{stroke-linecap:square;stroke-width:10.92px;}.cls-8,.cls-9{fill:none;stroke:#ffe69f;stroke-miterlimit:10;}.cls-9{stroke-linecap:round;stroke-width:10.92px;}.cls-10{mask:url(#mask-2);}.cls-11{fill:url(#linear-gradient-6);}.cls-12{fill:url(#GlassPanel_6);}.cls-13{mask:url(#mask-3);}.cls-5{fill:url(#GlassPanel-2);filter:url(#outer-glow-2);}.cls-14{fill:#18131f;isolation:isolate;opacity:.5;}.cls-15{opacity:.8;}.cls-16{filter:url(#luminosity-noclip-4);}.cls-17{fill:url(#GlassPanel_6-4);}.cls-18{fill:url(#linear-gradient-5);}.cls-6{fill:url(#GlassPanel);filter:url(#outer-glow-1);}.cls-19{filter:url(#outer-glow-8);}.cls-20{opacity:0;}.cls-21{filter:url(#outer-glow-5);}.cls-22{fill:url(#linear-gradient-7);}.cls-23{filter:url(#outer-glow-7);}.cls-24{filter:url(#luminosity-noclip-2);}.cls-25{mask:url(#mask-1);}.cls-26{mask:url(#mask);}.cls-27{fill:url(#linear-gradient-3);}.cls-28{fill:url(#GlassPanel_6-3);}.cls-29{fill:url(#linear-gradient);}.cls-30{fill:url(#linear-gradient-4);}.cls-31{filter:url(#outer-glow-6);}.cls-32{fill:url(#linear-gradient-8);}.cls-33{filter:url(#luminosity-noclip-3);}</style><filter id="luminosity-noclip-2" x="-14.43" y="323.23" width="581.72" height="638.68" color-interpolation-filters="sRGB" filterUnits="userSpaceOnUse"><feFlood flood-color="#fff" result="bg"/><feBlend in="SourceGraphic" in2="bg"/></filter><linearGradient id="linear-gradient" x1="2184.62" y1="1207.39" x2="2184.62" y2="1584.75" gradientTransform="translate(-3088.95 -1329.76) scale(1.54 1.41)" gradientUnits="userSpaceOnUse"><stop offset="0" stop-color="#000"/><stop offset="1" stop-color="#fff"/></linearGradient><mask id="mask" x="-14.43" y="323.23" width="581.72" height="638.68" maskUnits="userSpaceOnUse"><g class="cls-24"><rect class="cls-29" x="76.27" y="383.55" width="400.31" height="518.05" transform="translate(798.49 1108.16) rotate(155)"/></g></mask><linearGradient id="GlassPanel" x1="267.43" y1="443.18" x2="267.43" y2="757.17" gradientTransform="translate(-11.42)" gradientUnits="userSpaceOnUse"><stop offset="0" stop-color="#9d79b3"/><stop offset="1" stop-color="#5c5396"/></linearGradient><filter id="outer-glow-1" filterUnits="userSpaceOnUse"><feOffset dx="0" dy="0"/><feGaussianBlur result="blur" stdDeviation="3.2"/><feFlood flood-color="#6636c6" flood-opacity="1"/><feComposite in2="blur" operator="in"/><feComposite in="SourceGraphic"/></filter><linearGradient id="GlassPanel_6" x1="454.01" y1="423.42" x2="454.01" y2="168.56" gradientTransform="translate(-198.51 342.47)" gradientUnits="userSpaceOnUse"><stop offset="0" stop-color="#f099ff"/><stop offset="1" stop-color="#605ee0"/></linearGradient><filter id="luminosity-noclip-3" x="221.14" y="317.81" width="581.72" height="638.68" color-interpolation-filters="sRGB" filterUnits="userSpaceOnUse"><feFlood flood-color="#fff" result="bg"/><feBlend in="SourceGraphic" in2="bg"/></filter><linearGradient id="linear-gradient-2" x1="2044.53" y1="1140.44" x2="2044.53" y2="1517.81" gradientTransform="translate(-2637.57 -1240.56) scale(1.54 1.41)" xlink:href="#linear-gradient"/><mask id="mask-1" x="221.14" y="317.81" width="581.72" height="638.68" maskUnits="userSpaceOnUse"><g class="cls-33"><rect class="cls-1" x="311.85" y="378.12" width="400.31" height="518.05" transform="translate(1245.28 998.27) rotate(155)"/></g></mask><linearGradient id="GlassPanel-2" x1="494.72" y1="443.18" x2="494.72" y2="757.17" xlink:href="#GlassPanel"/><filter id="outer-glow-2" filterUnits="userSpaceOnUse"><feOffset dx="0" dy="0"/><feGaussianBlur result="blur-2" stdDeviation="3.2"/><feFlood flood-color="#6636c6" flood-opacity="1"/><feComposite in2="blur-2" operator="in"/><feComposite in="SourceGraphic"/></filter><linearGradient id="GlassPanel_6-2" x1="226.53" y1="384.51" x2="226.53" y2="174.25" gradientTransform="translate(256.46 376.61)" xlink:href="#GlassPanel_6"/><filter id="luminosity-noclip-4" x="439.9" y="354.83" width="524.17" height="611.85" color-interpolation-filters="sRGB" filterUnits="userSpaceOnUse"><feFlood flood-color="#fff" result="bg"/><feBlend in="SourceGraphic" in2="bg"/></filter><linearGradient id="linear-gradient-3" x1="1939.23" y1="1068.5" x2="1939.23" y2="1445.87" gradientTransform="translate(-1811.54 -1115.27) scale(1.3 1.41)" xlink:href="#linear-gradient"/><mask id="mask-2" x="439.9" y="354.83" width="524.17" height="611.85" maskUnits="userSpaceOnUse"><g class="cls-16"><rect class="cls-27" x="533.58" y="401.73" width="336.82" height="518.05" transform="translate(1617.43 962.99) rotate(155)"/></g></mask><linearGradient id="GlassPanel-3" x1="673.33" y1="443.18" x2="673.33" y2="757.17" xlink:href="#GlassPanel"/><filter id="outer-glow-3" filterUnits="userSpaceOnUse"><feOffset dx="0" dy="0"/><feGaussianBlur result="blur-3" stdDeviation="3.2"/><feFlood flood-color="#6636c6" flood-opacity="1"/><feComposite in2="blur-3" operator="in"/><feComposite in="SourceGraphic"/></filter><linearGradient id="GlassPanel_6-3" x1="47.6" y1="339.09" x2="47.6" y2="180.9" gradientTransform="translate(614.31 416.45)" xlink:href="#GlassPanel_6"/><filter id="luminosity-noclip-5" x="595.1" y="358.13" width="504.4" height="602.63" color-interpolation-filters="sRGB" filterUnits="userSpaceOnUse"><feFlood flood-color="#fff" result="bg"/><feBlend in="SourceGraphic" in2="bg"/></filter><linearGradient id="linear-gradient-4" x1="1855.42" y1="1025.9" x2="1855.42" y2="1403.27" gradientTransform="translate(-1401.79 -1056.37) scale(1.21 1.41)" xlink:href="#linear-gradient"/><mask id="mask-3" x="595.1" y="358.13" width="504.4" height="602.63" maskUnits="userSpaceOnUse"><g class="cls-7"><rect class="cls-30" x="689.8" y="400.42" width="314.99" height="518.05" transform="translate(1893.89 899.09) rotate(155)"/></g></mask><linearGradient id="GlassPanel-4" x1="829.92" y1="443.18" x2="829.92" y2="757.17" xlink:href="#GlassPanel"/><filter id="outer-glow-4" filterUnits="userSpaceOnUse"><feOffset dx="0" dy="0"/><feGaussianBlur result="blur-4" stdDeviation="3.2"/><feFlood flood-color="#6636c6" flood-opacity="1"/><feComposite in2="blur-4" operator="in"/><feComposite in="SourceGraphic"/></filter><linearGradient id="GlassPanel_6-4" x1="-108.99" y1="277.35" x2="-108.99" y2="189.94" gradientTransform="translate(927.49 470.62)" xlink:href="#GlassPanel_6"/><filter id="outer-glow-5" filterUnits="userSpaceOnUse"><feOffset dx="0" dy="0"/><feGaussianBlur result="blur-5" stdDeviation="4"/><feFlood flood-color="#ff4545" flood-opacity=".6"/><feComposite in2="blur-5" operator="in"/><feComposite in="SourceGraphic"/></filter><linearGradient id="linear-gradient-5" x1="256.01" y1="508.02" x2="256.01" y2="391.67" gradientTransform="translate(0 -104.82)" gradientUnits="userSpaceOnUse"><stop offset="0" stop-color="#ffbd6b"/><stop offset="1" stop-color="#fffab8"/></linearGradient><filter id="outer-glow-6" filterUnits="userSpaceOnUse"><feOffset dx="0" dy="0"/><feGaussianBlur result="blur-6" stdDeviation="4"/><feFlood flood-color="#ff4545" flood-opacity=".6"/><feComposite in2="blur-6" operator="in"/><feComposite in="SourceGraphic"/></filter><linearGradient id="linear-gradient-6" x1="483.3" x2="483.3" xlink:href="#linear-gradient-5"/><filter id="outer-glow-7" filterUnits="userSpaceOnUse"><feOffset dx="0" dy="0"/><feGaussianBlur result="blur-7" stdDeviation="4"/><feFlood flood-color="#ff4545" flood-opacity=".6"/><feComposite in2="blur-7" operator="in"/><feComposite in="SourceGraphic"/></filter><linearGradient id="linear-gradient-7" x1="661.91" x2="661.91" xlink:href="#linear-gradient-5"/><filter id="outer-glow-8" filterUnits="userSpaceOnUse"><feOffset dx="0" dy="0"/><feGaussianBlur result="blur-8" stdDeviation="4"/><feFlood flood-color="#ff4545" flood-opacity=".6"/><feComposite in2="blur-8" operator="in"/><feComposite in="SourceGraphic"/></filter><linearGradient id="linear-gradient-8" x1="818.5" x2="818.5" xlink:href="#linear-gradient-5"/></defs><g id="Frame"><rect class="cls-20" width="1024" height="1024"/></g><g id="Master"><g class="cls-26"><g class="cls-15"><rect class="cls-6" x="135.12" y="447.14" width="241.78" height="304.97" rx="14.43" ry="14.43"/><path class="cls-14" d="M151.37,453.67h208c5.56,0,10.08,4.52,10.08,10.08v271.45c0,5.73-4.65,10.39-10.39,10.39H151.37c-5.43,0-9.83-4.41-9.83-9.83V463.5c0-5.43,4.41-9.83,9.83-9.83Z" transform="translate(511 1199.25) rotate(180)"/><path class="cls-12" d="M154.75,543.57h201.25c3.34,0,6.06,2.71,6.06,6.06v182.63c0,3.51-2.85,6.36-6.36,6.36H154.75c-3.21,0-5.81-2.6-5.81-5.81v-183.43c0-3.21,2.6-5.81,5.81-5.81Z" transform="translate(511 1282.18) rotate(180)"/></g></g><g class="cls-25"><g class="cls-15"><rect class="cls-5" x="394.5" y="447.14" width="177.6" height="304.97" rx="14.43" ry="14.43"/><path class="cls-14" d="M410.95,453.67h143.82c5.56,0,10.08,4.52,10.08,10.08v271.45c0,5.73-4.65,10.39-10.39,10.39h-143.51c-5.43,0-9.83-4.41-9.83-9.83V463.5c0-5.43,4.41-9.83,9.83-9.83Z" transform="translate(965.96 1199.25) rotate(180)"/><path class="cls-2" d="M414.32,577.71h137.07c3.34,0,6.06,2.71,6.06,6.06v148.49c0,3.51-2.85,6.36-6.36,6.36h-136.76c-3.21,0-5.81-2.6-5.81-5.81v-149.29c0-3.21,2.6-5.81,5.81-5.81Z" transform="translate(965.96 1316.32) rotate(180)"/></g></g><g class="cls-10"><g class="cls-15"><rect class="cls-3" x="588.78" y="447.14" width="146.25" height="304.97" rx="14.43" ry="14.43"/><path class="cls-14" d="M605.55,453.67h112.47c5.56,0,10.08,4.52,10.08,10.08v271.45c0,5.73-4.65,10.39-10.39,10.39h-112.16c-5.43,0-9.83-4.41-9.83-9.83V463.5c0-5.43,4.41-9.83,9.83-9.83Z" transform="translate(1323.82 1199.25) rotate(180)"/><path class="cls-28" d="M608.92,617.55h105.72c3.34,0,6.06,2.71,6.06,6.06v108.64c0,3.51-2.85,6.36-6.36,6.36h-105.41c-3.21,0-5.81-2.6-5.81-5.81v-109.44c0-3.21,2.6-5.81,5.81-5.81Z" transform="translate(1323.82 1356.17) rotate(180)"/></g></g><g class="cls-13"><g class="cls-15"><rect class="cls-4" x="751.56" y="447.14" width="133.89" height="304.97" rx="14.43" ry="14.43"/><path class="cls-14" d="M768.32,453.67h100.11c5.56,0,10.08,4.52,10.08,10.08v271.45c0,5.73-4.65,10.39-10.39,10.39h-99.8c-5.43,0-9.83-4.41-9.83-9.83V463.5c0-5.43,4.41-9.83,9.83-9.83Z" transform="translate(1637 1199.25) rotate(180)"/><path class="cls-17" d="M771.7,671.72h93.36c3.34,0,6.06,2.71,6.06,6.06v54.47c0,3.51-2.85,6.36-6.36,6.36h-93.05c-3.21,0-5.81-2.6-5.81-5.81v-55.27c0-3.21,2.6-5.81,5.81-5.81Z" transform="translate(1637 1410.33) rotate(180)"/></g></g><g><g><line class="cls-8" x1="254.51" y1="287.66" x2="254.51" y2="237.06"/><polyline class="cls-8" points="239.24 248.25 254.5 232.23 269.77 248.25"/><line class="cls-9" x1="254.51" y1="632.64" x2="254.51" y2="402.33"/></g><g id="ETH" class="cls-21"><path id="Coin" class="cls-18" d="M257.69,333.63c.74-.17,1.41-.44,2-.82,.59-.38,1.07-.89,1.43-1.52,.36-.63,.54-1.4,.54-2.28s-.2-1.7-.6-2.32-.92-1.09-1.55-1.43c-.63-.34-1.35-.58-2.16-.73-.8-.15-1.59-.22-2.35-.22h-6.72v9.58h7.17c.76,0,1.51-.08,2.25-.25Zm3.27,9.51c-.8-.34-1.67-.57-2.6-.7-.93-.13-1.8-.19-2.6-.19h-7.48v10.21s8.88,0,8.88,0c.76,0,1.53-.08,2.32-.25s1.49-.47,2.12-.89,1.15-.97,1.55-1.65c.4-.68,.6-1.5,.6-2.47,0-1.06-.26-1.91-.79-2.57-.53-.66-1.19-1.15-2-1.49Zm-5.96-55.48c-32.12,.56-57.71,27.06-57.15,59.18,.56,32.12,27.06,57.71,59.18,57.15,32.12-.56,57.71-27.06,57.15-59.18-.56-32.12-27.06-57.71-59.18-57.15Zm.04,7.94c4.87-.09,9.74,.56,14.88,1.96,4.89,1.43,9.41,3.5,13.49,6.15l.7,.47c1.13,.77,2.19,1.5,3.28,2.45,3.13,2.51,5.79,5.24,8.06,8.28,2.12,2.49,3.76,5.34,5.09,7.79,3.62,6.84,5.53,14.4,5.67,22.49l.03,1.89-3.77,.07-.03-1.89c-.13-7.49-1.89-14.48-5.22-20.77-1.3-2.4-2.76-4.94-4.67-7.17l-.08-.1c-2.09-2.8-4.54-5.32-7.5-7.7-.97-.86-1.9-1.49-2.97-2.22l-.67-.46c-3.73-2.42-7.92-4.33-12.42-5.65-4.76-1.3-9.28-1.89-13.79-1.82l-1.89,.03-.07-3.77,1.89-.03Zm12.8,43.01c1.21,.61,2.24,1.4,3.11,2.35s1.53,2.06,2,3.33,.7,2.62,.7,4.06c0,2.37-.51,4.34-1.52,5.93-1.01,1.59-2.33,2.86-3.93,3.84-1.61,.97-3.41,1.67-5.42,2.09-2.01,.42-4.01,.63-5.99,.63h-18.39s0-44.91,0-44.91h16.75c1.95,0,3.9,.14,5.87,.41,1.97,.27,3.73,.82,5.3,1.65s2.83,1.98,3.81,3.46c.97,1.48,1.46,3.45,1.46,5.9s-.71,4.64-2.12,6.31c-1.42,1.67-3.29,2.86-5.61,3.58v.13c1.48,.21,2.82,.62,4.03,1.24Zm9.35,30.02v7.09s-42.36,0-42.36,0v-7.09s42.36,0,42.36,0Zm-60.89,1.65c1.37,2.37,3.19,4.77,5.75,7.57,1.34,1.37,3.01,3.02,4.9,4.46l1.5,1.14-2.28,3-1.5-1.14c-2.09-1.59-3.88-3.35-5.35-4.87-2.79-3.05-4.77-5.66-6.27-8.26-4.62-7.82-7.05-16.31-7.2-25.23-.08-4.35,.44-8.84,1.57-13.73,1.12-4.42,3.01-8.88,5.46-12.92,4.13-6.76,9.31-12.23,15.4-16.24,4.15-2.84,8.9-5.03,13.69-6.32l1.82-.49,.98,3.64-1.82,.49c-4.39,1.18-8.73,3.19-12.56,5.81-5.65,3.73-10.44,8.79-14.28,15.07-2.23,3.67-4.01,7.88-5.02,11.84-1.05,4.54-1.53,8.74-1.46,12.77,.14,8.26,2.39,16.13,6.69,23.4Zm31.31,25.28l-1.83-.45c-3.33-.82-7.23-1.87-10.83-3.54l-1.71-.79,1.59-3.42,1.71,.79c3.31,1.53,6.98,2.53,10.14,3.3l1.83,.45-.9,3.66Zm55.86-33.96c-1.03,3.37-2.49,6.31-4.38,9.69-1.87,3.04-3.5,5.31-5.17,7.23-1.17,1.44-2.5,2.7-3.78,3.92-.43,.41-.86,.82-1.3,1.24-3.07,2.69-6.57,5-10.77,7.13-6.74,3.3-14.19,5.11-21.58,5.24l-1.89,.03-.07-3.77,1.89-.03c6.83-.12,13.74-1.79,19.96-4.85,3.89-1.98,7.14-4.12,9.89-6.53,.37-.37,.82-.79,1.26-1.21,1.25-1.19,2.43-2.31,3.49-3.61,1.57-1.8,3.09-3.92,4.8-6.7,1.73-3.1,3.09-5.84,4.02-8.89l.55-1.8,3.61,1.1-.55,1.8Z"/></g></g><g><g><line class="cls-8" x1="481.8" y1="287.66" x2="481.8" y2="237.06"/><polyline class="cls-8" points="466.52 248.25 481.79 232.23 497.06 248.25"/><line class="cls-9" x1="481.8" y1="632.64" x2="481.8" y2="402.33"/></g><g id="ETH-2" class="cls-31"><path id="Coin-2" class="cls-11" d="M484.98,333.63c.74-.17,1.41-.44,2-.82,.59-.38,1.07-.89,1.43-1.52,.36-.63,.54-1.4,.54-2.28s-.2-1.7-.6-2.32-.92-1.09-1.55-1.43c-.63-.34-1.35-.58-2.16-.73-.8-.15-1.59-.22-2.35-.22h-6.72v9.58h7.17c.76,0,1.51-.08,2.25-.25Zm3.27,9.51c-.8-.34-1.67-.57-2.6-.7-.93-.13-1.8-.19-2.6-.19h-7.48v10.21s8.88,0,8.88,0c.76,0,1.53-.08,2.32-.25s1.49-.47,2.12-.89,1.15-.97,1.55-1.65c.4-.68,.6-1.5,.6-2.47,0-1.06-.26-1.91-.79-2.57-.53-.66-1.19-1.15-2-1.49Zm-5.96-55.48c-32.12,.56-57.71,27.06-57.15,59.18,.56,32.12,27.06,57.71,59.18,57.15,32.12-.56,57.71-27.06,57.15-59.18-.56-32.12-27.06-57.71-59.18-57.15Zm.04,7.94c4.87-.09,9.74,.56,14.88,1.96,4.89,1.43,9.41,3.5,13.49,6.15l.7,.47c1.13,.77,2.19,1.5,3.28,2.45,3.13,2.51,5.79,5.24,8.06,8.28,2.12,2.49,3.76,5.34,5.09,7.79,3.62,6.84,5.53,14.4,5.67,22.49l.03,1.89-3.77,.07-.03-1.89c-.13-7.49-1.89-14.48-5.22-20.77-1.3-2.4-2.76-4.94-4.67-7.17l-.08-.1c-2.09-2.8-4.54-5.32-7.5-7.7-.97-.86-1.9-1.49-2.97-2.22l-.67-.46c-3.73-2.42-7.92-4.33-12.42-5.65-4.76-1.3-9.28-1.89-13.79-1.82l-1.89,.03-.07-3.77,1.89-.03Zm12.8,43.01c1.21,.61,2.24,1.4,3.11,2.35s1.53,2.06,2,3.33,.7,2.62,.7,4.06c0,2.37-.51,4.34-1.52,5.93-1.01,1.59-2.33,2.86-3.93,3.84-1.61,.97-3.41,1.67-5.42,2.09-2.01,.42-4.01,.63-5.99,.63h-18.39s0-44.91,0-44.91h16.75c1.95,0,3.9,.14,5.87,.41,1.97,.27,3.73,.82,5.3,1.65s2.83,1.98,3.81,3.46c.97,1.48,1.46,3.45,1.46,5.9s-.71,4.64-2.12,6.31c-1.42,1.67-3.29,2.86-5.61,3.58v.13c1.48,.21,2.82,.62,4.03,1.24Zm9.35,30.02v7.09s-42.36,0-42.36,0v-7.09s42.36,0,42.36,0Zm-60.89,1.65c1.37,2.37,3.19,4.77,5.75,7.57,1.34,1.37,3.01,3.02,4.9,4.46l1.5,1.14-2.28,3-1.5-1.14c-2.09-1.59-3.88-3.35-5.35-4.87-2.79-3.05-4.77-5.66-6.27-8.26-4.62-7.82-7.05-16.31-7.2-25.23-.08-4.35,.44-8.84,1.57-13.73,1.12-4.42,3.01-8.88,5.46-12.92,4.13-6.76,9.31-12.23,15.4-16.24,4.15-2.84,8.9-5.03,13.69-6.32l1.82-.49,.98,3.64-1.82,.49c-4.39,1.18-8.73,3.19-12.56,5.81-5.65,3.73-10.44,8.79-14.28,15.07-2.23,3.67-4.01,7.88-5.02,11.84-1.05,4.54-1.53,8.74-1.46,12.77,.14,8.26,2.39,16.13,6.69,23.4Zm31.31,25.28l-1.83-.45c-3.33-.82-7.23-1.87-10.83-3.54l-1.71-.79,1.59-3.42,1.71,.79c3.31,1.53,6.98,2.53,10.14,3.3l1.83,.45-.9,3.66Zm55.86-33.96c-1.03,3.37-2.49,6.31-4.38,9.69-1.87,3.04-3.5,5.31-5.17,7.23-1.17,1.44-2.5,2.7-3.78,3.92-.43,.41-.86,.82-1.3,1.24-3.07,2.69-6.57,5-10.77,7.13-6.74,3.3-14.19,5.11-21.58,5.24l-1.89,.03-.07-3.77,1.89-.03c6.83-.12,13.74-1.79,19.96-4.85,3.89-1.98,7.14-4.12,9.89-6.53,.37-.37,.82-.79,1.26-1.21,1.25-1.19,2.43-2.31,3.49-3.61,1.57-1.8,3.09-3.92,4.8-6.7,1.73-3.1,3.09-5.84,4.02-8.89l.55-1.8,3.61,1.1-.55,1.8Z"/></g></g><g><g><line class="cls-8" x1="660.4" y1="287.66" x2="660.4" y2="237.06"/><polyline class="cls-8" points="645.13 248.25 660.4 232.23 675.67 248.25"/><line class="cls-9" x1="660.4" y1="632.64" x2="660.4" y2="402.33"/></g><g id="ETH-3" class="cls-23"><path id="Coin-3" class="cls-22" d="M663.59,333.63c.74-.17,1.41-.44,2-.82,.59-.38,1.07-.89,1.43-1.52,.36-.63,.54-1.4,.54-2.28s-.2-1.7-.6-2.32-.92-1.09-1.55-1.43c-.63-.34-1.35-.58-2.16-.73-.8-.15-1.59-.22-2.35-.22h-6.72v9.58h7.17c.76,0,1.51-.08,2.25-.25Zm3.27,9.51c-.8-.34-1.67-.57-2.6-.7-.93-.13-1.8-.19-2.6-.19h-7.48v10.21s8.88,0,8.88,0c.76,0,1.53-.08,2.32-.25s1.49-.47,2.12-.89,1.15-.97,1.55-1.65c.4-.68,.6-1.5,.6-2.47,0-1.06-.26-1.91-.79-2.57-.53-.66-1.19-1.15-2-1.49Zm-5.96-55.48c-32.12,.56-57.71,27.06-57.15,59.18,.56,32.12,27.06,57.71,59.18,57.15,32.12-.56,57.71-27.06,57.15-59.18-.56-32.12-27.06-57.71-59.18-57.15Zm.04,7.94c4.87-.09,9.74,.56,14.88,1.96,4.89,1.43,9.41,3.5,13.49,6.15l.7,.47c1.13,.77,2.19,1.5,3.28,2.45,3.13,2.51,5.79,5.24,8.06,8.28,2.12,2.49,3.76,5.34,5.09,7.79,3.62,6.84,5.53,14.4,5.67,22.49l.03,1.89-3.77,.07-.03-1.89c-.13-7.49-1.89-14.48-5.22-20.77-1.3-2.4-2.76-4.94-4.67-7.17l-.08-.1c-2.09-2.8-4.54-5.32-7.5-7.7-.97-.86-1.9-1.49-2.97-2.22l-.67-.46c-3.73-2.42-7.92-4.33-12.42-5.65-4.76-1.3-9.28-1.89-13.79-1.82l-1.89,.03-.07-3.77,1.89-.03Zm12.8,43.01c1.21,.61,2.24,1.4,3.11,2.35s1.53,2.06,2,3.33,.7,2.62,.7,4.06c0,2.37-.51,4.34-1.52,5.93-1.01,1.59-2.33,2.86-3.93,3.84-1.61,.97-3.41,1.67-5.42,2.09-2.01,.42-4.01,.63-5.99,.63h-18.39s0-44.91,0-44.91h16.75c1.95,0,3.9,.14,5.87,.41,1.97,.27,3.73,.82,5.3,1.65s2.83,1.98,3.81,3.46c.97,1.48,1.46,3.45,1.46,5.9s-.71,4.64-2.12,6.31c-1.42,1.67-3.29,2.86-5.61,3.58v.13c1.48,.21,2.82,.62,4.03,1.24Zm9.35,30.02v7.09s-42.36,0-42.36,0v-7.09s42.36,0,42.36,0Zm-60.89,1.65c1.37,2.37,3.19,4.77,5.75,7.57,1.34,1.37,3.01,3.02,4.9,4.46l1.5,1.14-2.28,3-1.5-1.14c-2.09-1.59-3.88-3.35-5.35-4.87-2.79-3.05-4.77-5.66-6.27-8.26-4.62-7.82-7.05-16.31-7.2-25.23-.08-4.35,.44-8.84,1.57-13.73,1.12-4.42,3.01-8.88,5.46-12.92,4.13-6.76,9.31-12.23,15.4-16.24,4.15-2.84,8.9-5.03,13.69-6.32l1.82-.49,.98,3.64-1.82,.49c-4.39,1.18-8.73,3.19-12.56,5.81-5.65,3.73-10.44,8.79-14.28,15.07-2.23,3.67-4.01,7.88-5.02,11.84-1.05,4.54-1.53,8.74-1.46,12.77,.14,8.26,2.39,16.13,6.69,23.4Zm31.31,25.28l-1.83-.45c-3.33-.82-7.23-1.87-10.83-3.54l-1.71-.79,1.59-3.42,1.71,.79c3.31,1.53,6.98,2.53,10.14,3.3l1.83,.45-.9,3.66Zm55.86-33.96c-1.03,3.37-2.49,6.31-4.38,9.69-1.87,3.04-3.5,5.31-5.17,7.23-1.17,1.44-2.5,2.7-3.78,3.92-.43,.41-.86,.82-1.3,1.24-3.07,2.69-6.57,5-10.77,7.13-6.74,3.3-14.19,5.11-21.58,5.24l-1.89,.03-.07-3.77,1.89-.03c6.83-.12,13.74-1.79,19.96-4.85,3.89-1.98,7.14-4.12,9.89-6.53,.37-.37,.82-.79,1.26-1.21,1.25-1.19,2.43-2.31,3.49-3.61,1.57-1.8,3.09-3.92,4.8-6.7,1.73-3.1,3.09-5.84,4.02-8.89l.55-1.8,3.61,1.1-.55,1.8Z"/></g></g><g><g><line class="cls-8" x1="817" y1="287.66" x2="817" y2="237.06"/><polyline class="cls-8" points="801.73 248.25 816.99 232.23 832.26 248.25"/><line class="cls-9" x1="817" y1="632.64" x2="817" y2="402.33"/></g><g id="ETH-4" class="cls-19"><path id="Coin-4" class="cls-32" d="M820.18,333.63c.74-.17,1.41-.44,2-.82,.59-.38,1.07-.89,1.43-1.52,.36-.63,.54-1.4,.54-2.28s-.2-1.7-.6-2.32-.92-1.09-1.55-1.43c-.63-.34-1.35-.58-2.16-.73-.8-.15-1.59-.22-2.35-.22h-6.72v9.58h7.17c.76,0,1.51-.08,2.25-.25Zm3.27,9.51c-.8-.34-1.67-.57-2.6-.7-.93-.13-1.8-.19-2.6-.19h-7.48v10.21s8.88,0,8.88,0c.76,0,1.53-.08,2.32-.25s1.49-.47,2.12-.89,1.15-.97,1.55-1.65c.4-.68,.6-1.5,.6-2.47,0-1.06-.26-1.91-.79-2.57-.53-.66-1.19-1.15-2-1.49Zm-5.96-55.48c-32.12,.56-57.71,27.06-57.15,59.18,.56,32.12,27.06,57.71,59.18,57.15,32.12-.56,57.71-27.06,57.15-59.18-.56-32.12-27.06-57.71-59.18-57.15Zm.04,7.94c4.87-.09,9.74,.56,14.88,1.96,4.89,1.43,9.41,3.5,13.49,6.15l.7,.47c1.13,.77,2.19,1.5,3.28,2.45,3.13,2.51,5.79,5.24,8.06,8.28,2.12,2.49,3.76,5.34,5.09,7.79,3.62,6.84,5.53,14.4,5.67,22.49l.03,1.89-3.77,.07-.03-1.89c-.13-7.49-1.89-14.48-5.22-20.77-1.3-2.4-2.76-4.94-4.67-7.17l-.08-.1c-2.09-2.8-4.54-5.32-7.5-7.7-.97-.86-1.9-1.49-2.97-2.22l-.67-.46c-3.73-2.42-7.92-4.33-12.42-5.65-4.76-1.3-9.28-1.89-13.79-1.82l-1.89,.03-.07-3.77,1.89-.03Zm12.8,43.01c1.21,.61,2.24,1.4,3.11,2.35s1.53,2.06,2,3.33,.7,2.62,.7,4.06c0,2.37-.51,4.34-1.52,5.93-1.01,1.59-2.33,2.86-3.93,3.84-1.61,.97-3.41,1.67-5.42,2.09-2.01,.42-4.01,.63-5.99,.63h-18.39s0-44.91,0-44.91h16.75c1.95,0,3.9,.14,5.87,.41,1.97,.27,3.73,.82,5.3,1.65s2.83,1.98,3.81,3.46c.97,1.48,1.46,3.45,1.46,5.9s-.71,4.64-2.12,6.31c-1.42,1.67-3.29,2.86-5.61,3.58v.13c1.48,.21,2.82,.62,4.03,1.24Zm9.35,30.02v7.09s-42.36,0-42.36,0v-7.09s42.36,0,42.36,0Zm-60.89,1.65c1.37,2.37,3.19,4.77,5.75,7.57,1.34,1.37,3.01,3.02,4.9,4.46l1.5,1.14-2.28,3-1.5-1.14c-2.09-1.59-3.88-3.35-5.35-4.87-2.79-3.05-4.77-5.66-6.27-8.26-4.62-7.82-7.05-16.31-7.2-25.23-.08-4.35,.44-8.84,1.57-13.73,1.12-4.42,3.01-8.88,5.46-12.92,4.13-6.76,9.31-12.23,15.4-16.24,4.15-2.84,8.9-5.03,13.69-6.32l1.82-.49,.98,3.64-1.82,.49c-4.39,1.18-8.73,3.19-12.56,5.81-5.65,3.73-10.44,8.79-14.28,15.07-2.23,3.67-4.01,7.88-5.02,11.84-1.05,4.54-1.53,8.74-1.46,12.77,.14,8.26,2.39,16.13,6.69,23.4Zm31.31,25.28l-1.83-.45c-3.33-.82-7.23-1.87-10.83-3.54l-1.71-.79,1.59-3.42,1.71,.79c3.31,1.53,6.98,2.53,10.14,3.3l1.83,.45-.9,3.66Zm55.86-33.96c-1.03,3.37-2.49,6.31-4.38,9.69-1.87,3.04-3.5,5.31-5.17,7.23-1.17,1.44-2.5,2.7-3.78,3.92-.43,.41-.86,.82-1.3,1.24-3.07,2.69-6.57,5-10.77,7.13-6.74,3.3-14.19,5.11-21.58,5.24l-1.89,.03-.07-3.77,1.89-.03c6.83-.12,13.74-1.79,19.96-4.85,3.89-1.98,7.14-4.12,9.89-6.53,.37-.37,.82-.79,1.26-1.21,1.25-1.19,2.43-2.31,3.49-3.61,1.57-1.8,3.09-3.92,4.8-6.7,1.73-3.1,3.09-5.84,4.02-8.89l.55-1.8,3.61,1.1-.55,1.8Z"/></g></g></g></svg>