<?xml version="1.0" encoding="UTF-8"?>
<svg xmlns="http://www.w3.org/2000/svg" xmlns:xlink="http://www.w3.org/1999/xlink" viewBox="0 0 1008.15 1008.15">
  <defs>
    <style>
      .cls-1 {
        filter: url(#outer-glow-18);
      }

      .cls-1, .cls-2, .cls-3, .cls-4, .cls-5, .cls-6, .cls-7 {
        opacity: .5;
      }

      .cls-8 {
        fill: url(#linear-gradient-12);
      }

      .cls-8, .cls-9, .cls-10, .cls-11, .cls-12, .cls-13, .cls-14, .cls-15, .cls-16, .cls-17, .cls-18, .cls-19, .cls-20, .cls-21, .cls-22, .cls-23, .cls-24, .cls-25, .cls-26, .cls-27, .cls-28, .cls-29, .cls-30, .cls-31, .cls-32, .cls-33, .cls-34, .cls-35, .cls-36, .cls-37, .cls-5, .cls-38, .cls-39, .cls-40, .cls-41, .cls-42, .cls-43, .cls-44, .cls-45, .cls-46 {
        stroke-width: 0px;
      }

      .cls-9 {
        fill: url(#linear-gradient-17);
      }

      .cls-10 {
        fill: url(#linear-gradient-19);
      }

      .cls-11 {
        fill: url(#linear-gradient-33);
      }

      .cls-12 {
        fill: url(#linear-gradient);
      }

      .cls-47 {
        mask: url(#mask-10);
      }

      .cls-48 {
        filter: url(#outer-glow-3);
      }

      .cls-49 {
        fill: url(#GlassPanel-6);
      }

      .cls-49, .cls-50, .cls-51, .cls-52, .cls-53, .cls-54, .cls-55 {
        stroke: #b68bcc;
      }

      .cls-49, .cls-50, .cls-52, .cls-53, .cls-54, .cls-55 {
        stroke-linecap: square;
        stroke-miterlimit: 54.61;
        stroke-width: 1.23px;
      }

      .cls-56 {
        filter: url(#outer-glow-4);
      }

      .cls-2 {
        filter: url(#outer-glow-33);
      }

      .cls-57 {
        filter: url(#outer-glow-22);
      }

      .cls-13 {
        fill: url(#linear-gradient-21);
      }

      .cls-14 {
        fill: url(#linear-gradient-6);
      }

      .cls-58 {
        filter: url(#luminosity-noclip-5);
      }

      .cls-59 {
        filter: url(#outer-glow-21);
      }

      .cls-60 {
        filter: url(#outer-glow-15);
      }

      .cls-61 {
        filter: url(#outer-glow-32);
      }

      .cls-62 {
        mask: url(#mask-2);
      }

      .cls-63 {
        filter: url(#outer-glow-27);
      }

      .cls-3 {
        filter: url(#outer-glow-28);
      }

      .cls-15 {
        fill: url(#linear-gradient-15);
      }

      .cls-16 {
        fill: url(#linear-gradient-11);
      }

      .cls-64 {
        mask: url(#mask-3);
      }

      .cls-50 {
        fill: url(#GlassPanel-4);
      }

      .cls-17 {
        fill: url(#linear-gradient-5);
      }

      .cls-65 {
        filter: url(#outer-glow-1);
      }

      .cls-18 {
        fill: url(#linear-gradient-31);
      }

      .cls-19 {
        fill: url(#linear-gradient-34);
      }

      .cls-66 {
        mask: url(#mask-9);
      }

      .cls-67 {
        filter: url(#outer-glow-30);
      }

      .cls-68 {
        filter: url(#outer-glow-9);
      }

      .cls-69 {
        filter: url(#outer-glow-20);
      }

      .cls-70 {
        mask: url(#mask-5);
      }

      .cls-20 {
        fill: url(#linear-gradient-13);
      }

      .cls-21 {
        fill: url(#linear-gradient-23);
      }

      .cls-51 {
        stroke-width: 1.3px;
      }

      .cls-51, .cls-71 {
        fill: none;
        stroke-miterlimit: 10;
      }

      .cls-22 {
        fill: url(#linear-gradient-25);
      }

      .cls-23 {
        fill: url(#linear-gradient-16);
      }

      .cls-24 {
        fill: url(#linear-gradient-22);
      }

      .cls-52 {
        fill: url(#GlassPanel-2);
      }

      .cls-72 {
        filter: url(#outer-glow-19);
      }

      .cls-73 {
        filter: url(#outer-glow-37);
      }

      .cls-53 {
        fill: url(#GlassPanel-3);
      }

      .cls-25 {
        fill: url(#linear-gradient-32);
      }

      .cls-26 {
        fill: url(#linear-gradient-20);
      }

      .cls-74 {
        filter: url(#outer-glow-10);
      }

      .cls-75 {
        filter: url(#outer-glow-24);
      }

      .cls-27 {
        fill: url(#linear-gradient-14);
      }

      .cls-4 {
        filter: url(#outer-glow-8);
      }

      .cls-28 {
        fill: url(#linear-gradient-2);
      }

      .cls-76 {
        filter: url(#outer-glow-31);
      }

      .cls-77 {
        filter: url(#luminosity-noclip-4);
      }

      .cls-29, .cls-5 {
        isolation: isolate;
      }

      .cls-29, .cls-5, .cls-44 {
        fill: #18131f;
      }

      .cls-78 {
        mask: url(#mask-8);
      }

      .cls-79 {
        filter: url(#luminosity-noclip-6);
      }

      .cls-80 {
        filter: url(#outer-glow-34);
      }

      .cls-30 {
        fill: url(#linear-gradient-7);
      }

      .cls-81 {
        mask: url(#mask-4);
      }

      .cls-82 {
        filter: url(#outer-glow-29);
      }

      .cls-31 {
        fill: url(#linear-gradient-3);
      }

      .cls-83 {
        filter: url(#outer-glow-14);
      }

      .cls-32 {
        fill: url(#linear-gradient-9);
      }

      .cls-33 {
        fill: url(#linear-gradient-27);
      }

      .cls-84 {
        filter: url(#outer-glow-5);
      }

      .cls-85 {
        mask: url(#mask-6);
      }

      .cls-86 {
        filter: url(#outer-glow-25);
      }

      .cls-34 {
        fill: url(#linear-gradient-36);
      }

      .cls-87 {
        filter: url(#outer-glow-7);
      }

      .cls-88 {
        filter: url(#outer-glow-12);
      }

      .cls-54 {
        fill: url(#GlassPanel-5);
      }

      .cls-35 {
        fill: url(#linear-gradient-8);
      }

      .cls-89 {
        filter: url(#outer-glow-17);
      }

      .cls-36 {
        fill: url(#linear-gradient-24);
      }

      .cls-37 {
        fill: url(#linear-gradient-26);
      }

      .cls-38 {
        fill: url(#linear-gradient-18);
      }

      .cls-39 {
        opacity: 0;
      }

      .cls-40 {
        fill: url(#linear-gradient-30);
      }

      .cls-90 {
        filter: url(#luminosity-noclip);
      }

      .cls-91 {
        filter: url(#outer-glow-35);
      }

      .cls-92 {
        mask: url(#mask-1);
      }

      .cls-93 {
        mask: url(#mask);
      }

      .cls-41 {
        fill: url(#linear-gradient-29);
      }

      .cls-94 {
        filter: url(#outer-glow-16);
      }

      .cls-95 {
        mask: url(#mask-7);
      }

      .cls-71 {
        stroke: #f099ff;
        stroke-linecap: round;
        stroke-width: 3.86px;
      }

      .cls-42 {
        fill: url(#linear-gradient-28);
      }

      .cls-43 {
        fill: url(#linear-gradient-10);
      }

      .cls-55 {
        fill: url(#GlassPanel);
      }

      .cls-6 {
        filter: url(#outer-glow-13);
      }

      .cls-7 {
        filter: url(#outer-glow-23);
      }

      .cls-96 {
        filter: url(#luminosity-noclip-2);
      }

      .cls-45 {
        fill: url(#linear-gradient-4);
      }

      .cls-97 {
        filter: url(#outer-glow-11);
      }

      .cls-98 {
        mask: url(#mask-11);
      }

      .cls-99 {
        filter: url(#outer-glow-26);
      }

      .cls-100 {
        filter: url(#outer-glow-6);
      }

      .cls-101 {
        filter: url(#outer-glow-2);
      }

      .cls-102 {
        filter: url(#luminosity-noclip-3);
      }

      .cls-46 {
        fill: url(#linear-gradient-35);
        filter: url(#outer-glow-36);
      }
    </style>
    <filter id="outer-glow-1" filterUnits="userSpaceOnUse">
      <feOffset dx="0" dy="0"/>
      <feGaussianBlur result="blur" stdDeviation="4.21"/>
      <feFlood flood-color="#ff4545" flood-opacity=".7"/>
      <feComposite in2="blur" operator="in"/>
      <feComposite in="SourceGraphic"/>
    </filter>
    <linearGradient id="linear-gradient" x1="646.64" y1="432.62" x2="646.64" y2="503.41" gradientTransform="translate(-81.69)" gradientUnits="userSpaceOnUse">
      <stop offset="0" stop-color="#fffab8"/>
      <stop offset="1" stop-color="#ffbd6b"/>
    </linearGradient>
    <filter id="outer-glow-2" filterUnits="userSpaceOnUse">
      <feOffset dx="0" dy="0"/>
      <feGaussianBlur result="blur-2" stdDeviation="4.64"/>
      <feFlood flood-color="#ff4545" flood-opacity=".7"/>
      <feComposite in2="blur-2" operator="in"/>
      <feComposite in="SourceGraphic"/>
    </filter>
    <linearGradient id="linear-gradient-2" x1="560.96" y1="524.73" x2="560.96" y2="602.73" xlink:href="#linear-gradient"/>
    <filter id="outer-glow-3" filterUnits="userSpaceOnUse">
      <feOffset dx="0" dy="0"/>
      <feGaussianBlur result="blur-3" stdDeviation="5.36"/>
      <feFlood flood-color="#ff4545" flood-opacity=".7"/>
      <feComposite in2="blur-3" operator="in"/>
      <feComposite in="SourceGraphic"/>
    </filter>
    <linearGradient id="linear-gradient-3" x1="529.5" y1="423.43" x2="529.5" y2="513.51" xlink:href="#linear-gradient"/>
    <filter id="outer-glow-4" filterUnits="userSpaceOnUse">
      <feOffset dx="0" dy="0"/>
      <feGaussianBlur result="blur-4" stdDeviation="2.59"/>
      <feFlood flood-color="#ff4545" flood-opacity=".7"/>
      <feComposite in2="blur-4" operator="in"/>
      <feComposite in="SourceGraphic"/>
    </filter>
    <linearGradient id="linear-gradient-4" x1="654.73" y1="513.78" x2="654.73" y2="557.29" xlink:href="#linear-gradient"/>
    <filter id="luminosity-noclip" x="583.92" y="488.16" width="298.55" height="298.36" color-interpolation-filters="sRGB" filterUnits="userSpaceOnUse">
      <feFlood flood-color="#fff" result="bg"/>
      <feBlend in="SourceGraphic" in2="bg"/>
    </filter>
    <linearGradient id="linear-gradient-5" x1="674.65" y1="721.47" x2="891.09" y2="721.47" gradientTransform="translate(-49.67 -84.13)" gradientUnits="userSpaceOnUse">
      <stop offset="0" stop-color="#231f20"/>
      <stop offset="1" stop-color="#fff"/>
    </linearGradient>
    <mask id="mask" x="583.92" y="488.16" width="298.55" height="298.36" maskUnits="userSpaceOnUse">
      <g class="cls-90">
        <rect class="cls-17" x="624.97" y="528.84" width="216.44" height="217.01" transform="translate(578.66 1596.46) rotate(-121.85)"/>
      </g>
    </mask>
    <filter id="outer-glow-5" filterUnits="userSpaceOnUse">
      <feOffset dx="0" dy="0"/>
      <feGaussianBlur result="blur-5" stdDeviation="2.6"/>
      <feFlood flood-color="#8c29ff" flood-opacity="1"/>
      <feComposite in2="blur-5" operator="in"/>
      <feComposite in="SourceGraphic"/>
    </filter>
    <linearGradient id="linear-gradient-6" x1="728.33" y1="468.69" x2="728.33" y2="277.46" gradientTransform="translate(0 1011.84) scale(1 -1)" gradientUnits="userSpaceOnUse">
      <stop offset="0" stop-color="#9d79b3"/>
      <stop offset="1" stop-color="#5c5396"/>
    </linearGradient>
    <filter id="outer-glow-6" filterUnits="userSpaceOnUse">
      <feOffset dx="0" dy="0"/>
      <feGaussianBlur result="blur-6" stdDeviation="1.74"/>
      <feFlood flood-color="#3b6dff" flood-opacity=".75"/>
      <feComposite in2="blur-6" operator="in"/>
      <feComposite in="SourceGraphic"/>
    </filter>
    <linearGradient id="linear-gradient-7" x1="736.56" y1="310.07" x2="736.56" y2="162.68" gradientTransform="translate(-8.1 886.74) scale(1 -1)" gradientUnits="userSpaceOnUse">
      <stop offset="0" stop-color="#6bcdff"/>
      <stop offset=".17" stop-color="#65c7fd"/>
      <stop offset=".39" stop-color="#55b7f8"/>
      <stop offset=".63" stop-color="#3a9df0"/>
      <stop offset=".9" stop-color="#1479e5"/>
      <stop offset="1" stop-color="#0469e0"/>
    </linearGradient>
    <linearGradient id="linear-gradient-8" x1="335.76" y1="87.57" x2="335.76" y2="153.97" gradientTransform="translate(445.19 511.75) scale(1 1.75)" gradientUnits="userSpaceOnUse">
      <stop offset="0" stop-color="#000"/>
      <stop offset="1" stop-color="#fff"/>
    </linearGradient>
    <mask id="mask-1" x="719.02" y="656.79" width="123.86" height="132.83" maskUnits="userSpaceOnUse">
      <rect class="cls-35" x="747.63" y="665.03" width="66.65" height="116.36" transform="translate(1841.07 818.48) rotate(142.33)"/>
    </mask>
    <filter id="outer-glow-7" filterUnits="userSpaceOnUse">
      <feOffset dx="0" dy="0"/>
      <feGaussianBlur result="blur-7" stdDeviation=".82"/>
      <feFlood flood-color="#8c29ff" flood-opacity="1"/>
      <feComposite in2="blur-7" operator="in"/>
      <feComposite in="SourceGraphic"/>
    </filter>
    <linearGradient id="GlassPanel" x1="769.26" y1="333.84" x2="769.26" y2="273.27" gradientTransform="translate(0 1011.84) scale(1 -1)" gradientUnits="userSpaceOnUse">
      <stop offset="0" stop-color="#9d79b3"/>
      <stop offset="1" stop-color="#5c5396"/>
    </linearGradient>
    <filter id="outer-glow-8" filterUnits="userSpaceOnUse">
      <feOffset dx="0" dy="0"/>
      <feGaussianBlur result="blur-8" stdDeviation=".78"/>
      <feFlood flood-color="#6636c6" flood-opacity=".5"/>
      <feComposite in2="blur-8" operator="in"/>
      <feComposite in="SourceGraphic"/>
    </filter>
    <filter id="outer-glow-9" filterUnits="userSpaceOnUse">
      <feOffset dx="0" dy="0"/>
      <feGaussianBlur result="blur-9" stdDeviation=".52"/>
      <feFlood flood-color="#6636c6" flood-opacity=".5"/>
      <feComposite in2="blur-9" operator="in"/>
      <feComposite in="SourceGraphic"/>
    </filter>
    <linearGradient id="linear-gradient-9" x1="769.26" y1="691.67" x2="769.26" y2="724.14" gradientUnits="userSpaceOnUse">
      <stop offset="0" stop-color="#f099ff"/>
      <stop offset="1" stop-color="#605ee0"/>
    </linearGradient>
    <filter id="luminosity-noclip-2" x="356.39" y="617.02" width="298.55" height="298.36" color-interpolation-filters="sRGB" filterUnits="userSpaceOnUse">
      <feFlood flood-color="#fff" result="bg"/>
      <feBlend in="SourceGraphic" in2="bg"/>
    </filter>
    <linearGradient id="linear-gradient-10" x1="685.24" y1="460.2" x2="901.68" y2="460.2" gradientTransform="translate(-287.8 306)" xlink:href="#linear-gradient-5"/>
    <mask id="mask-2" x="356.39" y="617.02" width="298.55" height="298.36" maskUnits="userSpaceOnUse">
      <g class="cls-96">
        <rect class="cls-43" x="397.44" y="657.7" width="216.44" height="217.01" transform="translate(121.61 1600.04) rotate(-121.85)"/>
      </g>
    </mask>
    <filter id="outer-glow-10" filterUnits="userSpaceOnUse">
      <feOffset dx="0" dy="0"/>
      <feGaussianBlur result="blur-10" stdDeviation="2.6"/>
      <feFlood flood-color="#8c29ff" flood-opacity="1"/>
      <feComposite in2="blur-10" operator="in"/>
      <feComposite in="SourceGraphic"/>
    </filter>
    <linearGradient id="linear-gradient-11" x1="500.8" y1="339.83" x2="500.8" y2="148.6" xlink:href="#linear-gradient-6"/>
    <filter id="outer-glow-11" filterUnits="userSpaceOnUse">
      <feOffset dx="0" dy="0"/>
      <feGaussianBlur result="blur-11" stdDeviation="1.74"/>
      <feFlood flood-color="#3b6dff" flood-opacity=".75"/>
      <feComposite in2="blur-11" operator="in"/>
      <feComposite in="SourceGraphic"/>
    </filter>
    <linearGradient id="linear-gradient-12" x1="509.03" y1="181.21" x2="509.03" y2="33.82" xlink:href="#linear-gradient-7"/>
    <linearGradient id="linear-gradient-13" x1="594.61" y1="108.7" x2="594.61" y2="175.09" gradientTransform="translate(-41.19 603.58) scale(1 1.75)" xlink:href="#linear-gradient-8"/>
    <mask id="mask-3" x="491.49" y="785.65" width="123.86" height="132.83" maskUnits="userSpaceOnUse">
      <rect class="cls-20" x="520.1" y="793.89" width="66.65" height="116.36" transform="translate(1512.17 1188.38) rotate(142.33)"/>
    </mask>
    <filter id="outer-glow-12" filterUnits="userSpaceOnUse">
      <feOffset dx="0" dy="0"/>
      <feGaussianBlur result="blur-12" stdDeviation=".82"/>
      <feFlood flood-color="#8c29ff" flood-opacity="1"/>
      <feComposite in2="blur-12" operator="in"/>
      <feComposite in="SourceGraphic"/>
    </filter>
    <linearGradient id="GlassPanel-2" data-name="GlassPanel" x1="541.73" y1="204.98" x2="541.73" y2="144.41" xlink:href="#GlassPanel"/>
    <filter id="outer-glow-13" filterUnits="userSpaceOnUse">
      <feOffset dx="0" dy="0"/>
      <feGaussianBlur result="blur-13" stdDeviation=".78"/>
      <feFlood flood-color="#6636c6" flood-opacity=".5"/>
      <feComposite in2="blur-13" operator="in"/>
      <feComposite in="SourceGraphic"/>
    </filter>
    <filter id="outer-glow-14" filterUnits="userSpaceOnUse">
      <feOffset dx="0" dy="0"/>
      <feGaussianBlur result="blur-14" stdDeviation=".52"/>
      <feFlood flood-color="#6636c6" flood-opacity=".5"/>
      <feComposite in2="blur-14" operator="in"/>
      <feComposite in="SourceGraphic"/>
    </filter>
    <linearGradient id="linear-gradient-14" x1="541.73" y1="820.53" x2="541.73" y2="853" xlink:href="#linear-gradient-9"/>
    <filter id="luminosity-noclip-3" x="128.86" y="488.16" width="298.55" height="298.36" color-interpolation-filters="sRGB" filterUnits="userSpaceOnUse">
      <feFlood flood-color="#fff" result="bg"/>
      <feBlend in="SourceGraphic" in2="bg"/>
    </filter>
    <linearGradient id="linear-gradient-15" x1="914.76" y1="334.92" x2="1131.2" y2="334.92" gradientTransform="translate(-744.84 302.43)" xlink:href="#linear-gradient-5"/>
    <mask id="mask-4" x="128.86" y="488.16" width="298.55" height="298.36" maskUnits="userSpaceOnUse">
      <g class="cls-102">
        <rect class="cls-15" x="169.91" y="528.84" width="216.44" height="217.01" transform="translate(-116.51 1209.9) rotate(-121.85)"/>
      </g>
    </mask>
    <filter id="outer-glow-15" filterUnits="userSpaceOnUse">
      <feOffset dx="0" dy="0"/>
      <feGaussianBlur result="blur-15" stdDeviation="2.6"/>
      <feFlood flood-color="#8c29ff" flood-opacity="1"/>
      <feComposite in2="blur-15" operator="in"/>
      <feComposite in="SourceGraphic"/>
    </filter>
    <linearGradient id="linear-gradient-16" x1="273.27" x2="273.27" xlink:href="#linear-gradient-6"/>
    <filter id="outer-glow-16" filterUnits="userSpaceOnUse">
      <feOffset dx="0" dy="0"/>
      <feGaussianBlur result="blur-16" stdDeviation="1.74"/>
      <feFlood flood-color="#3b6dff" flood-opacity=".75"/>
      <feComposite in2="blur-16" operator="in"/>
      <feComposite in="SourceGraphic"/>
    </filter>
    <linearGradient id="linear-gradient-17" x1="281.5" x2="281.5" xlink:href="#linear-gradient-7"/>
    <linearGradient id="linear-gradient-18" x1="695.98" y1="246.24" x2="695.98" y2="312.63" gradientTransform="translate(-370.08 233.68) scale(1 1.75)" xlink:href="#linear-gradient-8"/>
    <mask id="mask-5" x="263.96" y="656.79" width="123.86" height="132.83" maskUnits="userSpaceOnUse">
      <rect class="cls-38" x="292.57" y="665.03" width="66.65" height="116.36" transform="translate(1025.79 1096.55) rotate(142.33)"/>
    </mask>
    <filter id="outer-glow-17" filterUnits="userSpaceOnUse">
      <feOffset dx="0" dy="0"/>
      <feGaussianBlur result="blur-17" stdDeviation=".82"/>
      <feFlood flood-color="#8c29ff" flood-opacity="1"/>
      <feComposite in2="blur-17" operator="in"/>
      <feComposite in="SourceGraphic"/>
    </filter>
    <linearGradient id="GlassPanel-3" data-name="GlassPanel" x1="314.2" x2="314.2" xlink:href="#GlassPanel"/>
    <filter id="outer-glow-18" filterUnits="userSpaceOnUse">
      <feOffset dx="0" dy="0"/>
      <feGaussianBlur result="blur-18" stdDeviation=".78"/>
      <feFlood flood-color="#6636c6" flood-opacity=".5"/>
      <feComposite in2="blur-18" operator="in"/>
      <feComposite in="SourceGraphic"/>
    </filter>
    <filter id="outer-glow-19" filterUnits="userSpaceOnUse">
      <feOffset dx="0" dy="0"/>
      <feGaussianBlur result="blur-19" stdDeviation=".52"/>
      <feFlood flood-color="#6636c6" flood-opacity=".5"/>
      <feComposite in2="blur-19" operator="in"/>
      <feComposite in="SourceGraphic"/>
    </filter>
    <linearGradient id="linear-gradient-19" x1="314.2" x2="314.2" xlink:href="#linear-gradient-9"/>
    <filter id="luminosity-noclip-4" x="128.86" y="225.43" width="298.55" height="298.36" color-interpolation-filters="sRGB" filterUnits="userSpaceOnUse">
      <feFlood flood-color="#fff" result="bg"/>
      <feBlend in="SourceGraphic" in2="bg"/>
    </filter>
    <linearGradient id="linear-gradient-20" x1="1137.94" y1="473.54" x2="1354.38" y2="473.54" gradientTransform="translate(-968.02 -98.93)" xlink:href="#linear-gradient-5"/>
    <mask id="mask-6" x="128.86" y="225.43" width="298.55" height="298.36" maskUnits="userSpaceOnUse">
      <g class="cls-77">
        <rect class="cls-26" x="169.91" y="266.11" width="216.44" height="217.01" transform="translate(106.67 808.55) rotate(-121.85)"/>
      </g>
    </mask>
    <filter id="outer-glow-20" filterUnits="userSpaceOnUse">
      <feOffset dx="0" dy="0"/>
      <feGaussianBlur result="blur-20" stdDeviation="2.6"/>
      <feFlood flood-color="#8c29ff" flood-opacity="1"/>
      <feComposite in2="blur-20" operator="in"/>
      <feComposite in="SourceGraphic"/>
    </filter>
    <linearGradient id="linear-gradient-21" x1="273.27" y1="731.42" x2="273.27" y2="540.19" xlink:href="#linear-gradient-6"/>
    <filter id="outer-glow-21" filterUnits="userSpaceOnUse">
      <feOffset dx="0" dy="0"/>
      <feGaussianBlur result="blur-21" stdDeviation="1.74"/>
      <feFlood flood-color="#3b6dff" flood-opacity=".75"/>
      <feComposite in2="blur-21" operator="in"/>
      <feComposite in="SourceGraphic"/>
    </filter>
    <linearGradient id="linear-gradient-22" x1="281.5" y1="572.8" x2="281.5" y2="425.41" xlink:href="#linear-gradient-7"/>
    <linearGradient id="linear-gradient-23" x1="535.44" y1="364.91" x2="535.44" y2="431.31" gradientTransform="translate(-209.54 -237.02) scale(1 1.75)" xlink:href="#linear-gradient-8"/>
    <mask id="mask-7" x="263.96" y="394.06" width="123.86" height="132.83" maskUnits="userSpaceOnUse">
      <rect class="cls-21" x="292.57" y="402.3" width="66.65" height="116.36" transform="translate(865.25 625.85) rotate(142.33)"/>
    </mask>
    <filter id="outer-glow-22" filterUnits="userSpaceOnUse">
      <feOffset dx="0" dy="0"/>
      <feGaussianBlur result="blur-22" stdDeviation=".82"/>
      <feFlood flood-color="#8c29ff" flood-opacity="1"/>
      <feComposite in2="blur-22" operator="in"/>
      <feComposite in="SourceGraphic"/>
    </filter>
    <linearGradient id="GlassPanel-4" data-name="GlassPanel" x1="314.2" y1="596.57" x2="314.2" y2="536" xlink:href="#GlassPanel"/>
    <filter id="outer-glow-23" filterUnits="userSpaceOnUse">
      <feOffset dx="0" dy="0"/>
      <feGaussianBlur result="blur-23" stdDeviation=".78"/>
      <feFlood flood-color="#6636c6" flood-opacity=".5"/>
      <feComposite in2="blur-23" operator="in"/>
      <feComposite in="SourceGraphic"/>
    </filter>
    <filter id="outer-glow-24" filterUnits="userSpaceOnUse">
      <feOffset dx="0" dy="0"/>
      <feGaussianBlur result="blur-24" stdDeviation=".52"/>
      <feFlood flood-color="#6636c6" flood-opacity=".5"/>
      <feComposite in2="blur-24" operator="in"/>
      <feComposite in="SourceGraphic"/>
    </filter>
    <linearGradient id="linear-gradient-24" x1="314.2" y1="428.94" x2="314.2" y2="461.41" xlink:href="#linear-gradient-9"/>
    <filter id="luminosity-noclip-5" x="583.92" y="226.91" width="298.55" height="298.36" color-interpolation-filters="sRGB" filterUnits="userSpaceOnUse">
      <feFlood flood-color="#fff" result="bg"/>
      <feBlend in="SourceGraphic" in2="bg"/>
    </filter>
    <linearGradient id="linear-gradient-25" x1="896.57" y1="859.32" x2="1113.01" y2="859.32" gradientTransform="translate(-271.6 -483.23)" xlink:href="#linear-gradient-5"/>
    <mask id="mask-8" x="583.92" y="226.91" width="298.55" height="298.36" maskUnits="userSpaceOnUse">
      <g class="cls-58">
        <rect class="cls-22" x="624.97" y="267.59" width="216.44" height="217.01" transform="translate(800.59 1197.36) rotate(-121.85)"/>
      </g>
    </mask>
    <filter id="outer-glow-25" filterUnits="userSpaceOnUse">
      <feOffset dx="0" dy="0"/>
      <feGaussianBlur result="blur-25" stdDeviation="2.6"/>
      <feFlood flood-color="#8c29ff" flood-opacity="1"/>
      <feComposite in2="blur-25" operator="in"/>
      <feComposite in="SourceGraphic"/>
    </filter>
    <linearGradient id="linear-gradient-26" y1="729.94" y2="538.71" xlink:href="#linear-gradient-6"/>
    <filter id="outer-glow-26" filterUnits="userSpaceOnUse">
      <feOffset dx="0" dy="0"/>
      <feGaussianBlur result="blur-26" stdDeviation="1.74"/>
      <feFlood flood-color="#3b6dff" flood-opacity=".75"/>
      <feComposite in2="blur-26" operator="in"/>
      <feComposite in="SourceGraphic"/>
    </filter>
    <linearGradient id="linear-gradient-27" y1="571.32" y2="423.93" xlink:href="#linear-gradient-7"/>
    <linearGradient id="linear-gradient-28" x1="176.12" y1="205.58" x2="176.12" y2="271.97" gradientTransform="translate(604.83 43.69) scale(1 1.75)" xlink:href="#linear-gradient-8"/>
    <mask id="mask-9" x="719.02" y="395.54" width="123.86" height="132.83" maskUnits="userSpaceOnUse">
      <rect class="cls-42" x="747.63" y="403.78" width="66.65" height="116.36" transform="translate(1681.43 350.43) rotate(142.33)"/>
    </mask>
    <filter id="outer-glow-27" filterUnits="userSpaceOnUse">
      <feOffset dx="0" dy="0"/>
      <feGaussianBlur result="blur-27" stdDeviation=".82"/>
      <feFlood flood-color="#8c29ff" flood-opacity="1"/>
      <feComposite in2="blur-27" operator="in"/>
      <feComposite in="SourceGraphic"/>
    </filter>
    <linearGradient id="GlassPanel-5" data-name="GlassPanel" y1="595.09" y2="534.52" xlink:href="#GlassPanel"/>
    <filter id="outer-glow-28" filterUnits="userSpaceOnUse">
      <feOffset dx="0" dy="0"/>
      <feGaussianBlur result="blur-28" stdDeviation=".78"/>
      <feFlood flood-color="#6636c6" flood-opacity=".5"/>
      <feComposite in2="blur-28" operator="in"/>
      <feComposite in="SourceGraphic"/>
    </filter>
    <filter id="outer-glow-29" filterUnits="userSpaceOnUse">
      <feOffset dx="0" dy="0"/>
      <feGaussianBlur result="blur-29" stdDeviation=".52"/>
      <feFlood flood-color="#6636c6" flood-opacity=".5"/>
      <feComposite in2="blur-29" operator="in"/>
      <feComposite in="SourceGraphic"/>
    </filter>
    <linearGradient id="linear-gradient-29" x1="769.26" y1="430.42" x2="769.26" y2="462.88" xlink:href="#linear-gradient-9"/>
    <filter id="luminosity-noclip-6" x="356.39" y="96.85" width="298.55" height="298.36" color-interpolation-filters="sRGB" filterUnits="userSpaceOnUse">
      <feFlood flood-color="#fff" result="bg"/>
      <feBlend in="SourceGraphic" in2="bg"/>
    </filter>
    <linearGradient id="linear-gradient-30" x1="1127.11" y1="734.67" x2="1343.55" y2="734.67" gradientTransform="translate(-729.67 -488.64)" xlink:href="#linear-gradient-5"/>
    <mask id="mask-10" x="356.39" y="96.85" width="298.55" height="298.36" maskUnits="userSpaceOnUse">
      <g class="cls-79">
        <rect class="cls-40" x="397.44" y="137.53" width="216.44" height="217.01" transform="translate(563.48 805.39) rotate(-121.85)"/>
      </g>
    </mask>
    <filter id="outer-glow-30" filterUnits="userSpaceOnUse">
      <feOffset dx="0" dy="0"/>
      <feGaussianBlur result="blur-30" stdDeviation="2.6"/>
      <feFlood flood-color="#8c29ff" flood-opacity="1"/>
      <feComposite in2="blur-30" operator="in"/>
      <feComposite in="SourceGraphic"/>
    </filter>
    <linearGradient id="linear-gradient-31" x1="500.8" y1="860" x2="500.8" y2="668.77" xlink:href="#linear-gradient-6"/>
    <filter id="outer-glow-31" filterUnits="userSpaceOnUse">
      <feOffset dx="0" dy="0"/>
      <feGaussianBlur result="blur-31" stdDeviation="1.74"/>
      <feFlood flood-color="#3b6dff" flood-opacity=".75"/>
      <feComposite in2="blur-31" operator="in"/>
      <feComposite in="SourceGraphic"/>
    </filter>
    <linearGradient id="linear-gradient-32" x1="509.03" y1="701.38" x2="509.03" y2="553.99" xlink:href="#linear-gradient-7"/>
    <linearGradient id="linear-gradient-33" x1="276.76" y1="343.66" x2="276.76" y2="410.05" gradientTransform="translate(276.67 -328.36) scale(1 1.75)" xlink:href="#linear-gradient-8"/>
    <mask id="mask-11" x="491.49" y="265.48" width="123.86" height="132.83" maskUnits="userSpaceOnUse">
      <rect class="cls-11" x="520.1" y="273.72" width="66.65" height="116.36" transform="translate(1194.32 256.44) rotate(142.33)"/>
    </mask>
    <filter id="outer-glow-32" filterUnits="userSpaceOnUse">
      <feOffset dx="0" dy="0"/>
      <feGaussianBlur result="blur-32" stdDeviation=".82"/>
      <feFlood flood-color="#8c29ff" flood-opacity="1"/>
      <feComposite in2="blur-32" operator="in"/>
      <feComposite in="SourceGraphic"/>
    </filter>
    <linearGradient id="GlassPanel-6" data-name="GlassPanel" x1="541.73" y1="725.15" x2="541.73" y2="664.58" xlink:href="#GlassPanel"/>
    <filter id="outer-glow-33" filterUnits="userSpaceOnUse">
      <feOffset dx="0" dy="0"/>
      <feGaussianBlur result="blur-33" stdDeviation=".78"/>
      <feFlood flood-color="#6636c6" flood-opacity=".5"/>
      <feComposite in2="blur-33" operator="in"/>
      <feComposite in="SourceGraphic"/>
    </filter>
    <filter id="outer-glow-34" filterUnits="userSpaceOnUse">
      <feOffset dx="0" dy="0"/>
      <feGaussianBlur result="blur-34" stdDeviation=".52"/>
      <feFlood flood-color="#6636c6" flood-opacity=".5"/>
      <feComposite in2="blur-34" operator="in"/>
      <feComposite in="SourceGraphic"/>
    </filter>
    <linearGradient id="linear-gradient-34" x1="541.73" y1="300.35" x2="541.73" y2="332.82" xlink:href="#linear-gradient-9"/>
    <filter id="outer-glow-35" filterUnits="userSpaceOnUse">
      <feOffset dx="0" dy="0"/>
      <feGaussianBlur result="blur-35" stdDeviation="1.93"/>
      <feFlood flood-color="#f099ff" flood-opacity=".7"/>
      <feComposite in2="blur-35" operator="in"/>
      <feComposite in="SourceGraphic"/>
    </filter>
    <linearGradient id="linear-gradient-35" x1="500.8" y1="361.7" x2="500.8" y2="404.08" gradientUnits="userSpaceOnUse">
      <stop offset="0" stop-color="#59ffd8"/>
      <stop offset="1" stop-color="#21826b"/>
    </linearGradient>
    <filter id="outer-glow-36" filterUnits="userSpaceOnUse">
      <feOffset dx="0" dy="0"/>
      <feGaussianBlur result="blur-36" stdDeviation="1.23"/>
      <feFlood flood-color="#4f8f2f" flood-opacity=".75"/>
      <feComposite in2="blur-36" operator="in"/>
      <feComposite in="SourceGraphic"/>
    </filter>
    <filter id="outer-glow-37" filterUnits="userSpaceOnUse">
      <feOffset dx="0" dy="0"/>
      <feGaussianBlur result="blur-37" stdDeviation="3.94"/>
      <feFlood flood-color="#ff4545" flood-opacity="1"/>
      <feComposite in2="blur-37" operator="in"/>
      <feComposite in="SourceGraphic"/>
    </filter>
    <linearGradient id="linear-gradient-36" x1="586.84" y1="435.67" x2="586.84" y2="569.82" xlink:href="#linear-gradient"/>
  </defs>
  <g id="Frame">
    <rect class="cls-39" width="1008.15" height="1008.15"/>
  </g>
  <g id="Layer_3" data-name="Layer 3">
    <g id="ETH" class="cls-65">
      <path class="cls-12" d="M600.34,466.91c-.34-19.55-16.46-35.11-36.01-34.77-19.55.34-35.11,16.46-34.77,36.01.34,19.55,16.46,35.11,36.01,34.77,19.55-.34,35.11-16.46,34.77-36.01M564.95,476.19l-16.14-6.1,16.2-30.27,16.07,30.24-16.13,6.14ZM581.08,472.87l-16.13,20.83-16.14-20.83,16.14,6.44,16.13-6.44Z"/>
    </g>
    <g id="ETH-2" data-name="ETH" class="cls-101">
      <path class="cls-28" d="M518.27,562.51c-.38-21.54-18.14-38.69-39.68-38.31-21.54.38-38.69,18.14-38.31,39.68.38,21.54,18.14,38.69,39.68,38.31,21.54-.38,38.69-18.14,38.31-39.68M479.27,572.74l-17.78-6.72,17.85-33.36,17.71,33.32-17.78,6.76ZM497.05,569.08l-17.78,22.96-17.78-22.96,17.78,7.09,17.78-7.09Z"/>
    </g>
    <g id="ETH-3" data-name="ETH" class="cls-48">
      <path class="cls-31" d="M492.85,467.06c-.43-24.87-20.95-44.68-45.82-44.25-24.87.43-44.68,20.95-44.25,45.82.43,24.87,20.95,44.68,45.82,44.25,24.87-.43,44.68-20.95,44.25-45.82M447.82,478.87l-20.54-7.77,20.62-38.52,20.45,38.48-20.53,7.81ZM468.34,474.65l-20.53,26.51-20.54-26.51,20.54,8.19,20.53-8.19Z"/>
    </g>
    <g id="ETH-4" data-name="ETH" class="cls-56">
      <path class="cls-45" d="M594.79,534.86c-.21-12.01-10.12-21.58-22.13-21.37-12.01.21-21.58,10.12-21.37,22.13.21,12.01,10.12,21.58,22.13,21.37,12.01-.21,21.58-10.12,21.37-22.13M573.04,540.56l-9.92-3.75,9.96-18.6,9.88,18.58-9.91,3.77ZM582.96,538.52l-9.91,12.8-9.92-12.8,9.92,3.96,9.91-3.96Z"/>
    </g>
    <g>
      <g id="User">
        <g class="cls-93">
          <g class="cls-84">
            <g id="HexPlate">
              <polygon class="cls-14" points="728.27 731.17 646.71 684.31 646.71 590.07 728.33 542.95 809.94 590.07 809.94 684.31 728.27 731.17"/>
              <polygon class="cls-51" points="728.27 731.17 646.71 684.31 646.71 590.07 728.33 542.95 809.94 590.07 809.94 684.31 728.27 731.17"/>
            </g>
          </g>
        </g>
        <polygon id="HexPlate-2" class="cls-5" points="728.28 721.2 655.1 679.3 655.1 594.82 728.26 552.58 801.42 594.82 801.42 679.3 728.28 721.2"/>
        <g id="User-2" class="cls-100">
          <path class="cls-30" d="M714.72,662.5c-1.62-.88-9.85-9.88-11.27-12.79s-5.35-11.32-7.17-28.49c-4.06-32.37,15.54-44.7,32.29-44.7s36.35,12.33,32.28,44.7c-1.82,17.17-5.76,25.58-7.17,28.49-1.42,2.91-9.65,11.91-11.27,12.79-1.73.95-25.77.91-27.69,0ZM784.01,673.72l-30.86-12.69-9.44,8.12s-4.16.74-13.91.8v29.74h-3.01v-29.74c-9.29-.09-13.29-.8-13.29-.8l-9.44-8.12-10.86,6.19s-17.77,4.72-20,6.5c-2.23,1.78-5.85,12.6-5.85,12.6l60.97,34.8,61.25-35-5.56-12.4Z"/>
        </g>
      </g>
      <g>
        <g class="cls-92">
          <g class="cls-87">
            <g id="HexPlate-2" data-name="HexPlate">
              <polygon class="cls-55" points="769.24 737.55 743.4 722.71 743.4 692.86 769.26 677.93 795.11 692.86 795.11 722.71 769.24 737.55"/>
            </g>
          </g>
        </g>
        <g id="DEX" class="cls-4">
          <polygon class="cls-44" points="747.93 695.43 747.93 720.06 769.26 732.37 790.58 720.06 790.58 695.43 769.26 683.12 747.93 695.43"/>
        </g>
        <g id="DEX-2" data-name="DEX" class="cls-68">
          <polygon class="cls-32" points="755.09 699.56 755.09 715.92 769.26 724.1 783.42 715.92 783.42 699.56 769.26 691.38 755.09 699.56"/>
        </g>
      </g>
    </g>
    <g>
      <g id="User-2" data-name="User">
        <g class="cls-62">
          <g class="cls-74">
            <g id="HexPlate-3" data-name="HexPlate">
              <polygon class="cls-16" points="500.74 860.03 419.18 813.18 419.18 718.93 500.8 671.81 582.41 718.93 582.41 813.18 500.74 860.03"/>
              <polygon class="cls-51" points="500.74 860.03 419.18 813.18 419.18 718.93 500.8 671.81 582.41 718.93 582.41 813.18 500.74 860.03"/>
            </g>
          </g>
        </g>
        <polygon id="HexPlate-2-2" data-name="HexPlate-2" class="cls-5" points="500.75 850.06 427.57 808.16 427.57 723.68 500.73 681.44 573.89 723.68 573.89 808.16 500.75 850.06"/>
        <g id="User-2-2" data-name="User-2" class="cls-97">
          <path class="cls-8" d="M487.19,791.36c-1.62-.88-9.85-9.88-11.27-12.79s-5.35-11.32-7.17-28.49c-4.06-32.37,15.54-44.7,32.29-44.7s36.35,12.33,32.28,44.7c-1.82,17.17-5.76,25.58-7.17,28.49-1.42,2.91-9.65,11.91-11.27,12.79-1.73.95-25.77.91-27.69,0ZM556.48,802.58l-30.86-12.69-9.44,8.12s-4.16.74-13.91.8v29.74h-3.01v-29.74c-9.29-.09-13.29-.8-13.29-.8l-9.44-8.12-10.86,6.19s-17.77,4.72-20,6.5c-2.23,1.78-5.85,12.6-5.85,12.6l60.97,34.8,61.25-35-5.56-12.4Z"/>
        </g>
      </g>
      <g>
        <g class="cls-64">
          <g class="cls-88">
            <g id="HexPlate-4" data-name="HexPlate">
              <polygon class="cls-52" points="541.71 866.41 515.87 851.57 515.87 821.72 541.73 806.79 567.58 821.72 567.58 851.57 541.71 866.41"/>
            </g>
          </g>
        </g>
        <g id="DEX-3" data-name="DEX" class="cls-6">
          <polygon class="cls-44" points="520.4 824.29 520.4 848.92 541.73 861.23 563.05 848.92 563.05 824.29 541.73 811.98 520.4 824.29"/>
        </g>
        <g id="DEX-4" data-name="DEX" class="cls-83">
          <polygon class="cls-27" points="527.56 828.42 527.56 844.78 541.73 852.96 555.89 844.78 555.89 828.42 541.73 820.24 527.56 828.42"/>
        </g>
      </g>
    </g>
    <g>
      <g id="User-3" data-name="User">
        <g class="cls-81">
          <g class="cls-60">
            <g id="HexPlate-5" data-name="HexPlate">
              <polygon class="cls-23" points="273.21 731.17 191.65 684.31 191.65 590.07 273.27 542.95 354.88 590.07 354.88 684.31 273.21 731.17"/>
              <polygon class="cls-51" points="273.21 731.17 191.65 684.31 191.65 590.07 273.27 542.95 354.88 590.07 354.88 684.31 273.21 731.17"/>
            </g>
          </g>
        </g>
        <polygon id="HexPlate-2-3" data-name="HexPlate-2" class="cls-5" points="273.22 721.2 200.04 679.3 200.04 594.82 273.2 552.58 346.36 594.82 346.36 679.3 273.22 721.2"/>
        <g id="User-2-3" data-name="User-2" class="cls-94">
          <path class="cls-9" d="M259.66,662.5c-1.62-.88-9.85-9.88-11.27-12.79s-5.35-11.32-7.17-28.49c-4.06-32.37,15.54-44.7,32.29-44.7s36.35,12.33,32.28,44.7c-1.82,17.17-5.76,25.58-7.17,28.49-1.42,2.91-9.65,11.91-11.27,12.79-1.73.95-25.77.91-27.69,0ZM328.95,673.72l-30.86-12.69-9.44,8.12s-4.16.74-13.91.8v29.74h-3.01v-29.74c-9.29-.09-13.29-.8-13.29-.8l-9.44-8.12-10.86,6.19s-17.77,4.72-20,6.5c-2.23,1.78-5.85,12.6-5.85,12.6l60.97,34.8,61.25-35-5.56-12.4Z"/>
        </g>
      </g>
      <g>
        <g class="cls-70">
          <g class="cls-89">
            <g id="HexPlate-6" data-name="HexPlate">
              <polygon class="cls-53" points="314.18 737.55 288.34 722.71 288.34 692.86 314.2 677.93 340.05 692.86 340.05 722.71 314.18 737.55"/>
            </g>
          </g>
        </g>
        <g id="DEX-5" data-name="DEX" class="cls-1">
          <polygon class="cls-44" points="292.87 695.43 292.87 720.06 314.2 732.37 335.52 720.06 335.52 695.43 314.2 683.12 292.87 695.43"/>
        </g>
        <g id="DEX-6" data-name="DEX" class="cls-72">
          <polygon class="cls-10" points="300.03 699.56 300.03 715.92 314.2 724.1 328.36 715.92 328.36 699.56 314.2 691.38 300.03 699.56"/>
        </g>
      </g>
    </g>
    <g>
      <g id="User-4" data-name="User">
        <g class="cls-85">
          <g class="cls-69">
            <g id="HexPlate-7" data-name="HexPlate">
              <polygon class="cls-13" points="273.21 468.44 191.65 421.59 191.65 327.34 273.27 280.22 354.88 327.34 354.88 421.59 273.21 468.44"/>
              <polygon class="cls-51" points="273.21 468.44 191.65 421.59 191.65 327.34 273.27 280.22 354.88 327.34 354.88 421.59 273.21 468.44"/>
            </g>
          </g>
        </g>
        <polygon id="HexPlate-2-4" data-name="HexPlate-2" class="cls-5" points="273.22 458.47 200.04 416.57 200.04 332.09 273.2 289.85 346.36 332.09 346.36 416.57 273.22 458.47"/>
        <g id="User-2-4" data-name="User-2" class="cls-59">
          <path class="cls-24" d="M259.66,399.77c-1.62-.88-9.85-9.88-11.27-12.79s-5.35-11.32-7.17-28.49c-4.06-32.37,15.54-44.7,32.29-44.7s36.35,12.33,32.28,44.7c-1.82,17.17-5.76,25.58-7.17,28.49-1.42,2.91-9.65,11.91-11.27,12.79-1.73.95-25.77.91-27.69,0ZM328.95,410.99l-30.86-12.69-9.44,8.12s-4.16.74-13.91.8v29.74h-3.01v-29.74c-9.29-.09-13.29-.8-13.29-.8l-9.44-8.12-10.86,6.19s-17.77,4.72-20,6.5c-2.23,1.78-5.85,12.6-5.85,12.6l60.97,34.8,61.25-35-5.56-12.4Z"/>
        </g>
      </g>
      <g>
        <g class="cls-95">
          <g class="cls-57">
            <g id="HexPlate-8" data-name="HexPlate">
              <polygon class="cls-50" points="314.18 474.82 288.34 459.98 288.34 430.13 314.2 415.21 340.05 430.13 340.05 459.98 314.18 474.82"/>
            </g>
          </g>
        </g>
        <g id="DEX-7" data-name="DEX" class="cls-7">
          <polygon class="cls-44" points="292.87 432.7 292.87 457.33 314.2 469.64 335.52 457.33 335.52 432.7 314.2 420.39 292.87 432.7"/>
        </g>
        <g id="DEX-8" data-name="DEX" class="cls-75">
          <polygon class="cls-36" points="300.03 436.83 300.03 453.19 314.2 461.37 328.36 453.19 328.36 436.83 314.2 428.66 300.03 436.83"/>
        </g>
      </g>
    </g>
    <g>
      <g id="User-5" data-name="User">
        <g class="cls-78">
          <g class="cls-86">
            <g id="HexPlate-9" data-name="HexPlate">
              <polygon class="cls-37" points="728.27 469.92 646.71 423.06 646.71 328.82 728.33 281.7 809.94 328.82 809.94 423.06 728.27 469.92"/>
              <polygon class="cls-51" points="728.27 469.92 646.71 423.06 646.71 328.82 728.33 281.7 809.94 328.82 809.94 423.06 728.27 469.92"/>
            </g>
          </g>
        </g>
        <polygon id="HexPlate-2-5" data-name="HexPlate-2" class="cls-5" points="728.28 459.95 655.1 418.05 655.1 333.57 728.26 291.33 801.42 333.57 801.42 418.05 728.28 459.95"/>
        <g id="User-2-5" data-name="User-2" class="cls-99">
          <path class="cls-33" d="M714.72,401.24c-1.62-.88-9.85-9.88-11.27-12.79s-5.35-11.32-7.17-28.49c-4.06-32.37,15.54-44.7,32.29-44.7s36.35,12.33,32.28,44.7c-1.82,17.17-5.76,25.58-7.17,28.49-1.42,2.91-9.65,11.91-11.27,12.79-1.73.95-25.77.91-27.69,0ZM784.01,412.47l-30.86-12.69-9.44,8.12s-4.16.74-13.91.8v29.74h-3.01v-29.74c-9.29-.09-13.29-.8-13.29-.8l-9.44-8.12-10.86,6.19s-17.77,4.72-20,6.5c-2.23,1.78-5.85,12.6-5.85,12.6l60.97,34.8,61.25-35-5.56-12.4Z"/>
        </g>
      </g>
      <g>
        <g class="cls-66">
          <g class="cls-63">
            <g id="HexPlate-10" data-name="HexPlate">
              <polygon class="cls-54" points="769.24 476.3 743.4 461.46 743.4 431.61 769.26 416.68 795.11 431.61 795.11 461.46 769.24 476.3"/>
            </g>
          </g>
        </g>
        <g id="DEX-9" data-name="DEX" class="cls-3">
          <polygon class="cls-44" points="747.93 434.18 747.93 458.8 769.26 471.12 790.58 458.8 790.58 434.18 769.26 421.86 747.93 434.18"/>
        </g>
        <g id="DEX-10" data-name="DEX" class="cls-82">
          <polygon class="cls-41" points="755.09 438.31 755.09 454.67 769.26 462.85 783.42 454.67 783.42 438.31 769.26 430.13 755.09 438.31"/>
        </g>
      </g>
    </g>
    <g>
      <g id="User-6" data-name="User">
        <g class="cls-47">
          <g class="cls-67">
            <g id="HexPlate-11" data-name="HexPlate">
              <polygon class="cls-18" points="500.74 339.86 419.18 293 419.18 198.76 500.8 151.64 582.41 198.76 582.41 293 500.74 339.86"/>
              <polygon class="cls-51" points="500.74 339.86 419.18 293 419.18 198.76 500.8 151.64 582.41 198.76 582.41 293 500.74 339.86"/>
            </g>
          </g>
        </g>
        <polygon id="HexPlate-2-6" data-name="HexPlate-2" class="cls-5" points="500.75 329.89 427.57 287.99 427.57 203.51 500.73 161.27 573.89 203.51 573.89 287.99 500.75 329.89"/>
        <g id="User-2-6" data-name="User-2" class="cls-76">
          <path class="cls-25" d="M487.19,271.18c-1.62-.88-9.85-9.88-11.27-12.79s-5.35-11.32-7.17-28.49c-4.06-32.37,15.54-44.7,32.29-44.7s36.35,12.33,32.28,44.7c-1.82,17.17-5.76,25.58-7.17,28.49-1.42,2.91-9.65,11.91-11.27,12.79-1.73.95-25.77.91-27.69,0ZM556.48,282.4l-30.86-12.69-9.44,8.12s-4.16.74-13.91.8v29.74h-3.01v-29.74c-9.29-.09-13.29-.8-13.29-.8l-9.44-8.12-10.86,6.19s-17.77,4.72-20,6.5c-2.23,1.78-5.85,12.6-5.85,12.6l60.97,34.8,61.25-35-5.56-12.4Z"/>
        </g>
      </g>
      <g>
        <g class="cls-98">
          <g class="cls-61">
            <g id="HexPlate-12" data-name="HexPlate">
              <polygon class="cls-49" points="541.71 346.24 515.87 331.4 515.87 301.55 541.73 286.62 567.58 301.55 567.58 331.4 541.71 346.24"/>
            </g>
          </g>
        </g>
        <g id="DEX-11" data-name="DEX" class="cls-2">
          <polygon class="cls-44" points="520.4 304.11 520.4 328.74 541.73 341.05 563.05 328.74 563.05 304.11 541.73 291.8 520.4 304.11"/>
        </g>
        <g id="DEX-12" data-name="DEX" class="cls-80">
          <polygon class="cls-19" points="527.56 308.25 527.56 324.61 541.73 332.79 555.89 324.61 555.89 308.25 541.73 300.07 527.56 308.25"/>
        </g>
      </g>
    </g>
    <g class="cls-91">
      <g>
        <line class="cls-71" x1="633.39" y1="689.37" x2="622.54" y2="695.64"/>
        <line class="cls-71" x1="604.3" y1="706.16" x2="593.45" y2="712.43"/>
      </g>
      <g>
        <line class="cls-71" x1="633.39" y1="322.32" x2="622.54" y2="316.05"/>
        <line class="cls-71" x1="604.3" y1="305.53" x2="593.45" y2="299.26"/>
      </g>
      <g>
        <line class="cls-71" x1="275.57" y1="528.9" x2="275.57" y2="516.37"/>
        <line class="cls-71" x1="275.57" y1="495.32" x2="275.57" y2="482.79"/>
      </g>
      <g>
        <line class="cls-71" x1="408.15" y1="299.26" x2="397.3" y2="305.53"/>
        <line class="cls-71" x1="379.08" y1="316.05" x2="368.23" y2="322.32"/>
      </g>
      <g>
        <line class="cls-71" x1="726.03" y1="528.9" x2="726.03" y2="516.37"/>
        <line class="cls-71" x1="726.03" y1="495.32" x2="726.03" y2="482.79"/>
      </g>
      <g>
        <line class="cls-71" x1="408.15" y1="712.43" x2="397.3" y2="706.16"/>
        <line class="cls-71" x1="379.08" y1="695.64" x2="368.23" y2="689.37"/>
      </g>
    </g>
    <path class="cls-46" d="M487.35,364.7c0-.89.39-1.77,1.14-2.36,1.3-1.03,3.19-.8,4.21.5,1.97,2.51,4.92,3.94,8.08,3.94,3.18,0,6.14-1.44,8.11-3.94,1.03-1.3,2.91-1.53,4.21-.5,1.3,1.03,1.53,2.91.5,4.21-3.12,3.96-7.79,6.23-12.82,6.23-5.01,0-9.67-2.27-12.79-6.23-.43-.55-.64-1.2-.64-1.85ZM476.69,378.51c6.17,6.73,14.95,10.58,24.09,10.58s17.92-3.86,24.09-10.58c1.12-1.23,1.04-3.12-.18-4.24-1.22-1.12-3.12-1.04-4.24.18-5.04,5.49-12.2,8.64-19.67,8.64-7.47,0-14.64-3.15-19.67-8.64-1.12-1.22-3.02-1.3-4.24-.18-.65.59-.97,1.4-.97,2.21,0,.72.26,1.45.79,2.03ZM467.27,390.29c8.97,8.9,20.87,13.8,33.51,13.8,12.66,0,24.57-4.9,33.54-13.8,1.18-1.17,1.19-3.07.02-4.24-1.17-1.18-3.07-1.18-4.24-.02-7.84,7.77-18.25,12.05-29.31,12.05-11.05,0-21.44-4.28-29.28-12.05-1.18-1.17-3.08-1.16-4.24.02-.58.58-.87,1.35-.87,2.11s.3,1.54.89,2.13Z"/>
    <circle class="cls-29" cx="504.65" cy="502.29" r="72.57"/>
    <g id="ETH-5" data-name="ETH" class="cls-73">
      <path class="cls-34" d="M572.21,500.65c-.65-37.04-31.19-66.54-68.23-65.89-37.04.65-66.54,31.19-65.89,68.23.65,37.04,31.19,66.54,68.23,65.89,37.04-.65,66.54-31.19,65.89-68.23M475.56,457.3c-6.48,4.27-12.01,10.11-16.43,17.36-1.27,2.09-2.41,4.31-3.39,6.61-1,2.35-1.81,4.71-2.4,7.03-1.22,5.28-1.77,10.1-1.69,14.75.17,9.52,2.76,18.6,7.71,26.98v.02c1.57,2.71,3.66,5.47,6.6,8.68,1.59,1.63,3.5,3.51,5.67,5.16l1.73,1.32-2.63,3.46-1.73-1.32c-2.41-1.83-4.47-3.87-6.17-5.61l-.05-.05c-3.17-3.46-5.45-6.47-7.17-9.46-2.57-4.35-4.58-8.97-5.97-13.72-1.46-4.99-2.25-10.17-2.34-15.38-.09-5.01.5-10.19,1.81-15.83v-.05c1.3-5.06,3.47-10.19,6.3-14.85h0c2.3-3.77,4.93-7.25,7.83-10.33,3.02-3.22,6.36-6.04,9.9-8.39,4.82-3.29,10.28-5.81,15.8-7.3l2.1-.56,1.13,4.2-2.1.56c-5.06,1.36-10.07,3.67-14.49,6.7l-.03.02ZM505.15,514.54l-24.25-9.17,24.35-45.49,24.15,45.44-24.24,9.22ZM529.39,509.55l-24.24,31.3-24.25-31.3,24.25,9.67,24.24-9.67ZM495.46,559.17l-2.11-.52c-3.84-.94-8.33-2.16-12.48-4.08l-1.97-.91,1.83-3.95,1.97.91c3.81,1.77,8.04,2.91,11.69,3.8l2.11.52-1.03,4.22ZM559.86,520.01c-1.18,3.89-2.87,7.28-5.05,11.18l-.02.04-.02.04c-2.1,3.4-3.97,6.02-5.89,8.22-1.39,1.71-2.91,3.15-4.38,4.55-.49.47-1,.95-1.5,1.43l-.04.04-.05.04c-3.45,3.02-7.48,5.68-12.32,8.14h-.03c-3.78,1.87-7.76,3.32-11.83,4.33-4.27,1.06-8.65,1.64-13.02,1.71l-2.17.04-.08-4.35,2.17-.04c7.87-.14,15.82-2.07,22.99-5.58,4.49-2.29,8.21-4.74,11.37-7.5.5-.49,1.01-.97,1.5-1.44,1.44-1.37,2.81-2.66,4.03-4.16l.05-.06c1.76-2.01,3.5-4.44,5.46-7.63,2.03-3.64,3.6-6.78,4.66-10.29l.63-2.08,4.16,1.27-.63,2.08ZM558.7,503.35l-.04-2.17c-.15-8.63-2.18-16.68-6.02-23.94-1.5-2.78-3.19-5.71-5.39-8.27l-.05-.06-.04-.06c-2.41-3.23-5.24-6.13-8.65-8.88l-.04-.03-.04-.03c-1.04-.92-2.11-1.65-3.34-2.49-.24-.17-.49-.34-.75-.51-4.33-2.81-9.15-5.01-14.32-6.53-5.52-1.5-10.72-2.19-15.91-2.1l-2.17.04-.08-4.35,2.17-.04c5.61-.1,11.23.64,17.15,2.26h.04c5.6,1.65,10.82,4.03,15.51,7.09l.05.03c.26.18.51.35.75.52,1.29.88,2.5,1.71,3.74,2.79,3.67,2.95,6.72,6.09,9.33,9.58,2.45,2.87,4.34,6.15,5.87,8.99h0c4.17,7.89,6.36,16.6,6.53,25.93l.04,2.17-4.35.08Z"/>
    </g>
  </g>
</svg>