<?xml version="1.0" encoding="UTF-8"?><svg xmlns="http://www.w3.org/2000/svg" xmlns:xlink="http://www.w3.org/1999/xlink" viewBox="0 0 1033.53 1029.71"><defs><style>.cls-1{fill:url(#linear-gradient-2);}.cls-2{fill:url(#linear-gradient);stroke-width:2.03px;}.cls-2,.cls-3,.cls-4,.cls-5{stroke:#b68bcc;stroke-linecap:square;stroke-miterlimit:54.61;}.cls-6{fill:url(#linear-gradient-17);}.cls-3{fill:url(#linear-gradient-40);}.cls-3,.cls-4,.cls-5{stroke-width:2.03px;}.cls-7{fill:url(#linear-gradient-43);}.cls-8,.cls-9{fill:#18131f;opacity:.5;}.cls-10{fill:url(#linear-gradient-15);}.cls-11{fill:url(#linear-gradient-18);}.cls-12{fill:url(#linear-gradient-28);}.cls-13{fill:url(#linear-gradient-14);}.cls-14{fill:url(#linear-gradient-36);}.cls-15{mask:url(#mask-2);}.cls-16{fill:url(#linear-gradient-20);}.cls-17{fill:url(#linear-gradient-6);}.cls-18{fill:url(#linear-gradient-35);}.cls-19{mask:url(#mask-3);}.cls-20{fill:url(#linear-gradient-32);}.cls-21{fill:url(#linear-gradient-11);}.cls-22{filter:url(#outer-glow-1);}.cls-9{isolation:isolate;}.cls-23{fill:url(#linear-gradient-39);}.cls-24{fill:none;opacity:0;}.cls-25{fill:url(#linear-gradient-10);}.cls-26{fill:url(#linear-gradient-37);}.cls-27{fill:url(#linear-gradient-16);}.cls-28{fill:url(#linear-gradient-31);}.cls-29{fill:url(#White_Black);}.cls-30{fill:url(#linear-gradient-41);}.cls-31{fill:url(#linear-gradient-21);}.cls-32{fill:url(#linear-gradient-25);}.cls-4{fill:url(#linear-gradient-42);}.cls-33{fill:url(#linear-gradient-5);}.cls-34{fill:url(#linear-gradient-34);}.cls-35{fill:url(#linear-gradient-7);}.cls-36{fill:url(#linear-gradient-24);}.cls-37{fill:url(#linear-gradient-9);}.cls-38{fill:url(#linear-gradient-22);}.cls-39{mask:url(#mask-1);}.cls-40{mask:url(#mask);}.cls-41{fill:url(#linear-gradient-3);}.cls-42{fill:url(#linear-gradient-27);}.cls-43{fill:url(#linear-gradient-33);}.cls-44{fill:url(#linear-gradient-29);}.cls-45{fill:url(#linear-gradient-30);}.cls-5{fill:url(#linear-gradient-38);}.cls-46{fill:url(#linear-gradient-23);}.cls-47{fill:url(#linear-gradient-19);}.cls-48{fill:url(#linear-gradient-4);}.cls-49{fill:url(#linear-gradient-8);}.cls-50{fill:url(#linear-gradient-12);}.cls-51{fill:url(#linear-gradient-13);}.cls-52{fill:url(#linear-gradient-26);}</style><linearGradient id="White_Black" x1="497.88" y1="266.73" x2="497.88" y2="789.72" gradientTransform="translate(-121.24 -109.95) scale(1.24 1.5)" gradientUnits="userSpaceOnUse"><stop offset="0" stop-color="#fff"/><stop offset="1" stop-color="#000"/></linearGradient><mask id="mask" x="67.46" y="210.65" width="861.29" height="943.82" maskUnits="userSpaceOnUse"><rect class="cls-29" x="168.07" y="290.24" width="660.07" height="784.66" transform="translate(-178.39 176.25) rotate(-17.07)"/></mask><linearGradient id="linear-gradient" x1="501.2" y1="332.49" x2="501.2" y2="780.99" gradientUnits="userSpaceOnUse"><stop offset="0" stop-color="#9d79b3"/><stop offset="1" stop-color="#5c5396"/></linearGradient><linearGradient id="linear-gradient-2" x1="357.48" y1="186.68" x2="357.48" y2="208.98" gradientUnits="userSpaceOnUse"><stop offset="0" stop-color="#9d79b3"/><stop offset="1" stop-color="#5c5396"/></linearGradient><linearGradient id="linear-gradient-3" x1="377.31" x2="377.31" xlink:href="#linear-gradient-2"/><linearGradient id="linear-gradient-4" x1="397.21" y1="186.22" x2="397.21" y2="209.45" xlink:href="#linear-gradient-2"/><linearGradient id="linear-gradient-5" x1="417.29" x2="417.29" xlink:href="#linear-gradient-2"/><linearGradient id="linear-gradient-6" x1="437.52" x2="437.52" xlink:href="#linear-gradient-2"/><linearGradient id="linear-gradient-7" x1="458.58" x2="458.58" xlink:href="#linear-gradient-2"/><linearGradient id="linear-gradient-8" x1="479.56" x2="479.56" xlink:href="#linear-gradient-2"/><linearGradient id="linear-gradient-9" x1="499.08" x2="499.08" xlink:href="#linear-gradient-2"/><linearGradient id="linear-gradient-10" x1="519.22" x2="519.22" xlink:href="#linear-gradient-2"/><linearGradient id="linear-gradient-11" x1="533.59" x2="533.59" xlink:href="#linear-gradient-2"/><linearGradient id="linear-gradient-12" x1="549.75" x2="549.75" xlink:href="#linear-gradient-2"/><linearGradient id="linear-gradient-13" x1="569.88" x2="569.88" xlink:href="#linear-gradient-2"/><linearGradient id="linear-gradient-14" x1="587.7" x2="587.7" xlink:href="#linear-gradient-2"/><linearGradient id="linear-gradient-15" x1="604.42" x2="604.42" xlink:href="#linear-gradient-2"/><linearGradient id="linear-gradient-16" x1="622.43" y1="186.22" x2="622.43" y2="209.45" xlink:href="#linear-gradient-2"/><linearGradient id="linear-gradient-17" x1="644.79" x2="644.79" xlink:href="#linear-gradient-2"/><linearGradient id="linear-gradient-18" x1="179.5" y1="818.06" x2="179.5" y2="841.29" xlink:href="#linear-gradient-2"/><linearGradient id="linear-gradient-19" x1="199.2" y1="818.53" x2="199.2" y2="840.83" xlink:href="#linear-gradient-2"/><linearGradient id="linear-gradient-20" x1="219.11" y1="818.06" x2="219.11" y2="841.29" xlink:href="#linear-gradient-2"/><linearGradient id="linear-gradient-21" x1="241.12" y1="818.53" x2="241.12" y2="841.33" xlink:href="#linear-gradient-2"/><linearGradient id="linear-gradient-22" x1="263.99" y1="818.53" x2="263.99" y2="840.83" xlink:href="#linear-gradient-2"/><linearGradient id="linear-gradient-23" x1="280.41" y1="818.53" x2="280.41" y2="840.83" xlink:href="#linear-gradient-2"/><linearGradient id="linear-gradient-24" x1="297.14" y1="818.53" x2="297.14" y2="840.83" xlink:href="#linear-gradient-2"/><linearGradient id="linear-gradient-25" x1="316.4" y1="818.53" x2="316.4" y2="840.83" xlink:href="#linear-gradient-2"/><linearGradient id="linear-gradient-26" x1="660.91" y1="818.08" x2="660.91" y2="841.31" xlink:href="#linear-gradient-2"/><linearGradient id="linear-gradient-27" x1="682.01" y1="818.08" x2="682.01" y2="841.31" xlink:href="#linear-gradient-2"/><linearGradient id="linear-gradient-28" x1="703.21" y1="818.54" x2="703.21" y2="840.84" xlink:href="#linear-gradient-2"/><linearGradient id="linear-gradient-29" x1="723.35" y1="818.54" x2="723.35" y2="840.84" xlink:href="#linear-gradient-2"/><linearGradient id="linear-gradient-30" x1="741.48" y1="818.54" x2="741.48" y2="840.84" xlink:href="#linear-gradient-2"/><linearGradient id="linear-gradient-31" x1="763.2" y1="818.54" x2="763.2" y2="840.84" xlink:href="#linear-gradient-2"/><linearGradient id="linear-gradient-32" x1="780.18" y1="818.54" x2="780.18" y2="840.84" xlink:href="#linear-gradient-2"/><linearGradient id="linear-gradient-33" x1="796.58" y1="818.54" x2="796.58" y2="840.84" xlink:href="#linear-gradient-2"/><linearGradient id="linear-gradient-34" x1="810.95" y1="818.54" x2="810.95" y2="840.84" xlink:href="#linear-gradient-2"/><linearGradient id="linear-gradient-35" x1="827.67" y1="818.54" x2="827.67" y2="840.84" xlink:href="#linear-gradient-2"/><linearGradient id="linear-gradient-36" x1="846.93" y1="818.54" x2="846.93" y2="840.84" xlink:href="#linear-gradient-2"/><linearGradient id="linear-gradient-37" x1="737.64" y1="528.72" x2="737.64" y2="792.21" gradientTransform="translate(-200.96 -322.67)" gradientUnits="userSpaceOnUse"><stop offset="0" stop-color="#fff"/><stop offset="1" stop-color="#000"/></linearGradient><mask id="mask-1" x="385.39" y="186.51" width="302.58" height="302.58" maskUnits="userSpaceOnUse"><rect class="cls-26" x="454.47" y="206.05" width="164.43" height="263.49" transform="translate(-81.67 478.43) rotate(-45)"/></mask><linearGradient id="linear-gradient-38" x1="1000.69" y1="795.58" x2="1000.69" y2="656.3" gradientTransform="translate(-499.46 1028.61) scale(1 -1)" xlink:href="#linear-gradient"/><linearGradient id="linear-gradient-39" x1="618.85" y1="1011.48" x2="618.85" y2="1274.97" gradientTransform="translate(175.2 -380.07)" xlink:href="#linear-gradient-37"/><mask id="mask-2" x="642.75" y="611.87" width="302.58" height="302.58" maskUnits="userSpaceOnUse"><rect class="cls-23" x="711.83" y="631.41" width="164.43" height="263.49" transform="translate(-307.06 785) rotate(-45)"/></mask><linearGradient id="linear-gradient-40" x1="754.21" y1="655.34" x2="754.21" y2="794.62" xlink:href="#linear-gradient"/><linearGradient id="linear-gradient-41" x1="258.85" y1="652.93" x2="258.85" y2="916.42" gradientTransform="translate(27.1 -20.5)" xlink:href="#linear-gradient-37"/><mask id="mask-3" x="134.67" y="612.89" width="302.58" height="302.58" maskUnits="userSpaceOnUse"><rect class="cls-30" x="203.74" y="632.43" width="164.43" height="263.49" transform="translate(-456.6 426.03) rotate(-45)"/></mask><linearGradient id="linear-gradient-42" x1="747.7" y1="373.06" x2="747.7" y2="233.78" gradientTransform="translate(-499.46 1028.61) scale(1 -1)" xlink:href="#linear-gradient"/><filter id="outer-glow-1" filterUnits="userSpaceOnUse"><feOffset dx="0" dy="0"/><feGaussianBlur result="blur" stdDeviation="5.58"/><feFlood flood-color="#ff4545" flood-opacity=".75"/><feComposite in2="blur" operator="in"/><feComposite in="SourceGraphic"/></filter><linearGradient id="linear-gradient-43" x1="530.7" y1="500.44" x2="530.7" y2="418.63" gradientTransform="translate(-81.69 1027.01) scale(1 -1)" gradientUnits="userSpaceOnUse"><stop offset="0" stop-color="#fffab8"/><stop offset="1" stop-color="#ffbd6b"/></linearGradient></defs><g id="Frame"><rect class="cls-24" x="4.79" width="1024" height="1024"/></g><g id="Layer_3"><g><g class="cls-40"><g><path class="cls-2" d="M756.29,647.62c-.69-.02-1.39-.03-2.08-.03-42.75,0-77.4,34.65-77.4,77.39,0,20.81,8.21,39.71,21.57,53.61-6.67,1.57-13.69,2.4-21,2.4H303.42c52.07-60.72,6.98-137.52-57.32-133.04l177.15-307.12c1.69-2.92,3.5-5.7,5.43-8.34,11.78,28.46,39.82,48.47,72.54,48.47s60.76-20.01,72.55-48.47c1.92,2.64,3.73,5.42,5.42,8.34l176.16,305.12c.32,.56,.63,1.11,.94,1.67Z"/><path class="cls-9" d="M671.85,688.67c-4.91,11.11-7.63,23.39-7.63,36.31,0,16.08,4.22,31.18,11.61,44.24-2.89,.3-5.85,.45-8.85,.45H324.66c29.67-54.05,3.78-120.71-60.29-131.33l163.49-282.84c.1-.17,.19-.35,.29-.52,15.6,21.69,40.63,36.14,69.09,37.38,1.32,.06,2.65,.09,3.98,.09,1.24,0,2.47-.02,3.69-.08,28.58-1.15,53.73-15.63,69.38-37.39,.1,.17,.19,.35,.29,.52l162.33,281.16c-26.61,5.17-49.03,22.08-61.66,45.12-1.23,2.24-2.37,4.54-3.4,6.89Z"/><path class="cls-8" d="M666.63,676.96c7.7-17.48,6.69-37.28-3.06-54.14l-110.23-190.94c-10.27-17.8-28.21-28.81-48.49-29.98l.06-9.53c-1.22,.06-2.45,.08-3.69,.08-1.33,0-2.66-.03-3.98-.09l-.07,9.56c-20.1,1.3-37.86,12.28-48.06,29.96l-110.24,190.94c-9.14,15.82-10.61,34.22-4.39,50.86l-9.24,5.03,3.67,6.74,8.71-4.74c.4,.77,.81,1.53,1.25,2.28,10.87,18.84,30.36,30.09,52.11,30.09h220.48c21.45,0,40.7-10.93,51.64-29.3l8.75,4.89c1.03-2.35,2.17-4.65,3.4-6.89l-8.62-4.82Zm-321.12-50.31l110.24-190.94c8.8-15.24,24.06-24.79,41.37-26.09l-1.23,176.23-154.59,84.12c-4.97-14.24-3.56-29.85,4.21-43.32Zm265.95,78.76h-220.48c-18.98,0-35.98-9.82-45.47-26.25-.4-.7-.79-1.41-1.15-2.11l155.33-84.53,156.71,87.52c-9.58,15.91-26.31,25.37-44.94,25.37Zm48.43-32.21l-156.32-87.31,1.22-176.31c17.52,1.15,33.01,10.73,41.9,26.13l110.24,190.94c8.37,14.5,9.36,31.47,2.96,46.55Z"/></g></g><g><path class="cls-1" d="M366.26,197.83c0,2.69-.37,4.84-1.11,6.48-.74,1.63-1.86,2.82-3.35,3.56-1.49,.74-3.59,1.11-6.3,1.11h-6.8v-22.3h6.73c2.63,0,4.72,.38,6.28,1.14,1.55,.76,2.7,1.95,3.44,3.57,.74,1.62,1.11,3.76,1.11,6.44Zm-4.69-.03c0-1.94-.19-3.39-.57-4.33-.38-.94-1.03-1.61-1.94-2.02-.91-.41-2.27-.61-4.06-.61h-1.74v13.98h1.74c1.79,0,3.14-.21,4.05-.62,.91-.41,1.55-1.1,1.94-2.07s.58-2.41,.58-4.33Z"/><path class="cls-41" d="M370.06,208.98v-22.3h14.48v4.01h-9.94v4.75h8.38v4.03h-8.38v5.35h9.94v4.16h-14.48Z"/><path class="cls-48" d="M406.72,205.29c-.96,1.43-2.13,2.48-3.52,3.15-1.39,.67-3.1,1.01-5.13,1.01-6.91,0-10.36-3.87-10.36-11.62,0-3.96,.88-6.89,2.63-8.78,1.75-1.89,4.27-2.84,7.57-2.84,2.18,0,3.96,.37,5.33,1.1,1.37,.74,2.42,1.7,3.14,2.89l-3.53,2.74c-.52-.77-.99-1.33-1.42-1.68-.43-.34-.92-.6-1.47-.77-.55-.17-1.2-.26-1.97-.26-1.83,0-3.22,.58-4.17,1.75-.96,1.17-1.43,3.11-1.43,5.84,0,2.55,.45,4.45,1.35,5.7,.9,1.26,2.33,1.89,4.29,1.89,1.32,0,2.35-.25,3.09-.76,.74-.5,1.4-1.18,2.01-2.01l3.59,2.64Z"/><path class="cls-33" d="M410.05,208.98v-22.3h14.48v4.01h-9.94v4.75h8.38v4.03h-8.38v5.35h9.94v4.16h-14.48Z"/><path class="cls-17" d="M441.13,208.98l-8.12-15.93v15.93h-4.45v-22.3h5.9l7.56,15.03v-15.03h4.46v22.3h-5.35Z"/><path class="cls-35" d="M460.85,190.84v18.14h-4.54v-18.14h-6.86v-4.16h18.27v4.16h-6.86Z"/><path class="cls-49" d="M483.23,208.98l-5.69-8.44h-2.3v8.44h-4.54v-22.3h8.1c2.87,0,4.96,.52,6.29,1.55,1.33,1.03,1.99,2.72,1.99,5.08,0,1.9-.4,3.42-1.2,4.54-.8,1.13-1.94,1.85-3.41,2.16l5.96,8.97h-5.2Zm-.76-15.48c0-1.14-.29-1.9-.86-2.29-.57-.39-1.52-.58-2.84-.58h-3.53v5.95h3.34c1.02,0,1.8-.1,2.35-.29s.94-.49,1.18-.9c.24-.41,.36-1.04,.36-1.89Z"/><path class="cls-37" d="M488.74,208.98l7.38-22.3h5.91l7.39,22.3h-4.66l-1.48-4.53h-8.59l-1.45,4.53h-4.51Zm7.25-8.51h6.01l-3-9.22-3.01,9.22Z"/><path class="cls-25" d="M512.26,208.98v-22.3h4.54v18.14h9.38v4.16h-13.92Z"/><path class="cls-21" d="M538.98,208.98h-10.76v-3.5h3.11v-15.31h-3.11v-3.5h10.76v3.5h-3.09v15.31h3.09v3.5Z"/><path class="cls-50" d="M541.78,208.98v-3.83l10.23-14.31h-9.75v-4.16h15.18v3.66l-10.33,14.48h10.6v4.16h-15.93Z"/><path class="cls-51" d="M559.53,208.98l7.38-22.3h5.91l7.39,22.3h-4.66l-1.48-4.53h-8.59l-1.45,4.53h-4.51Zm7.25-8.51h6.01l-3-9.22-3.01,9.22Z"/><path class="cls-13" d="M589.97,190.84v18.14h-4.54v-18.14h-6.86v-4.16h18.27v4.16h-6.86Z"/><path class="cls-10" d="M609.8,208.98h-10.76v-3.5h3.11v-15.31h-3.11v-3.5h10.76v3.5h-3.09v15.31h3.09v3.5Z"/><path class="cls-27" d="M632.03,197.83c0,3.88-.82,6.78-2.46,8.72-1.64,1.93-4.02,2.9-7.15,2.9-3.3,0-5.72-1.02-7.27-3.05-1.55-2.04-2.33-4.89-2.33-8.56s.78-6.55,2.33-8.58c1.55-2.02,3.98-3.04,7.27-3.04s5.75,1.01,7.29,3.04c1.54,2.02,2.31,4.88,2.31,8.58Zm-4.69,0c0-2.64-.37-4.57-1.12-5.78-.75-1.21-2.01-1.81-3.79-1.81s-3.05,.6-3.79,1.81c-.75,1.21-1.12,3.13-1.12,5.78s.38,4.57,1.14,5.78c.76,1.21,2.02,1.81,3.78,1.81s3.05-.6,3.79-1.81c.75-1.21,1.12-3.13,1.12-5.78Z"/><path class="cls-6" d="M648.4,208.98l-8.12-15.93v15.93h-4.45v-22.3h5.9l7.56,15.03v-15.03h4.46v22.3h-5.35Z"/></g><g><path class="cls-11" d="M188.19,834.37c0,2.23-.73,3.95-2.2,5.14-1.47,1.19-3.63,1.79-6.49,1.79-1.98,0-3.69-.33-5.15-.98-1.46-.65-2.64-1.71-3.55-3.17l3.5-2.67c.52,.73,1,1.28,1.47,1.64,.46,.37,1.01,.65,1.64,.85,.63,.2,1.36,.31,2.19,.31,1.23,0,2.2-.21,2.89-.64,.69-.42,1.04-1.07,1.04-1.94,0-.49-.12-.91-.36-1.24-.24-.33-.6-.62-1.09-.86-.48-.24-1.32-.52-2.51-.83-1.16-.31-2.25-.63-3.28-.94-1.03-.32-1.91-.73-2.66-1.23-.75-.51-1.33-1.14-1.76-1.9-.43-.76-.64-1.72-.64-2.88,0-2.12,.71-3.77,2.14-4.95,1.43-1.19,3.47-1.78,6.14-1.78,3.86,0,6.58,1.32,8.18,3.96l-3.46,2.71c-.61-.94-1.3-1.62-2.06-2.03-.76-.41-1.67-.61-2.72-.61s-1.91,.19-2.57,.57c-.66,.38-.99,.98-.99,1.8,0,.72,.34,1.27,1.03,1.65,.69,.38,1.89,.77,3.59,1.15,.94,.25,1.88,.51,2.8,.8,.92,.28,1.75,.68,2.47,1.18,.73,.51,1.31,1.17,1.75,1.98,.44,.82,.66,1.86,.66,3.14Z"/><path class="cls-47" d="M191.96,840.83v-22.3h14.48v4.01h-9.94v4.75h8.38v4.03h-8.38v5.35h9.94v4.16h-14.48Z"/><path class="cls-16" d="M228.62,837.14c-.96,1.43-2.13,2.48-3.52,3.15-1.39,.67-3.1,1.01-5.13,1.01-6.91,0-10.36-3.87-10.36-11.62,0-3.96,.88-6.89,2.63-8.78,1.75-1.89,4.27-2.84,7.57-2.84,2.18,0,3.96,.37,5.33,1.1,1.37,.74,2.42,1.7,3.14,2.89l-3.53,2.74c-.52-.77-.99-1.33-1.42-1.68-.43-.34-.92-.6-1.47-.77-.55-.17-1.2-.26-1.97-.26-1.83,0-3.22,.58-4.17,1.75-.96,1.17-1.43,3.11-1.43,5.84,0,2.55,.45,4.45,1.35,5.7,.9,1.26,2.33,1.88,4.29,1.88,1.32,0,2.35-.25,3.09-.76,.74-.51,1.4-1.18,2.01-2.01l3.59,2.64Z"/><path class="cls-31" d="M250.29,831.51c0,3.49-.71,6-2.13,7.52-1.42,1.53-3.76,2.29-7.04,2.29s-5.58-.75-7.02-2.26c-1.43-1.51-2.15-4.03-2.15-7.55v-12.99h4.54v12.66c0,1.51,.15,2.71,.44,3.58s.75,1.51,1.39,1.92c.63,.41,1.56,.61,2.77,.61,1.73,0,2.94-.46,3.63-1.38,.69-.92,1.03-2.47,1.03-4.66v-12.73h4.54v12.99Z"/><path class="cls-38" d="M267.65,840.83l-5.69-8.44h-2.3v8.44h-4.54v-22.3h8.1c2.87,0,4.96,.52,6.29,1.55,1.33,1.03,1.99,2.72,1.99,5.07,0,1.9-.4,3.42-1.2,4.54-.8,1.13-1.94,1.85-3.41,2.16l5.96,8.97h-5.2Zm-.76-15.48c0-1.14-.29-1.9-.86-2.29-.57-.39-1.52-.58-2.84-.58h-3.53v5.95h3.34c1.02,0,1.8-.1,2.35-.29s.94-.49,1.18-.9c.24-.41,.36-1.04,.36-1.89Z"/><path class="cls-46" d="M285.79,840.83h-10.76v-3.5h3.11v-15.31h-3.11v-3.5h10.76v3.5h-3.09v15.31h3.09v3.5Z"/><path class="cls-36" d="M299.41,822.68v18.14h-4.54v-18.14h-6.86v-4.16h18.27v4.16h-6.86Z"/><path class="cls-32" d="M318.68,832.32v8.51h-4.58v-8.41l-6.98-13.89h4.96l4.35,9.33,4.45-9.33h4.79l-6.99,13.79Z"/></g><g><path class="cls-52" d="M669.6,834.38c0,2.23-.73,3.95-2.2,5.14-1.47,1.19-3.63,1.79-6.49,1.79-1.98,0-3.69-.33-5.15-.98-1.46-.65-2.64-1.71-3.55-3.17l3.5-2.67c.52,.73,1,1.28,1.47,1.64,.46,.36,1.01,.65,1.64,.85,.63,.2,1.36,.31,2.19,.31,1.23,0,2.2-.21,2.89-.64,.69-.42,1.04-1.07,1.04-1.94,0-.49-.12-.91-.36-1.24-.24-.33-.6-.62-1.09-.86-.48-.24-1.32-.52-2.51-.83-1.16-.31-2.25-.63-3.28-.94-1.03-.32-1.91-.73-2.66-1.23-.75-.5-1.33-1.14-1.76-1.9-.43-.76-.64-1.72-.64-2.88,0-2.12,.71-3.77,2.14-4.95,1.43-1.19,3.47-1.78,6.14-1.78,3.86,0,6.58,1.32,8.18,3.96l-3.46,2.71c-.61-.94-1.3-1.62-2.06-2.03s-1.67-.61-2.72-.61-1.91,.19-2.57,.57c-.66,.38-.99,.98-.99,1.8,0,.72,.34,1.27,1.03,1.65s1.89,.77,3.59,1.15c.94,.25,1.88,.51,2.8,.8,.92,.28,1.75,.68,2.47,1.18,.73,.51,1.31,1.17,1.75,1.98,.44,.82,.66,1.86,.66,3.14Z"/><path class="cls-42" d="M691.52,837.15c-.96,1.43-2.13,2.48-3.52,3.15-1.39,.67-3.1,1.01-5.13,1.01-6.91,0-10.36-3.87-10.36-11.62,0-3.96,.88-6.89,2.63-8.78,1.75-1.89,4.27-2.84,7.57-2.84,2.18,0,3.96,.37,5.33,1.1,1.38,.74,2.42,1.7,3.14,2.89l-3.53,2.74c-.52-.77-.99-1.33-1.42-1.68s-.92-.6-1.47-.77-1.2-.26-1.97-.26c-1.83,0-3.22,.58-4.17,1.75-.96,1.17-1.43,3.11-1.43,5.84,0,2.55,.45,4.45,1.35,5.7,.9,1.26,2.33,1.89,4.29,1.89,1.32,0,2.35-.25,3.09-.76,.74-.5,1.4-1.18,2.01-2.01l3.59,2.64Z"/><path class="cls-12" d="M692.87,840.84l7.38-22.3h5.91l7.39,22.3h-4.66l-1.48-4.53h-8.59l-1.45,4.53h-4.51Zm7.25-8.51h6.01l-3-9.22-3.01,9.22Z"/><path class="cls-44" d="M716.39,840.84v-22.3h4.54v18.14h9.38v4.16h-13.92Z"/><path class="cls-45" d="M731.13,840.84l7.38-22.3h5.91l7.4,22.3h-4.66l-1.48-4.53h-8.59l-1.45,4.53h-4.51Zm7.25-8.51h6.01l-3-9.22-3.01,9.22Z"/><path class="cls-28" d="M771.73,834.38c0,2.23-.77,3.87-2.3,4.91-1.54,1.04-3.67,1.55-6.4,1.55h-8.38v-22.3h7.88c2.86,0,4.9,.42,6.14,1.25,1.23,.83,1.85,2.15,1.85,3.96,0,1.39-.34,2.51-1.01,3.37-.67,.86-1.72,1.43-3.15,1.72,1.87,.26,3.23,.85,4.08,1.77,.85,.92,1.28,2.18,1.28,3.77Zm-5.8-9.63c0-.85-.31-1.44-.93-1.76-.62-.33-1.59-.49-2.9-.49h-2.9v4.78h2.77c1.34,0,2.34-.19,2.99-.56s.97-1.03,.97-1.97Zm1.16,9.23c0-1-.34-1.7-1.02-2.12-.68-.41-1.94-.62-3.8-.62h-3.08v5.57h2.3c1.77,0,2.99-.09,3.67-.26,.67-.17,1.16-.46,1.47-.87,.31-.41,.46-.98,.46-1.71Z"/><path class="cls-20" d="M785.56,840.84h-10.76v-3.5h3.11v-15.31h-3.11v-3.5h10.76v3.5h-3.09v15.31h3.09v3.5Z"/><path class="cls-43" d="M789.62,840.84v-22.3h4.54v18.14h9.38v4.16h-13.92Z"/><path class="cls-34" d="M816.33,840.84h-10.76v-3.5h3.11v-15.31h-3.11v-3.5h10.76v3.5h-3.09v15.31h3.09v3.5Z"/><path class="cls-18" d="M829.94,822.7v18.14h-4.54v-18.14h-6.86v-4.16h18.27v4.16h-6.86Z"/><path class="cls-14" d="M849.21,832.33v8.51h-4.58v-8.41l-6.98-13.89h4.96l4.35,9.33,4.45-9.33h4.79l-6.99,13.79Z"/></g><g><circle class="cls-9" cx="501.23" cy="302.46" r="68.54"/><g class="cls-39"><g><path class="cls-5" d="M501.23,372.1c38.48,0,69.64-31.16,69.64-69.64s-31.16-69.64-69.64-69.64-69.64,31.16-69.64,69.64,31.16,69.64,69.64,69.64Z"/><path class="cls-9" d="M549.67,274.28l-13.72-7.92-12.58,7.27-8.66-5.56v-13.71l-13.71-7.92-13.71,7.92v14.63l-8.2,4.64-12.6-7.28-13.72,7.92v15.82l12.36,7.08,.03,10.1-12.39,7.15v15.83l13.72,7.85,12.43-7.12,8.36,5.36v14.25l13.72,7.86,13.7-7.86v-14.27l9.12-5.16,12.13,6.94,13.71-7.85v-15.83l-12.41-7.17-.03-10.03,12.44-7.13v-15.82Zm-81.82,33.02l-.03-10.09,10.74-6.16,8.73,5.6v12.34l-8.36,4.72-11.08-6.4Zm31.43,21.79v-1.22l-10.79,6.23-8.29-5.3v-12.86l8.61-4.87,10.44,5.98,.37,.2,.02,10.41v1.43s-.36,0-.36,0Zm-11.36-35.09l-7.72-4.94v-13.1l8.63-4.88,10.87,6.24,.02,9.88-11.79,6.81Zm26.02-23.37h0l8.29,5.31v12.73l-8.78,4.96-11.19-6.46-.02-9.83,11.7-6.72Zm8.3,58.51l-8.74,4.95-11.18-6.45h0s-.36-.21-.36-.21l-.03-9.92v-.57h.37v.37l11.59-6.64,8.35,5.35v13.12Zm1.2-15.39l-8.74-5.6v-12.26l8.87-5.01,11.08,6.34,.03,10.03-11.24,6.5Z"/></g></g></g><g><circle class="cls-9" cx="754.21" cy="724.98" r="68.54"/><g class="cls-15"><g><circle class="cls-3" cx="754.21" cy="724.98" r="69.64"/><polygon class="cls-9" points="770.9 668.97 753.44 717.87 792.64 717.87 737.53 780.99 756.24 731.4 715.79 731.4 770.9 668.97"/></g></g></g><g><circle class="cls-9" cx="248.24" cy="724.98" r="68.54"/><g class="cls-19"><g><path class="cls-4" d="M248.24,794.62c38.48,0,69.64-31.16,69.64-69.64s-31.16-69.64-69.64-69.64-69.64,31.16-69.64,69.64,31.16,69.64,69.64,69.64Z"/><path class="cls-9" d="M294.71,686.59c-32.44,4.38-46.47-14.91-46.47-14.91,0,0-14.04,19.29-46.48,14.91-4,57.48,46.48,91.69,46.48,91.69,0,0,50.46-34.21,46.47-91.69Zm-53.77,57.99l3.93-26.33c-2.08-1.18-3.49-3.41-3.49-5.98,0-3.79,3.08-6.87,6.87-6.87s6.87,3.08,6.87,6.87c0,2.56-1.41,4.8-3.49,5.98l3.93,26.33h-14.61Z"/></g></g></g><g id="ETH" class="cls-22"><circle class="cls-9" cx="449" cy="567.85" r="37.28"/><path class="cls-7" d="M489.91,566.2c-.39-22.59-19.02-40.58-41.61-40.18-22.59,.39-40.58,19.02-40.18,41.61,.39,22.59,19.02,40.58,41.61,40.18,22.58-.39,40.57-19.02,40.18-41.61m-58.95-26.44c-3.95,2.61-7.32,6.17-10.02,10.58-.78,1.28-1.47,2.63-2.07,4.03-.61,1.43-1.1,2.87-1.46,4.29-.74,3.22-1.08,6.16-1.03,9,.1,5.81,1.69,11.34,4.7,16.45h0c.95,1.67,2.23,3.35,4.02,5.3,.97,.99,2.14,2.14,3.46,3.15l1.06,.8-1.61,2.11-1.06-.8c-1.47-1.12-2.73-2.36-3.77-3.42l-.03-.03c-1.93-2.11-3.32-3.94-4.38-5.77-1.57-2.65-2.79-5.47-3.64-8.37-.89-3.04-1.37-6.2-1.43-9.38-.06-3.06,.31-6.22,1.1-9.66v-.03c.79-3.08,2.11-6.21,3.84-9.06h0c1.4-2.3,3.01-4.42,4.78-6.3,1.85-1.97,3.88-3.69,6.04-5.12,2.94-2.01,6.27-3.54,9.63-4.45l1.28-.34,.69,2.56-1.28,.34c-3.09,.83-6.14,2.24-8.83,4.08v.02Zm18.05,34.91l-14.79-5.59,14.85-27.74,14.73,27.71-14.78,5.62Zm14.78-3.04l-14.78,19.09-14.79-19.09,14.79,5.9,14.78-5.9Zm-20.69,30.26l-1.29-.32c-2.35-.57-5.08-1.32-7.61-2.49l-1.2-.56,1.12-2.41,1.2,.56c2.32,1.07,4.9,1.78,7.13,2.32l1.29,.32-.63,2.58Zm39.28-23.88c-.72,2.37-1.75,4.44-3.08,6.82v.02s-.03,.02-.03,.02c-1.28,2.08-2.42,3.67-3.59,5.01-.85,1.04-1.78,1.92-2.67,2.77-.3,.28-.61,.58-.91,.87l-.03,.03-.03,.02c-2.1,1.84-4.56,3.46-7.52,4.97h-.02c-2.31,1.14-4.73,2.03-7.21,2.64-2.6,.65-5.28,1-7.94,1.05l-1.33,.02-.05-2.65,1.33-.02c4.8-.08,9.65-1.26,14.02-3.4,2.74-1.4,5.01-2.89,6.94-4.57,.31-.3,.62-.59,.91-.88,.88-.84,1.71-1.63,2.46-2.54l.03-.04c1.07-1.23,2.13-2.71,3.33-4.65,1.24-2.22,2.19-4.14,2.84-6.27l.39-1.27,2.54,.77-.39,1.27Zm-.71-10.16l-.02-1.33c-.09-5.26-1.33-10.18-3.67-14.6-.91-1.69-1.95-3.48-3.29-5.05l-.03-.03-.03-.04c-1.47-1.97-3.2-3.74-5.28-5.41l-.02-.02-.02-.02c-.63-.56-1.29-1.01-2.04-1.52-.15-.1-.3-.21-.45-.31-2.64-1.72-5.58-3.05-8.74-3.98-3.37-.92-6.54-1.34-9.71-1.28l-1.33,.02-.05-2.65,1.33-.02c3.43-.06,6.85,.39,10.46,1.38h.02c3.41,1.01,6.59,2.46,9.46,4.33l.03,.02c.16,.11,.31,.21,.46,.32,.79,.53,1.52,1.04,2.28,1.7,2.24,1.8,4.1,3.71,5.69,5.84,1.49,1.75,2.64,3.75,3.58,5.48h0c2.54,4.81,3.88,10.13,3.98,15.81l.02,1.33-2.64,.05Z"/></g></g></g></svg>