<?xml version="1.0" encoding="UTF-8"?><svg xmlns="http://www.w3.org/2000/svg" xmlns:xlink="http://www.w3.org/1999/xlink" viewBox="0 0 1033.53 1029.71"><defs><style>.cls-1,.cls-2,.cls-3{fill:#18131f;}.cls-4{fill:url(#linear-gradient-2);}.cls-5{fill:url(#linear-gradient-5);filter:url(#outer-glow-6);}.cls-6{filter:url(#outer-glow-4);opacity:.7;}.cls-2,.cls-3,.cls-7{opacity:.5;}.cls-8{stroke-width:7px;}.cls-8,.cls-9,.cls-10,.cls-11,.cls-12,.cls-13{fill:none;}.cls-8,.cls-10,.cls-11,.cls-12,.cls-13{stroke-miterlimit:10;}.cls-8,.cls-12,.cls-13{stroke-linecap:round;}.cls-8,.cls-13{stroke:#f099ff;}.cls-14{mask:url(#mask-2);}.cls-15{fill:url(#linear-gradient);filter:url(#outer-glow-1);stroke-miterlimit:54.61;}.cls-15,.cls-10,.cls-16{stroke-width:3px;}.cls-15,.cls-11,.cls-16{stroke:#b68bcc;}.cls-15,.cls-16{stroke-linecap:square;}.cls-3,.cls-7{isolation:isolate;}.cls-9{opacity:0;}.cls-10,.cls-12{stroke:#79468f;}.cls-17{fill:url(#White_Black);}.cls-11{stroke-width:1.6px;}.cls-12{stroke-width:5.82px;}.cls-18{filter:url(#outer-glow-5);}.cls-19{filter:url(#luminosity-noclip-2);}.cls-20{mask:url(#mask-1);}.cls-21{mask:url(#mask);}.cls-22{fill:url(#linear-gradient-3);}.cls-23{fill:url(#linear-gradient-4);}.cls-16{fill:url(#GlassPanel);filter:url(#outer-glow-3);stroke-miterlimit:54.61;}.cls-24{filter:url(#outer-glow-2);}.cls-13{stroke-dasharray:0 0 5 10;stroke-width:2px;}</style><linearGradient id="White_Black" x1="547.71" y1="77.44" x2="773.93" y2="706.5" gradientUnits="userSpaceOnUse"><stop offset="0" stop-color="#fff"/><stop offset="1" stop-color="#000"/></linearGradient><mask id="mask" x="298.5" y="163.02" width="703.69" height="399.65" maskUnits="userSpaceOnUse"><rect class="cls-17" x="298.5" y="163.02" width="703.69" height="399.65"/></mask><linearGradient id="linear-gradient" x1="632.66" y1="237.91" x2="632.66" y2="545.3" gradientUnits="userSpaceOnUse"><stop offset="0" stop-color="#9d79b3"/><stop offset="1" stop-color="#5c5396"/></linearGradient><filter id="outer-glow-1" filterUnits="userSpaceOnUse"><feOffset dx="0" dy="0"/><feGaussianBlur result="blur" stdDeviation="6"/><feFlood flood-color="#6636c6" flood-opacity="1"/><feComposite in2="blur" operator="in"/><feComposite in="SourceGraphic"/></filter><filter id="outer-glow-2" filterUnits="userSpaceOnUse"><feOffset dx="0" dy="0"/><feGaussianBlur result="blur-2" stdDeviation="4"/><feFlood flood-color="#79468f" flood-opacity=".75"/><feComposite in2="blur-2" operator="in"/><feComposite in="SourceGraphic"/></filter><filter id="luminosity-noclip-2" x="215.39" y="306.87" width="227.19" height="243.64" color-interpolation-filters="sRGB" filterUnits="userSpaceOnUse"><feFlood flood-color="#fff" result="bg"/><feBlend in="SourceGraphic" in2="bg"/></filter><linearGradient id="linear-gradient-2" x1="926.87" y1="540.67" x2="926.87" y2="662.45" gradientTransform="translate(-597.88 -625.21) scale(1 1.75)" gradientUnits="userSpaceOnUse"><stop offset="0" stop-color="#000"/><stop offset="1" stop-color="#fff"/></linearGradient><mask id="mask-1" x="215.39" y="306.87" width="227.19" height="243.64" maskUnits="userSpaceOnUse"><g class="cls-19"><rect class="cls-4" x="267.86" y="321.98" width="122.25" height="213.42" transform="translate(851.36 567.01) rotate(142.33)"/></g></mask><linearGradient id="GlassPanel" x1="297.94" y1="343.02" x2="297.94" y2="437.86" gradientUnits="userSpaceOnUse"><stop offset="0" stop-color="#9d79b3"/><stop offset="1" stop-color="#5c5396"/></linearGradient><filter id="outer-glow-3" filterUnits="userSpaceOnUse"><feOffset dx="0" dy="0"/><feGaussianBlur result="blur-3" stdDeviation="6"/><feFlood flood-color="#6636c6" flood-opacity="1"/><feComposite in2="blur-3" operator="in"/><feComposite in="SourceGraphic"/></filter><filter id="outer-glow-4" filterUnits="userSpaceOnUse"><feOffset dx="0" dy="0"/><feGaussianBlur result="blur-4" stdDeviation="4.31"/><feFlood flood-color="#f099ff" flood-opacity=".5"/><feComposite in2="blur-4" operator="in"/><feComposite in="SourceGraphic"/></filter><linearGradient id="linear-gradient-3" x1="210.42" y1="237.92" x2="210.42" y2="593.69" gradientTransform="translate(27.67 233.84) scale(1 1.11)" gradientUnits="userSpaceOnUse"><stop offset="0" stop-color="#fff"/><stop offset="1" stop-color="#000"/></linearGradient><mask id="mask-2" x="4.12" y="459.28" width="467.94" height="467.94" maskUnits="userSpaceOnUse"><rect class="cls-22" x="104.89" y="495.56" width="266.39" height="395.38" transform="translate(-420.47 371.4) rotate(-45)"/></mask><filter id="outer-glow-5" filterUnits="userSpaceOnUse"><feOffset dx="0" dy="0"/><feGaussianBlur result="blur-5" stdDeviation="4"/><feFlood flood-color="#8c29ff" flood-opacity=".75"/><feComposite in2="blur-5" operator="in"/><feComposite in="SourceGraphic"/></filter><linearGradient id="linear-gradient-4" x1="-320.42" y1="-144.28" x2="-320.42" y2="112.65" gradientTransform="translate(524.01 664.14)" xlink:href="#linear-gradient"/><linearGradient id="linear-gradient-5" x1="203.59" y1="567.64" x2="203.59" y2="724.43" gradientUnits="userSpaceOnUse"><stop offset="0" stop-color="#fffab8"/><stop offset="1" stop-color="#ffbd6b"/></linearGradient><filter id="outer-glow-6" filterUnits="userSpaceOnUse"><feOffset dx="0" dy="0"/><feGaussianBlur result="blur-6" stdDeviation="4.53"/><feFlood flood-color="#ff4545" flood-opacity=".75"/><feComposite in2="blur-6" operator="in"/><feComposite in="SourceGraphic"/></filter></defs><g id="Frame"><rect class="cls-9" x="4.79" width="1024" height="1024"/></g><g id="Layer_3"><g><g class="cls-21"><path class="cls-15" d="M905.1,540.14H360.22c-18.78,0-34.01-15.23-34.01-34.01v-64.37s29.94-15.47,29.94-51.47-29.94-50.3-29.94-50.3v-68.39c0-18.78,15.23-34.01,34.01-34.01H905.1c18.78,0,34.01,15.23,34.01,34.01v234.53c0,18.78-15.23,34.01-34.01,34.01Z"/></g><g><path class="cls-8" d="M398.98,465.43c104.46-114.05,337.48-146.78,491.93-146.78"/><g class="cls-7"><polygon class="cls-1" points="875.02 502.48 875.02 491.61 377.88 491.61 377.88 298.8 366.14 298.8 380.08 274.63 394.04 298.8 384.05 298.8 384.05 485.44 875.02 485.44 875.02 474.57 899.18 488.53 875.02 502.48"/></g></g></g><g class="cls-24"><g><polyline class="cls-12" points="482.95 644.71 482.95 620.74 440.45 594.78 396.33 619.44 396.33 669.27"/><polyline class="cls-12" points="482.95 667.12 482.95 673.92 440.45 697.62 396.33 673.92 396.33 667.12"/><polyline class="cls-12" points="440.45 697.62 440.45 646.2 482.95 620.74"/><line class="cls-12" x1="396.33" y1="619.44" x2="440.45" y2="646.2"/></g><g><polyline class="cls-12" points="799.89 644.71 799.89 620.74 842.38 594.78 886.5 619.44 886.5 669.27"/><polyline class="cls-12" points="799.89 667.12 799.89 673.92 842.38 697.62 886.5 673.92 886.5 667.12"/><polyline class="cls-12" points="842.38 697.62 842.38 646.2 799.89 620.74"/><line class="cls-12" x1="886.5" y1="619.44" x2="842.38" y2="646.2"/></g><line class="cls-10" x1="572.85" y1="650.69" x2="507.31" y2="650.69"/><line class="cls-10" x1="772.4" y1="650.69" x2="712.86" y2="650.69"/><g><polyline class="cls-12" points="601.11 644.71 601.11 620.74 643.61 594.78 687.73 619.44 687.73 646.2"/><polyline class="cls-12" points="601.11 667.12 601.11 673.92 643.61 697.62 687.73 673.92 687.73 665.67"/><polyline class="cls-12" points="643.61 697.62 643.61 646.2 601.11 620.74"/><line class="cls-12" x1="687.73" y1="619.44" x2="643.61" y2="646.2"/></g><line class="cls-10" x1="757.97" y1="664.63" x2="731.21" y2="664.63"/><polyline class="cls-10" points="511.39 628.77 526.08 628.77 535.42 636.86 557.67 636.86"/></g><g class="cls-20"><g><path class="cls-16" d="M297.94,437.71c26.2,0,47.42-21.21,47.42-47.42s-21.21-47.42-47.42-47.42-47.42,21.21-47.42,47.42,21.21,47.42,47.42,47.42Z"/><path id="Lock" class="cls-2" d="M298.22,363.93c-9.29-.13-8.66,10.72-9.25,11.31s-8.66,.69-9.15,0-.13-20.95,18.57-20.95,18.69,20.26,18.22,20.95c-.42,.61-8.44,.73-9.24,0s.67-11.17-9.15-11.31Zm-25.62,45.89v-25.73c0-3.83,3.11-6.94,6.94-6.94h36.83c3.83,0,6.94,3.11,6.94,6.94v26.1c0,3.58-2.92,6.48-6.51,6.44l-37.82-.38c-3.53-.04-6.38-2.91-6.38-6.44Zm31.86-17.39c0-3.9-3.44-6.96-7.36-6.12-2.33,.5-4.14,2.44-4.61,4.77-.68,3.38,1.28,6.42,4.14,7.33v9.85h3.46v-9.82c2.53-.75,4.38-3.16,4.38-6.01Z"/></g></g><g class="cls-6"><polyline class="cls-13" points="439.64 578.28 439.64 429.36 389.05 429.36"/><polyline class="cls-13" points="842.38 578.28 842.38 319.65 385.05 319.65"/><polyline class="cls-13" points="643.61 578.28 643.61 344.88 385.28 344.88"/></g><g><g class="cls-14"><g class="cls-18"><g><g id="HexPlate-3"><polygon class="cls-23" points="203.51 772.48 93.93 709.52 93.93 582.9 203.59 519.59 313.25 582.9 313.25 709.52 203.51 772.48"/><polygon class="cls-11" points="203.51 772.48 93.93 709.52 93.93 582.9 203.59 519.59 313.25 582.9 313.25 709.52 203.51 772.48"/></g><polygon id="HexPlate-4" class="cls-3" points="203.53 759.09 105.2 702.79 105.2 589.28 203.49 532.53 301.79 589.28 301.79 702.79 203.53 759.09"/></g></g></g><path id="ETH" class="cls-5" d="M203.6,682.55l-46.97-18.73,46.97,60.61,46.94-60.61-46.94,18.73Zm46.92-26.93l-46.76-87.97-47.13,88.08,46.96,17.76,46.93-17.87Z"/></g></g></svg>