<?xml version="1.0" encoding="UTF-8"?><svg xmlns="http://www.w3.org/2000/svg" xmlns:xlink="http://www.w3.org/1999/xlink" viewBox="0 0 1033.53 1029.71"><defs><style>.cls-1{fill:url(#linear-gradient-2);}.cls-2{fill:url(#linear-gradient-17);}.cls-3{stroke-miterlimit:54.61;stroke-width:1.18px;}.cls-3,.cls-4,.cls-5,.cls-6,.cls-7,.cls-8,.cls-9,.cls-10,.cls-11,.cls-12,.cls-13,.cls-14,.cls-15,.cls-16,.cls-17{fill:none;}.cls-3,.cls-13{stroke:#b68bcc;}.cls-18{filter:url(#outer-glow-3);}.cls-4{stroke-width:4px;}.cls-4,.cls-5,.cls-6,.cls-7,.cls-8,.cls-10,.cls-11,.cls-12,.cls-13,.cls-14,.cls-15,.cls-16,.cls-17{stroke-miterlimit:10;}.cls-4,.cls-14{stroke:#dfbc8c;}.cls-19{filter:url(#outer-glow-4);}.cls-20{filter:url(#outer-glow-22);}.cls-21{fill:url(#linear-gradient-15);}.cls-22{fill:url(#linear-gradient-18);}.cls-23{filter:url(#outer-glow-21);}.cls-24{fill:url(#linear-gradient-14);}.cls-25{mask:url(#mask-2);}.cls-26{fill:url(#linear-gradient-20);}.cls-27{fill:url(#linear-gradient-6);}.cls-5{filter:url(#outer-glow-13);}.cls-5,.cls-6,.cls-7,.cls-8,.cls-10,.cls-11,.cls-15,.cls-16,.cls-17{stroke:#79468f;}.cls-5,.cls-6,.cls-7,.cls-8,.cls-10,.cls-15,.cls-16,.cls-17{stroke-width:3px;}.cls-6{filter:url(#outer-glow-15);}.cls-7{filter:url(#outer-glow-14);}.cls-8{filter:url(#outer-glow-16);}.cls-28{fill:url(#linear-gradient-11);}.cls-29{filter:url(#outer-glow-1);}.cls-30{fill:#18131f;isolation:isolate;opacity:.5;}.cls-9{opacity:0;}.cls-31{fill:url(#linear-gradient-10);}.cls-32{filter:url(#outer-glow-9);}.cls-33{filter:url(#outer-glow-20);}.cls-34{fill:url(#linear-gradient-16);}.cls-35{filter:url(#outer-glow-19);}.cls-11{stroke-width:4.66px;}.cls-11,.cls-12{stroke-linecap:round;}.cls-12{stroke:#ffe69f;stroke-width:1.88px;}.cls-36{filter:url(#outer-glow-10);}.cls-13{stroke-width:1.6px;}.cls-37{fill:url(#linear-gradient-21);}.cls-14{stroke-width:3.84px;}.cls-38{fill:url(#linear-gradient-5);}.cls-39{filter:url(#outer-glow-8);}.cls-40{filter:url(#outer-glow-5);}.cls-41{fill:url(#linear-gradient-7);}.cls-42{filter:url(#outer-glow-7);}.cls-43{fill:url(#linear-gradient-9);}.cls-44{fill:url(#linear-gradient-22);}.cls-45{mask:url(#mask-1);}.cls-46{mask:url(#mask);}.cls-47{fill:url(#linear-gradient-3);}.cls-48{fill:url(#linear-gradient);}.cls-15{filter:url(#outer-glow-17);}.cls-16{filter:url(#outer-glow-12);}.cls-49{filter:url(#outer-glow-11);}.cls-50{fill:url(#linear-gradient-19);}.cls-51{fill:url(#linear-gradient-4);}.cls-52{filter:url(#outer-glow-6);}.cls-53{filter:url(#outer-glow-2);}.cls-54{fill:url(#linear-gradient-8);}.cls-17{filter:url(#outer-glow-18);}.cls-55{fill:url(#linear-gradient-12);}.cls-56{fill:url(#linear-gradient-13);}</style><mask id="mask" x="526.01" y="322.09" width="331.07" height="330.87" maskUnits="userSpaceOnUse"/><linearGradient id="linear-gradient" x1="696.29" y1="606.93" x2="696.29" y2="494.38" gradientTransform="translate(-11.42 1028.61) scale(1 -1)" gradientUnits="userSpaceOnUse"><stop offset="0" stop-color="#9d79b3"/><stop offset="1" stop-color="#5c5396"/></linearGradient><linearGradient id="linear-gradient-2" x1="641.48" y1="437.08" x2="641.48" y2="467.51" gradientUnits="userSpaceOnUse"><stop offset="0" stop-color="#6bcdff"/><stop offset=".17" stop-color="#65c7fd"/><stop offset=".39" stop-color="#55b7f8"/><stop offset=".63" stop-color="#3a9df0"/><stop offset=".9" stop-color="#1479e5"/><stop offset="1" stop-color="#0469e0"/></linearGradient><linearGradient id="linear-gradient-3" x1="727.15" x2="727.15" xlink:href="#linear-gradient-2"/><filter id="outer-glow-1" filterUnits="userSpaceOnUse"><feOffset dx="0" dy="0"/><feGaussianBlur result="blur" stdDeviation=".77"/><feFlood flood-color="#f0484a" flood-opacity=".75"/><feComposite in2="blur" operator="in"/><feComposite in="SourceGraphic"/></filter><linearGradient id="linear-gradient-4" x1="766.56" y1="586.5" x2="766.56" y2="565.85" gradientTransform="translate(-81.69 1028.61) scale(1 -1)" gradientUnits="userSpaceOnUse"><stop offset="0" stop-color="#fffab8"/><stop offset="1" stop-color="#ffbd6b"/></linearGradient><linearGradient id="linear-gradient-5" y1="485.23" y2="515.66" xlink:href="#linear-gradient-2"/><linearGradient id="linear-gradient-6" x1="727.15" y1="485.23" x2="727.15" y2="515.66" xlink:href="#linear-gradient-2"/><filter id="outer-glow-2" filterUnits="userSpaceOnUse"><feOffset dx="0" dy="0"/><feGaussianBlur result="blur-2" stdDeviation=".77"/><feFlood flood-color="#f0484a" flood-opacity=".75"/><feComposite in2="blur-2" operator="in"/><feComposite in="SourceGraphic"/></filter><linearGradient id="linear-gradient-7" y1="538.36" y2="517.7" xlink:href="#linear-gradient-4"/><mask id="mask-1" x="692.89" y="280.19" width="343.46" height="372.76" maskUnits="userSpaceOnUse"/><linearGradient id="linear-gradient-8" x1="875.57" y1="657.49" x2="875.57" y2="493.55" xlink:href="#linear-gradient"/><linearGradient id="linear-gradient-9" x1="820.96" y1="485.23" x2="820.96" y2="515.66" xlink:href="#linear-gradient-2"/><linearGradient id="linear-gradient-10" x1="906.63" y1="485.23" x2="906.63" y2="515.66" xlink:href="#linear-gradient-2"/><filter id="outer-glow-3" filterUnits="userSpaceOnUse"><feOffset dx="0" dy="0"/><feGaussianBlur result="blur-3" stdDeviation=".77"/><feFlood flood-color="#f0484a" flood-opacity=".75"/><feComposite in2="blur-3" operator="in"/><feComposite in="SourceGraphic"/></filter><linearGradient id="linear-gradient-11" x1="946.04" y1="538.36" x2="946.04" y2="517.7" xlink:href="#linear-gradient-4"/><linearGradient id="linear-gradient-12" x1="820.96" y1="437.08" x2="820.96" y2="467.51" xlink:href="#linear-gradient-2"/><linearGradient id="linear-gradient-13" x1="906.63" y1="437.08" x2="906.63" y2="467.51" xlink:href="#linear-gradient-2"/><filter id="outer-glow-4" filterUnits="userSpaceOnUse"><feOffset dx="0" dy="0"/><feGaussianBlur result="blur-4" stdDeviation=".77"/><feFlood flood-color="#f0484a" flood-opacity=".75"/><feComposite in2="blur-4" operator="in"/><feComposite in="SourceGraphic"/></filter><linearGradient id="linear-gradient-14" x1="946.04" y1="586.5" x2="946.04" y2="565.85" xlink:href="#linear-gradient-4"/><linearGradient id="linear-gradient-15" x1="820.96" y1="388.62" x2="820.96" y2="419.05" xlink:href="#linear-gradient-2"/><linearGradient id="linear-gradient-16" x1="906.63" y1="388.62" x2="906.63" y2="419.05" xlink:href="#linear-gradient-2"/><filter id="outer-glow-5" filterUnits="userSpaceOnUse"><feOffset dx="0" dy="0"/><feGaussianBlur result="blur-5" stdDeviation=".77"/><feFlood flood-color="#f0484a" flood-opacity=".75"/><feComposite in2="blur-5" operator="in"/><feComposite in="SourceGraphic"/></filter><linearGradient id="linear-gradient-17" x1="946.04" y1="634.96" x2="946.04" y2="614.31" xlink:href="#linear-gradient-4"/><filter id="outer-glow-6" filterUnits="userSpaceOnUse"><feOffset dx="0" dy="0"/><feGaussianBlur result="blur-6" stdDeviation="4"/><feFlood flood-color="#79468f" flood-opacity=".75"/><feComposite in2="blur-6" operator="in"/><feComposite in="SourceGraphic"/></filter><filter id="outer-glow-7" filterUnits="userSpaceOnUse"><feOffset dx="0" dy="0"/><feGaussianBlur result="blur-7" stdDeviation="4"/><feFlood flood-color="#79468f" flood-opacity=".75"/><feComposite in2="blur-7" operator="in"/><feComposite in="SourceGraphic"/></filter><filter id="outer-glow-8" filterUnits="userSpaceOnUse"><feOffset dx="0" dy="0"/><feGaussianBlur result="blur-8" stdDeviation="4"/><feFlood flood-color="#79468f" flood-opacity=".75"/><feComposite in2="blur-8" operator="in"/><feComposite in="SourceGraphic"/></filter><filter id="outer-glow-9" filterUnits="userSpaceOnUse"><feOffset dx="0" dy="0"/><feGaussianBlur result="blur-9" stdDeviation="4"/><feFlood flood-color="#79468f" flood-opacity=".75"/><feComposite in2="blur-9" operator="in"/><feComposite in="SourceGraphic"/></filter><filter id="outer-glow-10" filterUnits="userSpaceOnUse"><feOffset dx="0" dy="0"/><feGaussianBlur result="blur-10" stdDeviation="4"/><feFlood flood-color="#79468f" flood-opacity=".75"/><feComposite in2="blur-10" operator="in"/><feComposite in="SourceGraphic"/></filter><filter id="outer-glow-11" filterUnits="userSpaceOnUse"><feOffset dx="0" dy="0"/><feGaussianBlur result="blur-11" stdDeviation="4"/><feFlood flood-color="#79468f" flood-opacity=".75"/><feComposite in2="blur-11" operator="in"/><feComposite in="SourceGraphic"/></filter><filter id="outer-glow-12" filterUnits="userSpaceOnUse"><feOffset dx="0" dy="0"/><feGaussianBlur result="blur-12" stdDeviation="2.81"/><feFlood flood-color="#79468f" flood-opacity=".75"/><feComposite in2="blur-12" operator="in"/><feComposite in="SourceGraphic"/></filter><filter id="outer-glow-13" filterUnits="userSpaceOnUse"><feOffset dx="0" dy="0"/><feGaussianBlur result="blur-13" stdDeviation="2.81"/><feFlood flood-color="#79468f" flood-opacity=".75"/><feComposite in2="blur-13" operator="in"/><feComposite in="SourceGraphic"/></filter><filter id="outer-glow-14" filterUnits="userSpaceOnUse"><feOffset dx="0" dy="0"/><feGaussianBlur result="blur-14" stdDeviation="2.12"/><feFlood flood-color="#79468f" flood-opacity=".75"/><feComposite in2="blur-14" operator="in"/><feComposite in="SourceGraphic"/></filter><filter id="outer-glow-15" filterUnits="userSpaceOnUse"><feOffset dx="0" dy="0"/><feGaussianBlur result="blur-15" stdDeviation="1.63"/><feFlood flood-color="#79468f" flood-opacity=".75"/><feComposite in2="blur-15" operator="in"/><feComposite in="SourceGraphic"/></filter><filter id="outer-glow-16" filterUnits="userSpaceOnUse"><feOffset dx="0" dy="0"/><feGaussianBlur result="blur-16" stdDeviation="2.12"/><feFlood flood-color="#79468f" flood-opacity=".75"/><feComposite in2="blur-16" operator="in"/><feComposite in="SourceGraphic"/></filter><filter id="outer-glow-17" filterUnits="userSpaceOnUse"><feOffset dx="0" dy="0"/><feGaussianBlur result="blur-17" stdDeviation="2.81"/><feFlood flood-color="#79468f" flood-opacity=".75"/><feComposite in2="blur-17" operator="in"/><feComposite in="SourceGraphic"/></filter><filter id="outer-glow-18" filterUnits="userSpaceOnUse"><feOffset dx="0" dy="0"/><feGaussianBlur result="blur-18" stdDeviation="2.81"/><feFlood flood-color="#79468f" flood-opacity=".75"/><feComposite in2="blur-18" operator="in"/><feComposite in="SourceGraphic"/></filter><filter id="outer-glow-19" filterUnits="userSpaceOnUse"><feOffset dx="0" dy="0"/><feGaussianBlur result="blur-19" stdDeviation="3.64"/><feFlood flood-color="#ff4545" flood-opacity="1"/><feComposite in2="blur-19" operator="in"/><feComposite in="SourceGraphic"/></filter><linearGradient id="linear-gradient-18" x1="163.27" y1="373.53" x2="163.45" y2="283.13" gradientTransform="translate(-8.1 902.59) scale(1 -1)" gradientUnits="userSpaceOnUse"><stop offset="0" stop-color="#fffab8"/><stop offset=".2" stop-color="#fff5b2"/><stop offset=".46" stop-color="#ffe8a2"/><stop offset=".76" stop-color="#ffd387"/><stop offset="1" stop-color="#ffbd6b"/></linearGradient><filter id="outer-glow-20" filterUnits="userSpaceOnUse"><feOffset dx="0" dy="0"/><feGaussianBlur result="blur-20" stdDeviation="3.49"/><feFlood flood-color="#ff4545" flood-opacity="1"/><feComposite in2="blur-20" operator="in"/><feComposite in="SourceGraphic"/></filter><linearGradient id="linear-gradient-19" x1="252.43" y1="487.25" x2="252.62" y2="396.85" xlink:href="#linear-gradient-18"/><linearGradient id="linear-gradient-20" x1="474.36" y1="325.34" x2="474.36" y2="681.11" gradientTransform="translate(19.05 18.75) scale(1 1.11)" gradientUnits="userSpaceOnUse"><stop offset="0" stop-color="#fff"/><stop offset="1" stop-color="#000"/></linearGradient><mask id="mask-2" x="259.45" y="341.34" width="467.94" height="467.94" maskUnits="userSpaceOnUse"><rect class="cls-26" x="360.23" y="377.62" width="266.39" height="395.38" transform="translate(-262.28 517.4) rotate(-45)"/></mask><filter id="outer-glow-21" filterUnits="userSpaceOnUse"><feOffset dx="0" dy="0"/><feGaussianBlur result="blur-21" stdDeviation="4"/><feFlood flood-color="#8c29ff" flood-opacity=".75"/><feComposite in2="blur-21" operator="in"/><feComposite in="SourceGraphic"/></filter><linearGradient id="linear-gradient-21" x1="-65.09" y1="-262.22" x2="-65.09" y2="-5.29" gradientTransform="translate(524.01 664.14)" xlink:href="#linear-gradient"/><filter id="outer-glow-22" filterUnits="userSpaceOnUse"><feOffset dx="0" dy="0"/><feGaussianBlur result="blur-22" stdDeviation="5"/><feFlood flood-color="#ff4545" flood-opacity=".75"/><feComposite in2="blur-22" operator="in"/><feComposite in="SourceGraphic"/></filter><linearGradient id="linear-gradient-22" x1="461.16" y1="459.99" x2="461.16" y2="597.01" gradientTransform="matrix(1, 0, 0, 1, 0, 0)" xlink:href="#linear-gradient-18"/></defs><g id="Frame"><rect class="cls-9" x="4.79" width="1024" height="1024"/></g><g id="Layer_3"><g><g class="cls-46"><g><path class="cls-48" d="M753.71,532.42h-34.66l-15.05-9.12h-38.33l-14.48,9.12h-35.16c-3.76,0-6.8-2.61-6.8-5.84v-97.64c0-3.23,3.05-5.84,6.8-5.84h137.68c3.76,0,6.8,2.61,6.8,5.84v97.64c0,3.23-3.05,5.84-6.8,5.84Z"/><path class="cls-3" d="M753.71,532.42h-34.66l-15.05-9.12h-38.33l-14.48,9.12h-35.16c-3.76,0-6.8-2.61-6.8-5.84v-97.64c0-3.23,3.05-5.84,6.8-5.84h137.68c3.76,0,6.8,2.61,6.8,5.84v97.64c0,3.23-3.05,5.84-6.8,5.84Z"/></g></g><g><polygon id="HexPlate-4" class="cls-30" points="641.48 471.56 624.76 461.99 624.76 442.68 641.47 433.03 658.19 442.68 658.19 461.99 641.48 471.56"/><circle class="cls-30" cx="684.87" cy="452.3" r="13.67"/><polygon id="HexPlate-4-2" class="cls-1" points="641.48 467.51 628.27 459.95 628.27 444.7 641.48 437.08 654.68 444.7 654.68 459.95 641.48 467.51"/><polygon id="HexPlate-4-3" class="cls-30" points="727.15 471.56 710.43 461.99 710.43 442.68 727.15 433.03 743.87 442.68 743.87 461.99 727.15 471.56"/><polygon id="HexPlate-4-4" class="cls-47" points="727.15 467.51 713.95 459.95 713.95 444.7 727.15 437.08 740.35 444.7 740.35 459.95 727.15 467.51"/><g><line class="cls-12" x1="693.77" y1="452.3" x2="714.37" y2="452.3"/><line class="cls-12" x1="653.9" y1="452.3" x2="675.88" y2="452.3"/></g><g class="cls-29"><g id="ETH"><path class="cls-51" d="M695.2,452.12c-.1-5.7-4.8-10.25-10.51-10.15-5.7,.1-10.25,4.8-10.15,10.51s4.8,10.25,10.51,10.15c5.7-.1,10.25-4.8,10.15-10.51"/></g></g></g><g><polygon id="HexPlate-4-5" class="cls-30" points="641.48 519.71 624.76 510.13 624.76 490.83 641.47 481.18 658.19 490.83 658.19 510.13 641.48 519.71"/><circle class="cls-30" cx="684.87" cy="500.44" r="13.67"/><polygon id="HexPlate-4-6" class="cls-38" points="641.48 515.66 628.27 508.09 628.27 492.85 641.48 485.23 654.68 492.85 654.68 508.09 641.48 515.66"/><polygon id="HexPlate-4-7" class="cls-30" points="727.15 519.71 710.43 510.13 710.43 490.83 727.15 481.18 743.87 490.83 743.87 510.13 727.15 519.71"/><polygon id="HexPlate-4-8" class="cls-27" points="727.15 515.66 713.95 508.09 713.95 492.85 727.15 485.23 740.35 492.85 740.35 508.09 727.15 515.66"/><g><line class="cls-12" x1="693.77" y1="500.44" x2="714.37" y2="500.44"/><line class="cls-12" x1="653.9" y1="500.44" x2="675.88" y2="500.44"/></g><g class="cls-53"><g id="ETH-2"><path class="cls-41" d="M695.2,500.26c-.1-5.7-4.8-10.25-10.51-10.15-5.7,.1-10.25,4.8-10.15,10.51s4.8,10.25,10.51,10.15c5.7-.1,10.25-4.8,10.15-10.51"/></g></g></g></g><g><g class="cls-45"><g><path class="cls-54" d="M932.99,532.42h-34.66l-15.05-9.12h-38.33l-14.48,9.12h-35.16c-3.76,0-6.8-2.61-6.8-5.84v-147.55c0-3.23,3.05-5.84,6.8-5.84h137.68c3.76,0,6.8,2.61,6.8,5.84v147.55c0,3.23-3.05,5.84-6.8,5.84Z"/><path class="cls-3" d="M932.99,532.42h-34.66l-15.05-9.12h-38.33l-14.48,9.12h-35.16c-3.76,0-6.8-2.61-6.8-5.84v-147.55c0-3.23,3.05-5.84,6.8-5.84h137.68c3.76,0,6.8,2.61,6.8,5.84v147.55c0,3.23-3.05,5.84-6.8,5.84Z"/></g></g><g><polygon id="HexPlate-4-9" class="cls-30" points="820.96 519.71 804.24 510.13 804.24 490.83 820.96 481.18 837.67 490.83 837.67 510.13 820.96 519.71"/><circle class="cls-30" cx="864.35" cy="500.44" r="13.67"/><polygon id="HexPlate-4-10" class="cls-43" points="820.96 515.66 807.76 508.09 807.76 492.85 820.96 485.23 834.16 492.85 834.16 508.09 820.96 515.66"/><polygon id="HexPlate-4-11" class="cls-30" points="906.64 519.71 889.91 510.13 889.91 490.83 906.63 481.18 923.35 490.83 923.35 510.13 906.64 519.71"/><polygon id="HexPlate-4-12" class="cls-31" points="906.64 515.66 893.43 508.09 893.43 492.85 906.63 485.23 919.83 492.85 919.83 508.09 906.64 515.66"/><g><line class="cls-12" x1="873.26" y1="500.44" x2="893.85" y2="500.44"/><line class="cls-12" x1="833.38" y1="500.44" x2="855.36" y2="500.44"/></g><g class="cls-18"><g id="ETH-3"><path class="cls-28" d="M874.68,500.26c-.1-5.7-4.8-10.25-10.51-10.15-5.7,.1-10.25,4.8-10.15,10.51s4.8,10.25,10.51,10.15c5.7-.1,10.25-4.8,10.15-10.51"/></g></g></g><g><polygon id="HexPlate-4-13" class="cls-30" points="820.96 471.56 804.24 461.99 804.24 442.68 820.96 433.03 837.67 442.68 837.67 461.99 820.96 471.56"/><circle class="cls-30" cx="864.35" cy="452.3" r="13.67"/><polygon id="HexPlate-4-14" class="cls-55" points="820.96 467.51 807.76 459.95 807.76 444.7 820.96 437.08 834.16 444.7 834.16 459.95 820.96 467.51"/><polygon id="HexPlate-4-15" class="cls-30" points="906.64 471.56 889.91 461.99 889.91 442.68 906.63 433.03 923.35 442.68 923.35 461.99 906.64 471.56"/><polygon id="HexPlate-4-16" class="cls-56" points="906.64 467.51 893.43 459.95 893.43 444.7 906.63 437.08 919.83 444.7 919.83 459.95 906.64 467.51"/><g><line class="cls-12" x1="873.26" y1="452.3" x2="893.85" y2="452.3"/><line class="cls-12" x1="833.38" y1="452.3" x2="855.36" y2="452.3"/></g><g class="cls-19"><g id="ETH-4"><path class="cls-24" d="M874.68,452.11c-.1-5.7-4.8-10.25-10.51-10.15-5.7,.1-10.25,4.8-10.15,10.51s4.8,10.25,10.51,10.15c5.7-.1,10.25-4.8,10.15-10.51"/></g></g></g><g><polygon id="HexPlate-4-17" class="cls-30" points="820.96 423.1 804.24 413.53 804.24 394.23 820.96 384.57 837.67 394.23 837.67 413.53 820.96 423.1"/><circle class="cls-30" cx="864.35" cy="403.84" r="13.67"/><polygon id="HexPlate-4-18" class="cls-21" points="820.96 419.05 807.76 411.49 807.76 396.25 820.96 388.62 834.16 396.25 834.16 411.49 820.96 419.05"/><polygon id="HexPlate-4-19" class="cls-30" points="906.64 423.1 889.91 413.53 889.91 394.23 906.63 384.57 923.35 394.23 923.35 413.53 906.64 423.1"/><polygon id="HexPlate-4-20" class="cls-34" points="906.64 419.05 893.43 411.49 893.43 396.25 906.63 388.62 919.83 396.25 919.83 411.49 906.64 419.05"/><g><line class="cls-12" x1="873.26" y1="403.84" x2="893.85" y2="403.84"/><line class="cls-12" x1="833.38" y1="403.84" x2="855.36" y2="403.84"/></g><g class="cls-40"><g id="ETH-5"><path class="cls-2" d="M874.68,403.66c-.1-5.7-4.8-10.25-10.51-10.15-5.7,.1-10.25,4.8-10.15,10.51s4.8,10.25,10.51,10.15c5.7-.1,10.25-4.8,10.15-10.51"/></g></g></g></g><g class="cls-52"><line class="cls-10" x1="816.26" y1="588.7" x2="734.05" y2="588.7"/></g><g class="cls-42"><line class="cls-10" x1="961.86" y1="580.32" x2="913.73" y2="580.32"/></g><g class="cls-39"><line class="cls-10" x1="953.17" y1="588.7" x2="926.41" y2="588.7"/></g><g class="cls-32"><polyline class="cls-10" points="754.18 572.23 768.86 572.23 778.2 580.32 800.45 580.32"/></g><g class="cls-36"><polyline class="cls-11" points="830.18 582.61 830.18 563.45 864.15 542.7 899.41 562.41 899.41 588.7"/><polyline class="cls-11" points="830.18 594.17 830.18 605.96 864.15 624.89 899.41 605.96 899.41 599.36"/><polyline class="cls-11" points="864.15 624.89 864.15 583.8 830.18 563.45"/><line class="cls-11" x1="899.41" y1="562.41" x2="864.15" y2="583.8"/></g><g class="cls-49"><polyline class="cls-11" points="650.91 582.61 650.91 563.45 684.87 542.7 720.13 562.41 720.13 588.7"/><polyline class="cls-11" points="650.91 594.17 650.91 605.96 684.87 624.89 720.13 605.96 720.13 599.36"/><polyline class="cls-11" points="684.87 624.89 684.87 583.8 650.91 563.45"/><line class="cls-11" x1="720.13" y1="562.41" x2="684.87" y2="583.8"/></g><polyline class="cls-16" points="369.73 418.74 311.57 418.92 281.42 388.76 209.35 388.76"/><polyline class="cls-5" points="94.19 657.85 190.15 658.03 220.31 627.87 304.31 627.87"/><line class="cls-7" x1="65" y1="472.6" x2="139.36" y2="472.6"/><line class="cls-6" x1="82.33" y1="487.41" x2="117.63" y2="487.41"/><line class="cls-8" x1="218.85" y1="556.6" x2="293.21" y2="556.6"/><line class="cls-15" x1="248.15" y1="646.69" x2="360.48" y2="646.69"/><line class="cls-17" x1="263.04" y1="574.85" x2="300.28" y2="574.85"/><g id="BTC" class="cls-35"><path id="Trails" class="cls-4" d="M150.28,616.37h-43.84m-5.98,0h-16.09m70.1-84.48h-41.18m-5.03,0h-28.13m28.67,41.81h-35.27m-5.56,0h-13.12"/><path id="Coin" class="cls-22" d="M156.65,570.22c-.61,.14-1.23,.21-1.85,.21h-5.89v-7.87h5.52c.65,0,1.29,.06,1.93,.18,.62,.11,1.22,.31,1.77,.6,.52,.28,.96,.68,1.28,1.17,.35,.57,.52,1.23,.49,1.9,.02,.65-.13,1.3-.44,1.88-.28,.51-.68,.94-1.17,1.25-.5,.32-1.06,.55-1.64,.68m-1.38-41.29c24.96,0,45.2,20.24,45.2,45.2s-20.24,45.2-45.2,45.2-45.2-20.24-45.2-45.2h0c0-24.96,20.24-45.2,45.2-45.2m-19.4,14.84c3.01-1.99,6.34-3.45,9.84-4.34l1.42-.36-.71-2.84-1.42,.36c-3.81,.97-7.44,2.57-10.73,4.73-2.46,1.57-4.74,3.43-6.77,5.53-2.03,2.1-3.84,4.4-5.4,6.87h0c-1.95,3.08-3.44,6.42-4.41,9.93v.03c-.91,3.48-1.39,7.05-1.41,10.65,0,3.51,.47,7.01,1.39,10.39,.9,3.25,2.19,6.38,3.86,9.31,1.33,2.32,2.91,4.49,4.72,6.46l.03,.03c1.27,1.38,2.64,2.67,4.09,3.85l1.15,.91,1.82-2.3-1.15-.91c-1.34-1.09-2.6-2.27-3.76-3.55-1.66-1.81-3.12-3.8-4.34-5.92v-.02c-3.21-5.56-4.89-11.86-4.89-18.27,.03-3.35,.47-6.68,1.31-9.92,.91-3.22,2.27-6.29,4.06-9.12,2.86-4.62,6.71-8.55,11.27-11.5h.02Zm12.94,66.04l-1.42-.37c-2.69-.65-5.31-1.55-7.83-2.7l-1.32-.64-1.28,2.64,1.32,.64c2.69,1.23,5.49,2.2,8.36,2.9l1.42,.37,.75-2.83Zm1.24-17.24h5.22v5.79h4.87v-6.18c.23-.04,.46-.09,.68-.13,1.57-.32,3.08-.9,4.45-1.72,1.31-.79,2.41-1.87,3.23-3.15,.88-1.47,1.31-3.16,1.25-4.87,0-1.14-.19-2.27-.57-3.34-.36-1.01-.92-1.94-1.64-2.74-.73-.79-1.59-1.45-2.55-1.93-1.04-.52-2.16-.86-3.31-1.02v-.1c1.79-.51,3.39-1.54,4.61-2.94,1.19-1.46,1.81-3.3,1.75-5.18,.08-1.7-.33-3.38-1.2-4.85-.78-1.2-1.86-2.18-3.13-2.84-1.12-.58-2.33-1-3.57-1.23v-6.26h-4.87v5.8c-.24,0-.49,0-.73,0h-4.49v-5.79h-4.86v5.79h-4.4v36.89h4.4v5.79h4.87v-5.79h0Zm42.32-6.95l-2.79-.9-.45,1.39c-.83,2.4-1.93,4.71-3.26,6.88-1.11,1.79-2.37,3.49-3.77,5.08l-.03,.04c-.86,.98-1.78,1.9-2.76,2.76-.33,.31-.68,.62-1.03,.95-6.56,5.42-14.8,8.39-23.31,8.41h-1.47v2.93h1.47c2.96,0,5.91-.34,8.79-1,2.76-.64,5.45-1.57,8.02-2.77h.02c3.01-1.43,5.83-3.23,8.4-5.35l.03-.03,.03-.03c.34-.32,.69-.64,1.02-.95,1.07-.94,2.07-1.94,3.01-3.01,1.5-1.71,2.86-3.54,4.06-5.47l.03-.05c1.45-2.35,2.63-4.86,3.53-7.47l.46-1.39Zm1.89-9.85v-1.47c.05-6.09-1.36-12.1-4.09-17.54h0c-1.06-2.18-2.35-4.23-3.85-6.14-1.77-2.44-3.85-4.65-6.17-6.57-.79-.69-1.62-1.34-2.49-1.93-.16-.12-.33-.23-.5-.36l-.03-.02c-3.2-2.15-6.69-3.81-10.37-4.95h-.03c-3.74-1.13-7.63-1.71-11.53-1.73h-1.47v2.93h1.47c3.62,.02,7.23,.56,10.7,1.6,3.4,1.05,6.62,2.59,9.58,4.57,.17,.12,.33,.24,.5,.35,.78,.52,1.52,1.1,2.22,1.72l.03,.02,.03,.02c2.16,1.78,4.08,3.82,5.73,6.09l.03,.04,.03,.04c1.37,1.75,2.56,3.64,3.53,5.64,2.52,5.03,3.82,10.58,3.77,16.2v1.47h2.93Zm-36.15,9.7c.62-.13,1.21-.38,1.75-.73,.52-.35,.96-.81,1.27-1.35,.35-.62,.52-1.32,.49-2.03,.04-.76-.2-1.5-.65-2.11-.44-.54-1-.96-1.64-1.22-.68-.28-1.4-.48-2.14-.57-.71-.1-1.42-.15-2.14-.16h-6.15v8.39h7.29c.64,0,1.28-.07,1.9-.21"/></g><g id="ETH-6" class="cls-33"><path id="Trails-2" class="cls-14" d="M242.07,503.86h-40.07m-5.95,0h-19.52m69.7-84h-78.15m-5.01,0h-26.41m68.89,41.57h-21.24m-5.53,0h-13.04"/><path id="Coin-2" class="cls-50" d="M245.81,456.51c-.61,.14-1.23,.21-1.85,.21h-5.89v-7.87h5.52c.65,0,1.29,.06,1.93,.18,.62,.11,1.22,.31,1.77,.6,.52,.28,.96,.68,1.28,1.17,.35,.57,.52,1.23,.49,1.9,.02,.65-.13,1.3-.44,1.88-.28,.51-.68,.94-1.17,1.25-.5,.32-1.06,.55-1.64,.68m-1.38-41.29c24.96,0,45.2,20.24,45.2,45.2s-20.24,45.2-45.2,45.2-45.2-20.24-45.2-45.2h0c0-24.96,20.24-45.2,45.2-45.2m-19.4,14.84c3.01-1.99,6.34-3.45,9.84-4.34l1.42-.36-.71-2.84-1.42,.36c-3.81,.97-7.44,2.57-10.73,4.73-2.46,1.57-4.74,3.43-6.77,5.53-2.03,2.1-3.84,4.4-5.4,6.87h0c-1.95,3.08-3.44,6.42-4.41,9.93v.03c-.91,3.48-1.39,7.05-1.41,10.65,0,3.51,.47,7.01,1.39,10.39,.9,3.25,2.19,6.38,3.86,9.31,1.33,2.32,2.91,4.49,4.72,6.46l.03,.03c1.27,1.38,2.64,2.67,4.09,3.85l1.15,.91,1.82-2.3-1.15-.91c-1.34-1.09-2.6-2.27-3.76-3.55-1.66-1.81-3.12-3.8-4.34-5.92v-.02c-3.21-5.56-4.89-11.86-4.89-18.27,.03-3.35,.47-6.68,1.31-9.92,.91-3.22,2.27-6.29,4.06-9.12,2.86-4.62,6.71-8.55,11.27-11.5h.02Zm12.94,66.04l-1.42-.37c-2.69-.65-5.31-1.55-7.83-2.7l-1.32-.64-1.28,2.64,1.32,.64c2.69,1.23,5.49,2.2,8.36,2.9l1.42,.37,.75-2.83Zm1.24-17.24h5.22v5.79h4.87v-6.18c.23-.04,.46-.09,.68-.13,1.57-.32,3.08-.9,4.45-1.72,1.31-.79,2.41-1.87,3.23-3.15,.88-1.47,1.31-3.16,1.25-4.87,0-1.14-.19-2.27-.57-3.34-.36-1.01-.92-1.94-1.64-2.74-.73-.79-1.59-1.45-2.55-1.93-1.04-.52-2.16-.86-3.31-1.02v-.1c1.79-.51,3.39-1.54,4.61-2.94,1.19-1.46,1.81-3.3,1.75-5.18,.08-1.7-.33-3.38-1.2-4.85-.78-1.2-1.86-2.18-3.13-2.84-1.12-.58-2.33-1-3.57-1.23v-6.26h-4.87v5.8c-.24,0-.49,0-.73,0h-4.49v-5.79h-4.86v5.79h-4.4v36.89h4.4v5.79h4.87v-5.79h0Zm42.32-6.95l-2.79-.9-.45,1.39c-.83,2.4-1.93,4.71-3.26,6.88-1.11,1.79-2.37,3.49-3.77,5.08l-.03,.04c-.86,.98-1.78,1.9-2.76,2.76-.33,.31-.68,.62-1.03,.95-6.56,5.42-14.8,8.39-23.31,8.41h-1.47v2.93h1.47c2.96,0,5.91-.34,8.79-1,2.76-.64,5.45-1.57,8.02-2.77h.02c3.01-1.43,5.83-3.23,8.4-5.35l.03-.03,.03-.03c.34-.32,.69-.64,1.02-.95,1.07-.94,2.07-1.94,3.01-3.01,1.5-1.71,2.86-3.54,4.06-5.47l.03-.05c1.45-2.35,2.63-4.86,3.53-7.47l.46-1.39Zm1.89-9.85v-1.47c.05-6.09-1.36-12.1-4.09-17.54h0c-1.06-2.18-2.35-4.23-3.85-6.14-1.77-2.44-3.85-4.65-6.17-6.57-.79-.69-1.62-1.34-2.49-1.93-.16-.12-.33-.23-.5-.36l-.03-.02c-3.2-2.15-6.69-3.81-10.37-4.95h-.03c-3.74-1.13-7.63-1.71-11.53-1.73h-1.47v2.93h1.47c3.62,.02,7.23,.56,10.7,1.6,3.4,1.05,6.62,2.59,9.58,4.57,.17,.12,.33,.24,.5,.35,.78,.52,1.52,1.1,2.22,1.72l.03,.02,.03,.02c2.16,1.78,4.08,3.82,5.73,6.09l.03,.04,.03,.04c1.37,1.75,2.56,3.64,3.53,5.64,2.52,5.03,3.82,10.58,3.77,16.2v1.47h2.93Zm-36.15,9.7c.62-.13,1.21-.38,1.75-.73,.52-.35,.96-.81,1.27-1.35,.35-.62,.52-1.32,.49-2.03,.04-.76-.2-1.5-.65-2.11-.44-.54-1-.96-1.64-1.22-.68-.28-1.4-.48-2.14-.57-.71-.1-1.42-.15-2.14-.16h-6.15v8.39h7.29c.64,0,1.28-.07,1.9-.21"/></g><g><g class="cls-25"><g class="cls-23"><g><g id="HexPlate-3"><polygon class="cls-37" points="458.84 654.54 349.26 591.58 349.26 464.96 458.93 401.65 568.58 464.96 568.58 591.58 458.84 654.54"/><polygon class="cls-13" points="458.84 654.54 349.26 591.58 349.26 464.96 458.93 401.65 568.58 464.96 568.58 591.58 458.84 654.54"/></g><polygon id="HexPlate-4-21" class="cls-30" points="458.87 641.15 360.53 584.85 360.53 471.34 458.83 414.59 557.12 471.34 557.12 584.85 458.87 641.15"/></g></g></g><g id="BTC-2" class="cls-20"><path class="cls-44" d="M500.48,542.61c-1.03-2.86-2.6-5.48-4.64-7.73-2.05-2.24-4.5-4.09-7.22-5.45-2.94-1.47-6.1-2.44-9.35-2.87v-.29c5.06-1.45,9.58-4.34,13.03-8.32,3.37-4.12,5.13-9.33,4.93-14.66,.23-4.8-.95-9.56-3.39-13.7-2.21-3.39-5.25-6.15-8.84-8.03-3.18-1.65-6.58-2.82-10.1-3.47v-17.68h-13.76v16.4c-.69-.02-1.37-.02-2.06-.02h-12.69v-16.38h-13.75v16.38h-12.45v104.27h12.45v16.38h13.76v-16.38h0s14.74,0,14.74,0v16.38h13.76v-17.47c.64-.11,1.29-.24,1.93-.38,4.44-.9,8.7-2.54,12.59-4.86,3.69-2.22,6.82-5.27,9.13-8.91,2.48-4.15,3.71-8.94,3.53-13.77,.02-3.21-.53-6.41-1.62-9.43Zm-57.29-46.39h15.61c1.83,0,3.65,.18,5.45,.51,1.75,.3,3.44,.88,5.01,1.69,1.47,.78,2.71,1.92,3.61,3.31,.98,1.62,1.47,3.49,1.4,5.38,.05,1.85-.38,3.67-1.25,5.3-.8,1.43-1.93,2.65-3.31,3.53-1.42,.9-2.99,1.55-4.64,1.91h0c-1.71,.4-3.47,.59-5.23,.59h-16.64v-22.24Zm34.54,58.92c-.89,1.53-2.13,2.84-3.6,3.83-1.5,.99-3.17,1.69-4.93,2.06h0c-1.77,.39-3.57,.59-5.38,.59h-20.62v-23.71h17.38c2.02,.01,4.04,.16,6.04,.44,2.07,.27,4.1,.82,6.04,1.62,1.81,.75,3.41,1.94,4.64,3.46,1.29,1.71,1.94,3.82,1.84,5.97,.06,2.01-.42,3.99-1.4,5.74Z"/></g></g></g></svg>