<?xml version="1.0" encoding="UTF-8"?><svg xmlns="http://www.w3.org/2000/svg" xmlns:xlink="http://www.w3.org/1999/xlink" viewBox="0 0 1033.53 1029.71"><defs><style>.cls-1{fill:url(#linear-gradient-2);}.cls-2{stroke:#989898;stroke-linecap:round;}.cls-2,.cls-3,.cls-4,.cls-5,.cls-6{fill:none;}.cls-2,.cls-3,.cls-4,.cls-6{stroke-miterlimit:10;}.cls-7{fill:url(#linear-gradient-17);}.cls-8{filter:url(#outer-glow-3);}.cls-9{fill:url(#linear-gradient-21);filter:url(#outer-glow-14);}.cls-10{fill:url(#linear-gradient-6);filter:url(#outer-glow-4);}.cls-11{filter:url(#outer-glow-15);}.cls-12{filter:url(#outer-glow-13);}.cls-13{fill:url(#linear-gradient-24);filter:url(#outer-glow-16);}.cls-14{fill:url(#linear-gradient-14);}.cls-3{stroke-width:2.25px;}.cls-3,.cls-4,.cls-6{stroke:#b68bcc;}.cls-15{mask:url(#mask-2);}.cls-16{fill:url(#linear-gradient-20);}.cls-17{mask:url(#mask-3);}.cls-4{stroke-width:8px;}.cls-18{fill:url(#linear-gradient-11);}.cls-19{filter:url(#outer-glow-1);}.cls-20{fill:#18131f;isolation:isolate;opacity:.5;}.cls-5{opacity:0;}.cls-21{fill:url(#linear-gradient-10);}.cls-22{filter:url(#outer-glow-9);}.cls-23{fill:url(#radial-gradient);}.cls-24{mask:url(#mask-5);}.cls-25{fill:url(#linear-gradient-16);}.cls-26{fill:url(#linear-gradient-9);filter:url(#outer-glow-6);}.cls-27{fill:url(#linear-gradient-15);filter:url(#outer-glow-10);}.cls-28{mask:url(#mask-8);}.cls-29{fill:url(#linear-gradient-25);}.cls-30{mask:url(#mask-4);}.cls-31{fill:url(#linear-gradient-5);}.cls-32{filter:url(#outer-glow-5);}.cls-33{mask:url(#mask-6);}.cls-6{stroke-width:1.2px;}.cls-34{fill:url(#linear-gradient-7);}.cls-35{filter:url(#outer-glow-7);}.cls-36{fill:url(#linear-gradient-12);filter:url(#outer-glow-8);}.cls-37{fill:url(#linear-gradient-22);}.cls-38{filter:url(#luminosity-noclip-2);}.cls-39{mask:url(#mask-1);}.cls-40{mask:url(#mask);}.cls-41{fill:url(#linear-gradient);}.cls-42{mask:url(#mask-7);}.cls-43{fill:url(#linear-gradient-18);filter:url(#outer-glow-12);}.cls-44{fill:url(#linear-gradient-23);}.cls-45{filter:url(#outer-glow-11);}.cls-46{fill:url(#linear-gradient-19);}.cls-47{fill:url(#linear-gradient-4);}.cls-48{fill:url(#linear-gradient-8);}.cls-49{fill:url(#linear-gradient-3);filter:url(#outer-glow-2);}.cls-50{fill:url(#linear-gradient-13);}.cls-51{fill:url(#linear-gradient-26);}</style><linearGradient id="linear-gradient" x1="297.74" y1="260.75" x2="297.74" y2="588.35" gradientTransform="translate(9.11 169.19) scale(1 1.11)" gradientUnits="userSpaceOnUse"><stop offset="0" stop-color="#fff"/><stop offset="1" stop-color="#000"/></linearGradient><mask id="mask" x="91.4" y="423.08" width="430.89" height="430.89" maskUnits="userSpaceOnUse"><rect class="cls-41" x="184.2" y="456.49" width="245.3" height="364.07" transform="translate(-361.63 403.99) rotate(-45)"/></mask><filter id="outer-glow-1" filterUnits="userSpaceOnUse"><feOffset dx="0" dy="0"/><feGaussianBlur result="blur" stdDeviation="4"/><feFlood flood-color="#8c29ff" flood-opacity=".75"/><feComposite in2="blur" operator="in"/><feComposite in="SourceGraphic"/></filter><linearGradient id="linear-gradient-2" x1="-248.93" y1="-185.28" x2="-248.93" y2="51.31" gradientTransform="translate(524.01 664.14)" gradientUnits="userSpaceOnUse"><stop offset="0" stop-color="#9d79b3"/><stop offset="1" stop-color="#5c5396"/></linearGradient><linearGradient id="linear-gradient-3" x1="275.08" y1="522.86" x2="275.08" y2="667.24" gradientUnits="userSpaceOnUse"><stop offset="0" stop-color="#fffab8"/><stop offset="1" stop-color="#ffbd6b"/></linearGradient><filter id="outer-glow-2" filterUnits="userSpaceOnUse"><feOffset dx="0" dy="0"/><feGaussianBlur result="blur-2" stdDeviation="4"/><feFlood flood-color="#ff4545" flood-opacity=".75"/><feComposite in2="blur-2" operator="in"/><feComposite in="SourceGraphic"/></filter><linearGradient id="linear-gradient-4" x1="174.39" y1="666.62" x2="174.39" y2="783.09" gradientTransform="translate(191.12 -62.06) scale(1 1.11)" xlink:href="#linear-gradient"/><mask id="mask-1" x="288.92" y="666" width="153.19" height="153.19" maskUnits="userSpaceOnUse"><rect class="cls-47" x="321.91" y="677.88" width="87.21" height="129.43" transform="translate(-418.04 475.96) rotate(-45)"/></mask><filter id="outer-glow-3" filterUnits="userSpaceOnUse"><feOffset dx="0" dy="0"/><feGaussianBlur result="blur-3" stdDeviation="4"/><feFlood flood-color="#8c29ff" flood-opacity=".75"/><feComposite in2="blur-3" operator="in"/><feComposite in="SourceGraphic"/></filter><linearGradient id="linear-gradient-5" x1="-78.56" y1="241.95" x2="-78.56" y2="326.06" gradientTransform="translate(432.78 443.89)" xlink:href="#linear-gradient-2"/><linearGradient id="linear-gradient-6" x1="354.19" y1="704.14" x2="354.19" y2="749.99" xlink:href="#linear-gradient-3"/><filter id="outer-glow-4" filterUnits="userSpaceOnUse"><feOffset dx="0" dy="0"/><feGaussianBlur result="blur-4" stdDeviation="4"/><feFlood flood-color="#ff4545" flood-opacity=".75"/><feComposite in2="blur-4" operator="in"/><feComposite in="SourceGraphic"/></filter><linearGradient id="linear-gradient-7" x1="62.48" y1="565.92" x2="62.48" y2="682.38" gradientTransform="translate(144.76 49.85) scale(1 1.11)" xlink:href="#linear-gradient"/><mask id="mask-2" x="130.65" y="666" width="153.19" height="153.19" maskUnits="userSpaceOnUse"><rect class="cls-34" x="163.64" y="677.88" width="87.21" height="129.43" transform="translate(-464.4 364.04) rotate(-45)"/></mask><filter id="outer-glow-5" filterUnits="userSpaceOnUse"><feOffset dx="0" dy="0"/><feGaussianBlur result="blur-5" stdDeviation="4"/><feFlood flood-color="#8c29ff" flood-opacity=".75"/><feComposite in2="blur-5" operator="in"/><feComposite in="SourceGraphic"/></filter><linearGradient id="linear-gradient-8" x1="-236.83" y1="241.95" x2="-236.83" y2="326.06" gradientTransform="translate(432.78 443.89)" xlink:href="#linear-gradient-2"/><linearGradient id="linear-gradient-9" x1="195.92" y1="704.14" x2="195.92" y2="749.99" xlink:href="#linear-gradient-3"/><filter id="outer-glow-6" filterUnits="userSpaceOnUse"><feOffset dx="0" dy="0"/><feGaussianBlur result="blur-6" stdDeviation="4"/><feFlood flood-color="#ff4545" flood-opacity=".75"/><feComposite in2="blur-6" operator="in"/><feComposite in="SourceGraphic"/></filter><linearGradient id="linear-gradient-10" x1="361.51" y1="498.25" x2="361.51" y2="614.71" gradientTransform="translate(4 -139.57) scale(1 1.11)" xlink:href="#linear-gradient"/><mask id="mask-3" x="288.92" y="401.38" width="153.19" height="153.19" maskUnits="userSpaceOnUse"><rect class="cls-21" x="321.91" y="413.26" width="87.21" height="129.43" transform="translate(-230.92 398.45) rotate(-45)"/></mask><filter id="outer-glow-7" filterUnits="userSpaceOnUse"><feOffset dx="0" dy="0"/><feGaussianBlur result="blur-7" stdDeviation="4"/><feFlood flood-color="#8c29ff" flood-opacity=".75"/><feComposite in2="blur-7" operator="in"/><feComposite in="SourceGraphic"/></filter><linearGradient id="linear-gradient-11" x1="-78.56" y1="-22.67" x2="-78.56" y2="61.44" gradientTransform="translate(432.78 443.89)" xlink:href="#linear-gradient-2"/><linearGradient id="linear-gradient-12" x1="354.19" y1="439.52" x2="354.19" y2="485.37" xlink:href="#linear-gradient-3"/><filter id="outer-glow-8" filterUnits="userSpaceOnUse"><feOffset dx="0" dy="0"/><feGaussianBlur result="blur-8" stdDeviation="4"/><feFlood flood-color="#ff4545" flood-opacity=".75"/><feComposite in2="blur-8" operator="in"/><feComposite in="SourceGraphic"/></filter><linearGradient id="linear-gradient-13" x1="320.75" y1="630.23" x2="320.75" y2="746.69" gradientTransform="translate(119.65 -153.7) scale(1 1.11)" xlink:href="#linear-gradient"/><mask id="mask-4" x="363.81" y="533.91" width="153.19" height="153.19" maskUnits="userSpaceOnUse"><rect class="cls-50" x="396.8" y="545.79" width="87.21" height="129.43" transform="translate(-302.7 490.22) rotate(-45)"/></mask><filter id="outer-glow-9" filterUnits="userSpaceOnUse"><feOffset dx="0" dy="0"/><feGaussianBlur result="blur-9" stdDeviation="4"/><feFlood flood-color="#8c29ff" flood-opacity=".75"/><feComposite in2="blur-9" operator="in"/><feComposite in="SourceGraphic"/></filter><linearGradient id="linear-gradient-14" x1="-3.67" y1="109.86" x2="-3.67" y2="193.97" gradientTransform="translate(432.78 443.89)" xlink:href="#linear-gradient-2"/><linearGradient id="linear-gradient-15" x1="429.08" y1="572.05" x2="429.08" y2="617.91" xlink:href="#linear-gradient-3"/><filter id="outer-glow-10" filterUnits="userSpaceOnUse"><feOffset dx="0" dy="0"/><feGaussianBlur result="blur-10" stdDeviation="4"/><feFlood flood-color="#ff4545" flood-opacity=".75"/><feComposite in2="blur-10" operator="in"/><feComposite in="SourceGraphic"/></filter><linearGradient id="linear-gradient-16" x1="103.55" y1="434.78" x2="103.55" y2="551.25" gradientTransform="translate(29.68 63.49) scale(1 1.11)" xlink:href="#linear-gradient"/><mask id="mask-5" x="56.64" y="533.91" width="153.19" height="153.19" maskUnits="userSpaceOnUse"><rect class="cls-25" x="89.63" y="545.79" width="87.21" height="129.43" transform="translate(-392.67 273.03) rotate(-45)"/></mask><filter id="outer-glow-11" filterUnits="userSpaceOnUse"><feOffset dx="0" dy="0"/><feGaussianBlur result="blur-11" stdDeviation="4"/><feFlood flood-color="#8c29ff" flood-opacity=".75"/><feComposite in2="blur-11" operator="in"/><feComposite in="SourceGraphic"/></filter><linearGradient id="linear-gradient-17" x1="-310.83" y1="109.86" x2="-310.83" y2="193.97" gradientTransform="translate(432.78 443.89)" xlink:href="#linear-gradient-2"/><linearGradient id="linear-gradient-18" x1="121.91" y1="572.05" x2="121.91" y2="617.91" xlink:href="#linear-gradient-3"/><filter id="outer-glow-12" filterUnits="userSpaceOnUse"><feOffset dx="0" dy="0"/><feGaussianBlur result="blur-12" stdDeviation="4"/><feFlood flood-color="#ff4545" flood-opacity=".75"/><feComposite in2="blur-12" operator="in"/><feComposite in="SourceGraphic"/></filter><linearGradient id="linear-gradient-19" x1="249.6" y1="397.54" x2="249.6" y2="514.01" gradientTransform="translate(-42.36 -27.65) scale(1 1.11)" xlink:href="#linear-gradient"/><mask id="mask-6" x="130.65" y="401.38" width="153.19" height="153.19" maskUnits="userSpaceOnUse"><rect class="cls-46" x="163.64" y="413.26" width="87.21" height="129.43" transform="translate(-277.28 286.53) rotate(-45)"/></mask><filter id="outer-glow-13" filterUnits="userSpaceOnUse"><feOffset dx="0" dy="0"/><feGaussianBlur result="blur-13" stdDeviation="4"/><feFlood flood-color="#8c29ff" flood-opacity=".75"/><feComposite in2="blur-13" operator="in"/><feComposite in="SourceGraphic"/></filter><linearGradient id="linear-gradient-20" x1="-236.83" y1="-22.67" x2="-236.83" y2="61.44" gradientTransform="translate(432.78 443.89)" xlink:href="#linear-gradient-2"/><linearGradient id="linear-gradient-21" x1="195.92" y1="439.52" x2="195.92" y2="485.37" xlink:href="#linear-gradient-3"/><filter id="outer-glow-14" filterUnits="userSpaceOnUse"><feOffset dx="0" dy="0"/><feGaussianBlur result="blur-14" stdDeviation="4"/><feFlood flood-color="#ff4545" flood-opacity=".75"/><feComposite in2="blur-14" operator="in"/><feComposite in="SourceGraphic"/></filter><filter id="luminosity-noclip-2" x="145.12" y="466.25" width="258.63" height="258.63" color-interpolation-filters="sRGB" filterUnits="userSpaceOnUse"><feFlood flood-color="#fff" result="bg"/><feBlend in="SourceGraphic" in2="bg"/></filter><radialGradient id="radial-gradient" cx="993.26" cy="747.96" fx="993.26" fy="747.96" r="129.31" gradientTransform="translate(-718.83 -152.39)" gradientUnits="userSpaceOnUse"><stop offset="0" stop-color="#fff"/><stop offset="1" stop-color="#000"/></radialGradient><mask id="mask-7" x="145.12" y="466.25" width="258.63" height="258.63" maskUnits="userSpaceOnUse"><g class="cls-38"><rect class="cls-23" x="145.12" y="466.25" width="258.63" height="258.63" transform="translate(869.99 321.13) rotate(90)"/></g></mask><linearGradient id="linear-gradient-22" x1="655.16" y1="551.96" x2="655.16" y2="973.94" gradientTransform="translate(169.84 -193.48) scale(1 1.11)" xlink:href="#linear-gradient"/><mask id="mask-8" x="547.49" y="373.7" width="555.02" height="555.02" maskUnits="userSpaceOnUse"><rect class="cls-37" x="667.02" y="416.73" width="315.96" height="468.96" transform="translate(-218.84 774.1) rotate(-45)"/></mask><filter id="outer-glow-15" filterUnits="userSpaceOnUse"><feOffset dx="0" dy="0"/><feGaussianBlur result="blur-15" stdDeviation="4"/><feFlood flood-color="#8c29ff" flood-opacity=".75"/><feComposite in2="blur-15" operator="in"/><feComposite in="SourceGraphic"/></filter><linearGradient id="linear-gradient-23" x1="260.08" y1="-218.59" x2="260.08" y2="86.16" xlink:href="#linear-gradient-2"/><linearGradient id="linear-gradient-24" x1="783.97" y1="502.22" x2="783.97" y2="690.76" xlink:href="#linear-gradient-3"/><filter id="outer-glow-16" filterUnits="userSpaceOnUse"><feOffset dx="0" dy="0"/><feGaussianBlur result="blur-16" stdDeviation="4"/><feFlood flood-color="#ff4545" flood-opacity=".75"/><feComposite in2="blur-16" operator="in"/><feComposite in="SourceGraphic"/></filter><linearGradient id="linear-gradient-25" x1="782.44" y1="258.02" x2="782.44" y2="310.1" gradientTransform="matrix(1, 0, 0, 1, 0, 0)" xlink:href="#linear-gradient-2"/><linearGradient id="linear-gradient-26" x1="283.17" y1="258.02" x2="283.17" y2="310.1" gradientTransform="matrix(1, 0, 0, 1, 0, 0)" xlink:href="#linear-gradient-2"/></defs><g id="Frame"><rect class="cls-5" x="4.79" width="1024" height="1024"/></g><g id="Layer_3"><g><g><g class="cls-40"><g class="cls-19"><g><g id="HexPlate-3"><polygon class="cls-1" points="275.01 711.49 174.11 653.51 174.11 536.92 275.09 478.62 376.06 536.92 376.06 653.51 275.01 711.49"/><polygon class="cls-3" points="275.01 711.49 174.11 653.51 174.11 536.92 275.09 478.62 376.06 536.92 376.06 653.51 275.01 711.49"/></g><polygon id="HexPlate-4" class="cls-20" points="275.03 699.15 184.48 647.31 184.48 542.8 275 490.53 365.51 542.8 365.51 647.31 275.03 699.15"/></g></g></g><path id="ETH" class="cls-49" d="M275.1,628.67l-43.25-17.25,43.25,55.82,43.23-55.82-43.23,17.25Zm43.2-24.8l-43.05-81.01-43.4,81.11,43.24,16.35,43.21-16.45Z"/></g><g><g class="cls-39"><g class="cls-8"><g><g id="HexPlate-3-2"><polygon class="cls-31" points="354.19 768.54 318.32 747.93 318.32 706.47 354.22 685.75 390.12 706.47 390.12 747.93 354.19 768.54"/><polygon class="cls-6" points="354.19 768.54 318.32 747.93 318.32 706.47 354.22 685.75 390.12 706.47 390.12 747.93 354.19 768.54"/></g><polygon id="HexPlate-4-2" class="cls-20" points="354.2 764.15 322.01 745.72 322.01 708.56 354.19 689.98 386.37 708.56 386.37 745.72 354.2 764.15"/></g></g></g><path id="ETH-2" class="cls-10" d="M354.19,737.75l-13.74-5.48,13.74,17.73,13.73-17.73-13.73,5.48Zm13.72-7.88l-13.67-25.73-13.78,25.76,13.73,5.19,13.72-5.23Z"/></g><g><g class="cls-15"><g class="cls-32"><g><g id="HexPlate-3-3"><polygon class="cls-48" points="195.92 768.54 160.05 747.93 160.05 706.47 195.95 685.75 231.84 706.47 231.84 747.93 195.92 768.54"/><polygon class="cls-6" points="195.92 768.54 160.05 747.93 160.05 706.47 195.95 685.75 231.84 706.47 231.84 747.93 195.92 768.54"/></g><polygon id="HexPlate-4-3" class="cls-20" points="195.93 764.15 163.74 745.72 163.74 708.56 195.92 689.98 228.09 708.56 228.09 745.72 195.93 764.15"/></g></g></g><path id="ETH-3" class="cls-26" d="M195.92,737.75l-13.74-5.48,13.74,17.73,13.73-17.73-13.73,5.48Zm13.72-7.88l-13.67-25.73-13.78,25.76,13.73,5.19,13.72-5.23Z"/></g><g><g class="cls-17"><g class="cls-35"><g><g id="HexPlate-3-4"><polygon class="cls-18" points="354.19 503.91 318.32 483.3 318.32 441.85 354.22 421.12 390.12 441.85 390.12 483.3 354.19 503.91"/><polygon class="cls-6" points="354.19 503.91 318.32 483.3 318.32 441.85 354.22 421.12 390.12 441.85 390.12 483.3 354.19 503.91"/></g><polygon id="HexPlate-4-4" class="cls-20" points="354.2 499.53 322.01 481.1 322.01 443.94 354.19 425.36 386.37 443.94 386.37 481.1 354.2 499.53"/></g></g></g><path id="ETH-4" class="cls-36" d="M354.19,473.12l-13.74-5.48,13.74,17.73,13.73-17.73-13.73,5.48Zm13.72-7.88l-13.67-25.73-13.78,25.76,13.73,5.19,13.72-5.23Z"/></g><g><g class="cls-30"><g class="cls-22"><g><g id="HexPlate-3-5"><polygon class="cls-14" points="429.08 636.45 393.21 615.84 393.21 574.39 429.11 553.66 465.01 574.39 465.01 615.84 429.08 636.45"/><polygon class="cls-6" points="429.08 636.45 393.21 615.84 393.21 574.39 429.11 553.66 465.01 574.39 465.01 615.84 429.08 636.45"/></g><polygon id="HexPlate-4-5" class="cls-20" points="429.09 632.06 396.9 613.63 396.9 576.47 429.08 557.9 461.26 576.47 461.26 613.63 429.09 632.06"/></g></g></g><path id="ETH-5" class="cls-27" d="M429.08,605.66l-13.74-5.48,13.74,17.73,13.73-17.73-13.73,5.48Zm13.72-7.88l-13.67-25.73-13.78,25.76,13.73,5.19,13.72-5.23Z"/></g><g><g class="cls-24"><g class="cls-45"><g><g id="HexPlate-3-6"><polygon class="cls-7" points="121.92 636.45 86.04 615.84 86.04 574.39 121.94 553.66 157.84 574.39 157.84 615.84 121.92 636.45"/><polygon class="cls-6" points="121.92 636.45 86.04 615.84 86.04 574.39 121.94 553.66 157.84 574.39 157.84 615.84 121.92 636.45"/></g><polygon id="HexPlate-4-6" class="cls-20" points="121.92 632.06 89.73 613.63 89.73 576.47 121.91 557.9 154.09 576.47 154.09 613.63 121.92 632.06"/></g></g></g><path id="ETH-6" class="cls-43" d="M121.92,605.66l-13.74-5.48,13.74,17.73,13.73-17.73-13.73,5.48Zm13.72-7.88l-13.67-25.73-13.78,25.76,13.73,5.19,13.72-5.23Z"/></g><g><g class="cls-33"><g class="cls-12"><g><g id="HexPlate-3-7"><polygon class="cls-16" points="195.92 503.91 160.05 483.3 160.05 441.85 195.95 421.12 231.84 441.85 231.84 483.3 195.92 503.91"/><polygon class="cls-6" points="195.92 503.91 160.05 483.3 160.05 441.85 195.95 421.12 231.84 441.85 231.84 483.3 195.92 503.91"/></g><polygon id="HexPlate-4-7" class="cls-20" points="195.93 499.53 163.74 481.1 163.74 443.94 195.92 425.36 228.09 443.94 228.09 481.1 195.93 499.53"/></g></g></g><path id="ETH-7" class="cls-9" d="M195.92,473.12l-13.74-5.48,13.74,17.73,13.73-17.73-13.73,5.48Zm13.72-7.88l-13.67-25.73-13.78,25.76,13.73,5.19,13.72-5.23Z"/></g><g class="cls-42"><g><line class="cls-4" x1="173.66" y1="594.84" x2="158.17" y2="594.84"/><line class="cls-4" x1="393.54" y1="594.84" x2="376.5" y2="594.84"/><line class="cls-4" x1="215.14" y1="493.39" x2="223.36" y2="507.63"/><line class="cls-4" x1="336.38" y1="494.16" x2="328.16" y2="508.4"/><line class="cls-4" x1="215.14" y1="696.72" x2="223.36" y2="682.48"/><line class="cls-4" x1="336.38" y1="695.95" x2="328.16" y2="681.7"/></g></g></g><g><g class="cls-28"><g class="cls-11"><g><g id="HexPlate-3-8"><polygon class="cls-44" points="783.99 745.18 654.02 670.51 654.02 520.33 784.09 445.23 914.15 520.33 914.15 670.51 783.99 745.18"/><polygon class="cls-3" points="783.99 745.18 654.02 670.51 654.02 520.33 784.09 445.23 914.15 520.33 914.15 670.51 783.99 745.18"/></g><polygon id="HexPlate-4-8" class="cls-20" points="784.02 729.3 667.38 662.52 667.38 527.9 783.97 460.58 900.56 527.9 900.56 662.52 784.02 729.3"/></g></g></g><path class="cls-13" d="M781.75,641.08l-55.71-22.22,55.71,71.9v-49.68Zm.19-138.86l-55.9,104.47,55.71-20.96,.19-83.52Zm-.19,88.05l-55.71,20.96,55.9,21.73-.19-42.69Zm4.45,100.49l55.71-71.9-55.71,22.22v49.68Zm0-105.02l55.71,20.96-55.9-104.47,.19,83.52Zm-.19,47.22l55.9-21.73-55.71-20.96-.19,42.69Z"/></g><path class="cls-29" d="M676.52,288.71c0,3.71-1.22,6.56-3.65,8.54s-6.03,2.97-10.78,2.97c-3.28,0-6.14-.54-8.55-1.63-2.42-1.09-4.39-2.85-5.9-5.27l5.81-4.44c.86,1.21,1.67,2.12,2.44,2.73,.77,.61,1.68,1.08,2.73,1.42,1.05,.34,2.27,.51,3.64,.51,2.05,0,3.65-.35,4.81-1.06,1.15-.7,1.73-1.78,1.73-3.23,0-.82-.2-1.51-.6-2.06-.4-.55-1-1.03-1.81-1.43-.8-.4-2.2-.86-4.18-1.38-1.93-.52-3.74-1.04-5.45-1.57-1.7-.53-3.18-1.21-4.42-2.05-1.24-.84-2.22-1.89-2.93-3.16-.71-1.27-1.07-2.86-1.07-4.79,0-3.52,1.19-6.26,3.56-8.23,2.37-1.97,5.77-2.96,10.2-2.96,6.41,0,10.94,2.2,13.6,6.59l-5.76,4.5c-1.02-1.57-2.16-2.69-3.43-3.37-1.27-.68-2.78-1.02-4.52-1.02s-3.17,.32-4.27,.95-1.65,1.63-1.65,2.98c0,1.2,.57,2.11,1.71,2.74,1.14,.63,3.13,1.27,5.97,1.92,1.57,.41,3.12,.85,4.66,1.33,1.53,.47,2.9,1.13,4.11,1.97,1.2,.84,2.17,1.94,2.9,3.29,.73,1.36,1.1,3.1,1.1,5.22Zm28.41,10.74v-15.74h-14.59v15.74h-7.55v-37.05h7.55v14.4h14.59v-14.4h7.58v37.05h-7.58Zm12.29,0l12.26-37.05h9.83l12.29,37.05h-7.74l-2.46-7.52h-14.27l-2.41,7.52h-7.5Zm12.05-14.14h9.99l-4.98-15.31-5.01,15.31Zm47.87,14.14l-9.45-14.03h-3.83v14.03h-7.55v-37.05h13.47c4.77,0,8.25,.86,10.45,2.57,2.2,1.71,3.31,4.52,3.31,8.43,0,3.16-.67,5.68-1.99,7.55-1.33,1.87-3.22,3.07-5.66,3.59l9.91,14.91h-8.65Zm-1.26-25.73c0-1.89-.48-3.16-1.43-3.8-.96-.64-2.53-.96-4.73-.96h-5.86v9.88h5.54c1.7,0,3-.16,3.91-.48s1.57-.82,1.97-1.5c.4-.68,.6-1.72,.6-3.13Zm43.64,7.2c0,4.46-.62,8.05-1.85,10.76-1.23,2.71-3.09,4.68-5.57,5.92s-5.97,1.85-10.47,1.85h-11.3v-37.05h11.19c4.37,0,7.85,.63,10.43,1.9,2.58,1.27,4.48,3.24,5.72,5.93,1.23,2.69,1.85,6.25,1.85,10.7Zm-7.79-.05c0-3.23-.32-5.63-.95-7.19-.63-1.56-1.71-2.68-3.23-3.36-1.52-.68-3.77-1.02-6.75-1.02h-2.89v23.24h2.89c2.98,0,5.22-.34,6.73-1.03,1.51-.69,2.58-1.83,3.23-3.44s.96-4.01,.96-7.2Zm30.71,18.58h-17.88v-5.81h5.17v-25.43h-5.17v-5.81h17.88v5.81h-5.14v25.43h5.14v5.81Zm27.63,0l-13.49-26.48v26.48h-7.39v-37.05h9.8l12.56,24.98v-24.98h7.42v37.05h-8.89Zm41.39-26.64c-.95-1.53-2.1-2.67-3.45-3.4-1.36-.73-3.06-1.1-5.11-1.1-3.37,0-5.81,1.08-7.32,3.25-1.51,2.17-2.26,5.39-2.26,9.68s.74,7.36,2.24,9.33c1.49,1.97,3.89,2.96,7.19,2.96,2.5,0,4.8-.52,6.91-1.55v-5.76h-7.23v-6.67h14.8v16.38c-1.71,1.29-3.84,2.32-6.38,3.11-2.54,.79-5.16,1.18-7.86,1.18-5.78,0-10.14-1.51-13.06-4.52-2.93-3.02-4.39-7.83-4.39-14.46,0-13.08,5.76-19.62,17.27-19.62,3.36,0,6.28,.56,8.78,1.69,2.5,1.12,4.4,2.78,5.7,4.95l-5.81,4.55Z"/><path class="cls-51" d="M171.06,298.77v-37.05h7.55v30.15h15.58v6.91h-23.13Zm24.5,0l12.26-37.05h9.83l12.29,37.05h-7.74l-2.46-7.52h-14.27l-2.41,7.52h-7.5Zm12.05-14.14h9.99l-4.98-15.31-5.01,15.31Zm39.68,0v14.14h-7.6v-13.98l-11.59-23.08h8.25l7.23,15.5,7.39-15.5h7.95l-11.62,22.92Zm16.14,14.14v-37.05h24.07v6.67h-16.52v7.9h13.92v6.69h-13.92v8.89h16.52v6.91h-24.07Zm51.59,0l-9.45-14.03h-3.83v14.03h-7.55v-37.05h13.47c4.77,0,8.25,.86,10.45,2.57,2.2,1.71,3.31,4.52,3.31,8.43,0,3.16-.67,5.68-1.99,7.55-1.33,1.87-3.22,3.07-5.66,3.59l9.91,14.91h-8.65Zm-1.26-25.73c0-1.89-.48-3.16-1.43-3.8-.96-.64-2.53-.96-4.73-.96h-5.86v9.88h5.54c1.7,0,3-.16,3.91-.48s1.57-.82,1.97-1.5c.4-.68,.6-1.72,.6-3.13Zm26.8,25.73v-6.32c2.91-2.45,5.56-4.78,7.95-7.01,2.39-2.23,4.24-4.08,5.54-5.55s2.32-2.88,3.04-4.23c.72-1.35,1.08-2.76,1.08-4.24,0-1.16-.44-2.08-1.31-2.76-.88-.68-2.08-1.02-3.61-1.02-1.66,0-3.02,.38-4.07,1.15-1.05,.77-1.93,1.68-2.62,2.73l-6.1-4.28c1.52-2.27,3.32-3.88,5.39-4.85s4.67-1.45,7.78-1.45c3.82,0,6.83,.89,9.04,2.68,2.2,1.79,3.31,4.29,3.31,7.52,0,2.37-.43,4.46-1.3,6.25-.87,1.79-2.1,3.53-3.69,5.22-1.6,1.69-3.59,3.55-5.97,5.58-2.38,2.04-3.85,3.26-4.4,3.67h16.57v6.91h-26.61Zm54.72-8c0,1.86-.47,3.44-1.41,4.77-.94,1.32-2.27,2.33-3.99,3.03-1.72,.7-3.69,1.04-5.9,1.04-5.87,0-9.87-1.63-11.99-4.9l5.14-3.61c.84,1.14,1.81,1.91,2.91,2.29s2.27,.58,3.52,.58c3.28,0,4.93-.95,4.93-2.86,0-.84-.46-1.49-1.39-1.94-.93-.46-2.38-.92-4.36-1.41-3.73-.82-6.35-1.98-7.87-3.48-1.52-1.5-2.28-3.44-2.28-5.84s.95-4.52,2.85-6.13c1.9-1.61,4.7-2.41,8.39-2.41,2.52,0,4.73,.4,6.65,1.21,1.92,.8,3.4,2.01,4.43,3.61l-5.17,3.67c-1.23-1.89-3.24-2.84-6.02-2.84-1.43,0-2.51,.25-3.24,.74-.73,.49-1.1,1.12-1.1,1.89s.33,1.32,.99,1.75c.66,.44,1.96,.9,3.91,1.38,3.19,.79,5.47,1.57,6.84,2.34,1.37,.78,2.4,1.74,3.11,2.89,.7,1.15,1.06,2.57,1.06,4.24Z"/><line class="cls-2" x1="548.37" y1="189.94" x2="548.37" y2="876.78"/></g></svg>