<svg id="logo" width="84" height="24" viewBox="0 0 84 24" fill="none" xmlns="http://www.w3.org/2000/svg">
  <path
    d="M80.8657 6.78481V0H84V6.78481H80.8657ZM75.3493 6.78481V0H78.4836V6.78481H75.3493ZM59.5836 23.6624H63.5015V15.1224C63.5015 11.4768 65.3821 9.82279 67.0746 9.82279C68.7672 9.82279 69.8642 10.9705 69.8642 13.7384V23.6624H73.7821V12.8945C73.7821 8.94515 71.7761 6.44726 68.5164 6.44726C66.2284 6.44726 64.4731 7.72996 63.5015 10.5316V0H59.5836V23.6624ZM-5.72205e-06 23.6624H14.8881V20.2869H9.40298V0H6.14328C6.0179 2.83544 5.26567 3.5443 1.66119 3.5443H-5.72205e-06V6.78481H5.48507V20.2869H-5.72205e-06V23.6624ZM49.6164 9.82279C51.5597 9.82279 53.0955 11.4768 53.2836 13.8397H57.3269C56.7627 9.35021 53.691 6.44726 49.6164 6.44726C45.197 6.44726 41.6866 10.1266 41.6866 15.2236C41.6866 20.3207 45.197 24 49.6164 24C53.691 24 56.7627 21.1308 57.3269 16.6413H53.2836C53.0955 19.0042 51.5597 20.6245 49.6164 20.6245C47.6731 20.6245 45.6985 18.7679 45.6985 15.2236C45.6985 11.6793 47.6104 9.82279 49.6164 9.82279ZM25.0746 23.6624H28.9925V15.1224C28.9925 11.4768 30.8731 9.82279 32.5657 9.82279C34.2582 9.82279 35.3552 10.9705 35.3552 13.7384V23.6624H39.2731V12.8945C39.2731 8.94515 37.2672 6.44726 34.0075 6.44726C31.7194 6.44726 29.9642 7.72996 28.9925 10.5316V6.78481H25.0746V23.6624ZM17.2388 0V4.21941H21.1567V0H17.2388ZM17.2388 6.78481V23.6624H21.1567V6.78481H17.2388Z"
    fill="white"
  />
</svg>
