<svg width="166" height="60" viewBox="0 0 166 60" fill="none" xmlns="http://www.w3.org/2000/svg">
<path d="M71.7974 15.1832H78.0403V40.1737H84.2833V8.93555H78.0403C74.6067 8.93555 71.7974 11.747 71.7974 15.1832Z" fill="white"/>
<path d="M90.5254 21.4309V40.1738H96.7684V27.6785C96.7684 24.2423 93.959 21.4309 90.5254 21.4309Z" fill="white"/>
<path d="M115.498 21.4309H103.012V40.1738H109.255V27.6785H115.498V33.9262C115.498 37.3624 118.307 40.1738 121.741 40.1738V27.6785C121.741 24.2423 118.932 21.4309 115.498 21.4309Z" fill="white"/>
<path d="M159.199 21.4308H152.956V15.1832C152.956 11.747 150.146 8.93555 146.713 8.93555V33.9261H134.227V27.6785H140.47V21.4308H134.227C130.793 21.4308 127.984 24.2423 127.984 27.6785V33.9261C127.984 37.3623 130.793 40.1737 134.227 40.1737H152.956V27.6785H159.199V33.9261C159.199 37.3623 162.008 40.1737 165.442 40.1737V27.6785C165.442 24.2423 162.632 21.4308 159.199 21.4308Z" fill="white"/>
<path d="M90.5254 8.93555V15.1832H96.7684C96.7684 11.747 93.959 8.93555 90.5254 8.93555Z" fill="white"/>
<path d="M46.6534 6.76436C46.6534 6.76436 49.213 6.87369 51.8663 7.17045C45.8731 2.45348 40.192 1.079 35.5878 1.079C29.2356 1.079 24.9435 3.68739 24.6938 3.84358L26.6916 0.672908C26.6916 0.672908 18.7006 -0.0924264 15.8912 8.3575C15.1733 6.56131 14.5022 3.95292 14.5022 3.95292C14.5022 3.95292 10.3506 7.59217 12.3015 13.6368C7.54129 11.903 0.736464 9.48208 0.486745 9.43522C0.127775 9.38836 0.0185235 9.54455 0.0185235 9.54455C0.0185235 9.54455 -0.0907278 9.70074 0.22142 9.95065C0.783287 10.4192 11.5368 18.3537 13.8779 19.8844C13.3628 21.7274 13.3628 22.6021 13.8779 23.4768C14.5958 24.6482 14.6427 25.273 14.549 26.1476C14.4398 27.0223 13.5189 34.5507 13.316 35.4722C13.1131 36.3938 10.9593 39.6738 11.0686 40.6422C11.1778 41.6105 12.5044 45.7652 13.675 46.2182C14.549 46.5306 16.6872 47.1866 18.1231 47.1866C18.6382 47.1866 19.0908 47.0772 19.2937 46.8742C20.1677 46.1088 20.4174 45.9527 21.0261 45.9527H21.1822C21.4319 45.9527 21.744 45.9995 22.103 45.9995C22.9146 45.9995 23.9915 45.8433 24.7719 45.1248C25.8956 44.0003 27.8465 42.454 28.4552 41.7511C29.22 40.7827 29.6258 39.4395 29.4229 38.1119C29.2668 36.878 29.9379 35.8002 30.7027 34.7382C31.6703 33.4574 33.4652 31.1458 33.4652 31.1458C36.9925 33.8166 39.1931 37.862 39.1931 42.3603C39.1931 50.3572 32.2322 56.8079 23.6325 56.8079C22.3059 56.8079 21.0261 56.6517 19.7463 56.3394C23.6793 57.7295 27.0193 58.1824 29.7194 58.1824C35.5097 58.1824 38.5688 56.0894 38.5688 56.0894C38.5688 56.0894 37.4919 57.4795 35.7595 59.0571H35.8063C45.3736 57.7295 50.0402 49.8418 50.0402 49.8418C50.0402 49.8418 49.6813 52.4033 49.2286 54.1371C61.9643 44.5626 59.8261 32.5827 59.7636 32.161C59.8729 32.3172 61.1527 33.8479 61.8082 34.6757C63.8996 13.5743 46.6534 6.76436 46.6534 6.76436Z" fill="#1B314F"/>
<path d="M46.0446 41.0795C46.1539 40.6734 46.6065 40.4078 47.1216 40.1579C47.4805 39.9549 47.9331 39.6894 47.9956 39.5488C48.1985 38.3774 48.3077 37.1903 48.3077 36.0189C48.3077 35.769 47.9019 35.3473 47.543 35.0505C47.1372 34.6444 46.7314 34.2383 46.6689 33.8166C46.31 30.4897 45.077 27.2566 43.0792 24.6013C43.2353 26.4444 43.1885 28.6935 42.6734 31.3175C46.3568 37.8151 44.0625 46.0151 39.3022 50.982C42.5018 48.5141 44.9053 45.0311 46.0446 41.0795Z" fill="white"/>
<path d="M27.6127 38.1586C27.0509 35.9564 24.8502 34.7849 24.1323 34.8318C23.3207 34.9411 22.1814 35.0817 21.8224 35.3472C22.4935 34.3164 23.4143 33.8165 24.3352 33.551C25.0999 31.3487 26.7387 26.8348 27.0977 26.538C27.3006 26.3819 27.8156 26.2257 28.6896 25.9758C29.2047 25.8664 29.9226 25.6634 30.0163 25.5697C30.2192 25.2573 32.2637 20.3529 32.4198 19.9936C32.373 19.6344 31.3429 17.026 30.266 14.5113C27.6596 16.4013 24.8346 15.9014 24.8346 15.9014C24.8346 15.9014 26.8324 15.3392 28.8769 12.3091C30.8747 9.29457 28.9862 5.13989 28.9862 5.13989C28.9862 5.13989 21.9785 15.6828 21.1044 15.9014C20.2304 16.1045 19.6217 15.0268 19.6217 15.0268C19.6217 15.0268 17.7801 19.8375 17.265 21.5868C16.75 23.3205 17.3743 24.9605 17.8269 25.7883C18.3419 26.6005 19.4188 28.6622 17.9361 30.7552C18.139 29.8337 17.2182 28.3967 16.5471 27.522C16.2974 29.7712 15.6262 35.1598 15.4234 36.0188C15.3141 36.628 14.9551 37.2996 14.3464 38.471C14.0343 39.0802 13.4256 40.1579 13.2695 40.6733C13.4724 41.5949 14.2372 43.7971 14.7522 44.4688C15.4702 44.7187 16.4847 44.9842 17.3587 45.1404C17.7645 45.1404 18.2795 44.9373 18.9974 44.2657C20.3241 43.0318 21.1981 42.3758 21.4478 41.0326C21.6975 39.7518 21.6039 37.7526 22.2126 37.1903C22.7744 36.628 24.0074 36.3781 24.9751 36.628C24.2103 36.628 23.3363 36.9872 23.3363 36.9872C23.3363 36.9872 24.819 36.7373 25.3809 37.7994C25.9427 38.8771 25.4901 39.4863 24.5693 40.111C23.8045 40.6265 21.5571 42.9849 20.7767 44.0002H21.2449H21.4478H21.76H22.3218C22.9305 44.0002 23.3519 43.8909 23.5548 43.6878C24.0699 43.1724 24.7254 42.6101 25.3497 42.0478C25.9583 41.4855 26.8324 40.7202 27.0353 40.4547C27.4411 39.8455 27.7064 39.0646 27.5971 38.2524V38.1586H27.6127ZM25.0531 13.2774L28.4867 8.20124C28.4867 8.20124 28.955 10.2473 27.7688 11.6374C26.2861 13.3243 25.0063 13.2774 25.0531 13.2774ZM15.595 41.9072C14.9239 41.9541 14.6742 41.1419 14.8303 40.6733C14.9863 40.2672 16.6719 37.2996 16.6719 37.2996L16.2662 39.3457C16.2662 39.3457 17.0777 39.2364 17.0777 40.1579C17.0777 40.8764 16.2505 41.8448 15.595 41.9072ZM20.964 26.7411C20.6518 27.9125 18.0454 27.4127 19.0131 23.6641C19.0131 23.6641 19.4813 25.4603 19.9339 25.3041C20.4021 25.1479 25.615 16.9635 25.615 16.9635C25.615 16.9635 24.9439 19.119 24.4913 20.1967C26.2861 20.5559 26.8011 22.6489 25.8179 23.7891C24.8502 24.8512 22.3999 26.3819 20.964 26.7411Z" fill="white"/>
<path d="M32.6846 11.6843C32.3256 12.2466 31.9666 12.762 31.6077 13.1681C32.3724 15.058 34.3702 20.0249 34.3702 20.2904C34.3702 20.6028 33.4025 23.1019 33.2933 23.2112C33.184 23.2581 32.0135 23.3674 31.5608 23.3674C31.0458 24.6013 30.5308 25.7727 30.4371 25.9289C30.281 26.132 29.8284 26.2882 28.8452 26.5381C28.3301 26.6943 27.5653 26.8973 27.4561 27.0067C27.2064 27.319 25.8173 30.9427 24.8965 33.5042C26.1295 33.3011 27.2064 33.5511 27.4561 33.6604C29.4538 29.8649 31.0458 27.8188 31.4516 27.8188C31.8574 27.772 36.7269 28.4905 38.6154 23.9297C40.4571 19.4158 37.8038 15.5891 37.6946 15.4329C37.8038 15.4798 41.8929 17.3853 42.9074 23.5236C45.2173 26.4444 46.7 29.9743 47.1058 33.7229C47.1058 33.9728 47.5116 34.332 47.7769 34.6444C48.2452 35.113 48.6978 35.5659 48.6978 36.0345C48.6978 37.2684 48.5885 38.4867 48.3856 39.6737C48.2764 40.0798 47.7769 40.3922 47.2619 40.6421C46.9497 40.8452 46.4971 41.1107 46.4503 41.2513C45.3266 45.2966 42.767 48.889 39.4426 51.4505C46.4971 48.0768 51.3666 40.8452 51.3666 32.5514C51.3666 21.7274 43.1727 12.8089 32.6846 11.6843Z" fill="white"/>
<path d="M24.6467 38.5649C24.6467 37.8465 23.679 37.6903 23.2576 37.7996C22.8518 37.9089 22.7426 38.5649 22.6958 38.9242C22.6489 39.2834 22.6958 40.408 22.2275 41.0796C22.3368 40.9703 23.0391 40.2049 23.3981 39.8457C23.9287 39.3928 24.6467 39.2366 24.6467 38.5649Z" fill="white"/>
<path d="M16.3599 18.2444C16.7189 17.5727 16.4068 17.1198 16.1102 16.8543C16.0634 16.8074 16.001 16.7449 16.001 16.7449C15.3923 16.4325 11.5529 15.0112 7.76025 13.668C11.0846 15.8703 14.768 18.0257 15.3923 18.3225C15.8449 18.5411 16.157 18.6036 16.3599 18.2444Z" fill="white"/>
<path d="M30.8589 15.9016C30.6717 15.4486 30.4688 14.98 30.2659 14.5115C27.7219 16.3545 24.9906 15.9172 24.8501 15.9016C24.9906 15.9172 27.7063 16.7762 30.8589 15.9016Z" fill="#94A6C3"/>
<path d="M36.197 12.3716C35.0576 12.0436 33.8871 11.8093 32.6853 11.6843C32.3263 12.2466 31.9674 12.762 31.6084 13.1681C31.8269 13.6992 32.1391 14.4645 32.4668 15.308C33.731 14.6988 35.0264 13.7773 36.197 12.3716Z" fill="#94A6C3"/>
<path d="M27.6128 38.1587C27.051 35.9564 24.8503 34.785 24.1324 34.8318C23.3208 34.9412 22.1815 35.0817 21.8225 35.3473C22.4936 34.3164 23.4144 33.8166 24.3353 33.5511C24.6006 32.8013 24.9596 31.7861 25.3342 30.7552C24.4601 31.2238 21.3699 32.8638 21.1046 33.0356C20.7924 33.2387 19.7155 35.3941 18.9039 37.6433C18.4357 36.2063 17.4212 35.3316 17.3744 35.2848C17.4212 35.5347 18.4981 39.7987 18.1391 41.0795C17.7802 42.4071 15.5327 43.5941 15.5327 43.5941L18.9195 44.3439C18.9507 44.3126 18.982 44.2814 19.0132 44.2501C20.3398 43.0162 21.2138 42.3602 21.4635 41.017C21.7132 39.7362 21.6196 37.737 22.2283 37.1747C22.7902 36.6124 24.0231 36.3625 24.9908 36.6124C24.7099 36.6124 24.4289 36.6593 24.1636 36.7217C25.0376 36.7374 26.1926 37.0654 26.1614 38.8147C26.1614 40.1423 24.6787 40.2517 23.1959 41.4856C22.8994 41.7355 22.5717 42.0166 22.2439 42.329C21.6508 42.9694 21.1046 43.5941 20.7924 44.0002H22.3219C22.9306 44.0002 23.352 43.8909 23.5549 43.6879C24.07 43.1724 24.7255 42.6101 25.3498 42.0478C25.9585 41.4856 26.8325 40.7202 27.0354 40.4547C27.4412 39.8456 27.7065 39.0646 27.5972 38.2524V38.1587H27.6128Z" fill="#94A6C3"/>
<path d="M31.8574 26.4913C30.0625 26.4913 27.659 27.6627 27.659 27.6627L25.3022 33.4418C26.3479 33.3481 27.222 33.5511 27.4561 33.6448C29.4538 29.8494 31.0458 27.8033 31.4516 27.8033C31.8574 27.7564 36.7269 28.4749 38.6154 23.9141C40.457 19.4002 37.8038 15.5735 37.6945 15.4174C39.8483 22.4928 35.0881 26.4288 31.8574 26.4913Z" fill="#94A6C3"/>
<path d="M46.0446 41.0795C46.1539 40.6734 46.6065 40.4078 47.1216 40.1579C47.4805 39.9549 47.9331 39.6894 47.9956 39.5488C48.1985 38.3774 48.3077 37.1903 48.3077 36.0189C48.3077 35.769 47.9019 35.3473 47.543 35.0505C47.1372 34.6444 46.7314 34.2227 46.6689 33.8166C46.31 30.4897 45.077 27.2566 43.0792 24.6013C43.2353 26.4444 43.1885 28.6935 42.6734 31.3019C46.3568 37.7995 44.0625 45.9995 39.3022 50.9663C42.5018 48.5142 44.9053 45.0311 46.0446 41.0795Z" fill="#94A6C3"/>
<path d="M50.789 31.4582C48.9629 21.1183 38.5059 15.7922 37.71 15.433C38.0377 15.5892 41.7523 17.4791 42.8448 23.1488C45.3888 26.1164 46.9808 29.8338 47.4178 33.7542C47.4178 34.0041 47.7767 34.3633 48.1357 34.6757C48.6039 35.1443 49.0565 35.5972 49.0565 36.0658C49.0565 37.2997 48.9473 38.518 48.7444 39.7051C48.6351 40.1111 48.1357 40.3767 47.6207 40.6734C47.3085 40.8765 46.8559 41.142 46.8091 41.2826C45.7634 44.9843 43.5783 48.2799 40.6754 50.779C40.4413 50.982 40.2071 51.1695 39.9574 51.3725C45.4668 48.2487 49.3531 43.5005 50.6173 38.0963C51.1011 35.9565 51.1948 33.7229 50.789 31.4582Z" fill="#94A6C3"/>
<path d="M21.3696 25.7729L24.0385 21.2122C24.0385 21.2122 25.568 21.9775 24.8033 23.2114C23.82 24.6484 21.3696 25.7729 21.3696 25.7729Z" fill="#FFD923"/>
<path d="M51.663 25.2104C51.9127 25.679 58.2181 37.2996 51.6162 49.9979C52.6463 48.9671 53.5047 47.905 54.2851 46.8741C58.6864 40.7358 58.0777 32.2859 53.0053 26.6474C52.5839 26.1788 52.1313 25.6634 51.663 25.2104Z" fill="#D82122"/>
<path d="M60.4189 30.5366C60.3097 23.9766 58.109 18.3538 53.8638 13.8398C53.817 13.793 53.817 13.793 53.7545 13.7305C50.0244 9.7945 44.5462 7.93582 39.1148 8.71678C37.0702 8.96668 35.0257 9.3884 33.4337 9.88821C33.184 9.93507 32.9187 9.99754 32.6689 10.0913H32.7782C33.184 10.0444 40.6599 9.68516 47.6208 14.2928C54.8471 19.0566 58.109 24.3359 60.4189 30.5366Z" fill="#D82122"/>
<path d="M45.9824 5.18676C42.6112 3.4999 39.0683 2.62523 35.5411 2.57837C34.2144 2.57837 32.9815 2.6877 31.8577 2.89075C27.8622 3.60923 24.5847 6.48314 23.4609 10.3098C23.4609 10.3098 24.2725 9.02905 26.2234 7.70143C26.9414 6.73305 28.0651 5.18676 29.142 3.90599C29.4542 4.57761 29.8131 5.3898 29.9068 5.7959C33.4497 4.46828 38.366 3.7498 45.9824 5.18676Z" fill="#D82122"/>
<path d="M13.8934 7.43604C13.7842 7.84213 11.802 14.8082 17.7797 15.0113C14.3148 12.9183 13.8934 7.48289 13.8934 7.43604Z" fill="#D82122"/>
<path d="M23.679 2.46912C23.32 2.62531 15.5943 5.13998 19.9956 11.8406C19.9956 11.8406 19.0748 5.2337 23.679 2.46912Z" fill="#D82122"/>
</svg>
