<svg width="193" height="57" viewBox="0 0 193 57" fill="none" xmlns="http://www.w3.org/2000/svg">
<path d="M68.5431 30.2101H78.7789C78.7789 31.2572 78.7266 32.2258 78.648 33.0897C78.5695 33.9536 78.3862 34.7389 78.1244 35.4719C77.7579 36.5191 77.2606 37.4353 76.6323 38.2469C76.004 39.0322 75.2448 39.7129 74.4071 40.2364C73.5694 40.76 72.627 41.1789 71.606 41.4406C70.585 41.7286 69.5117 41.8595 68.386 41.8595C66.8415 41.8595 65.4279 41.5977 64.1451 41.1003C62.8885 40.6029 61.7891 39.8699 60.8728 38.9799C59.9566 38.0374 59.2497 36.9379 58.7523 35.6552C58.2549 34.3463 57.9932 32.9326 57.9932 31.3619C57.9932 29.8174 58.2288 28.4037 58.7262 27.121C59.2236 25.8121 59.9566 24.7126 60.8466 23.7963C61.789 22.8801 62.8886 22.1733 64.1975 21.6759C65.5064 21.1785 66.9462 20.9167 68.5431 20.9167C70.6112 20.9167 72.4175 21.3617 73.9882 22.2518C75.559 23.1419 76.7893 24.5293 77.7056 26.4142L72.8102 28.4299C72.3652 27.3304 71.7631 26.5712 71.0301 26.1C70.3233 25.6288 69.4855 25.3932 68.5693 25.3932C67.8101 25.3932 67.1033 25.5503 66.475 25.8382C65.8467 26.1262 65.297 26.5189 64.8519 27.0686C64.4069 27.5922 64.0666 28.2467 63.8048 28.9797C63.5692 29.7388 63.4383 30.5766 63.4383 31.4928C63.4383 32.3305 63.543 33.1159 63.7524 33.8227C63.988 34.5295 64.3022 35.1578 64.7472 35.6814C65.1923 36.2049 65.742 36.6238 66.3703 36.9118C67.0248 37.1997 67.7839 37.3306 68.6216 37.3306C69.119 37.3306 69.6164 37.2783 70.0876 37.1735C70.5589 37.0427 70.9777 36.8594 71.3442 36.6238C71.7369 36.362 72.051 36.0217 72.2866 35.629C72.5222 35.2363 72.7055 34.7389 72.784 34.163H68.5431V30.2101ZM104.224 25.6288V41.8595H98.7269V25.6288H94.2766V20.9167H108.675V25.6288H104.224ZM127.785 28.0896C126.581 26.6236 125.115 25.8906 123.361 25.8906C122.576 25.8906 121.869 26.0215 121.188 26.3095C120.534 26.5974 119.984 26.9901 119.487 27.4613C119.015 27.9325 118.623 28.5085 118.361 29.1891C118.099 29.8697 117.968 30.5766 117.968 31.3619C117.968 32.1473 118.099 32.8803 118.361 33.5609C118.649 34.2416 119.015 34.8175 119.487 35.3149C119.984 35.8123 120.56 36.2049 121.214 36.4667C121.869 36.7547 122.576 36.8856 123.335 36.8856C124.984 36.8856 126.476 36.1788 127.785 34.7651V40.8909L127.262 41.0741C126.476 41.3621 125.743 41.5454 125.036 41.6763C124.356 41.8071 123.675 41.8857 122.994 41.8857C121.633 41.8857 120.298 41.6239 119.041 41.1265C117.785 40.6029 116.685 39.8699 115.717 38.9275C114.774 37.9851 113.989 36.8594 113.413 35.5767C112.837 34.2677 112.549 32.8541 112.549 31.3357C112.549 29.8174 112.837 28.4037 113.387 27.1472C113.963 25.8644 114.722 24.7649 115.691 23.8487C116.659 22.9062 117.785 22.1994 119.041 21.6759C120.298 21.1523 121.633 20.8905 123.021 20.8905C123.806 20.8905 124.591 20.969 125.351 21.1523C126.136 21.3094 126.947 21.5711 127.785 21.9115V28.0896ZM138.571 31.3881C138.571 32.1734 138.728 32.9064 139.016 33.5871C139.304 34.2677 139.723 34.8437 140.22 35.341C140.717 35.8384 141.319 36.2311 142 36.4929C142.681 36.7547 143.414 36.8856 144.173 36.8856C144.932 36.8856 145.639 36.7547 146.32 36.4929C147 36.2049 147.602 35.8123 148.126 35.341C148.649 34.8437 149.068 34.2677 149.356 33.5871C149.644 32.9064 149.801 32.1996 149.801 31.3881C149.801 30.5766 149.644 29.8697 149.356 29.1891C149.068 28.5085 148.649 27.9325 148.126 27.4351C147.628 26.9377 147.026 26.5712 146.32 26.3095C145.639 26.0215 144.932 25.8906 144.173 25.8906C143.414 25.8906 142.707 26.0215 142 26.3095C141.319 26.5712 140.743 26.9639 140.22 27.4351C139.723 27.9325 139.304 28.5085 139.016 29.1891C138.728 29.8697 138.571 30.6027 138.571 31.3881ZM133.178 31.3881C133.178 29.9221 133.44 28.5346 133.989 27.2781C134.539 25.9953 135.298 24.8696 136.267 23.9272C137.236 22.9848 138.387 22.2256 139.723 21.702C141.084 21.1523 142.576 20.8905 144.173 20.8905C145.77 20.8905 147.262 21.1523 148.597 21.702C149.958 22.2256 151.11 22.9586 152.079 23.9272C153.074 24.8696 153.833 25.9953 154.382 27.2781C154.932 28.5346 155.194 29.9221 155.194 31.3881C155.194 32.8541 154.932 34.2416 154.382 35.5243C153.833 36.7809 153.074 37.9065 152.079 38.849C151.11 39.7914 149.958 40.5506 148.597 41.1003C147.236 41.6239 145.77 41.8857 144.173 41.8857C142.55 41.8857 141.058 41.6239 139.723 41.1003C138.387 40.5506 137.236 39.8176 136.267 38.849C135.298 37.9065 134.539 36.7809 133.989 35.5243C133.44 34.2416 133.178 32.8803 133.178 31.3881ZM166.006 20.9167V41.8595H160.508V20.9167H166.006ZM89.0409 20.9167V41.8595H83.5434V20.9167H89.0409ZM171.765 41.8595V20.9167H177.001L187.21 33.718V20.9167H192.708V41.8595H187.42L177.263 29.0582V41.8595H171.765Z" fill="white"/>
<path fill-rule="evenodd" clip-rule="evenodd" d="M36.9199 22.1209C38.7524 24.6864 39.721 27.7754 39.6948 30.8907C39.6948 33.9536 38.7001 37.0426 36.9199 39.5296L40.7158 42.4092C43.1242 39.0846 44.4593 35.0007 44.4593 30.8907C44.4855 26.545 43.0457 22.278 40.4278 18.8224L38.255 20.7858L36.9199 22.1209Z" fill="#15EBB7"/>
<path fill-rule="evenodd" clip-rule="evenodd" d="M44.1188 45.0009L31.3436 35.2887C32.2599 34.0844 32.7835 32.6446 32.862 31.1263C32.9144 29.6079 32.5217 28.1419 31.7101 26.8592L37.8359 21.3355L44.2235 15.3406C44.6423 14.9479 44.6685 14.2673 44.2497 13.8484L43.3596 12.9584C38.8045 8.35095 32.6788 5.65456 26.2127 5.44513L26.2388 1.93721C26.265 1.70161 26.2388 1.466 26.1865 1.23039C26.1079 0.994787 26.0032 0.785357 25.8462 0.602107C25.6891 0.418857 25.5058 0.287967 25.2702 0.183253C25.0608 0.0785388 24.8252 0.0261801 24.5896 0.0261801C24.354 0.0261801 24.1184 0.0785388 23.9089 0.183253C23.6995 0.287967 23.4901 0.418857 23.333 0.602107C23.1759 0.785357 23.0451 0.994785 22.9927 1.20421C22.9142 1.43982 22.888 1.67543 22.9403 1.91103L22.9142 5.52367C21.3696 5.68074 19.8513 5.9687 18.3591 6.41374L18.3853 1.91103C18.4115 1.67543 18.3853 1.43982 18.3329 1.20421C18.2544 0.968607 18.1497 0.75918 17.9926 0.575931C17.8355 0.392681 17.6523 0.261787 17.4167 0.157073C17.2072 0.0523586 16.9716 0 16.736 0C16.5004 0 16.2648 0.0523586 16.0554 0.157073C15.846 0.261787 15.6365 0.392681 15.4795 0.575931C15.3224 0.75918 15.1915 0.968605 15.1391 1.17803C15.0606 1.41364 15.0344 1.64925 15.0868 1.88486L15.0082 7.64413C9.74636 10.0002 5.42691 14.084 2.80906 19.215C0.191204 24.346 -0.646507 30.2362 0.505348 35.8908C1.6572 41.5453 4.69391 46.6501 9.11808 50.3413C13.5423 54.0325 19.1183 56.1268 24.8514 56.2315L43.4381 56.31C44.0141 56.31 44.4853 55.8388 44.4853 55.2629V45.8648C44.5114 45.5245 44.3806 45.2103 44.1188 45.0009ZM25.2441 51.7026C20.6628 51.6764 16.2125 50.1319 12.5998 47.3569C8.98719 44.5558 6.39552 40.6029 5.21748 36.1787C4.03945 31.7546 4.37977 27.0424 6.13373 22.8277C7.91387 18.6129 11.0029 15.0788 14.9821 12.7751L14.9559 19.6339C14.9297 19.8695 14.9559 20.1051 15.0082 20.3407C15.0868 20.5763 15.1915 20.7857 15.3486 20.969C15.5056 21.1522 15.6889 21.2831 15.9245 21.3879C16.1339 21.4926 16.3695 21.5449 16.6051 21.5449C16.8407 21.5449 17.0764 21.4926 17.2858 21.3879C17.4952 21.2831 17.7046 21.1522 17.8617 20.969C18.0188 20.7857 18.1497 20.5763 18.202 20.3669C18.2806 20.1313 18.3067 19.8957 18.2544 19.6601L18.2806 11.2568C20.5581 10.4191 22.9927 10.0264 25.4273 10.0264C29.93 10.0264 34.3018 11.5186 37.8621 14.2149C38.1239 14.4244 38.1501 14.7909 37.9145 15.0265L28.176 23.9534C27.286 23.5868 26.3174 23.3774 25.3749 23.3774C24.3016 23.3774 23.2545 23.5869 22.2597 24.0319C21.2649 24.4769 20.401 25.1314 19.7204 25.9429C19.0136 26.7545 18.49 27.7231 18.1759 28.7178C17.8617 29.765 17.7832 30.8383 17.9402 31.8854C18.0973 32.9588 18.4638 33.9797 19.0397 34.8698C19.6157 35.786 20.401 36.5452 21.2649 37.1473C22.1812 37.7233 23.2021 38.1159 24.2493 38.273C25.3226 38.4301 26.3959 38.3515 27.4169 38.0374L39.8517 47.4878C39.9826 47.5926 40.0611 47.7496 40.0611 47.9067L40.0349 51.2314C40.0349 51.5193 39.7993 51.7549 39.5113 51.7549L25.2441 51.7026ZM28.2808 30.8645C28.2808 31.4404 28.0975 32.0163 27.7834 32.5137C27.443 33.0111 26.998 33.3776 26.4483 33.6132C25.8985 33.8488 25.2964 33.9012 24.7467 33.7703C24.1969 33.6394 23.6472 33.3776 23.2283 32.9588C22.8095 32.5399 22.5215 32.0163 22.4168 31.4404C22.3121 30.8645 22.3644 30.2624 22.6 29.7388C22.8356 29.1891 23.2021 28.744 23.6995 28.4037C24.1969 28.0896 24.7728 27.9063 25.3488 27.9063C26.1341 27.9063 26.8933 28.2204 27.4169 28.7964C27.9928 29.3199 28.2808 30.0529 28.2808 30.8645Z" fill="white"/>
</svg>
