<svg width="224" height="54" viewBox="0 0 224 54" fill="none" xmlns="http://www.w3.org/2000/svg">
<path d="M70.3618 36.8974C69.0861 36.8974 67.9015 36.7251 66.8081 36.3804C65.7146 36.0357 64.7933 35.5187 64.044 34.8294C63.2948 34.14 62.7582 33.2783 62.4342 32.2443C62.1305 31.2103 62.09 30.0039 62.3127 28.6252C62.4747 27.7534 62.6469 26.8815 62.8291 26.0097C63.0316 25.1379 63.2341 24.2559 63.4366 23.3638C64.1048 20.6267 65.3096 18.5485 67.0511 17.1292C68.7925 15.71 71.1414 15.0004 74.0978 15.0004C75.3735 15.0004 76.5479 15.1828 77.6211 15.5478C78.7146 15.8925 79.6359 16.4196 80.3851 17.1292C81.1546 17.8389 81.6912 18.7107 81.995 19.7447C82.3189 20.7788 82.3594 21.9851 82.1164 23.3638C81.9747 24.2559 81.8026 25.1379 81.6001 26.0097C81.4179 26.8815 81.2255 27.7534 81.023 28.6252C80.3345 31.4029 79.1196 33.4811 77.3781 34.8598C75.6367 36.2182 73.2979 36.8974 70.3618 36.8974ZM70.7567 32.518C71.8501 32.518 72.8119 32.1936 73.6422 31.5448C74.4724 30.896 75.0596 29.862 75.4038 28.4427C75.6266 27.5506 75.8189 26.7092 75.9809 25.9185C76.1632 25.1278 76.3252 24.3066 76.4669 23.4551C76.7302 22.0358 76.6087 21.0018 76.1024 20.353C75.5962 19.7042 74.7964 19.3798 73.7029 19.3798C72.6095 19.3798 71.6476 19.7042 70.8174 20.353C70.0074 21.0018 69.4303 22.0358 69.0861 23.4551C68.8634 24.3066 68.6609 25.1278 68.4786 25.9185C68.3166 26.7092 68.1546 27.5506 67.9926 28.4427C67.7496 29.862 67.8711 30.896 68.3571 31.5448C68.8431 32.1936 69.6429 32.518 70.7567 32.518ZM85.3335 36.5933C85.131 36.5933 84.969 36.5223 84.8475 36.3804C84.726 36.2385 84.6855 36.056 84.726 35.833L88.9176 16.0648C88.9581 15.8418 89.0694 15.6593 89.2517 15.5174C89.4339 15.3755 89.6263 15.3045 89.8288 15.3045H97.9082C99.1434 15.3045 100.257 15.4464 101.249 15.7303C102.262 16.0141 103.102 16.45 103.77 17.038C104.439 17.626 104.904 18.366 105.168 19.2581C105.431 20.13 105.441 21.1538 105.198 22.3298C104.692 24.6614 103.659 26.3848 102.1 27.4999C100.561 28.6151 98.4853 29.1726 95.8732 29.1726H91.7727L90.3755 35.833C90.335 36.056 90.2236 36.2385 90.0414 36.3804C89.8794 36.5223 89.687 36.5933 89.4643 36.5933H85.3335ZM92.5624 24.9757H96.0554C96.8856 24.9757 97.6247 24.7527 98.2727 24.3066C98.9409 23.8606 99.3763 23.1813 99.5788 22.269C99.68 21.7418 99.7003 21.2755 99.6395 20.87C99.5788 20.4645 99.3661 20.1401 99.0017 19.8968C98.6574 19.6535 98.1208 19.5318 97.3918 19.5318H93.747L92.5624 24.9757ZM110.81 36.5933C110.588 36.5933 110.416 36.5223 110.294 36.3804C110.173 36.2385 110.132 36.056 110.173 35.833L113.544 20.0793H108.138C107.935 20.0793 107.773 20.0083 107.652 19.8664C107.53 19.7042 107.49 19.5217 107.53 19.319L108.229 16.0648C108.269 15.8418 108.37 15.6593 108.532 15.5174C108.715 15.3755 108.917 15.3045 109.14 15.3045H125.481C125.704 15.3045 125.866 15.3755 125.967 15.5174C126.088 15.6593 126.129 15.8418 126.088 16.0648L125.39 19.319C125.349 19.5217 125.238 19.7042 125.056 19.8664C124.894 20.0083 124.701 20.0793 124.479 20.0793H119.072L115.731 35.833C115.69 36.056 115.579 36.2385 115.397 36.3804C115.235 36.5223 115.042 36.5933 114.82 36.5933H110.81ZM126.725 36.5933C126.502 36.5933 126.33 36.5223 126.208 36.3804C126.087 36.2385 126.046 36.056 126.087 35.833L130.309 16.0648C130.349 15.8418 130.461 15.6593 130.643 15.5174C130.825 15.3755 131.018 15.3045 131.22 15.3045H135.321C135.523 15.3045 135.685 15.3755 135.807 15.5174C135.928 15.6593 135.969 15.8418 135.928 16.0648L131.706 35.833C131.666 36.056 131.554 36.2385 131.372 36.3804C131.21 36.5223 131.028 36.5933 130.825 36.5933H126.725ZM139.185 36.5933C138.962 36.5933 138.79 36.5223 138.668 36.3804C138.547 36.2385 138.506 36.056 138.547 35.833L142.738 16.0648C142.779 15.8418 142.89 15.6593 143.073 15.5174C143.255 15.3755 143.457 15.3045 143.68 15.3045H146.96C147.284 15.3045 147.507 15.3957 147.628 15.5782C147.77 15.7404 147.861 15.8722 147.902 15.9736L151.182 25.5839L158.593 15.9736C158.654 15.8722 158.776 15.7404 158.958 15.5782C159.16 15.3957 159.424 15.3045 159.748 15.3045H163.028C163.251 15.3045 163.423 15.3755 163.544 15.5174C163.666 15.6593 163.706 15.8418 163.666 16.0648L159.474 35.833C159.434 36.056 159.322 36.2385 159.14 36.3804C158.958 36.5223 158.755 36.5933 158.533 36.5933H154.888C154.685 36.5933 154.523 36.5223 154.402 36.3804C154.28 36.2385 154.24 36.056 154.28 35.833L156.649 24.6107L152.002 30.7845C151.861 30.9467 151.688 31.1089 151.486 31.2711C151.304 31.413 151.071 31.484 150.787 31.484H149.208C148.924 31.484 148.722 31.413 148.6 31.2711C148.479 31.1292 148.388 30.967 148.327 30.7845L146.171 24.337L143.71 35.833C143.67 36.056 143.559 36.2385 143.376 36.3804C143.214 36.5223 143.032 36.5933 142.83 36.5933H139.185ZM165.978 36.5933C165.756 36.5933 165.584 36.5223 165.462 36.3804C165.341 36.2385 165.3 36.056 165.341 35.833L169.563 16.0648C169.603 15.8418 169.714 15.6593 169.897 15.5174C170.079 15.3755 170.271 15.3045 170.474 15.3045H174.574C174.777 15.3045 174.939 15.3755 175.06 15.5174C175.182 15.6593 175.222 15.8418 175.182 16.0648L170.96 35.833C170.919 36.056 170.808 36.2385 170.626 36.3804C170.464 36.5223 170.281 36.5933 170.079 36.5933H165.978ZM185.181 36.8974C183.157 36.8974 181.496 36.6136 180.2 36.0459C178.924 35.4782 178.003 34.728 177.436 33.7953C176.889 32.8424 176.697 31.8388 176.859 30.7845C176.9 30.6223 176.981 30.4804 177.102 30.3587C177.244 30.2168 177.406 30.1458 177.588 30.1458H181.476C181.759 30.1458 181.962 30.1965 182.083 30.2979C182.205 30.3993 182.326 30.5311 182.448 30.6933C182.529 30.9974 182.691 31.2914 182.934 31.5752C183.177 31.8591 183.511 32.0922 183.936 32.2747C184.382 32.4369 184.928 32.518 185.576 32.518C186.751 32.518 187.692 32.3355 188.401 31.9706C189.11 31.6056 189.525 31.1089 189.646 30.4804C189.768 30.0343 189.687 29.6694 189.403 29.3855C189.14 29.0814 188.664 28.8178 187.976 28.5948C187.308 28.3515 186.407 28.1082 185.273 27.8649C183.794 27.5405 182.579 27.0944 181.628 26.5267C180.676 25.9388 180.008 25.1987 179.623 24.3066C179.259 23.3942 179.208 22.3095 179.471 21.0525C179.876 19.1872 180.878 17.7172 182.478 16.6426C184.078 15.5478 186.153 15.0004 188.705 15.0004C190.021 15.0004 191.185 15.1828 192.198 15.5478C193.23 15.9127 194.091 16.3993 194.78 17.0076C195.468 17.6158 195.964 18.2646 196.268 18.954C196.572 19.6231 196.673 20.282 196.572 20.9308C196.551 21.093 196.47 21.2451 196.329 21.387C196.187 21.5087 196.025 21.5695 195.843 21.5695H191.773C191.57 21.5695 191.388 21.5289 191.226 21.4478C191.084 21.3667 190.963 21.2349 190.861 21.0525C190.861 20.6064 190.628 20.2212 190.163 19.8968C189.697 19.5521 189.079 19.3798 188.31 19.3798C187.439 19.3798 186.71 19.542 186.123 19.8664C185.536 20.1705 185.171 20.647 185.03 21.2958C184.928 21.7013 184.979 22.0561 185.181 22.3602C185.404 22.6643 185.809 22.9279 186.396 23.1509C187.004 23.374 187.834 23.6071 188.887 23.8504C190.669 24.1951 192.066 24.6614 193.079 25.2494C194.091 25.8171 194.769 26.5369 195.114 27.4087C195.478 28.2805 195.529 29.345 195.266 30.602C194.82 32.6701 193.737 34.2414 192.016 35.316C190.315 36.3703 188.037 36.8974 185.181 36.8974ZM199.005 36.5933C198.782 36.5933 198.61 36.5223 198.489 36.3804C198.367 36.2385 198.327 36.056 198.367 35.833L202.559 16.0648C202.599 15.8418 202.71 15.6593 202.893 15.5174C203.075 15.3755 203.277 15.3045 203.5 15.3045H206.781C207.105 15.3045 207.327 15.3957 207.449 15.5782C207.591 15.7404 207.682 15.8722 207.722 15.9736L211.003 25.5839L218.414 15.9736C218.474 15.8722 218.596 15.7404 218.778 15.5782C218.981 15.3957 219.244 15.3045 219.568 15.3045H222.848C223.071 15.3045 223.243 15.3755 223.365 15.5174C223.486 15.6593 223.527 15.8418 223.486 16.0648L219.295 35.833C219.254 36.056 219.143 36.2385 218.96 36.3804C218.778 36.5223 218.576 36.5933 218.353 36.5933H214.708C214.506 36.5933 214.344 36.5223 214.222 36.3804C214.101 36.2385 214.06 36.056 214.101 35.833L216.47 24.6107L211.823 30.7845C211.681 30.9467 211.509 31.1089 211.306 31.2711C211.124 31.413 210.891 31.484 210.608 31.484H209.028C208.745 31.484 208.542 31.413 208.421 31.2711C208.299 31.1292 208.208 30.967 208.147 30.7845L205.991 24.337L203.531 35.833C203.49 36.056 203.379 36.2385 203.196 36.3804C203.034 36.5223 202.852 36.5933 202.65 36.5933H199.005Z" fill="#FF0420"/>
<path d="M26.3007 53.6516C40.8261 53.6516 52.6013 41.7721 52.6013 27.1181C52.6013 12.4641 40.8261 0.584717 26.3007 0.584717C11.7752 0.584717 0 12.4641 0 27.1181C0 41.7721 11.7752 53.6516 26.3007 53.6516Z" fill="white"/>
<path fill-rule="evenodd" clip-rule="evenodd" d="M26.3007 53.6516C40.8261 53.6516 52.6013 41.7721 52.6013 27.1181C52.6013 12.4642 40.8261 0.584717 26.3007 0.584717C11.7752 0.584717 0 12.4642 0 27.1181C0 41.7721 11.7752 53.6516 26.3007 53.6516ZM16.4022 34.4063C17.1217 34.6348 17.9013 34.7491 18.7408 34.7491C20.6731 34.7491 22.2122 34.2988 23.3582 33.3981C24.5041 32.4839 25.3037 31.1059 25.7568 29.2642C25.8901 28.686 26.0166 28.108 26.1366 27.5299C26.2698 26.9518 26.383 26.367 26.4764 25.7755C26.6363 24.8614 26.6097 24.0615 26.3964 23.3759C26.1965 22.6902 25.8434 22.1121 25.337 21.6416C24.8439 21.1711 24.2376 20.8215 23.5181 20.593C22.8118 20.3511 22.0389 20.2301 21.1994 20.2301C19.2539 20.2301 17.708 20.7006 16.5621 21.6416C15.4161 22.5827 14.6232 23.9607 14.1834 25.7755C14.0501 26.367 13.9169 26.9518 13.7837 27.5299C13.6637 28.108 13.5504 28.686 13.4439 29.2642C13.2973 30.1783 13.3239 30.9782 13.5238 31.6638C13.7371 32.3495 14.0901 32.9208 14.5832 33.3779C15.0763 33.835 15.6826 34.1778 16.4022 34.4063ZM20.8996 31.2C20.3532 31.6302 19.7202 31.8453 19.0007 31.8453C18.2677 31.8453 17.7414 31.6302 17.4216 31.2C17.1017 30.7699 17.0218 30.0843 17.1817 29.1432C17.2883 28.5517 17.3949 27.9937 17.5015 27.4694C17.6215 26.9451 17.7547 26.4007 17.9013 25.836C18.1278 24.895 18.5076 24.2093 19.0406 23.7792C19.587 23.349 20.22 23.1339 20.9395 23.1339C21.6591 23.1339 22.1855 23.349 22.5186 23.7792C22.8518 24.2093 22.9318 24.895 22.7585 25.836C22.6652 26.4007 22.5586 26.9451 22.4387 27.4694C22.3321 27.9937 22.2054 28.5517 22.0589 29.1432C21.8324 30.0843 21.4459 30.7699 20.8996 31.2ZM26.9744 34.4063C27.0543 34.5005 27.1609 34.5475 27.2942 34.5475H30.0126C30.1592 34.5475 30.2857 34.5005 30.3924 34.4063C30.5124 34.3122 30.5856 34.1912 30.6123 34.0434L31.5318 29.6271H34.2302C35.9492 29.6271 37.3151 29.2575 38.3279 28.518C39.3539 27.7786 40.0335 26.636 40.3667 25.0899C40.5266 24.3102 40.5199 23.6313 40.3467 23.0532C40.1734 22.4617 39.867 21.971 39.4272 21.5811C38.9875 21.1913 38.4344 20.9022 37.7682 20.714C37.1152 20.5259 36.3822 20.4317 35.5694 20.4317H30.2525C30.1192 20.4317 29.9927 20.4787 29.8727 20.5729C29.7528 20.667 29.6795 20.788 29.6528 20.9358L26.8944 34.0434C26.8677 34.1912 26.8944 34.3122 26.9744 34.4063ZM34.3502 26.8443H32.0515L32.831 23.2347H35.2296C35.7094 23.2347 36.0624 23.3154 36.289 23.4767C36.5289 23.638 36.6688 23.8531 36.7088 24.122C36.7488 24.3908 36.7354 24.7001 36.6688 25.0496C36.5355 25.6546 36.2491 26.1049 35.8093 26.4007C35.3828 26.6965 34.8965 26.8443 34.3502 26.8443Z" fill="#FF0420"/>
</svg>
