<svg width="224" height="53" viewBox="0 0 224 53" fill="none" xmlns="http://www.w3.org/2000/svg">
<path d="M70.3618 35.8974C69.0861 35.8974 67.9015 35.7251 66.8081 35.3804C65.7146 35.0357 64.7933 34.5187 64.044 33.8294C63.2948 33.14 62.7582 32.2783 62.4342 31.2443C62.1305 30.2103 62.09 29.0039 62.3127 27.6252C62.4747 26.7534 62.6469 25.8815 62.8291 25.0097C63.0316 24.1379 63.2341 23.2559 63.4366 22.3638C64.1048 19.6267 65.3096 17.5485 67.0511 16.1292C68.7925 14.71 71.1414 14.0004 74.0978 14.0004C75.3735 14.0004 76.5479 14.1828 77.6211 14.5478C78.7146 14.8925 79.6359 15.4196 80.3851 16.1292C81.1546 16.8389 81.6912 17.7107 81.995 18.7447C82.3189 19.7788 82.3594 20.9851 82.1164 22.3638C81.9747 23.2559 81.8026 24.1379 81.6001 25.0097C81.4179 25.8815 81.2255 26.7534 81.023 27.6252C80.3345 30.4029 79.1196 32.4811 77.3781 33.8598C75.6367 35.2182 73.2979 35.8974 70.3618 35.8974ZM70.7567 31.518C71.8501 31.518 72.8119 31.1936 73.6422 30.5448C74.4724 29.896 75.0596 28.862 75.4038 27.4427C75.6266 26.5506 75.8189 25.7092 75.9809 24.9185C76.1632 24.1278 76.3252 23.3066 76.4669 22.4551C76.7302 21.0358 76.6087 20.0018 76.1024 19.353C75.5962 18.7042 74.7964 18.3798 73.7029 18.3798C72.6095 18.3798 71.6476 18.7042 70.8174 19.353C70.0074 20.0018 69.4303 21.0358 69.0861 22.4551C68.8634 23.3066 68.6609 24.1278 68.4786 24.9185C68.3166 25.7092 68.1546 26.5506 67.9926 27.4427C67.7496 28.862 67.8711 29.896 68.3571 30.5448C68.8431 31.1936 69.6429 31.518 70.7567 31.518ZM85.3335 35.5933C85.131 35.5933 84.969 35.5223 84.8475 35.3804C84.726 35.2385 84.6855 35.056 84.726 34.833L88.9176 15.0648C88.9581 14.8418 89.0694 14.6593 89.2517 14.5174C89.4339 14.3755 89.6263 14.3045 89.8288 14.3045H97.9082C99.1434 14.3045 100.257 14.4464 101.249 14.7303C102.262 15.0141 103.102 15.45 103.77 16.038C104.439 16.626 104.904 17.366 105.168 18.2581C105.431 19.13 105.441 20.1538 105.198 21.3298C104.692 23.6614 103.659 25.3848 102.1 26.4999C100.561 27.6151 98.4853 28.1726 95.8732 28.1726H91.7727L90.3755 34.833C90.335 35.056 90.2236 35.2385 90.0414 35.3804C89.8794 35.5223 89.687 35.5933 89.4643 35.5933H85.3335ZM92.5624 23.9757H96.0554C96.8856 23.9757 97.6247 23.7527 98.2727 23.3066C98.9409 22.8606 99.3763 22.1813 99.5788 21.269C99.68 20.7418 99.7003 20.2755 99.6395 19.87C99.5788 19.4645 99.3661 19.1401 99.0017 18.8968C98.6574 18.6535 98.1208 18.5318 97.3918 18.5318H93.747L92.5624 23.9757ZM110.81 35.5933C110.588 35.5933 110.416 35.5223 110.294 35.3804C110.173 35.2385 110.132 35.056 110.173 34.833L113.544 19.0793H108.138C107.935 19.0793 107.773 19.0083 107.652 18.8664C107.53 18.7042 107.49 18.5217 107.53 18.319L108.229 15.0648C108.269 14.8418 108.37 14.6593 108.532 14.5174C108.715 14.3755 108.917 14.3045 109.14 14.3045H125.481C125.704 14.3045 125.866 14.3755 125.967 14.5174C126.088 14.6593 126.129 14.8418 126.088 15.0648L125.39 18.319C125.349 18.5217 125.238 18.7042 125.056 18.8664C124.894 19.0083 124.701 19.0793 124.479 19.0793H119.072L115.731 34.833C115.69 35.056 115.579 35.2385 115.397 35.3804C115.235 35.5223 115.042 35.5933 114.82 35.5933H110.81ZM126.725 35.5933C126.502 35.5933 126.33 35.5223 126.208 35.3804C126.087 35.2385 126.046 35.056 126.087 34.833L130.309 15.0648C130.349 14.8418 130.461 14.6593 130.643 14.5174C130.825 14.3755 131.018 14.3045 131.22 14.3045H135.321C135.523 14.3045 135.685 14.3755 135.807 14.5174C135.928 14.6593 135.969 14.8418 135.928 15.0648L131.706 34.833C131.666 35.056 131.554 35.2385 131.372 35.3804C131.21 35.5223 131.028 35.5933 130.825 35.5933H126.725ZM139.185 35.5933C138.962 35.5933 138.79 35.5223 138.668 35.3804C138.547 35.2385 138.506 35.056 138.547 34.833L142.738 15.0648C142.779 14.8418 142.89 14.6593 143.073 14.5174C143.255 14.3755 143.457 14.3045 143.68 14.3045H146.96C147.284 14.3045 147.507 14.3957 147.628 14.5782C147.77 14.7404 147.861 14.8722 147.902 14.9736L151.182 24.5839L158.593 14.9736C158.654 14.8722 158.776 14.7404 158.958 14.5782C159.16 14.3957 159.424 14.3045 159.748 14.3045H163.028C163.251 14.3045 163.423 14.3755 163.544 14.5174C163.666 14.6593 163.706 14.8418 163.666 15.0648L159.474 34.833C159.434 35.056 159.322 35.2385 159.14 35.3804C158.958 35.5223 158.755 35.5933 158.533 35.5933H154.888C154.685 35.5933 154.523 35.5223 154.402 35.3804C154.28 35.2385 154.24 35.056 154.28 34.833L156.649 23.6107L152.002 29.7845C151.861 29.9467 151.688 30.1089 151.486 30.2711C151.304 30.413 151.071 30.484 150.787 30.484H149.208C148.924 30.484 148.722 30.413 148.6 30.2711C148.479 30.1292 148.388 29.967 148.327 29.7845L146.171 23.337L143.71 34.833C143.67 35.056 143.559 35.2385 143.376 35.3804C143.214 35.5223 143.032 35.5933 142.83 35.5933H139.185ZM165.978 35.5933C165.756 35.5933 165.584 35.5223 165.462 35.3804C165.341 35.2385 165.3 35.056 165.341 34.833L169.563 15.0648C169.603 14.8418 169.714 14.6593 169.897 14.5174C170.079 14.3755 170.271 14.3045 170.474 14.3045H174.574C174.777 14.3045 174.939 14.3755 175.06 14.5174C175.182 14.6593 175.222 14.8418 175.182 15.0648L170.96 34.833C170.919 35.056 170.808 35.2385 170.626 35.3804C170.464 35.5223 170.281 35.5933 170.079 35.5933H165.978ZM185.181 35.8974C183.157 35.8974 181.496 35.6136 180.2 35.0459C178.924 34.4782 178.003 33.728 177.436 32.7953C176.889 31.8424 176.697 30.8388 176.859 29.7845C176.9 29.6223 176.981 29.4804 177.102 29.3587C177.244 29.2168 177.406 29.1458 177.588 29.1458H181.476C181.759 29.1458 181.962 29.1965 182.083 29.2979C182.205 29.3993 182.326 29.5311 182.448 29.6933C182.529 29.9974 182.691 30.2914 182.934 30.5752C183.177 30.8591 183.511 31.0922 183.936 31.2747C184.382 31.4369 184.928 31.518 185.576 31.518C186.751 31.518 187.692 31.3355 188.401 30.9706C189.11 30.6056 189.525 30.1089 189.646 29.4804C189.768 29.0343 189.687 28.6694 189.403 28.3855C189.14 28.0814 188.664 27.8178 187.976 27.5948C187.308 27.3515 186.407 27.1082 185.273 26.8649C183.794 26.5405 182.579 26.0944 181.628 25.5267C180.676 24.9388 180.008 24.1987 179.623 23.3066C179.259 22.3942 179.208 21.3095 179.471 20.0525C179.876 18.1872 180.878 16.7172 182.478 15.6426C184.078 14.5478 186.153 14.0004 188.705 14.0004C190.021 14.0004 191.185 14.1828 192.198 14.5478C193.23 14.9127 194.091 15.3993 194.78 16.0076C195.468 16.6158 195.964 17.2646 196.268 17.954C196.572 18.6231 196.673 19.282 196.572 19.9308C196.551 20.093 196.47 20.2451 196.329 20.387C196.187 20.5087 196.025 20.5695 195.843 20.5695H191.773C191.57 20.5695 191.388 20.5289 191.226 20.4478C191.084 20.3667 190.963 20.2349 190.861 20.0525C190.861 19.6064 190.628 19.2212 190.163 18.8968C189.697 18.5521 189.079 18.3798 188.31 18.3798C187.439 18.3798 186.71 18.542 186.123 18.8664C185.536 19.1705 185.171 19.647 185.03 20.2958C184.928 20.7013 184.979 21.0561 185.181 21.3602C185.404 21.6643 185.809 21.9279 186.396 22.1509C187.004 22.374 187.834 22.6071 188.887 22.8504C190.669 23.1951 192.066 23.6614 193.079 24.2494C194.091 24.8171 194.769 25.5369 195.114 26.4087C195.478 27.2805 195.529 28.345 195.266 29.602C194.82 31.6701 193.737 33.2414 192.016 34.316C190.315 35.3703 188.037 35.8974 185.181 35.8974ZM199.005 35.5933C198.782 35.5933 198.61 35.5223 198.489 35.3804C198.367 35.2385 198.327 35.056 198.367 34.833L202.559 15.0648C202.599 14.8418 202.71 14.6593 202.893 14.5174C203.075 14.3755 203.277 14.3045 203.5 14.3045H206.781C207.105 14.3045 207.327 14.3957 207.449 14.5782C207.591 14.7404 207.682 14.8722 207.722 14.9736L211.003 24.5839L218.414 14.9736C218.474 14.8722 218.596 14.7404 218.778 14.5782C218.981 14.3957 219.244 14.3045 219.568 14.3045H222.848C223.071 14.3045 223.243 14.3755 223.365 14.5174C223.486 14.6593 223.527 14.8418 223.486 15.0648L219.295 34.833C219.254 35.056 219.143 35.2385 218.96 35.3804C218.778 35.5223 218.576 35.5933 218.353 35.5933H214.708C214.506 35.5933 214.344 35.5223 214.222 35.3804C214.101 35.2385 214.06 35.056 214.101 34.833L216.47 23.6107L211.823 29.7845C211.681 29.9467 211.509 30.1089 211.306 30.2711C211.124 30.413 210.891 30.484 210.608 30.484H209.028C208.745 30.484 208.542 30.413 208.421 30.2711C208.299 30.1292 208.208 29.967 208.147 29.7845L205.991 23.337L203.531 34.833C203.49 35.056 203.379 35.2385 203.196 35.3804C203.034 35.5223 202.852 35.5933 202.65 35.5933H199.005Z" fill="#FF0420"/>
<g clip-path="url(#clip0_5033_4271)">
<path d="M26.5 53C41.1355 53 53 41.1355 53 26.5C53 11.8645 41.1355 0 26.5 0C11.8645 0 0 11.8645 0 26.5C0 41.1355 11.8645 53 26.5 53Z" fill="#FF0420"/>
<path d="M18.7759 33.5433C17.198 33.5433 15.9052 33.172 14.8975 32.4294C13.903 31.6736 13.4058 30.5996 13.4058 29.2073C13.4058 28.9156 13.4389 28.5576 13.5052 28.1332C13.6777 27.1786 13.9229 26.0316 14.2411 24.6924C15.1428 21.046 17.4699 19.2228 21.2224 19.2228C22.2434 19.2228 23.1583 19.3951 23.9672 19.7398C24.7761 20.0713 25.4125 20.5752 25.8766 21.2515C26.3406 21.9144 26.5728 22.7101 26.5728 23.6382C26.5728 23.9167 26.5396 24.2681 26.4732 24.6924C26.2744 25.8725 26.0357 27.0195 25.7572 28.1332C25.2931 29.9499 24.4909 31.309 23.3506 32.2106C22.2102 33.099 20.6854 33.5433 18.7759 33.5433ZM19.0544 30.6792C19.797 30.6792 20.4268 30.4604 20.944 30.0228C21.4744 29.5852 21.8523 28.9156 22.0776 28.014C22.3826 26.7675 22.6147 25.6802 22.7738 24.7521C22.8268 24.4736 22.8533 24.1886 22.8533 23.8967C22.8533 22.6901 22.2235 22.0868 20.9639 22.0868C20.2212 22.0868 19.5848 22.3056 19.0544 22.7431C18.5373 23.1808 18.166 23.8504 17.9407 24.7521C17.7019 25.6404 17.4632 26.7278 17.2246 28.014C17.1715 28.2791 17.145 28.5576 17.145 28.8493C17.145 30.0692 17.7815 30.6792 19.0544 30.6792Z" fill="white"/>
<path d="M27.4863 33.3444C27.3405 33.3444 27.2277 33.298 27.1482 33.2051C27.0818 33.099 27.062 32.9798 27.0885 32.8472L29.8333 19.9189C29.8598 19.773 29.9327 19.6537 30.0521 19.5608C30.1714 19.4681 30.2973 19.4216 30.43 19.4216H35.7206C37.1924 19.4216 38.3725 19.7266 39.2609 20.3365C40.1627 20.9465 40.6135 21.8283 40.6135 22.9819C40.6135 23.3133 40.5737 23.6581 40.4941 24.0161C40.1627 25.541 39.4931 26.6681 38.4853 27.3974C37.4908 28.1267 36.125 28.4913 34.388 28.4913H31.7029L30.788 32.8472C30.7614 32.993 30.6885 33.1123 30.5692 33.2051C30.4499 33.298 30.3238 33.3444 30.1913 33.3444H27.4863ZM34.5273 25.7465C35.0841 25.7465 35.5681 25.594 35.9792 25.289C36.4035 24.9841 36.6819 24.5465 36.8145 23.9763C36.8543 23.7509 36.8742 23.552 36.8742 23.3797C36.8742 22.9951 36.7615 22.7034 36.5361 22.5045C36.3106 22.2923 35.9262 22.1863 35.3825 22.1863H32.9957L32.2399 25.7465H34.5273Z" fill="white"/>
</g>
<defs>
<clipPath id="clip0_5033_4271">
<rect width="53" height="53" fill="white"/>
</clipPath>
</defs>
</svg>
