<?xml version="1.0" encoding="UTF-8"?><svg xmlns="http://www.w3.org/2000/svg" xmlns:xlink="http://www.w3.org/1999/xlink" viewBox="0 0 1024 1024"><defs><style>.cls-1{fill:url(#GlassPanel_6-9);}.cls-1,.cls-2,.cls-3,.cls-4,.cls-5,.cls-6,.cls-7,.cls-8,.cls-9,.cls-10,.cls-11{opacity:.7;}.cls-12{filter:url(#luminosity-noclip-11);}.cls-13{fill:url(#linear-gradient-2);}.cls-14{mask:url(#mask-10);}.cls-15{fill:#ffe69f;}.cls-16{filter:url(#luminosity-noclip-7);}.cls-2{fill:url(#GlassPanel_6-4);}.cls-17{fill:url(#GlassPanel-3);filter:url(#outer-glow-5);}.cls-17,.cls-18,.cls-19,.cls-20,.cls-21,.cls-22,.cls-23,.cls-24,.cls-25,.cls-26,.cls-27{stroke:#b68bcc;stroke-miterlimit:54.61;stroke-width:2.79px;}.cls-3{fill:url(#GlassPanel_6-6);}.cls-28{stroke-linecap:round;}.cls-28,.cls-29{fill:none;stroke:#ffe69f;stroke-miterlimit:10;stroke-width:6.84px;}.cls-30{filter:url(#luminosity-noclip-5);}.cls-31{mask:url(#mask-2);}.cls-32{fill:url(#linear-gradient-6);}.cls-4{fill:url(#GlassPanel_6-5);}.cls-18{fill:url(#GlassPanel-9);filter:url(#outer-glow-11);}.cls-33{mask:url(#mask-3);}.cls-19{fill:url(#GlassPanel);filter:url(#outer-glow-3);}.cls-5{fill:url(#GlassPanel_6-2);}.cls-34{fill:url(#linear-gradient-11);}.cls-6{fill:url(#GlassPanel_6-8);}.cls-35{filter:url(#outer-glow-1);}.cls-36{mask:url(#mask-9);}.cls-37{opacity:.8;}.cls-38{fill:url(#linear-gradient-10);}.cls-39{mask:url(#mask-5);}.cls-7{fill:url(#GlassPanel_6-10);}.cls-20{fill:url(#GlassPanel-8);filter:url(#outer-glow-10);}.cls-21{fill:url(#GlassPanel-11);filter:url(#outer-glow-13);}.cls-40{opacity:.3;}.cls-41{filter:url(#luminosity-noclip-12);}.cls-42{filter:url(#luminosity-noclip-9);}.cls-22{fill:url(#GlassPanel-10);filter:url(#outer-glow-12);}.cls-43{filter:url(#luminosity-noclip-4);}.cls-8{fill:url(#GlassPanel_6);}.cls-44{filter:url(#luminosity-noclip-8);}.cls-45{mask:url(#mask-8);}.cls-46{filter:url(#luminosity-noclip-6);}.cls-47{mask:url(#mask-4);}.cls-48{fill:url(#linear-gradient-5);}.cls-9{fill:url(#GlassPanel_6-3);}.cls-49{opacity:0;}.cls-23{fill:url(#GlassPanel-5);filter:url(#outer-glow-7);}.cls-24{fill:url(#GlassPanel-6);filter:url(#outer-glow-8);}.cls-10{fill:url(#GlassPanel_6-7);}.cls-29{stroke-linecap:square;}.cls-50{mask:url(#mask-6);}.cls-51{fill:url(#linear-gradient-7);}.cls-25{fill:url(#GlassPanel-4);filter:url(#outer-glow-6);}.cls-11{fill:url(#GlassPanel_6-11);}.cls-52{fill:url(#linear-gradient-9);}.cls-53{filter:url(#luminosity-noclip-2);}.cls-54{mask:url(#mask-1);}.cls-55{mask:url(#mask);}.cls-56{fill:url(#linear-gradient-3);}.cls-26{fill:url(#GlassPanel-7);filter:url(#outer-glow-9);}.cls-57{fill:url(#linear-gradient);}.cls-58{mask:url(#mask-7);}.cls-59{fill:url(#linear-gradient-4);}.cls-60{filter:url(#outer-glow-2);}.cls-61{fill:url(#linear-gradient-8);}.cls-27{fill:url(#GlassPanel-2);filter:url(#outer-glow-4);}.cls-62{filter:url(#luminosity-noclip-3);}.cls-63{filter:url(#luminosity-noclip-10);}.cls-64{fill:url(#linear-gradient-12);}.cls-65{fill:url(#linear-gradient-13);}</style><filter id="outer-glow-1" filterUnits="userSpaceOnUse"><feOffset dx="0" dy="0"/><feGaussianBlur result="blur" stdDeviation="4.98"/><feFlood flood-color="#ff4545" flood-opacity="1"/><feComposite in2="blur" operator="in"/><feComposite in="SourceGraphic"/></filter><linearGradient id="linear-gradient" x1="179.04" y1="450.49" x2="179.04" y2="556.95" gradientTransform="translate(-81.69)" gradientUnits="userSpaceOnUse"><stop offset="0" stop-color="#fffab8"/><stop offset="1" stop-color="#ffbd6b"/></linearGradient><filter id="outer-glow-2" filterUnits="userSpaceOnUse"><feOffset dx="0" dy="0"/><feGaussianBlur result="blur-2" stdDeviation="3.97"/><feFlood flood-color="#ff4545" flood-opacity="1"/><feComposite in2="blur-2" operator="in"/><feComposite in="SourceGraphic"/></filter><linearGradient id="linear-gradient-2" x1="924.81" y1="662.04" x2="924.81" y2="552.51" gradientTransform="translate(0 -104.82)" gradientUnits="userSpaceOnUse"><stop offset="0" stop-color="#ffbd6b"/><stop offset="1" stop-color="#fffab8"/></linearGradient><filter id="luminosity-noclip-2" x="484.61" y="521.67" width="259.81" height="184.7" color-interpolation-filters="sRGB" filterUnits="userSpaceOnUse"><feFlood flood-color="#fff" result="bg"/><feBlend in="SourceGraphic" in2="bg"/></filter><linearGradient id="linear-gradient-3" x1="1503.42" y1="740.11" x2="1503.42" y2="1108.9" gradientTransform="translate(-778.95 266.03) scale(.93 .38)" gradientUnits="userSpaceOnUse"><stop offset="0" stop-color="#000"/><stop offset="1" stop-color="#fff"/></linearGradient><mask id="mask" x="484.61" y="521.67" width="259.81" height="184.7" maskUnits="userSpaceOnUse"><g class="cls-53"><rect class="cls-56" x="496.83" y="546.56" width="235.38" height="134.92" transform="translate(1352.09 1072.98) rotate(166.92)"/></g></mask><linearGradient id="GlassPanel" x1="629.58" y1="579.94" x2="629.58" y2="628.05" gradientTransform="translate(-11.42)" gradientUnits="userSpaceOnUse"><stop offset="0" stop-color="#9d79b3"/><stop offset="1" stop-color="#5c5396"/></linearGradient><filter id="outer-glow-3" filterUnits="userSpaceOnUse"><feOffset dx="0" dy="0"/><feGaussianBlur result="blur-3" stdDeviation="3.13"/><feFlood flood-color="#6636c6" flood-opacity="1"/><feComposite in2="blur-3" operator="in"/><feComposite in="SourceGraphic"/></filter><linearGradient id="GlassPanel_6" x1="91.83" y1="357.54" x2="91.83" y2="313.15" gradientTransform="translate(525.85 268.11)" gradientUnits="userSpaceOnUse"><stop offset="0" stop-color="#f099ff"/><stop offset="1" stop-color="#605ee0"/></linearGradient><filter id="luminosity-noclip-3" x="268.29" y="521.67" width="259.81" height="184.7" color-interpolation-filters="sRGB" filterUnits="userSpaceOnUse"><feFlood flood-color="#fff" result="bg"/><feBlend in="SourceGraphic" in2="bg"/></filter><linearGradient id="linear-gradient-4" x1="1730.76" y1="870.13" x2="1730.76" y2="1238.92" gradientTransform="translate(-1205.98 217.06) scale(.93 .38)" xlink:href="#linear-gradient-3"/><mask id="mask-1" x="268.29" y="521.67" width="259.81" height="184.7" maskUnits="userSpaceOnUse"><g class="cls-62"><rect class="cls-59" x="280.5" y="546.56" width="235.38" height="134.92" transform="translate(925.05 1121.95) rotate(166.92)"/></g></mask><linearGradient id="GlassPanel-2" x1="413.26" x2="413.26" xlink:href="#GlassPanel"/><filter id="outer-glow-4" filterUnits="userSpaceOnUse"><feOffset dx="0" dy="0"/><feGaussianBlur result="blur-4" stdDeviation="3.13"/><feFlood flood-color="#6636c6" flood-opacity="1"/><feComposite in2="blur-4" operator="in"/><feComposite in="SourceGraphic"/></filter><linearGradient id="GlassPanel_6-2" x1="308.15" x2="308.15" gradientTransform="translate(93.2 268.11)" xlink:href="#GlassPanel_6"/><filter id="luminosity-noclip-4" x="562.02" y="398.62" width="190.06" height="162.45" color-interpolation-filters="sRGB" filterUnits="userSpaceOnUse"><feFlood flood-color="#fff" result="bg"/><feBlend in="SourceGraphic" in2="bg"/></filter><linearGradient id="linear-gradient-5" x1="940.5" y1="1021.65" x2="940.5" y2="1390.44" gradientTransform="translate(44.92 47.88) scale(.65 .36)" xlink:href="#linear-gradient-3"/><mask id="mask-2" x="562.02" y="398.62" width="190.06" height="162.45" maskUnits="userSpaceOnUse"><g class="cls-43"><rect class="cls-48" x="574.4" y="415.67" width="165.29" height="128.36" transform="translate(1405.67 798.49) rotate(166.92)"/></g></mask><linearGradient id="GlassPanel-3" x1="665.24" y1="447.78" x2="665.24" y2="495.9" xlink:href="#GlassPanel"/><filter id="outer-glow-5" filterUnits="userSpaceOnUse"><feOffset dx="0" dy="0"/><feGaussianBlur result="blur-5" stdDeviation="3.13"/><feFlood flood-color="#6636c6" flood-opacity="1"/><feComposite in2="blur-5" operator="in"/><feComposite in="SourceGraphic"/></filter><linearGradient id="GlassPanel_6-3" x1="56.17" y1="489.7" x2="56.17" y2="445.3" gradientTransform="translate(597.17 3.8)" xlink:href="#GlassPanel_6"/><filter id="luminosity-noclip-5" x="273.89" y="398.62" width="190.06" height="162.45" color-interpolation-filters="sRGB" filterUnits="userSpaceOnUse"><feFlood flood-color="#fff" result="bg"/><feBlend in="SourceGraphic" in2="bg"/></filter><linearGradient id="linear-gradient-6" x1="1371.7" y1="1203.68" x2="1371.7" y2="1572.47" gradientTransform="translate(-523.86 -17.35) scale(.65 .36)" xlink:href="#linear-gradient-3"/><mask id="mask-3" x="273.89" y="398.62" width="190.06" height="162.45" maskUnits="userSpaceOnUse"><g class="cls-30"><rect class="cls-32" x="286.27" y="415.67" width="165.29" height="128.36" transform="translate(836.89 863.71) rotate(166.92)"/></g></mask><linearGradient id="GlassPanel-4" x1="377.11" y1="447.78" x2="377.11" y2="495.9" xlink:href="#GlassPanel"/><filter id="outer-glow-6" filterUnits="userSpaceOnUse"><feOffset dx="0" dy="0"/><feGaussianBlur result="blur-6" stdDeviation="3.13"/><feFlood flood-color="#6636c6" flood-opacity="1"/><feComposite in2="blur-6" operator="in"/><feComposite in="SourceGraphic"/></filter><linearGradient id="GlassPanel_6-4" x1="344.3" y1="489.7" x2="344.3" y2="445.3" gradientTransform="translate(20.91 3.8)" xlink:href="#GlassPanel_6"/><filter id="luminosity-noclip-6" x="417.71" y="398.62" width="190.06" height="162.45" color-interpolation-filters="sRGB" filterUnits="userSpaceOnUse"><feFlood flood-color="#fff" result="bg"/><feBlend in="SourceGraphic" in2="bg"/></filter><linearGradient id="linear-gradient-7" x1="1156.46" y1="1112.82" x2="1156.46" y2="1481.61" gradientTransform="translate(-239.95 15.21) scale(.65 .36)" xlink:href="#linear-gradient-3"/><mask id="mask-4" x="417.71" y="398.62" width="190.06" height="162.45" maskUnits="userSpaceOnUse"><g class="cls-46"><rect class="cls-51" x="430.09" y="415.67" width="165.29" height="128.36" transform="translate(1120.8 831.16) rotate(166.92)"/></g></mask><linearGradient id="GlassPanel-5" x1="520.93" y1="447.78" x2="520.93" y2="495.9" xlink:href="#GlassPanel"/><filter id="outer-glow-7" filterUnits="userSpaceOnUse"><feOffset dx="0" dy="0"/><feGaussianBlur result="blur-7" stdDeviation="3.13"/><feFlood flood-color="#6636c6" flood-opacity="1"/><feComposite in2="blur-7" operator="in"/><feComposite in="SourceGraphic"/></filter><linearGradient id="GlassPanel_6-5" x1="200.48" y1="489.7" x2="200.48" y2="445.3" gradientTransform="translate(308.55 3.8)" xlink:href="#GlassPanel_6"/><filter id="luminosity-noclip-7" x="378.95" y="455.59" width="259.81" height="184.7" color-interpolation-filters="sRGB" filterUnits="userSpaceOnUse"><feFlood flood-color="#fff" result="bg"/><feBlend in="SourceGraphic" in2="bg"/></filter><linearGradient id="linear-gradient-8" x1="1598.32" y1="974.49" x2="1598.32" y2="1343.28" gradientTransform="translate(-972.57 111.67) scale(.93 .38)" xlink:href="#linear-gradient-3"/><mask id="mask-5" x="378.95" y="455.59" width="259.81" height="184.7" maskUnits="userSpaceOnUse"><g class="cls-16"><rect class="cls-61" x="391.16" y="480.48" width="235.38" height="134.92" transform="translate(1128.54 966.46) rotate(166.92)"/></g></mask><linearGradient id="GlassPanel-6" x1="521.42" y1="513.86" x2="521.42" y2="561.97" xlink:href="#GlassPanel"/><filter id="outer-glow-8" filterUnits="userSpaceOnUse"><feOffset dx="0" dy="0"/><feGaussianBlur result="blur-8" stdDeviation="3.13"/><feFlood flood-color="#6636c6" flood-opacity="1"/><feComposite in2="blur-8" operator="in"/><feComposite in="SourceGraphic"/></filter><linearGradient id="GlassPanel_6-6" x1="199.99" y1="423.62" x2="199.99" y2="379.22" gradientTransform="translate(309.52 135.95)" xlink:href="#GlassPanel_6"/><filter id="luminosity-noclip-8" x="484.12" y="323.43" width="259.81" height="184.7" color-interpolation-filters="sRGB" filterUnits="userSpaceOnUse"><feFlood flood-color="#fff" result="bg"/><feBlend in="SourceGraphic" in2="bg"/></filter><linearGradient id="linear-gradient-9" x1="1455.51" y1="1253.02" x2="1455.51" y2="1621.81" gradientTransform="translate(-735.03 -125.4) scale(.93 .38)" xlink:href="#linear-gradient-3"/><mask id="mask-6" x="484.12" y="323.43" width="259.81" height="184.7" maskUnits="userSpaceOnUse"><g class="cls-44"><rect class="cls-52" x="496.34" y="348.33" width="235.38" height="134.92" transform="translate(1306.25 681.77) rotate(166.92)"/></g></mask><linearGradient id="GlassPanel-7" x1="626.6" y1="381.71" x2="626.6" y2="429.82" xlink:href="#GlassPanel"/><filter id="outer-glow-9" filterUnits="userSpaceOnUse"><feOffset dx="0" dy="0"/><feGaussianBlur result="blur-9" stdDeviation="3.13"/><feFlood flood-color="#6636c6" flood-opacity="1"/><feComposite in2="blur-9" operator="in"/><feComposite in="SourceGraphic"/></filter><linearGradient id="GlassPanel_6-7" x1="94.81" y1="555.77" x2="94.81" y2="511.38" gradientTransform="translate(519.88 -128.36)" xlink:href="#GlassPanel_6"/><filter id="luminosity-noclip-9" x="270.16" y="477.12" width="162.58" height="144.06" color-interpolation-filters="sRGB" filterUnits="userSpaceOnUse"><feFlood flood-color="#fff" result="bg"/><feBlend in="SourceGraphic" in2="bg"/></filter><linearGradient id="linear-gradient-10" x1="981.55" y1="933.62" x2="981.55" y2="1302.41" gradientTransform="translate(-190.08 189.36) scale(.55 .32)" xlink:href="#linear-gradient-3"/><mask id="mask-7" x="270.16" y="477.12" width="162.58" height="144.06" maskUnits="userSpaceOnUse"><g class="cls-42"><rect class="cls-38" x="281.4" y="491.48" width="140.11" height="115.34" transform="translate(818.11 1004.48) rotate(166.92)"/></g></mask><linearGradient id="GlassPanel-8" x1="358.38" y1="513.86" x2="358.38" y2="561.97" xlink:href="#GlassPanel"/><filter id="outer-glow-10" filterUnits="userSpaceOnUse"><feOffset dx="0" dy="0"/><feGaussianBlur result="blur-10" stdDeviation="3.13"/><feFlood flood-color="#6636c6" flood-opacity="1"/><feComposite in2="blur-10" operator="in"/><feComposite in="SourceGraphic"/></filter><linearGradient id="GlassPanel_6-8" x1="363.04" y1="423.62" x2="363.04" y2="379.22" gradientTransform="translate(-16.57 135.95)" xlink:href="#GlassPanel_6"/><filter id="luminosity-noclip-10" x="596.25" y="477.12" width="162.58" height="144.06" color-interpolation-filters="sRGB" filterUnits="userSpaceOnUse"><feFlood flood-color="#fff" result="bg"/><feBlend in="SourceGraphic" in2="bg"/></filter><linearGradient id="linear-gradient-11" x1="405.85" y1="704.35" x2="405.85" y2="1073.14" gradientTransform="translate(453.63 263.18) scale(.55 .32)" xlink:href="#linear-gradient-3"/><mask id="mask-8" x="596.25" y="477.12" width="162.58" height="144.06" maskUnits="userSpaceOnUse"><g class="cls-63"><rect class="cls-34" x="607.49" y="491.48" width="140.11" height="115.34" transform="translate(1461.82 930.66) rotate(166.92)"/></g></mask><linearGradient id="GlassPanel-9" x1="684.46" y1="513.86" x2="684.46" y2="561.97" xlink:href="#GlassPanel"/><filter id="outer-glow-11" filterUnits="userSpaceOnUse"><feOffset dx="0" dy="0"/><feGaussianBlur result="blur-11" stdDeviation="3.13"/><feFlood flood-color="#6636c6" flood-opacity="1"/><feComposite in2="blur-11" operator="in"/><feComposite in="SourceGraphic"/></filter><linearGradient id="GlassPanel_6-9" x1="36.95" y1="423.62" x2="36.95" y2="379.22" gradientTransform="translate(635.61 135.95)" xlink:href="#GlassPanel_6"/><filter id="luminosity-noclip-11" x="375.34" y="344.97" width="162.58" height="144.06" color-interpolation-filters="sRGB" filterUnits="userSpaceOnUse"><feFlood flood-color="#fff" result="bg"/><feBlend in="SourceGraphic" in2="bg"/></filter><linearGradient id="linear-gradient-12" x1="741.63" y1="1259.43" x2="741.63" y2="1628.22" gradientTransform="translate(47.47 -47.71) scale(.55 .32)" xlink:href="#linear-gradient-3"/><mask id="mask-9" x="375.34" y="344.97" width="162.58" height="144.06" maskUnits="userSpaceOnUse"><g class="cls-12"><rect class="cls-64" x="386.58" y="359.33" width="140.11" height="115.34" transform="translate(995.81 719.79) rotate(166.92)"/></g></mask><linearGradient id="GlassPanel-10" x1="463.56" y1="381.71" x2="463.56" y2="429.82" xlink:href="#GlassPanel"/><filter id="outer-glow-12" filterUnits="userSpaceOnUse"><feOffset dx="0" dy="0"/><feGaussianBlur result="blur-12" stdDeviation="3.13"/><feFlood flood-color="#6636c6" flood-opacity="1"/><feComposite in2="blur-12" operator="in"/><feComposite in="SourceGraphic"/></filter><linearGradient id="GlassPanel_6-10" x1="257.86" y1="555.77" x2="257.86" y2="511.38" gradientTransform="translate(193.79 -128.36)" xlink:href="#GlassPanel_6"/><filter id="luminosity-noclip-12" x="269.68" y="344.97" width="162.58" height="144.06" color-interpolation-filters="sRGB" filterUnits="userSpaceOnUse"><feFlood flood-color="#fff" result="bg"/><feBlend in="SourceGraphic" in2="bg"/></filter><linearGradient id="linear-gradient-13" x1="928.18" y1="1333.72" x2="928.18" y2="1702.51" gradientTransform="translate(-161.12 -71.63) scale(.55 .32)" xlink:href="#linear-gradient-3"/><mask id="mask-10" x="269.68" y="344.97" width="162.58" height="144.06" maskUnits="userSpaceOnUse"><g class="cls-41"><rect class="cls-65" x="280.91" y="359.33" width="140.11" height="115.34" transform="translate(787.23 743.71) rotate(166.92)"/></g></mask><linearGradient id="GlassPanel-11" x1="357.89" y1="381.71" x2="357.89" y2="429.82" xlink:href="#GlassPanel"/><filter id="outer-glow-13" filterUnits="userSpaceOnUse"><feOffset dx="0" dy="0"/><feGaussianBlur result="blur-13" stdDeviation="3.13"/><feFlood flood-color="#6636c6" flood-opacity="1"/><feComposite in2="blur-13" operator="in"/><feComposite in="SourceGraphic"/></filter><linearGradient id="GlassPanel_6-11" x1="363.52" y1="555.77" x2="363.52" y2="511.38" gradientTransform="translate(-17.54 -128.36)" xlink:href="#GlassPanel_6"/></defs><g id="Frame"><rect class="cls-49" width="1024" height="1024"/></g><g id="Master"><g id="ETH" class="cls-35"><path class="cls-57" d="M150.57,502.06c-.51-29.39-24.76-52.81-54.15-52.29-29.39,.51-52.81,24.76-52.29,54.15,.51,29.39,24.76,52.81,54.15,52.29,29.39-.51,52.81-24.76,52.29-54.15m-76.71-34.41c-5.14,3.39-9.53,8.03-13.04,13.77-1.01,1.66-1.91,3.42-2.69,5.24-.79,1.86-1.43,3.74-1.9,5.58-.97,4.19-1.41,8.02-1.34,11.71,.13,7.56,2.19,14.76,6.12,21.41v.02c1.25,2.15,2.91,4.34,5.24,6.89,1.26,1.29,2.78,2.78,4.5,4.1l1.37,1.05-2.09,2.75-1.37-1.05c-1.91-1.46-3.55-3.07-4.9-4.45l-.04-.04c-2.52-2.75-4.32-5.13-5.69-7.51-2.04-3.46-3.63-7.12-4.74-10.89-1.16-3.96-1.78-8.07-1.86-12.21-.07-3.98,.4-8.09,1.44-12.56v-.04c1.03-4.01,2.75-8.09,5-11.78h0c1.83-2.99,3.92-5.75,6.21-8.2,2.4-2.56,5.05-4.8,7.86-6.66,3.82-2.61,8.16-4.61,12.54-5.79l1.67-.45,.9,3.33-1.67,.45c-4.01,1.08-7.99,2.92-11.5,5.31l-.02,.02Zm23.49,45.43l-19.25-7.28,19.32-36.1,19.16,36.06-19.24,7.32Zm19.24-3.96l-19.24,24.84-19.25-24.84,19.25,7.68,19.24-7.68Zm-26.93,39.38l-1.68-.41c-3.05-.75-6.61-1.71-9.91-3.24l-1.57-.73,1.45-3.13,1.57,.73c3.02,1.4,6.38,2.31,9.27,3.02l1.68,.41-.82,3.35Zm51.11-31.08c-.94,3.08-2.28,5.78-4,8.87l-.02,.03-.02,.03c-1.66,2.7-3.15,4.78-4.67,6.52-1.1,1.36-2.31,2.5-3.48,3.61-.39,.37-.79,.75-1.19,1.14l-.03,.03-.04,.03c-2.74,2.39-5.94,4.51-9.78,6.46h-.02c-3,1.48-6.16,2.63-9.39,3.44-3.39,.84-6.87,1.3-10.33,1.36l-1.73,.03-.06-3.45,1.73-.03c6.25-.11,12.56-1.64,18.25-4.43,3.56-1.81,6.52-3.76,9.03-5.95,.4-.39,.8-.77,1.19-1.14,1.15-1.09,2.23-2.11,3.2-3.31l.04-.05c1.4-1.6,2.77-3.52,4.33-6.05,1.61-2.89,2.85-5.38,3.7-8.16l.5-1.65,3.3,1-.5,1.65Zm-.93-13.23l-.03-1.73c-.12-6.85-1.73-13.24-4.78-19-1.19-2.21-2.53-4.53-4.28-6.57l-.04-.04-.03-.05c-1.91-2.56-4.16-4.87-6.87-7.05l-.03-.03-.03-.03c-.83-.73-1.67-1.31-2.65-1.98-.19-.13-.39-.27-.59-.41-3.44-2.23-7.26-3.98-11.37-5.18-4.38-1.19-8.51-1.74-12.63-1.67l-1.73,.03-.06-3.45,1.73-.03c4.46-.08,8.91,.51,13.62,1.79h.03c4.44,1.31,8.58,3.2,12.31,5.63l.04,.03c.2,.14,.4,.28,.6,.41,1.02,.7,1.99,1.35,2.97,2.22,2.91,2.34,5.33,4.83,7.41,7.6,1.94,2.28,3.44,4.88,4.66,7.13h0c3.31,6.26,5.05,13.18,5.18,20.58l.03,1.73-3.45,.06Z"/></g><g id="ETH-2" class="cls-60"><path id="Coin" class="cls-13" d="M926.39,491.73c.7-.16,1.32-.42,1.88-.78,.56-.36,1.01-.84,1.34-1.43,.34-.6,.51-1.31,.51-2.15s-.19-1.6-.57-2.18-.87-1.03-1.46-1.34c-.6-.32-1.27-.55-2.03-.69-.76-.14-1.49-.21-2.21-.21h-6.33v9.02h6.75c.72,0,1.42-.08,2.12-.24Zm3.08,8.96c-.76-.32-1.57-.54-2.45-.66-.88-.12-1.69-.18-2.45-.18h-7.05v9.61h8.36c.72,0,1.44-.08,2.18-.24s1.4-.44,2-.84,1.08-.92,1.46-1.55c.38-.64,.57-1.41,.57-2.33,0-1-.25-1.8-.75-2.42-.5-.62-1.12-1.08-1.88-1.4Zm-5.61-52.23c-30.24,.53-54.33,25.47-53.8,55.71,.53,30.24,25.47,54.33,55.71,53.8,30.24-.53,54.33-25.47,53.8-55.71-.53-30.24-25.47-54.33-55.71-53.8Zm.04,7.47c4.59-.08,9.17,.52,14.01,1.84,4.6,1.35,8.86,3.29,12.7,5.79l.65,.45c1.06,.72,2.06,1.41,3.08,2.31,2.94,2.36,5.45,4.93,7.59,7.79,2,2.35,3.54,5.02,4.79,7.34,3.41,6.44,5.2,13.56,5.34,21.17l.03,1.77-3.55,.06-.03-1.78c-.12-7.05-1.78-13.63-4.92-19.56-1.22-2.26-2.6-4.65-4.4-6.75l-.07-.09c-1.97-2.64-4.28-5.01-7.07-7.25-.92-.81-1.79-1.4-2.8-2.09l-.63-.43c-3.51-2.28-7.46-4.08-11.69-5.32-4.48-1.22-8.73-1.78-12.98-1.71l-1.77,.03-.06-3.55,1.78-.03Zm12.05,40.49c1.13,.58,2.11,1.31,2.93,2.21s1.44,1.94,1.88,3.14,.66,2.47,.66,3.82c0,2.23-.48,4.09-1.43,5.58-.96,1.49-2.19,2.7-3.7,3.61-1.51,.92-3.21,1.57-5.11,1.97-1.89,.4-3.77,.6-5.64,.6h-17.32s0-42.28,0-42.28h15.76c1.83,0,3.67,.13,5.52,.39,1.85,.26,3.51,.78,4.99,1.55s2.67,1.86,3.58,3.25c.92,1.39,1.37,3.24,1.37,5.55s-.67,4.37-2,5.94c-1.33,1.57-3.1,2.7-5.28,3.37v.12c1.39,.2,2.66,.59,3.79,1.16Zm8.8,28.26v6.67s-39.88,0-39.88,0v-6.67s39.88,0,39.88,0Zm-57.33,1.55c1.29,2.24,3,4.49,5.41,7.12,1.26,1.29,2.83,2.84,4.61,4.2l1.41,1.07-2.15,2.83-1.41-1.08c-1.96-1.49-3.65-3.15-5.04-4.58-2.63-2.87-4.49-5.33-5.9-7.77-4.35-7.36-6.63-15.36-6.78-23.75-.07-4.1,.41-8.32,1.48-12.93,1.06-4.16,2.83-8.36,5.14-12.16,3.89-6.37,8.76-11.51,14.49-15.29,3.91-2.68,8.38-4.74,12.89-5.95l1.71-.46,.92,3.43-1.71,.46c-4.13,1.11-8.22,3-11.83,5.47-5.32,3.51-9.83,8.28-13.44,14.19-2.1,3.45-3.78,7.41-4.73,11.15-.99,4.28-1.44,8.22-1.38,12.03,.14,7.77,2.25,15.19,6.3,22.03Zm29.48,23.8l-1.72-.42c-3.14-.77-6.8-1.76-10.19-3.33l-1.61-.75,1.49-3.22,1.61,.75c3.11,1.44,6.57,2.38,9.54,3.11l1.72,.42-.84,3.45Zm52.59-31.97c-.97,3.17-2.35,5.94-4.12,9.13-1.76,2.86-3.29,5-4.87,6.8-1.1,1.36-2.35,2.54-3.56,3.69-.41,.38-.81,.77-1.22,1.17-2.89,2.53-6.18,4.7-10.14,6.72-6.35,3.11-13.36,4.81-20.31,4.94l-1.77,.03-.06-3.55,1.78-.03c6.43-.11,12.93-1.69,18.79-4.56,3.66-1.86,6.72-3.88,9.31-6.15,.35-.34,.77-.74,1.19-1.14,1.18-1.12,2.29-2.17,3.29-3.4,1.48-1.7,2.91-3.69,4.52-6.31,1.62-2.92,2.91-5.5,3.79-8.37l.52-1.7,3.4,1.03-.52,1.7Z"/></g><g><g class="cls-40"><g class="cls-55"><g class="cls-37"><rect class="cls-19" x="521.39" y="580.55" width="193.54" height="46.73" rx="7.04" ry="7.04"/><path class="cls-8" d="M531.61,586.92h171.88c2.58,0,4.67,2.09,4.67,4.67v24.33c0,2.75-2.23,4.98-4.98,4.98h-171.57c-2.44,0-4.42-1.98-4.42-4.42v-25.13c0-2.44,1.98-4.42,4.42-4.42Z" transform="translate(1235.35 1207.82) rotate(180)"/></g></g></g><g class="cls-40"><g class="cls-54"><g class="cls-37"><rect class="cls-27" x="305.07" y="580.55" width="193.54" height="46.73" rx="7.04" ry="7.04"/><path class="cls-5" d="M315.29,586.92h171.88c2.58,0,4.67,2.09,4.67,4.67v24.33c0,2.75-2.23,4.98-4.98,4.98h-171.57c-2.44,0-4.42-1.98-4.42-4.42v-25.13c0-2.44,1.98-4.42,4.42-4.42Z" transform="translate(802.7 1207.82) rotate(180)"/></g></g></g><g class="cls-40"><g class="cls-31"><g class="cls-37"><rect class="cls-17" x="592.71" y="448.39" width="122.22" height="46.73" rx="7.04" ry="7.04"/><path class="cls-9" d="M602.93,454.77h100.56c2.58,0,4.67,2.09,4.67,4.67v24.33c0,2.75-2.23,4.98-4.98,4.98h-100.26c-2.44,0-4.42-1.98-4.42-4.42v-25.13c0-2.44,1.98-4.42,4.42-4.42Z" transform="translate(1306.67 943.51) rotate(180)"/></g></g></g><g class="cls-40"><g class="cls-33"><g class="cls-37"><rect class="cls-25" x="304.58" y="448.39" width="122.22" height="46.73" rx="7.04" ry="7.04"/><path class="cls-2" d="M314.8,454.77h100.56c2.58,0,4.67,2.09,4.67,4.67v24.33c0,2.75-2.23,4.98-4.98,4.98h-100.26c-2.44,0-4.42-1.98-4.42-4.42v-25.13c0-2.44,1.98-4.42,4.42-4.42Z" transform="translate(730.41 943.51) rotate(180)"/></g></g></g><g class="cls-40"><g class="cls-47"><g class="cls-37"><rect class="cls-23" x="448.4" y="448.39" width="122.22" height="46.73" rx="7.04" ry="7.04"/><path class="cls-4" d="M458.62,454.77h100.56c2.58,0,4.67,2.09,4.67,4.67v24.33c0,2.75-2.23,4.98-4.98,4.98h-100.26c-2.44,0-4.42-1.98-4.42-4.42v-25.13c0-2.44,1.98-4.42,4.42-4.42Z" transform="translate(1018.05 943.51) rotate(180)"/></g></g></g><g class="cls-39"><g class="cls-37"><rect class="cls-24" x="410.73" y="514.47" width="198.53" height="46.73" rx="7.04" ry="7.04"/><path class="cls-3" d="M420.95,520.85h176.87c2.58,0,4.67,2.09,4.67,4.67v24.33c0,2.75-2.23,4.98-4.98,4.98h-176.57c-2.44,0-4.42-1.98-4.42-4.42v-25.13c0-2.44,1.98-4.42,4.42-4.42Z" transform="translate(1019.03 1075.67) rotate(180)"/></g></g><g class="cls-40"><g class="cls-50"><g class="cls-37"><rect class="cls-26" x="515.91" y="382.31" width="198.53" height="46.73" rx="7.04" ry="7.04"/><path class="cls-10" d="M526.13,388.69h176.87c2.58,0,4.67,2.09,4.67,4.67v24.33c0,2.75-2.23,4.98-4.98,4.98h-176.57c-2.44,0-4.42-1.98-4.42-4.42v-25.13c0-2.44,1.98-4.42,4.42-4.42Z" transform="translate(1229.38 811.36) rotate(180)"/></g></g></g><g class="cls-58"><g class="cls-37"><rect class="cls-20" x="305.07" y="514.47" width="83.78" height="46.73" rx="7.04" ry="7.04"/><path class="cls-6" d="M315.29,520.85h62.12c2.58,0,4.67,2.09,4.67,4.67v24.33c0,2.75-2.23,4.98-4.98,4.98h-61.81c-2.44,0-4.42-1.98-4.42-4.42v-25.13c0-2.44,1.98-4.42,4.42-4.42Z" transform="translate(692.94 1075.67) rotate(180)"/></g></g><g class="cls-45"><g class="cls-37"><rect class="cls-18" x="631.16" y="514.47" width="83.78" height="46.73" rx="7.04" ry="7.04"/><path class="cls-1" d="M641.38,520.85h62.12c2.58,0,4.67,2.09,4.67,4.67v24.33c0,2.75-2.23,4.98-4.98,4.98h-61.81c-2.44,0-4.42-1.98-4.42-4.42v-25.13c0-2.44,1.98-4.42,4.42-4.42Z" transform="translate(1345.12 1075.67) rotate(180)"/></g></g><g class="cls-40"><g class="cls-36"><g class="cls-37"><rect class="cls-22" x="410.25" y="382.31" width="83.78" height="46.73" rx="7.04" ry="7.04"/><path class="cls-7" d="M420.47,388.69h62.12c2.58,0,4.67,2.09,4.67,4.67v24.33c0,2.75-2.23,4.98-4.98,4.98h-61.81c-2.44,0-4.42-1.98-4.42-4.42v-25.13c0-2.44,1.98-4.42,4.42-4.42Z" transform="translate(903.3 811.36) rotate(180)"/></g></g></g><g class="cls-40"><g class="cls-14"><g class="cls-37"><rect class="cls-21" x="304.58" y="382.31" width="83.78" height="46.73" rx="7.04" ry="7.04"/><path class="cls-11" d="M314.8,388.69h62.12c2.58,0,4.67,2.09,4.67,4.67v24.33c0,2.75-2.23,4.98-4.98,4.98h-61.81c-2.44,0-4.42-1.98-4.42-4.42v-25.13c0-2.44,1.98-4.42,4.42-4.42Z" transform="translate(691.97 811.36) rotate(180)"/></g></g></g></g><path class="cls-28" d="M283.98,537.37h-11.4c-7.58,0-10.84-1.89-17.36-5.56-20.46-11.52-49.4-28.6-49.4-28.6h-37.41"/><polyline class="cls-29" points="278.99 546.87 288.96 537.37 278.99 527.87"/><g class="cls-40"><path class="cls-15" d="M207.74,496.17l1.66,.98c.09,.05,2.66,1.57,6.74,3.96,10.15-5.95,27.36-15.98,40.76-23.52l.25-.14c6.25-3.52,8.84-4.98,15.42-4.98h7.83l-6.26,5.96,4.72,4.95,15.05-14.34-15.05-14.34-4.72,4.95,6.26,5.96h-7.83c-8.37,0-12.29,2.21-18.78,5.86l-.25,.14c-12.4,6.98-28.05,16.09-38.39,22.13l44.7-78.25,.11-.21c1.81-3.77,5.69-6.2,9.87-6.2h10.58l-6.26,5.96,4.72,4.95,15.05-14.34-15.05-14.34-4.72,4.95,6.26,5.96h-10.58c-6.75,0-13.01,3.91-15.98,9.96l-47.96,83.95h1.84Z"/><path class="cls-15" d="M278.87,586.4l-4.72,4.95,6.26,5.96h-10.58c-4.18,0-8.05-2.43-9.87-6.2l-41.22-72.17c-4.77-2.78-8.9-5.2-11.83-6.93l46.94,82.18c2.97,6.06,9.22,9.96,15.98,9.96h10.58l-6.26,5.96,4.72,4.95,15.05-14.34-15.05-14.34Z"/></g><path class="cls-28" d="M849.16,503.21h-37.41s-28.94,17.08-49.4,28.6c-6.52,3.67-9.78,5.56-17.36,5.56h-9.88"/><g class="cls-40"><path class="cls-15" d="M747.74,402.26c6.75,0,13.01,3.91,15.98,9.96l47.96,83.95h-1.84s-1.66,.98-1.66,.98c-.09,.05-2.66,1.57-6.74,3.96-10.15-5.95-27.36-15.98-40.76-23.52l-.25-.14c-6.25-3.52-8.84-4.98-15.42-4.98h-10.33c-1.64,0-3.38-1.39-3.38-3.4s1.71-3.31,3.38-3.31,10.33-.13,10.33-.13c8.37,0,12.29,2.21,18.78,5.86l.25,.14c12.4,6.98,28.05,16.09,38.39,22.13l-44.7-78.25-.11-.21c-1.81-3.77-5.69-6.2-9.87-6.2h-16.45c-1.43,0-2.8-1.74-2.8-3.42s1.26-3.42,2.8-3.42h16.45Z"/><path class="cls-15" d="M747.74,604.16c6.75,0,13.01-3.91,15.98-9.96l46.94-82.18c-2.94,1.73-7.06,4.14-11.83,6.93l-41.22,72.17c-1.81,3.77-5.69,6.2-9.87,6.2h-12.63c-1.67,0-3.38,1.33-3.38,3.52s1.64,3.32,3.38,3.32h12.63Z"/></g><polyline class="cls-29" points="844.17 512.53 854.14 503.03 844.17 493.53"/></g></svg>