<?xml version="1.0" encoding="UTF-8"?><svg xmlns="http://www.w3.org/2000/svg" xmlns:xlink="http://www.w3.org/1999/xlink" viewBox="0 0 1024 1024"><defs><style>.cls-1{fill:url(#linear-gradient-2);}.cls-2{fill:none;stroke-miterlimit:10;}.cls-2,.cls-3{stroke:#b68bcc;stroke-width:3.89px;}.cls-4,.cls-5{fill:#18131f;opacity:.5;}.cls-6{fill:url(#GlassPanel_6);filter:url(#outer-glow-3);}.cls-7{filter:url(#outer-glow-1);}.cls-5{isolation:isolate;}.cls-8{opacity:0;}.cls-3{fill:url(#GlassPanel);filter:url(#outer-glow-2);stroke-linecap:square;stroke-miterlimit:54.61;}.cls-9{filter:url(#luminosity-noclip-2);}.cls-10{mask:url(#mask-1);}.cls-11{mask:url(#mask);}.cls-12{fill:url(#linear-gradient-3);}.cls-13{fill:url(#linear-gradient);}.cls-14{filter:url(#luminosity-noclip-3);}</style><filter id="luminosity-noclip-2" x="-36.18" y="-21.74" width="1123.06" height="1162.1" color-interpolation-filters="sRGB" filterUnits="userSpaceOnUse"><feFlood flood-color="#fff" result="bg"/><feBlend in="SourceGraphic" in2="bg"/></filter><linearGradient id="linear-gradient" x1="1050.75" y1="137.75" x2="1745.49" y2="137.75" gradientTransform="translate(-1266.38 407.22) scale(1.28 1.1)" gradientUnits="userSpaceOnUse"><stop offset="0" stop-color="#231f20"/><stop offset="1" stop-color="#fff"/></linearGradient><mask id="mask" x="-36.18" y="-21.74" width="1123.06" height="1162.1" maskUnits="userSpaceOnUse"><g class="cls-9"><rect class="cls-13" x="80.19" y="174.78" width="890.34" height="769.05" transform="translate(327.45 1300.69) rotate(-121.85)"/></g></mask><filter id="outer-glow-1" filterUnits="userSpaceOnUse"><feOffset dx="0" dy="0"/><feGaussianBlur result="blur" stdDeviation="7.77"/><feFlood flood-color="#8c29ff" flood-opacity="1"/><feComposite in2="blur" operator="in"/><feComposite in="SourceGraphic"/></filter><linearGradient id="linear-gradient-2" x1="-12.23" y1="878.74" x2="-12.23" y2="131.84" gradientTransform="translate(524.01 1027.68) scale(1 -1)" gradientUnits="userSpaceOnUse"><stop offset="0" stop-color="#9d79b3"/><stop offset="1" stop-color="#5c5396"/></linearGradient><filter id="luminosity-noclip-3" x="504.22" y="658.26" width="419.92" height="450.34" color-interpolation-filters="sRGB" filterUnits="userSpaceOnUse"><feFlood flood-color="#fff" result="bg"/><feBlend in="SourceGraphic" in2="bg"/></filter><linearGradient id="linear-gradient-3" x1="495.88" y1="-26.35" x2="495.88" y2="198.74" gradientTransform="translate(218.3 732.99) scale(1 1.75)" gradientUnits="userSpaceOnUse"><stop offset="0" stop-color="#000"/><stop offset="1" stop-color="#fff"/></linearGradient><mask id="mask-1" x="504.22" y="658.26" width="419.92" height="450.34" maskUnits="userSpaceOnUse"><g class="cls-14"><rect class="cls-12" x="601.19" y="686.19" width="225.97" height="394.48" transform="translate(1819.34 1146.33) rotate(142.33)"/></g></mask><linearGradient id="GlassPanel" x1="1156.27" y1="725.08" x2="1156.27" y2="900.36" gradientTransform="translate(-499.46)" gradientUnits="userSpaceOnUse"><stop offset="0" stop-color="#9d79b3"/><stop offset="1" stop-color="#5c5396"/></linearGradient><filter id="outer-glow-2" filterUnits="userSpaceOnUse"><feOffset dx="0" dy="0"/><feGaussianBlur result="blur-2" stdDeviation="7.77"/><feFlood flood-color="#6636c6" flood-opacity="1"/><feComposite in2="blur-2" operator="in"/><feComposite in="SourceGraphic"/></filter><linearGradient id="GlassPanel_6" x1="511.78" y1="310.14" x2="511.78" y2="750.95" gradientUnits="userSpaceOnUse"><stop offset="0" stop-color="#f099ff"/><stop offset="1" stop-color="#605ee0"/></linearGradient><filter id="outer-glow-3" filterUnits="userSpaceOnUse"><feOffset dx="0" dy="0"/><feGaussianBlur result="blur-3" stdDeviation="5.47"/><feFlood flood-color="#6636c6" flood-opacity=".5"/><feComposite in2="blur-3" operator="in"/><feComposite in="SourceGraphic"/></filter></defs><g id="Frame"><rect class="cls-8" width="1024" height="1024"/></g><g id="Master"><g><g><g id="Cadet"><g class="cls-11"><g class="cls-7"><g id="HexPlate-3"><polygon class="cls-1" points="511.58 883.31 249.8 732.91 249.8 299.42 511.78 148.17 773.76 299.42 773.76 732.91 511.58 883.31"/><polygon class="cls-2" points="511.58 883.31 249.8 732.91 249.8 299.42 511.78 148.17 773.76 299.42 773.76 732.91 511.58 883.31"/></g></g></g><polygon id="HexPlate-4" class="cls-5" points="511.64 851.31 276.72 716.81 276.72 314.67 511.55 179.08 746.39 314.67 746.39 716.81 511.64 851.31"/></g><g class="cls-10"><g><path class="cls-3" d="M656.8,900.09c48.43,0,87.64-39.21,87.64-87.64s-39.21-87.64-87.64-87.64-87.64,39.21-87.64,87.64,39.21,87.64,87.64,87.64Z"/><path class="cls-4" d="M718.75,803.5l11.62-7.19c-1.84-8.48-5.16-16.59-9.96-24.15l-13.27,3.13c-3.69-4.79-7.93-9.22-12.91-12.91l3.13-13.46c-7.56-4.79-15.67-8.11-24.15-9.96l-7.19,11.62c-6.08-.92-12.35-.92-18.25,0l-7.19-11.8c-8.48,1.84-16.59,5.16-24.15,9.96l3.13,13.27c-4.79,3.69-9.22,7.93-12.91,12.91l-13.46-2.95c-4.79,7.56-8.11,15.67-9.96,24.15l11.62,7.19c-.92,6.08-.92,12.35,0,18.25l-11.62,7.19c1.84,8.48,5.16,16.59,9.96,24.15l13.27-3.13c3.69,4.79,7.93,9.22,12.91,12.91l-3.13,13.46c7.56,4.79,15.67,8.11,24.15,9.96l7.19-11.61c6.08,.92,12.35,.92,18.25,0l7.19,11.61c8.48-1.84,16.59-5.16,24.15-9.96l-3.13-13.27c4.79-3.69,9.22-7.93,12.91-12.91l13.27,3.13c4.79-7.56,8.11-15.67,9.96-24.15l-11.43-7.19c.92-6.08,.92-12.35,0-18.25Zm-36.69,19.54c-5.9,14.01-21.94,20.65-35.77,14.75-14.01-5.9-20.65-21.94-14.75-35.77,5.72-14.01,21.94-20.65,35.77-14.75,14.01,5.72,20.65,21.75,14.75,35.77Z"/></g></g></g><path class="cls-6" d="M703.92,430.23v-14.68l-12.72-7.34-8.79,5.08-9.76-5.64v-10.89l-12.72-7.34-12.72,7.34v10.89l-10.62,6.13-9.65-5.57-6.89,3.98-63.75-37.06v-11.18l-9.11-5.26v-10.9l9.11-5.26v-14.68l-12.72-7.34-8.79,5.08-9.76-5.64v-10.89l-12.72-7.34-12.72,7.34v10.89l-10.62,6.13-9.65-5.57-12.72,7.34v14.68l10.83,6.25v8.92l-10.83,6.25v12l-62.74,36.47-7.28-4.2-8.79,5.08-9.76-5.64v-10.89l-12.72-7.34-12.72,7.34v10.89l-10.62,6.13-9.65-5.57-12.72,7.34v14.68l10.83,6.25v8.92l-10.83,6.25v14.68l12.72,7.34,10.29-5.94,9.98,5.76v10.89l8.1,4.67v73.74l-8.1,4.67v10.89l-10.62,6.13-9.65-5.57-12.72,7.34v14.68l10.83,6.25v8.92l-10.83,6.25v14.68l12.72,7.34,10.29-5.94,9.98,5.76v10.89l12.72,7.34,12.72-7.34v-10.89l9.12-5.27,9.43,5.45,9.43-5.44,60.81,35.35v10.24l10.83,6.25v8.92l-10.83,6.25v14.68l12.72,7.34,10.29-5.94,9.98,5.76v10.89l12.72,7.34,12.72-7.34v-10.89l9.12-5.27,9.43,5.45,12.72-7.34v-14.68l-9.11-5.26v-10.9l9.11-5.26v-9.69l61.38-35.68,9.04,5.22,10.29-5.94,9.98,5.76v10.89l12.72,7.34,12.72-7.34v-10.89l9.12-5.27,9.43,5.45,12.72-7.34v-14.68l-9.11-5.26v-10.9l9.11-5.26v-14.68l-12.72-7.34-8.79,5.08-9.76-5.64v-10.89l-8.1-4.67v-73.74l8.1-4.67v-10.89l9.12-5.27,9.43,5.45,12.72-7.34v-14.68l-9.11-5.26v-10.9l9.11-5.26Zm-48.61,58.83v73.74l-8.1,4.67v10.89l-10.62,6.13-9.65-5.57-12.72,7.34v14.68l10.83,6.25v8.92l-10.83,6.25v8.25l-62.61,36.4-7.8-4.51-8.79,5.08-9.76-5.64v-10.89l-12.72-7.34-12.72,7.34v10.89l-10.62,6.13-9.65-5.57-7.32,4.23-62.91-36.57v-7.8l-9.11-5.26v-10.9l9.11-5.26v-14.68l-12.72-7.34-8.79,5.08-9.76-5.64v-10.89l-8.1-4.67v-73.74l8.1-4.67v-10.89l9.12-5.27,9.43,5.45,12.72-7.34v-14.68l-9.11-5.26v-10.9l9.11-5.26v-10.3l64.2-37.32,5.81,3.35,10.29-5.94,9.98,5.76v10.89l12.72,7.34,12.72-7.34v-10.89l9.12-5.27,9.43,5.45,6.51-3.76,64.13,37.28v10.75l10.83,6.25v8.92l-10.83,6.25v14.68l12.72,7.34,10.29-5.94,9.98,5.76v10.89l8.1,4.67Zm-171.3-141.91l8.04-4.64v-10.64l10.84-6.26,9.43,5.45,9.43-5.45,9.12,5.26v11.63l9.75,5.63v10.16l-9.75,5.63v10.89l-9.12,5.27-9.43-5.45-9.43,5.45-10.84-6.26v-9.9l-8.04-4.64v-12.14Zm-138.95,114.4v-9.9l-8.04-4.64v-12.14l8.04-4.64v-10.64l10.84-6.26,9.43,5.45,9.43-5.45,9.12,5.26v11.63l9.75,5.63v10.16l-9.75,5.63v10.89l-9.12,5.27-9.43-5.45-9.43,5.45-10.84-6.26Zm48.57,155.19l-9.75,5.63v10.89l-9.12,5.27-9.43-5.45-9.43,5.45-10.84-6.26v-9.9l-8.04-4.64v-12.14l8.04-4.64v-10.64l10.84-6.26,9.43,5.45,9.43-5.45,9.12,5.26v11.63l9.75,5.63v10.16Zm147.21,83.6l-9.75,5.63v10.89l-9.12,5.27-9.43-5.45-9.43,5.45-10.84-6.26v-9.9l-8.04-4.64v-12.14l8.04-4.64v-10.64l10.84-6.26,9.43,5.45,9.43-5.45,9.12,5.26v11.63l9.75,5.63v10.16Zm137.63-111.02v11.63l9.75,5.63v10.16l-9.75,5.63v10.89l-9.12,5.27-9.43-5.45-9.43,5.45-10.84-6.26v-9.9l-8.04-4.64v-12.14l8.04-4.64v-10.64l10.84-6.26,9.43,5.45,9.43-5.45,9.12,5.26Zm9.75-143.3l-9.75,5.63v10.89l-9.12,5.27-9.43-5.45-9.43,5.45-10.84-6.26v-9.9l-8.04-4.64v-12.14l8.04-4.64v-10.64l10.84-6.26,9.43,5.45,9.43-5.45,9.12,5.26v11.63l9.75,5.63v10.16Zm-104,37.25l38.57,52.56-38.2,58.32-36.61-.07,23.3-37.86-72.05-.12-11.95-18.64h49.75l2.8-15.91,31.2-.16-24.45-38.15,37.65,.05Zm-51.9,49.54l5.36-33.44-83.65,.26,24.23-38.43-36.62-.07-38.2,57.37,38.57,52.56,37.65,.05-24.78-38.27,77.43-.02Z"/></g></g></svg>