<svg xmlns="http://www.w3.org/2000/svg" xmlns:xlink="http://www.w3.org/1999/xlink" viewBox="0 0 2482.366 2586.667"><defs><style>.cls-1,.cls-30{fill:none;}.cls-2{opacity:0.5;}.cls-3{clip-path:url(#clip-path);}.cls-4{fill:url(#radial-gradient);}.cls-5{opacity:0.32;}.cls-6{fill:url(#radial-gradient-2);}.cls-7{fill:url(#radial-gradient-3);}.cls-8{fill:url(#radial-gradient-4);}.cls-9{fill:url(#radial-gradient-5);}.cls-10{fill:url(#radial-gradient-6);}.cls-11{fill:url(#radial-gradient-7);}.cls-12{fill:url(#radial-gradient-8);}.cls-13{fill:url(#radial-gradient-9);}.cls-14{fill:url(#radial-gradient-10);}.cls-15{fill:url(#radial-gradient-11);}.cls-16{fill:url(#radial-gradient-12);}.cls-17{fill:url(#radial-gradient-13);}.cls-18{fill:url(#radial-gradient-14);}.cls-19{fill:url(#radial-gradient-15);}.cls-20{fill:url(#radial-gradient-16);}.cls-21{fill:url(#radial-gradient-17);}.cls-22{fill:url(#radial-gradient-18);}.cls-23{fill:url(#radial-gradient-19);}.cls-24{fill:url(#radial-gradient-20);}.cls-25{opacity:0.3;}.cls-26{fill:#7c6a9c;}.cls-27{fill:#65a7f3;}.cls-28{fill:#7c6a9b;}.cls-29{fill:#21212b;}.cls-30{stroke:#20212b;stroke-miterlimit:10;stroke-width:16px;opacity:0;}</style><clipPath id="clip-path"><rect class="cls-1" x="345.847" y="325.788" width="1922.332" height="1922.332"/></clipPath><radialGradient id="radial-gradient" cx="1241.183" cy="1293.333" r="1267.526" gradientUnits="userSpaceOnUse"><stop offset="0" stop-color="#9d6cc4" stop-opacity="0.6"/><stop offset="0.123" stop-color="#9d6cc4" stop-opacity="0.555"/><stop offset="0.322" stop-color="#9c6ac3" stop-opacity="0.431"/><stop offset="0.572" stop-color="#9b68c3" stop-opacity="0.231"/><stop offset="0.818" stop-color="#9966c2" stop-opacity="0"/></radialGradient><radialGradient id="radial-gradient-2" cx="1772.476" cy="963.778" r="13.944" gradientUnits="userSpaceOnUse"><stop offset="0" stop-color="#fff"/><stop offset="0.171" stop-color="#fefdfe"/><stop offset="0.232" stop-color="#fbf6fa"/><stop offset="0.276" stop-color="#f6ebf4"/><stop offset="0.311" stop-color="#eedaea"/><stop offset="0.341" stop-color="#e4c4de"/><stop offset="0.344" stop-color="#e3c2dd"/><stop offset="0.358" stop-color="#debcda"/><stop offset="0.413" stop-color="#d1aad0"/><stop offset="0.472" stop-color="#c99fca"/><stop offset="0.539" stop-color="#c69cc8"/><stop offset="0.754" stop-color="#a47fb9" stop-opacity="0.265"/><stop offset="0.83" stop-color="#9875b4" stop-opacity="0"/></radialGradient><radialGradient id="radial-gradient-3" cx="1548.827" cy="1028.315" r="12" xlink:href="#radial-gradient-2"/><radialGradient id="radial-gradient-4" cx="1748.827" cy="747.722" r="7.407" xlink:href="#radial-gradient-2"/><radialGradient id="radial-gradient-5" cx="1852.624" cy="617.852" r="9.093" xlink:href="#radial-gradient-2"/><radialGradient id="radial-gradient-6" cx="2073.346" cy="633.796" r="12.37" xlink:href="#radial-gradient-2"/><radialGradient id="radial-gradient-7" cx="2025.457" cy="822.685" r="6.148" gradientUnits="userSpaceOnUse"><stop offset="0" stop-color="#fff"/><stop offset="0.212" stop-color="#fefdfe"/><stop offset="0.289" stop-color="#fbf6fa"/><stop offset="0.343" stop-color="#f6ebf4"/><stop offset="0.387" stop-color="#eedaea"/><stop offset="0.424" stop-color="#e4c4de"/><stop offset="0.427" stop-color="#e3c2dd"/><stop offset="0.436" stop-color="#debcda"/><stop offset="0.467" stop-color="#d1aad0"/><stop offset="0.501" stop-color="#c99fca"/><stop offset="0.539" stop-color="#c69cc8"/><stop offset="0.754" stop-color="#a47fb9" stop-opacity="0.265"/><stop offset="0.83" stop-color="#9875b4" stop-opacity="0"/></radialGradient><radialGradient id="radial-gradient-8" cx="2116.457" cy="985.574" r="6.704" xlink:href="#radial-gradient-7"/><radialGradient id="radial-gradient-9" cx="1961.161" cy="1153.426" r="5.778" xlink:href="#radial-gradient-7"/><radialGradient id="radial-gradient-10" cx="808.364" cy="1504.63" r="9.093" xlink:href="#radial-gradient-2"/><radialGradient id="radial-gradient-11" cx="787.809" cy="1278.778" r="6.574" xlink:href="#radial-gradient-2"/><radialGradient id="radial-gradient-12" cx="724.901" cy="1654.13" r="14.444" xlink:href="#radial-gradient-2"/><radialGradient id="radial-gradient-13" cx="984.661" cy="1778.259" r="8.611" xlink:href="#radial-gradient-2"/><radialGradient id="radial-gradient-14" cx="1075.327" cy="1363.481" r="22.537" gradientUnits="userSpaceOnUse"><stop offset="0" stop-color="#fff"/><stop offset="0.229" stop-color="#fefdfe"/><stop offset="0.311" stop-color="#fbf6fa"/><stop offset="0.37" stop-color="#f6ebf4"/><stop offset="0.417" stop-color="#eedaea"/><stop offset="0.458" stop-color="#e4c4de"/><stop offset="0.461" stop-color="#e3c2dd"/><stop offset="0.467" stop-color="#debcda"/><stop offset="0.489" stop-color="#d1aad0"/><stop offset="0.512" stop-color="#c99fca"/><stop offset="0.539" stop-color="#c69cc8"/><stop offset="0.754" stop-color="#a47fb9" stop-opacity="0.265"/><stop offset="0.83" stop-color="#9875b4" stop-opacity="0"/></radialGradient><radialGradient id="radial-gradient-15" cx="1241.92" cy="1490.593" r="9.093" xlink:href="#radial-gradient-2"/><radialGradient id="radial-gradient-16" cx="1283.29" cy="1656" r="9.093" xlink:href="#radial-gradient-2"/><radialGradient id="radial-gradient-17" cx="1403.401" cy="1472.889" r="9.093" xlink:href="#radial-gradient-2"/><radialGradient id="radial-gradient-18" cx="1667.29" cy="1422.111" r="9.093" xlink:href="#radial-gradient-2"/><radialGradient id="radial-gradient-19" cx="1729.624" cy="1708.444" r="9.093" xlink:href="#radial-gradient-2"/><radialGradient id="radial-gradient-20" cx="1981.661" cy="1457.074" r="9.093" xlink:href="#radial-gradient-2"/></defs><title>Investing</title><g id="Layer_2" data-name="Layer 2"><g id="Layer_1-2" data-name="Layer 1"><g class="cls-2"><g class="cls-3"><ellipse class="cls-4" cx="1241.183" cy="1293.333" rx="1241.183" ry="1293.333"/></g></g><g class="cls-5"><rect class="cls-6" x="1758.531" y="949.833" width="27.889" height="27.889"/><rect class="cls-7" x="1536.827" y="1016.315" width="24" height="24"/><rect class="cls-8" x="1741.42" y="740.315" width="14.815" height="14.815"/><rect class="cls-9" x="1843.531" y="608.759" width="18.185" height="18.185"/><rect class="cls-10" x="2060.976" y="621.426" width="24.741" height="24.741"/><rect class="cls-11" x="2019.309" y="816.537" width="12.296" height="12.296"/><rect class="cls-12" x="2109.753" y="978.87" width="13.407" height="13.407"/><rect class="cls-13" x="1955.383" y="1147.648" width="11.556" height="11.556"/><rect class="cls-14" x="799.272" y="1495.537" width="18.185" height="18.185"/><rect class="cls-15" x="781.235" y="1272.204" width="13.148" height="13.148"/><rect class="cls-16" x="710.457" y="1639.685" width="28.889" height="28.889"/><rect class="cls-17" x="976.05" y="1769.648" width="17.222" height="17.222"/><rect class="cls-18" x="1052.79" y="1340.944" width="45.074" height="45.074"/><rect class="cls-19" x="1232.827" y="1481.5" width="18.185" height="18.185"/><rect class="cls-20" x="1274.198" y="1646.907" width="18.185" height="18.185"/><rect class="cls-21" x="1394.309" y="1463.796" width="18.185" height="18.185"/><rect class="cls-22" x="1658.198" y="1413.019" width="18.185" height="18.185"/><rect class="cls-23" x="1720.531" y="1699.352" width="18.185" height="18.185" rx="9.093"/><rect class="cls-24" x="1972.568" y="1447.981" width="18.185" height="18.185"/></g><g class="cls-25"><rect class="cls-26" x="1134.572" y="1484.897" width="26.45" height="23.466"/><rect class="cls-26" x="1144.655" y="1248.781" width="14.076" height="14.076"/><rect class="cls-26" x="1240.679" y="1377.165" width="15.828" height="15.828"/><rect class="cls-26" x="1459.811" y="1421.66" width="14.597" height="12.838"/><rect class="cls-26" x="1796.775" y="1140.62" width="13.983" height="13.983"/><rect class="cls-26" x="1850.239" y="1392.993" width="29.898" height="25.677"/><rect class="cls-26" x="1885.412" y="1425.705" width="10.728" height="10.728"/><rect class="cls-26" x="702.523" y="1190.745" width="32.711" height="32.711"/><rect class="cls-26" x="924.446" y="1540.844" width="20.18" height="20.18"/><rect class="cls-26" x="1581.512" y="1073.617" width="10.552" height="10.552"/><rect class="cls-26" x="1508.703" y="777.103" width="37.46" height="37.46"/><rect class="cls-26" x="1474.408" y="1650.759" width="18.166" height="18.167"/><rect class="cls-26" x="1764.017" y="1550.934" width="10.09" height="10.09"/><rect class="cls-26" x="959.994" y="1750.006" width="21.104" height="21.104"/><rect class="cls-26" x="1968.22" y="970.081" width="14.247" height="14.247"/></g><path class="cls-27" d="M1939.008,662.9c-.486-3.609-2.416-6.308-5.037-7.044a5.692,5.692,0,0,0-6,2.213,13.03,13.03,0,0,0-2.848,7.046c-.265,2.661-.3,5.375-.341,8l-.007.468q-.256,17.58-.491,35.161c-.331,24.309-.673,49.446-1.125,74.161-.321,17.65-.969,35.591-1.6,52.941l-.145,4c-.182,5.053-.623,10.2-1.049,15.17q-.154,1.808-.306,3.614a3.3,3.3,0,0,1-.123.68c-.345-.231-.7-.489-1.065-.757a23.181,23.181,0,0,0-1.953-1.328c-2.954-1.734-5.659-2.138-8.038-1.2-2.9,1.142-5.034,4.13-6.526,9.134a86.433,86.433,0,0,0-2.426,12.821c-2.465,18.047-3.1,36.637-3.708,54.614q-.2,5.883-.419,11.756c-.434,11.213-1.279,22.553-2.1,33.518-.71,9.525-1.444,19.373-1.908,29.116-.192,4.048-.756,8.17-1.3,12.156l-.234,1.713a2.929,2.929,0,0,1-.686,1.686,37.344,37.344,0,0,1-3.413-3.809c-.449-.547-.9-1.094-1.353-1.627-2.872-3.367-5.612-4.823-8.38-4.447-2.965.4-5.476,2.884-7.674,7.588a55.621,55.621,0,0,0-4.408,15.8,319.534,319.534,0,0,0-3.225,39.093q-.033,1.707-.061,3.413c-.089,5.1-.18,10.371-.448,15.516a453.04,453.04,0,0,0-.109,46.527c.572,11.159.122,22.465-.313,33.4-.275,6.895-.558,14.024-.585,21.07a11.9,11.9,0,0,1-.174,1.634l-.061.411a5.8,5.8,0,0,1-.88,2.671,2.869,2.869,0,0,1-.569-.528,53.273,53.273,0,0,1-8.735-13.966,96.855,96.855,0,0,0-10-17.169c-1.686-2.416-3.582-3.622-5.673-3.6-2.191.029-4.225,1.445-6.049,4.208a25.923,25.923,0,0,0-3.516,8.714c-3.9,17.279-5.87,31.769-6.211,45.6q-.644,26.122-1.3,52.245c-.054,2.117-.125,4.234-.2,6.35-.061,1.841-.123,3.682-.174,5.524-.133,4.872-1.135,6.1-2.6,6.449a9.76,9.76,0,0,0-5.421,3.506c-3.195,4.193-5.368,4.011-7.837,2.356a6.288,6.288,0,0,0-5.082-1.08c-2.276.54-4.293,2.41-6.163,5.717a58.521,58.521,0,0,0-4.582,12.073c-.381,1.277-.775,2.6-1.183,3.866a18.812,18.812,0,0,0-.535,2.315c-.077.418-.162.872-.263,1.3-.474-.82-.9-1.743-1.342-2.693-.282-.609-.574-1.239-.885-1.854a30.782,30.782,0,0,0-8.195-10.631c-2.8-2.2-5.444-2.975-7.857-2.305-2.889.8-5.211,3.611-7.1,8.584-2.234,5.881-3.364,12.228-4.331,18.226-2.4,14.9-3.626,30.288-4.588,43.545-.614,8.455-1.467,18.244-3.842,27.41a15.918,15.918,0,0,1-.529,1.75c-.158-.052-.371-.128-.656-.242-1.9-.76-4.133-1.411-6.221-.48-2.237,1-3.372,3.4-4.266,5.84a54.346,54.346,0,0,0-3.228,16.44c-.388,9.262-.833,18.678-1.264,27.783l-.31,6.574a163.174,163.174,0,0,1-4.521,31.978,6.083,6.083,0,0,1-.774,1.951,4.622,4.622,0,0,1-.655-.919c-.663-1.164-1.307-2.439-1.93-3.673a49.221,49.221,0,0,0-3.662-6.436c-2.117-2.957-4.4-3.582-5.952-3.586h-.013c-1.654,0-4.129.706-6.547,4.052a25.472,25.472,0,0,0-4.238,9.546c-.891,4.076-1.9,8.9-2.625,13.8-.674,4.556-1.268,9.208-1.843,13.707-.4,3.15-.818,6.406-1.258,9.6a27.571,27.571,0,0,1-.611,3.55,8.769,8.769,0,0,1-1.056-.024c-7.433-.488-10.667,6.99-11.735,9.446a108.26,108.26,0,0,0-4.472,12.769c-.853,2.906-1.591,5.919-2.3,8.834-.539,2.2-1.1,4.481-1.7,6.672a266.782,266.782,0,0,1-10.379,31.547,9.839,9.839,0,0,1-.523,1.1,9.373,9.373,0,0,1-.519-.869c-.431-.81-.862-1.673-1.278-2.507a45.24,45.24,0,0,0-3.312-5.892c-2.186-3.091-4.6-4.843-7.16-5.206a8.456,8.456,0,0,0-6.552,2.107c-.237.19-.472.391-.708.594a8.379,8.379,0,0,1-1.291.982l-.605-1.391c-.961-2.21-1.955-4.5-3.006-6.757-3.015-6.491-7.737-7.107-11.167-6.478-2.912.532-5.453,2.329-7.553,5.34a59.314,59.314,0,0,0-7.623,15.733q-.3.906-.588,1.817a69.349,69.349,0,0,1-4.745,12.115,18.788,18.788,0,0,1-1.653,2.622,15.814,15.814,0,0,1-1.473-2.081c-1-1.6-1.986-3.311-2.939-4.966-.895-1.556-1.821-3.165-2.776-4.711-1.984-3.211-4.282-5.116-6.83-5.663a8.571,8.571,0,0,0-6.719,1.6,27,27,0,0,0-2.585,2.077c-1.261,1.1-2.565,2.238-3.556,2.4-.554.1-1.711-1.988-2.326-3.105a17.9,17.9,0,0,0-2.43-3.678c-1.57-1.666-3.7-3.546-6.257-3.3-2.681.26-4.573,2.746-5.922,4.883-1.833,2.9-3.461,6.116-5.034,9.225-.636,1.255-1.272,2.51-1.921,3.745a9.007,9.007,0,0,1-.854,1.37,11.106,11.106,0,0,1-.711-2.335c-1.44-6.775-2.72-13.846-3.916-21.617a116.017,116.017,0,0,0-3.593-17.253c-2.269-7.232-4.753-10.691-8.056-11.215-3.912-.621-7.239,3.35-9.4,6.389a68.693,68.693,0,0,0-6.6,12.272c-3.357,7.707-6.9,15.262-10.226,22.277a2.549,2.549,0,0,1-.441.686,2.455,2.455,0,0,1-.459-.625,45.164,45.164,0,0,1-2-4.325c-.327-.777-.655-1.555-1-2.313-.429-.954-.852-1.966-1.262-2.945a50.511,50.511,0,0,0-3.327-6.952c-1.721-2.8-3.753-4.264-6.04-4.368-2.267-.1-4.438,1.175-6.4,3.8-1.3,1.742-2.488,3.607-3.633,5.424q-.5-1.3-.993-2.607-.565-1.494-1.136-2.985c-2.73-7.113-5.566-10.9-9.2-12.284-2.959-1.126-6.287-.643-10.474,1.518-1.127.582-1.5.527-1.584.5-.043-.015-.437-.179-.982-1.364l-.064-.141a6.713,6.713,0,0,0-.606-1.123c-1.646-2.343-3.919-5.035-6.9-5.044h-.016c-2.9,0-5.032,2.47-6.565,4.623-2.019,2.837-3.837,6.018-5.6,9.094q-.679,1.191-1.362,2.373c-.568.979-1.063,2.018-1.541,3.022-.416.873-.81,1.7-1.237,2.464a76.306,76.306,0,0,1-2.458-8.218,194.717,194.717,0,0,0-5.509-18.734c-1.018-3.071-2.07-6.247-3.024-9.413a26.577,26.577,0,0,0-1.734-4.421c-1.923-3.757-4.254-5.741-6.931-5.9-2.6-.148-5.05,1.447-7.262,4.752-3.262,4.873-5.04,11-6.582,16.857-.3,1.151-.584,2.325-.855,3.46a53.561,53.561,0,0,1-2.31,7.938q-.141-.162-.31-.37a24.936,24.936,0,0,0-2.78-2.958c-1.825-1.609-4.609-3.677-7.734-3.07-2.633.511-4.779,2.682-6.958,7.038-1.564,3.125-2.887,6.543-4.167,9.848-.432,1.115-.864,2.229-1.3,3.333a24.392,24.392,0,0,1-1.747,3.727,24.776,24.776,0,0,1-1.96-3.8c-.725-1.639-1.4-3.4-2.062-5.1-.77-1.994-1.566-4.057-2.463-6.008-2.346-5.106-5.623-7.943-9.226-7.987h-.086c-3.558,0-6.853,2.731-9.288,7.7a37.055,37.055,0,0,0-2.384,6.59c-.886,3.291-1.615,6.714-2.32,10.025l-.034.16q-.573,2.689-1.15,5.377c-1.448,6.76-2.945,13.751-4.292,20.695-1.118,5.766-2.5,8.339-4.935,9.178-3.409,1.175-5.46,4.713-7.168,8.36a38.739,38.739,0,0,0-3.052,11.58c-.185,1.456-.346,2.935-.5,4.365-.178,1.636-.362,3.328-.581,4.967a3.751,3.751,0,0,1-.285,1.1,17.028,17.028,0,0,1-2.444-1.019l-.072-.034a7.728,7.728,0,0,0-6.215-.442c-2.613.98-4.832,3.538-6.6,7.605a90.384,90.384,0,0,0-3.977,11.883c-1.171,4.283-2.291,8.672-3.374,12.916-1.047,4.1-2.129,8.338-3.251,12.46-.6,2.2-1.335,4.289-2.115,6.5-.455,1.288-.926,2.62-1.362,3.964-.992,3.065-2.666,5.1-4.591,5.586a4.908,4.908,0,0,1-4.568-1.574l-.695-.67a37.645,37.645,0,0,0-4.221-3.7,9.453,9.453,0,0,0-7.162-1.95c-2.65.452-5.084,2.225-7.236,5.27a47.036,47.036,0,0,0-3.687,6.6c-1.283,2.646-2.555,5.365-3.786,7.994-2.021,4.319-4.111,8.785-6.287,13-2.678,5.188-5.068,7.882-7.1,8.01-1.924.133-4.408-2.025-7.395-6.377-.773-1.125-1.54-2.344-2.281-3.524a66.262,66.262,0,0,0-3.885-5.734c-2.715-3.451-5.432-5.155-8.306-5.209-2.829-.065-5.569,1.505-8.34,4.765a28.859,28.859,0,0,0-2.13,2.986c-.459.706-.894,1.372-1.347,1.976-1.695,2.257-2.556,2.614-2.918,2.625h-.017c-.283,0-1.082-.219-2.7-2.106-2.809-3.28-5.588-6.8-8.261-10.454-2.927-4-6.162-6.306-9.614-6.84-3.175-.488-6.481.506-9.83,2.961l-.449.33c-1.67,1.225-3.4,2.492-5.1,3.643q-.395.267-.788.538a26.625,26.625,0,0,1-3.915,2.375c-1.063.478-3.554,1.6-6.2-3.559a33.7,33.7,0,0,1-1.662-3.668q-1.743-4.7-3.507-9.375c-5.544-14.762-11.276-30.027-15.645-46.023a82.433,82.433,0,0,0-3.551-10.892c-1.8-4.145-4.036-6.336-6.662-6.512-2.579-.169-5.021,1.621-7.255,5.331a29.592,29.592,0,0,0-1.721,3.537c-.213.493-.426.986-.649,1.466-.76,1.644-1.52,3.289-2.324,5.031-.347-.416-.674-.823-.99-1.243-1.481-1.97-3.157-2.974-4.981-2.985h-.031c-2.05,0-4.013,1.25-6,3.821a19.181,19.181,0,0,0-2.172,4.063c-.146.336-.292.672-.441,1-.387.85-.742,1.726-1.086,2.572-.474,1.17-.923,2.274-1.435,3.287a2.753,2.753,0,0,1-.631.9,2.329,2.329,0,0,1-.581-.546c-2.353-2.889-3.488-7.029-4.363-11.073q-.206-.951-.4-1.907c-.913-4.355-1.857-8.857-4.033-12.621-1.85-3.2-4.439-4.884-7.113-4.612-2.761.281-5.067,2.611-6.325,6.394a95.514,95.514,0,0,0-2.639,10.694c-.2.964-.4,1.926-.6,2.882-.437,2.033-.829,4.111-1.207,6.122-.3,1.569-.6,3.178-.923,4.763-.073-.163-.152-.328-.238-.491-2.92-5.542-5.658-8.18-8.876-8.554-3.835-.45-7.02,2.656-9.085,5.028a36.4,36.4,0,0,0-3.1,4.38c-.332.522-.664,1.045-1,1.554-.185.28-.559.843-.94,1.378-.337-1-.686-2.248-.88-2.939-.26-.926-.514-1.857-.769-2.788-.943-3.449-1.918-7.016-3.171-10.327-2.476-6.544-5.9-7.657-7.727-7.737-1.777-.072-5.152.671-8,6.567a47.839,47.839,0,0,0-2.265,6.075q-.233.723-.468,1.439c-.521,1.572-1.013,3.185-1.49,4.744-.331,1.084-.662,2.167-1,3.243-.364-2.079-.7-4.2-1.036-6.255-.485-3.013-.986-6.129-1.568-9.17l-.236-1.242a75.178,75.178,0,0,0-2.75-11.324c-1.542-4.283-4.458-6.9-7.8-7l-.194,0c-3.289,0-6.285,2.434-8.044,6.552a46.418,46.418,0,0,0-3.423,13.872,42.57,42.57,0,0,1-1.84,10.2q-.069-.063-.153-.147c-2.409-2.419-4.927-3.547-7.478-3.342-2.943.232-5.689,2.164-8.395,5.908-.165.229-.325.47-.484.712a9.684,9.684,0,0,1-.56.794,8.053,8.053,0,0,1-1.16,1.188,11.609,11.609,0,0,1-1.137-2.7c-1.664-5.169-2.153-10.995-2.627-16.629q-.105-1.254-.213-2.5c-.41-4.631-.727-9.371-1.034-13.955-.289-4.32-.588-8.788-.965-13.175a107.852,107.852,0,0,0-1.8-11.772c-1.106-5.527-3.552-9.747-7.27-12.539a6.425,6.425,0,0,0-4.659-1.644,6.319,6.319,0,0,0-3.972,2.826,30.319,30.319,0,0,0-6.115,18.765c-.008,3.832,0,7.914.219,12,.561,10.612-1.146,19.268-5.219,26.465a37.648,37.648,0,0,0-4.336,14.7c-.378,3.472-.98,6.984-1.575,10.262a20.942,20.942,0,0,1-3.617,9.069c-1.725,2.286-2.668,1.951-3.292,1.73-2.1-.743-4.181-2.132-5.249-7.215q-.663-3.16-1.308-6.332c-1.634-7.985-3.325-16.241-5.566-24.124-1.514-5.324-3.428-10.7-7.156-13.932-3.888-3.374-5.58-8.337-5.485-16.093a30.315,30.315,0,0,0-5.838-18.991c-.82-1.1-1.639-2.28-2.431-3.424-1.26-1.821-2.564-3.7-3.975-5.4-2.813-3.384-3.761-7.934-2.986-14.318.249-2.058.416-4.155.576-6.183.206-2.6.419-5.293.809-7.836a52.982,52.982,0,0,0-2.084-23.985c-2.065-6.733-3.074-14.236-3.178-23.615-.133-11.988-.577-23.6-1.32-34.5a194.834,194.834,0,0,0-5.7-34.864,43.587,43.587,0,0,0-7.438-16.18c-2.655-3.391-5.043-3.721-6.578-3.4-2.546.529-4.434,3.088-5.612,7.608a55.7,55.7,0,0,0-1.4,8.339c-1.477,14.5-3.151,30.934-2.922,47.5.064,4.616-.064,8.979-2.293,11.62-6.644,7.868-8.342,17.926-5.344,31.652.225,1.03.395,2.087.575,3.206.068.429.138.859.21,1.287a105.09,105.09,0,0,1,1.024,17.356c.008,4.479-.922,7.221-3.107,9.168-4.305,3.835-6.4,9.95-6.413,18.694,0,1.639-.059,3.323-.113,4.953-.063,1.881-.129,3.826-.114,5.76a33.243,33.243,0,0,1-2.944,14.7c-2.218,4.632-3.567,9.834-4.873,14.864-.314,1.214-.629,2.429-.957,3.635-.957,3.534-1.8,6.8-2.583,9.987-1.457,5.94-3.372,8.732-6.613,9.635-6.564,1.831-10.835,8.462-12.027,18.67-.446,3.824-.765,7.73-1.074,11.507l-.025.3c-.125,1.531-.218,3.084-.309,4.586-.141,2.355-.288,4.79-.558,7.122-.634,5.46-1.052,9.067-2,10.3-.669.872-2.4,1.008-6.295,1.235-.062,0-.124,0-.187,0a5.567,5.567,0,0,0-.679.021c-8.67.88-10.649,8.827-11.383,14.728-.185,1.488-.238,2.991-.29,4.444-.034.955-.067,1.858-.133,2.758l-.078,1.049c-.316,4.285-.643,8.715-1.067,13.037-.1.993-.425,1.746-.779,1.792a4.23,4.23,0,0,1-.836-.045,8.64,8.64,0,0,0-1.25-.076c-10.269.192-13.131,9.228-14.39,16.008-.3,1.628-.555,3.289-.8,4.895-.217,1.433-.442,2.916-.7,4.342-.646,3.594-1.45,8.065-2.191,8.488-.5.282-3.453-.813-5.044-1.4-8.378-3.1-11.614,4.426-12.677,6.9-.537,1.247-.978,2.56-1.405,3.829-.409,1.215-.794,2.362-1.249,3.43-1.152,2.709-1.9,2.89-1.931,2.9,0,0-.535.089-1.885-1.208-.964-.926-1.882-2.006-2.853-3.15a42.305,42.305,0,0,0-3.474-3.77c-3.06-2.815-6.081-4.018-8.981-3.567-3.261.5-6.128,2.987-8.766,7.59-.52.908-.984,1.86-1.432,2.782-.481.989-.936,1.924-1.437,2.767a2.4,2.4,0,0,1-.672.813,1.52,1.52,0,0,1-.355-.234,9.012,9.012,0,0,1-.771-.788,12.463,12.463,0,0,0-1.16-1.165c-2.824-2.387-5.89-4.552-9.172-4.175-3.209.362-5.735,2.922-8.541,6.654a90.9,90.9,0,0,0-8.1,13.336c-1.683,3.3-2.71,3.651-2.985,3.68-.251.027-1.244-.083-3.356-2.667-.789-.964-1.579-2.01-2.342-3.021s-1.57-2.079-2.392-3.087c-3-3.686-6.046-5.627-9.3-5.936-2.913-.276-5.861.82-8.769,3.258a17.418,17.418,0,0,1-1.623,1.253c-.407-.578-1.028-1.746-1.547-2.724-.236-.444-.468-.9-.7-1.354a26.531,26.531,0,0,0-3.142-5.154c-2.21-2.59-4.667-3.882-7.107-3.732-1.49.09-3.658.788-5.519,3.6-1.98,2.988-3.127,3.645-3.74,3.67-.491.026-1.644-.363-3.829-3.148-2.308-2.941-4.841-4.357-7.535-4.195-3.18.186-6.207,2.592-9,7.153a26.323,26.323,0,0,0-1.364,2.669c-.345.744-.671,1.448-1.029,2.063-1.261,2.17-1.9,2.28-1.91,2.28s-.583.007-2-1.722c-.9-1.1-1.751-2.3-2.651-3.571a50.7,50.7,0,0,0-3.889-5.027c-1.576-1.711-4.012-3.945-6.958-3.571-3.105.392-5.122,3.455-6.532,6.08a67.651,67.651,0,0,0-3.075,6.959c-.538,1.353-1.1,2.753-1.676,4.061a2.218,2.218,0,0,1-.542.807,1.2,1.2,0,0,1-.106-.1,50.369,50.369,0,0,1-4.07-4.9c-3.4-4.478-7.754-5.211-12.274-2.061a20.308,20.308,0,0,0-5.531,6.274c-.578.946-1.144,1.909-1.711,2.872-.967,1.644-1.967,3.344-3,4.9-1.272,1.923-2.1,2.4-2.574,2.469-.591.08-1.5-.394-2.639-1.374-2.127-1.837-3.668-4.857-4.894-7.57-2.306-5.1-5.035-8.618-8.342-10.763-7.677-4.977-15.188-3.2-22.325,5.292-2.718,3.232-4.887,7.439-7.034,13.642-.849,2.453-1.372,2.992-1.525,3.1a4.29,4.29,0,0,1-1.627-.807,46.12,46.12,0,0,1-6.508-5.371,31.059,31.059,0,0,0-9.889-6.46,9.1,9.1,0,0,0-9.64,1.209,5.718,5.718,0,0,0-2.146,5.78c.323,1.555,1.994,3.627,3.946,3.5,4.326-.3,8.451,1.959,13.371,7.329a30.5,30.5,0,0,0,5.835,4.87,18.392,18.392,0,0,0,5.85,2.617,8.849,8.849,0,0,0,2.022.24c2.664,0,6.115-1.3,8.356-7.057.565-1.451,1.087-2.949,1.592-4.4.342-.98.684-1.96,1.039-2.928,2.033-5.537,6.154-9.5,10.02-9.639,3.921-.161,6.51,3.734,7.987,7.01a45.244,45.244,0,0,0,6.182,9.852c3.605,4.441,8.038,6.641,12.169,6.033,2.811-.413,6.758-2.355,9.592-9.256a43.815,43.815,0,0,1,2.714-5.371c1.942-3.345,3.152-3.632,3.477-3.639h.02c.719,0,1.779.973,2.843,2.609a14.225,14.225,0,0,0,2.133,2.616c2.986,2.814,5.872,3.934,8.576,3.333,3.171-.706,5.75-3.668,7.884-9.054.472-1.192.882-2.429,1.279-3.625.427-1.29.831-2.507,1.3-3.662a3.909,3.909,0,0,1,.63-1.114,2.62,2.62,0,0,1,.454.422,44.289,44.289,0,0,1,2.827,3.7,29.527,29.527,0,0,0,5.284,6.149c2.03,1.621,4.744,3.407,7.742,2.8,3.253-.656,5.418-3.951,6.942-6.748,1.8-3.3,3.5-6.425,4.3-6.851.8.183,3.036,2.422,5.2,4.588,2.288,2.293,4.366,3.3,6.541,3.231,2.215-.09,4.268-1.337,6.46-3.922a34.352,34.352,0,0,1,2.892-3.187,41.891,41.891,0,0,1,3.039,4.838c1.867,3.217,4.239,6.57,7.679,7.046,3.208.442,5.972-1.829,7.775-3.578,1.105-1.071,2.053-1.585,2.8-1.542.866.056,1.937.879,3.184,2.447.576.725,1.146,1.464,1.718,2.2a59.982,59.982,0,0,0,5.781,6.78c3.57,3.41,6.939,3.731,9.138,3.4,3.651-.549,6.917-3.227,9.446-7.748.786-1.405,1.508-2.889,2.207-4.324.853-1.75,1.658-3.4,2.565-4.921,1.019-1.7,3.138-5.251,4.327-5.478.973-.186,3.381,1.664,4.538,2.553.188.145.371.3.555.462.261.223.53.455.832.68,1.99,1.487,4.375,2.94,7,2.463,2.789-.511,4.716-3,6.382-5.612.722-1.132,1.365-2.345,1.988-3.517.53-1,1.031-1.943,1.57-2.829a12.978,12.978,0,0,1,1.992-2.785,10.126,10.126,0,0,1,1.929,1.692c.974,1,1.905,2.1,2.89,3.258a49.5,49.5,0,0,0,4.091,4.451c3.1,2.856,6.186,3.953,9.173,3.265,3.558-.821,6.485-4.114,8.7-9.785.43-1.1.8-2.242,1.153-3.344.335-1.045.653-2.031,1.016-2.976.617-1.6,1.165-1.866,1.225-1.891a.814.814,0,0,1,.5.1c.6.275,1.208.613,1.852.972.567.315,1.154.642,1.764.939,2.479,1.211,5.119,2.2,7.625,1.226,2.7-1.048,4.339-4.025,6.107-8.491a67.525,67.525,0,0,0,3.374-13.743c.174-1.055.264-2.116.351-3.142.082-.956.159-1.858.3-2.725.568-3.585,1.3-5.671,2.165-6.2.491-.3,1.441-.221,2.823.234.591.195,1.2.448,1.84.717a18.1,18.1,0,0,0,3.709,1.238,5.545,5.545,0,0,0,4.538-1.061c1.843-1.435,2.939-4.065,3.171-7.6.114-1.749.088-3.5.062-5.2-.01-.689-.02-1.377-.021-2.064,0-1.658-.017-3.316-.032-4.974-.031-3.425-.062-6.967.025-10.426.092-3.693.265-7.375,1.25-8.3.647-.609,2.561-.634,4.531-.564.185.007.371.027.556.045a10.335,10.335,0,0,0,1.064.067c8.229,0,11.116-5.5,12.919-13.749a79.438,79.438,0,0,0,1.369-11.888c.052-.817.1-1.634.162-2.452.45-6.392.985-13.22,1.835-19.844.193-1.5,1.034-6.427,3.746-6.665,7.5-.657,10.972-8.1,13.383-15.287,1.156-3.448,2.6-7.739,3.6-12.076a99.215,99.215,0,0,1,5.978-18.766c2.185-4.824,3.362-10.389,3.7-17.513.2-4.215.243-7.668.132-10.867-.2-5.649.821-8.745,3.515-10.688,3.947-2.846,6.012-8.159,5.971-15.364-.008-1.468,0-2.936.007-4.4.033-6.422.068-13.062-1.262-19.6-.6-2.921-.961-6.056-1.315-9.088-.138-1.182-.277-2.364-.428-3.54-.451-3.506.042-6.207,1.509-8.257.445-.623.853-1.272,1.248-1.9.33-.525.642-1.02.964-1.484,3.793-5.476,5.511-12.176,5.252-20.483-.225-7.191-.168-14.73.168-22.41.265-6.059.8-12.215,1.319-18.169q.16-1.843.319-3.684a66.557,66.557,0,0,1,2.342,7.541,155.825,155.825,0,0,1,3.293,21.652,367.955,367.955,0,0,1,1.321,40.085,84.53,84.53,0,0,0,3.667,27.157c1.587,5.062,3.2,11.859,1.563,19.564a60.443,60.443,0,0,0-.956,8.03c-.123,1.662-.251,3.381-.462,5.005-1.551,11.914.988,21.563,7.545,28.679,4.9,5.315,8.164,10.871,8.176,20.709.012,8.509,2.647,15.378,7.421,19.34,2.445,2.028,4.3,5.6,5.5,10.624l1.036,4.3c1.067,4.43,2.17,9.011,3.223,13.53.461,1.981.9,4.017,1.334,5.986.537,2.469,1.094,5.021,1.694,7.514,1.128,4.679,2.8,8.075,5.12,10.383,5.529,5.5,10.463,5.737,13.63,4.966,5.535-1.354,10.189-6.779,12.767-14.885a83.466,83.466,0,0,0,3-15.119,41.175,41.175,0,0,1,4.556-15.175c3.11-5.62,4.923-12.688,5.543-21.607.2-2.922.142-5.887.084-8.755-.03-1.463-.061-2.976-.055-4.446l0-1.4c.006-2.478.013-5.025.105-7.531a51.533,51.533,0,0,1,.735,5.6c.369,5.444.691,10.994,1,16.361.251,4.326.511,8.8.794,13.2.644,10.028,2.034,17.805,4.374,24.474,1.691,4.825,3.974,8.426,6.979,11.01,3.086,2.653,6.633,2.405,9.488-.662a25.966,25.966,0,0,0,2.67-3.656c.307-.475.613-.95.937-1.423a29.592,29.592,0,0,1,2.369-3.213,24.939,24.939,0,0,1,2.435,1.823,5.5,5.5,0,0,1,.394.388,6.952,6.952,0,0,0,1.031.933c2.245,1.578,4.408,2.079,6.43,1.49,2.448-.716,4.408-2.941,5.992-6.8a58.245,58.245,0,0,0,3.047-12.554l.211-1.265c.138-.814.264-1.633.39-2.453.067-.43.132-.854.2-1.274,1.026,5.655,1.932,11.261,2.611,15.548,1.008,6.354,2.325,10.872,4.271,14.647,1.977,3.835,4.319,4.742,5.936,4.829s4.009-.554,6.337-4.086a34.572,34.572,0,0,0,4.383-10.584c.8-3.078,1.805-6.116,2.809-9.07.215.745.426,1.489.634,2.222.681,2.4,1.385,4.875,2.161,7.272a52.653,52.653,0,0,0,3.313,8.471c2.351,4.406,5.234,5.076,6.742,5.084,1.541,0,4.467-.651,6.927-5.147a27.648,27.648,0,0,0,1.428-3.243,25.25,25.25,0,0,1,1.16-2.681,41.936,41.936,0,0,1,3.583-5.629c.036-.047.069-.087.1-.122a3.178,3.178,0,0,1,.357.6c.4.853.785,1.766,1.159,2.648a30.753,30.753,0,0,0,3.789,7.138c1.833,2.324,3.818,3.474,5.914,3.387,2.122-.077,4.067-1.4,5.782-3.933a25.681,25.681,0,0,0,3.7-10.01c.844-4.591,1.73-9.166,2.519-13.191.325,1.03.633,2.082.935,3.111a48.014,48.014,0,0,0,3.777,10.064c3.211,5.7,6.5,8.5,10.066,8.573,3.343.08,6.4-2.228,9.341-7.011l.242-.39c.292-.466.595-.949.879-1.5,1-1.931,1.653-2.277,1.887-2.336a2.727,2.727,0,0,1,1.742.677c1.734,1.183,4.035,2.468,6.452,1.887,2.489-.6,4.2-2.92,6.01-6.223a38.458,38.458,0,0,0,1.691-3.686c.259-.623.507-1.218.765-1.792.525,1.624,1.019,3.3,1.5,4.935.282.955.563,1.91.851,2.86.4,1.306.779,2.624,1.162,3.941.871,3,1.772,6.1,2.836,9.046,2.07,5.733,4.256,11.48,6.37,17.038q1.657,4.356,3.3,8.72a106.569,106.569,0,0,0,9.285,19.525c6.152,9.8,13.019,8.47,17.7,5.631a95.546,95.546,0,0,0,9.4-6.384c1.722-1.344,3.163-1.906,4.408-1.723,1.288.192,2.617,1.253,3.952,3.153,2.25,3.206,4.79,6.521,7.765,10.133,3.727,4.529,7.385,6.681,11.189,6.6,3.82-.085,7.407-2.43,10.966-7.168.425-.566.805-1.157,1.173-1.729s.7-1.09,1.051-1.548a8.728,8.728,0,0,1,1.044-1.188,11.039,11.039,0,0,1,1.3,1.879c.323.545.623,1.162.942,1.815a21.326,21.326,0,0,0,1.608,2.9c3.913,5.587,7.605,9.267,11.616,11.583,4.794,2.766,9.756,2.36,14.35-1.179a27.966,27.966,0,0,0,9.026-11.1q1.674-3.771,3.33-7.559,1.8-4.1,3.61-8.192.492-1.107.978-2.223c1.084-2.476,2.2-5.037,3.418-7.367a6.139,6.139,0,0,1,1.12-1.68,4.421,4.421,0,0,1,.993.7c.609.523,1.207,1.1,1.84,1.708a33.781,33.781,0,0,0,2.919,2.6c4.043,3.075,8.33,4.157,12.4,3.129,5.036-1.272,9.368-5.628,12.528-12.6a93.123,93.123,0,0,0,5.4-16.2q.736-2.961,1.464-5.93c1.581-6.425,3.214-13.07,5-19.47a23.794,23.794,0,0,1,1.6-4.636,15.465,15.465,0,0,1,2.556.835c.27.1.539.213.808.323a15.537,15.537,0,0,0,3.381,1.076c7.788,1.266,10.042-5.467,11.058-10.638a40.884,40.884,0,0,0,.541-4.438c.046-.535.091-1.069.144-1.6q.129-1.268.267-2.534c.242-2.266.493-4.609.639-6.952.4-6.413,2.468-7.965,3.989-8.574a24.758,24.758,0,0,0,2.429-1.115c3.2-1.69,5.318-4.916,6.31-9.587.942-4.443,1.808-8.994,2.645-13.395l.273-1.438q.882-4.632,1.747-9.273c.972-5.191,1.978-10.558,3.01-15.812a42.47,42.47,0,0,1,1.115-4.27c.242.643.48,1.288.714,1.922.642,1.738,1.3,3.534,2.043,5.252l.132.309c1.842,4.3,3.746,8.738,7.089,11.733,2.74,2.455,5.395,3.459,7.9,2.982,2.711-.517,4.972-2.656,6.912-6.537a74.68,74.68,0,0,0,2.951-7.113q.4-1.075.81-2.141a37.445,37.445,0,0,0,1.126-3.668c.519-1.917,1.229-4.543,2.119-5.092a1.47,1.47,0,0,1,.149-.081,11.26,11.26,0,0,1,1.759,2.7,16.51,16.51,0,0,0,2.146,3.344c2.992,3.267,5.717,4.588,8.339,4.046,2.971-.618,5.247-3.5,7.163-9.072a58.031,58.031,0,0,0,1.649-6.341q.179-.818.362-1.628c.465-2.042.915-4.092,1.365-6.141.654-2.979,1.329-6.054,2.042-9.053q.52,1.86,1.046,3.725c1.838,6.534,3.739,13.291,5.46,20.043a61.272,61.272,0,0,0,4.656,12.846c1.954,3.82,4.767,6.081,7.92,6.364,2.9.255,5.734-1.21,7.97-4.141a58.562,58.562,0,0,0,5.011-8.466q.408-.786.817-1.563c.724-1.376,1.376-2.829,2.007-4.234.413-.921.813-1.812,1.225-2.668.248.885.464,1.8.662,2.641.881,3.742,2.963,6.2,5.711,6.753,2.516.5,5.123-.723,6.973-3.281.516-.712,1.02-1.445,1.523-2.178.82-1.195,1.594-2.323,2.418-3.36a1.575,1.575,0,0,1,.226-.235,1.963,1.963,0,0,1,.339.515,68.307,68.307,0,0,1,3.182,7.758c.652,1.894,1.252,3.9,1.832,5.832.587,1.959,1.195,3.985,1.866,5.943,1.069,3.116,2.894,7.3,6.4,7.7,3.619.408,6.153-3.655,6.984-4.992.568-.912,1.064-1.883,1.543-2.821l.034-.068a31.038,31.038,0,0,0,1.716-4.457,27.413,27.413,0,0,1,1.483-3.89,21.8,21.8,0,0,1,1.972,4.35,36.119,36.119,0,0,0,1.578,3.776c.327.64.656,1.28,1,1.9,3.74,6.858,7.034,9.858,10.605,9.762,3.67-.11,6.867-3.478,10.367-10.922,2.058-4.379,4.094-8.885,6.061-13.242,1.646-3.645,3.349-7.414,5.053-11.081.256-.553.5-1.147.732-1.721a11.676,11.676,0,0,1,1.638-3.177h0c.393.151.777,1.626,1.143,4.385.089.671.181,1.365.3,2.01.848,4.712,1.608,9.559,2.342,14.247.51,3.259,1.039,6.629,1.593,9.935,1.2,7.14,2.87,12.416,5.261,16.605,2.1,3.674,4.525,5.607,7.219,5.747,2.546.125,4.966-1.354,7.166-4.42a33.347,33.347,0,0,0,2.735-4.928c.6-1.229,1.157-2.389,1.784-3.425a20.084,20.084,0,0,0,1.572-3.652c.362-1.02,1.03-2.9,1.512-3.23a9.832,9.832,0,0,1,1.763,2.766,17.292,17.292,0,0,0,2.007,3.3c.216.256.437.561.671.883a14.747,14.747,0,0,0,1.184,1.488c2.458,2.606,5.453,2.843,8.016.632a19.724,19.724,0,0,0,1.809-1.855c.289-.324.578-.648.875-.953,1.848-1.9,3.755-3.859,4.563-4.232.724.631,2.094,3.341,3.552,6.224,2.084,4.122,4.47,8.327,7.793,11.171,1.415,1.211,3.6,2.784,6.234,2.486,2.778-.316,4.778-2.628,6.041-4.339a47.282,47.282,0,0,0,6.86-13.748c1.574-4.923,3.217-9.813,4.9-14.806a18.8,18.8,0,0,1,3.427-6.611c.316-.353.546-.424.591-.424h0c.056.011.342.2.6.878.625,1.6,1.189,3.328,1.734,5,.475,1.456.965,2.96,1.5,4.415,1.349,3.63,3.35,7.9,6.888,8.664,3.192.693,6.048-1.726,7.918-3.6a13.122,13.122,0,0,0,1.075-1.275,9.433,9.433,0,0,1,.745-.894,4.205,4.205,0,0,1,.559-.477,5.762,5.762,0,0,1,.77,1.183c.571,1.079,1.124,2.245,1.661,3.373.823,1.734,1.675,3.526,2.658,5.169,2.564,4.286,5.291,6.447,8.334,6.606,2.991.163,5.83-1.622,8.7-5.44a43.62,43.62,0,0,0,6.137-11.567,242.6,242.6,0,0,0,7.74-24.858l.929-3.838c1.722-7.127,3.5-14.5,5.477-21.576a21.638,21.638,0,0,1,1.609-4.633,12.332,12.332,0,0,1,2.708.681c5.593,1.812,8.309-3.433,9.2-5.156,2.039-3.935,2.684-8.5,3.17-12.841l.153-1.368c1.022-9.133,2.079-18.578,3.357-27.775.056-.4.107-.819.159-1.241a25.76,25.76,0,0,1,.626-3.659c.4.9.786,1.764,1.172,2.625.309.688.609,1.387.909,2.086.7,1.623,1.419,3.3,2.249,4.867,2.741,5.172,5.778,7.709,8.981,7.543,3.292-.171,6.132-3.155,8.442-8.871,2.481-6.144,3.825-12.853,4.908-19.186,2.368-13.843,3.414-28.936,3.294-47.5-.028-4.271.056-8.114.255-11.75a11.313,11.313,0,0,1,.535-3.742,4.354,4.354,0,0,1,1.224.155,6.716,6.716,0,0,0,6.005-1.323,12.726,12.726,0,0,0,3.464-5.35,65.254,65.254,0,0,0,2.528-7.615,163.14,163.14,0,0,0,4.565-27.943q.27-3.514.532-7.031c1.016-13.522,2.066-27.5,4.065-40.988.732-4.941,1.785-9.794,2.62-13.47.01-.046.021-.091.032-.133a69.369,69.369,0,0,1,4.417,7.265c.953,1.873,1.856,3.9,2.729,5.854.995,2.23,2.024,4.537,3.16,6.7,1.744,3.323,4.261,5.113,6.9,4.911,2.769-.212,5.122-2.562,6.456-6.449.993-2.892,1.723-5.989,2.429-8.985.341-1.447.694-2.943,1.068-4.378.216-.826.427-1.655.639-2.483.711-2.779,1.446-5.652,2.3-8.344a2.16,2.16,0,0,1,.727-1.23.735.735,0,0,1,.474.05,12.027,12.027,0,0,1,1.759.912c.293.172.586.344.881.5,4.27,2.346,8.306,1.215,11.364-3.186.429-.618.87-1.216,1.31-1.815.327-.445.655-.89.978-1.342.711-.995,1-.954,1.824-.673,2.664.912,4.817,1.3,6.667.2,2.142-1.27,2.951-3.942,3.772-8.745a62.1,62.1,0,0,0,.886-7.242c.152-2.95.321-5.9.491-8.845.5-8.753,1.023-17.8,1.073-26.8q.021-3.534.026-7.07c.035-13.6.071-27.665,1.533-41.345.9-8.441,1.923-17.986,4.129-26.867l.512,1.078c1.941,4.076,3.947,8.291,5.648,12.64a66.959,66.959,0,0,0,8.9,15.616c1.943,2.624,4.145,3.978,6.547,4.022,5.65.1,11.617-5.82,13.579-13.484a58.643,58.643,0,0,0,1.1-6.057l.149-1.015c1.441-9.7,1.508-19.648,1.573-29.269q.014-2.076.032-4.15c.094-9.787.08-19.734.067-29.353-.028-20.744-.057-42.194.988-63.247.5-10.131,1.22-19.344,2.19-28.166a72.268,72.268,0,0,1,1.919-9.463l.106-.426a2.7,2.7,0,0,1,.278-.716c.761.892,1.523,1.876,2.261,2.829a43.359,43.359,0,0,0,4.5,5.216c3.023,2.816,5.848,2.991,7.685,2.64,3.169-.6,5.907-3.158,7.919-7.385a34.479,34.479,0,0,0,2.948-11.7q.356-3.762.727-7.519c.625-6.4,1.273-13.01,1.765-19.551.828-10.986,1.663-22.75,2.173-34.35.352-7.992.605-16.122.851-23.984.264-8.476.537-17.24.934-25.838.433-9.392,1.195-19.266,2.263-29.346a53.475,53.475,0,0,1,1.194-8.072,34.781,34.781,0,0,1,3.881,2.364c.152.1.3.213.448.324a8.631,8.631,0,0,0,1.124.755c3.4,1.836,5.963,1.346,7.509.612,2.882-1.368,4.846-4.677,5.836-9.834a124.6,124.6,0,0,0,1.968-16.608l.316-5.77c.984-17.912,2-36.434,2.584-54.7.687-21.485,1.082-43.346,1.466-64.486q.116-6.375.233-12.747c.223-11.948.328-24.1.43-35.844l.079-8.907A54.605,54.605,0,0,0,1939.008,662.9Z"/><rect class="cls-26" x="462.978" y="554.571" width="19.721" height="1388.493"/><rect class="cls-26" x="472.839" y="1891.685" width="1681.095" height="19.721"/><rect class="cls-28" x="763.015" y="1894.687" width="13.683" height="37.481"/><rect class="cls-28" x="1056.884" y="1895.312" width="13.683" height="36.855"/><rect class="cls-28" x="1350.753" y="1897.032" width="13.683" height="38.166"/><rect class="cls-28" x="1644.622" y="1897.266" width="13.683" height="34.238"/><rect class="cls-28" x="1938.491" y="1896.875" width="13.683" height="34.893"/><polygon class="cls-28" points="2135.995 1868.459 2135.995 1933.026 2188.756 1899.85 2135.995 1868.459"/><polygon class="cls-28" points="440.136 567.719 504.703 567.719 471.526 514.959 440.136 567.719"/><path class="cls-28" d="M679.71,2021.312v-4.95l6.325-6.141c15.215-14.482,22.089-22.181,22.181-31.164,0-6.049-2.933-11.64-11.824-11.64-5.408,0-9.9,2.749-12.649,5.041l-2.566-5.683a26.141,26.141,0,0,1,16.865-6.05c12.832,0,18.24,8.8,18.24,17.324,0,11-7.974,19.89-20.531,31.989l-4.767,4.4v.184h26.764v6.691Z"/><path class="cls-28" d="M766.326,1990.881c0,20.257-7.516,31.439-20.715,31.439-11.64,0-19.523-10.907-19.706-30.614,0-19.981,8.616-30.981,20.715-30.981C759.177,1960.725,766.326,1971.908,766.326,1990.881Zm-32.355.917c0,15.49,4.766,24.289,12.1,24.289,8.249,0,12.19-9.624,12.19-24.839,0-14.666-3.758-24.29-12.1-24.29C739.1,1966.958,733.971,1975.574,733.971,1991.8Z"/><path class="cls-28" d="M791.256,1969.25h-.183l-10.358,5.591-1.558-6.141,13.016-6.966h6.874v59.578h-7.791Z"/><path class="cls-28" d="M854.774,1967.417a29.147,29.147,0,0,0-6.05.366c-12.648,2.108-19.339,11.366-20.714,21.174h.274a17.754,17.754,0,0,1,14.391-6.875c10.541,0,17.965,7.608,17.965,19.248,0,10.908-7.424,20.99-19.8,20.99-12.741,0-21.082-9.9-21.082-25.389,0-11.733,4.216-20.99,10.083-26.856a32.428,32.428,0,0,1,19.065-8.8,38.688,38.688,0,0,1,5.866-.459Zm-2.292,34.371c0-8.524-4.858-13.656-12.282-13.656a13.273,13.273,0,0,0-11.549,7.332,6.866,6.866,0,0,0-.916,3.575c.183,9.807,4.674,17.048,13.107,17.048C847.808,2016.087,852.482,2010.313,852.482,2001.788Z"/><path class="cls-28" d="M1269.572,2021.312v-4.95l6.325-6.141c15.215-14.482,22.09-22.181,22.181-31.164,0-6.049-2.933-11.64-11.824-11.64-5.408,0-9.9,2.749-12.648,5.041l-2.567-5.683a26.144,26.144,0,0,1,16.865-6.05c12.832,0,18.24,8.8,18.24,17.324,0,11-7.974,19.89-20.531,31.989l-4.767,4.4v.184h26.765v6.691Z"/><path class="cls-28" d="M1356.189,1990.881c0,20.257-7.516,31.439-20.715,31.439-11.641,0-19.524-10.907-19.707-30.614,0-19.981,8.616-30.981,20.715-30.981C1349.039,1960.725,1356.189,1971.908,1356.189,1990.881Zm-32.356.917c0,15.49,4.766,24.289,12.1,24.289,8.249,0,12.19-9.624,12.19-24.839,0-14.666-3.758-24.29-12.1-24.29C1328.966,1966.958,1323.833,1975.574,1323.833,1991.8Z"/><path class="cls-28" d="M1381.118,1969.25h-.183l-10.357,5.591-1.559-6.141,13.016-6.966h6.874v59.578h-7.791Z"/><path class="cls-28" d="M1409.9,2006.188c0-7.516,4.491-12.832,11.824-15.948l-.092-.276c-6.6-3.116-9.441-8.249-9.441-13.382,0-9.44,7.975-15.857,18.423-15.857,11.549,0,17.324,7.242,17.324,14.666,0,5.041-2.475,10.449-9.808,13.932v.275c7.425,2.933,12.008,8.158,12.008,15.4,0,10.358-8.891,17.324-20.257,17.324C1417.414,2022.32,1409.9,2014.9,1409.9,2006.188Zm32.08-.367c0-7.241-5.041-10.724-13.107-13.015-6.966,2.017-10.724,6.6-10.724,12.282-.275,6.05,4.308,11.366,11.916,11.366C1437.3,2016.454,1441.978,2011.963,1441.978,2005.821Zm-22.181-29.788c0,5.957,4.491,9.165,11.366,11,5.132-1.742,9.074-5.408,9.074-10.816,0-4.766-2.842-9.716-10.083-9.716C1423.463,1966.5,1419.8,1970.9,1419.8,1976.033Z"/><path class="cls-28" d="M1859.434,2021.312v-4.95l6.325-6.141c15.215-14.482,22.089-22.181,22.181-31.164,0-6.049-2.933-11.64-11.824-11.64-5.407,0-9.9,2.749-12.649,5.041l-2.566-5.683a26.141,26.141,0,0,1,16.865-6.05c12.832,0,18.24,8.8,18.24,17.324,0,11-7.974,19.89-20.531,31.989l-4.766,4.4v.184h26.764v6.691Z"/><path class="cls-28" d="M1946.05,1990.881c0,20.257-7.515,31.439-20.714,31.439-11.641,0-19.524-10.907-19.707-30.614,0-19.981,8.616-30.981,20.715-30.981C1938.9,1960.725,1946.05,1971.908,1946.05,1990.881Zm-32.355.917c0,15.49,4.766,24.289,12.1,24.289,8.249,0,12.19-9.624,12.19-24.839,0-14.666-3.758-24.29-12.1-24.29C1918.828,1966.958,1913.7,1975.574,1913.7,1991.8Z"/><path class="cls-28" d="M1953.473,2021.312v-4.95l6.325-6.141c15.215-14.482,22.089-22.181,22.181-31.164,0-6.049-2.933-11.64-11.824-11.64-5.407,0-9.9,2.749-12.649,5.041l-2.566-5.683a26.141,26.141,0,0,1,16.865-6.05c12.832,0,18.24,8.8,18.24,17.324,0,11-7.974,19.89-20.531,31.989l-4.766,4.4v.184h26.764v6.691Z"/><path class="cls-28" d="M2040.089,1990.881c0,20.257-7.515,31.439-20.714,31.439-11.641,0-19.524-10.907-19.707-30.614,0-19.981,8.616-30.981,20.715-30.981C2032.94,1960.725,2040.089,1971.908,2040.089,1990.881Zm-32.355.917c0,15.49,4.766,24.289,12.1,24.289,8.249,0,12.19-9.624,12.19-24.839,0-14.666-3.758-24.29-12.1-24.29C2012.867,1966.958,2007.734,1975.574,2007.734,1991.8Z"/><path class="cls-27" d="M1824.428,634.962V622.51a1.72,1.72,0,0,0,.195-.464c.208-2.1.341-4.205.608-6.3,3.185-24.849,13.761-46.049,31.837-63.361,17.32-16.587,38.038-26.083,61.893-28.71a23.541,23.541,0,0,0,4.656-.569h12.03c.29.274.663.187,1,.209a105.513,105.513,0,1,1-20.575,209.9,102.742,102.742,0,0,1-62.5-31.835C1837.1,684.1,1827.649,663.47,1825,639.726A22.222,22.222,0,0,0,1824.428,634.962Zm120.488-8.367c.149-.142.17-.177.2-.188.294-.113.589-.225.885-.332a21.266,21.266,0,0,0,10.814-8.048c2.676-3.959,3.169-8.423,2.838-13.041a17.925,17.925,0,0,0-4.6-11.295c-3.461-3.753-7.876-5.69-12.727-6.79-.851-.192-1.034-.532-1.027-1.329.037-4.15,0-8.3.034-12.451.007-.8-.177-1.094-1.042-1.079-3.094.053-6.19.046-9.285,0-.815-.012-1.078.2-1.068,1.049.046,3.868.005,7.737.033,11.606,0,.683-.189.9-.888.9-3.446-.033-6.894-.04-10.34,0-.787.009-1.02-.214-1.012-1.007.038-3.833-.008-7.667.037-11.5.01-.85-.255-1.058-1.07-1.046q-4.588.068-9.179,0c-.869-.015-1.134.222-1.123,1.11.048,3.762-.012,7.527.043,11.289.013.955-.29,1.18-1.2,1.158-2.531-.06-5.065-.03-7.6-.017-1.676.008-1.48-.215-1.48,1.435q-.008,33.87,0,67.74c0,5.311.016,10.622-.017,15.933-.005.782.2,1.023,1,1.009,2.743-.048,5.487.014,8.23-.038.85-.016,1.067.266,1.06,1.077-.036,3.8,0,7.6-.03,11.394-.007.785.158,1.1,1.036,1.087q4.641-.084,9.285,0c.858.015,1.05-.268,1.042-1.073-.038-3.8,0-7.6-.032-11.395-.007-.79.155-1.105,1.035-1.091q5.064.079,10.129,0c.929-.016,1.087.317,1.078,1.149-.04,3.8,0,7.6-.034,11.395-.008.778.193,1.026,1,1.014q4.693-.067,9.39,0c.792.011,1.014-.219,1.007-1.008-.037-4.149,0-8.3-.033-12.45-.005-.727.175-1.03.943-1.173a32,32,0,0,0,9.813-3.427c7.811-4.347,11.9-10.853,11.7-19.945a20.264,20.264,0,0,0-14.882-19.642C1947.606,627.2,1946.31,626.936,1944.916,626.6Zm-34.1-80.242c-.445-1.79-.915-3.592-1.332-5.407-.142-.62-.361-.76-1.009-.605a92.3,92.3,0,0,0-13.359,4.206c-27.532,11.2-54.246,39.968-56.093,79.966a92.523,92.523,0,0,0,7.548,41.337,87.908,87.908,0,0,0,27.173,34.915c.635.5.938.45,1.392-.183.819-1.142,1.726-2.221,2.6-3.326,1.006-1.277,1.014-1.287-.234-2.25a75.8,75.8,0,0,1-17.618-18.9c-14.146-21.957-17.558-45.665-10.823-70.83a77.947,77.947,0,0,1,13.472-26.785c10.486-13.922,23.821-23.953,40.4-29.54,2.367-.8,4.8-1.379,7.215-1.986C1910.454,546.885,1910.9,546.922,1910.813,546.353Zm20.762-8.844c-1.388,0-2.8.038-4.2-.015-.762-.029-1.061.169-1.029.99.062,1.615.069,3.237,0,4.851-.039.875.287,1.056,1.086,1.042a86.243,86.243,0,0,1,12.839.653,83.656,83.656,0,0,1,40.832,16.613,85.585,85.585,0,0,1,16.274,16.736,82.255,82.255,0,0,1,16.362,41.884,94.946,94.946,0,0,1,.409,11.274c-.013.738.214.973.951.952,1.687-.048,3.377-.042,5.064,0,.669.016.814-.249.825-.863a93.52,93.52,0,0,0-4-29.764,91.4,91.4,0,0,0-14.7-28.291,89.867,89.867,0,0,0-21.821-20.773C1965.675,542.97,1949.293,538.111,1931.575,537.509Zm-.442,182.242a91.51,91.51,0,0,0,12.488-1.171c25.288-4.367,45.64-16.678,60.5-37.734a85.981,85.981,0,0,0,12.111-24.359c.236-.767.182-1.11-.658-1.33-1.324-.347-2.612-.829-3.916-1.249-1.62-.523-1.6-.515-2.161,1.135-6.535,19.309-18.321,34.51-35.683,45.254a84.134,84.134,0,0,1-36.058,12.177,93.019,93.019,0,0,1-10.956.408c-.794-.012-1.039.234-1.015,1.019.052,1.687.032,3.376.008,5.064-.008.588.2.809.8.8C1928.108,719.731,1929.62,719.751,1931.133,719.751Zm-16.376-7.429c-.029-.619-.577-.516-.936-.608-7.876-2.02-15.656-4.31-22.9-8.11-.62-.325-.837-.109-1.087.435-.674,1.469-1.349,2.942-2.125,4.358-.449.821-.285,1.124.541,1.543a108.627,108.627,0,0,0,22.088,7.91c.879.228,1.957.815,2.605.512.755-.353.633-1.667.9-2.558C1914.191,714.662,1914.454,713.494,1914.757,712.322Z"/><path class="cls-29" d="M1944.916,626.6c1.394.341,2.69.6,3.954.977a20.264,20.264,0,0,1,14.882,19.642c.2,9.092-3.888,15.6-11.7,19.945a32,32,0,0,1-9.813,3.427c-.768.143-.948.446-.943,1.173.032,4.15,0,8.3.033,12.45.007.789-.215,1.019-1.007,1.008q-4.7-.066-9.39,0c-.8.012-1-.236-1-1.014.038-3.8-.006-7.6.034-11.395.009-.832-.149-1.165-1.078-1.149q-5.064.086-10.129,0c-.88-.014-1.042.3-1.035,1.091.034,3.8-.006,7.6.032,11.395.008.805-.184,1.088-1.042,1.073q-4.641-.078-9.285,0c-.878.016-1.043-.3-1.036-1.087.032-3.8-.006-7.6.03-11.394.007-.811-.21-1.093-1.06-1.077-2.743.052-5.487-.01-8.23.038-.8.014-1-.227-1-1.009.033-5.311.017-10.622.017-15.933q0-33.87,0-67.74c0-1.65-.2-1.427,1.48-1.435,2.532-.013,5.066-.043,7.6.017.908.022,1.211-.2,1.2-1.158-.055-3.762.005-7.527-.043-11.289-.011-.888.254-1.125,1.123-1.11q4.589.075,9.179,0c.815-.012,1.08.2,1.07,1.046-.045,3.833,0,7.667-.037,11.5-.008.793.225,1.016,1.012,1.007,3.446-.04,6.894-.033,10.34,0,.7.007.893-.214.888-.9-.028-3.869.013-7.738-.033-11.606-.01-.852.253-1.061,1.068-1.049,3.1.043,6.191.05,9.285,0,.865-.015,1.049.276,1.042,1.079-.036,4.15,0,8.3-.034,12.451-.007.8.176,1.137,1.027,1.329,4.851,1.1,9.266,3.037,12.727,6.79a17.925,17.925,0,0,1,4.6,11.295c.331,4.618-.162,9.082-2.838,13.041A21.266,21.266,0,0,1,1946,626.075c-.3.107-.591.219-.885.332C1945.086,626.418,1945.065,626.453,1944.916,626.6Zm-29.8,19.214c0,2.955.007,5.909-.006,8.864,0,.58.008.991.809.986,5.768-.036,11.537.038,17.3-.064a13.006,13.006,0,0,0,7.921-2.491,9.14,9.14,0,0,0,3.547-9.057c-.445-3.328-2.655-5.22-5.587-6.434a19.7,19.7,0,0,0-6.044-1.371c-5.725-.451-11.461-.106-17.191-.224-.748-.016-.759.389-.757.928C1915.117,639.9,1915.112,642.855,1915.112,645.809Zm0-34.993c0,2.743.021,5.486-.014,8.228-.009.721.192.969.943.964,4.536-.034,9.072.02,13.608-.04a13.6,13.6,0,0,0,7.059-1.854c3.118-1.911,4.288-4.79,4.032-8.344a7.573,7.573,0,0,0-4.968-6.739,18.252,18.252,0,0,0-7.2-1.4c-4.149-.05-8.3.011-12.448-.039-.888-.01-1.037.325-1.027,1.1C1915.134,605.4,1915.112,608.109,1915.112,610.816Z"/><path class="cls-29" d="M1910.813,546.353c.087.569-.359.532-.672.61-2.42.607-4.848,1.188-7.215,1.986-16.579,5.587-29.914,15.618-40.4,29.54a77.947,77.947,0,0,0-13.472,26.785c-6.735,25.165-3.323,48.873,10.823,70.83a75.8,75.8,0,0,0,17.618,18.9c1.248.963,1.24.973.234,2.25-.87,1.105-1.777,2.184-2.6,3.326-.454.633-.757.681-1.392.183a87.908,87.908,0,0,1-27.173-34.915,92.523,92.523,0,0,1-7.548-41.337c1.847-40,28.561-68.766,56.093-79.966a92.3,92.3,0,0,1,13.359-4.206c.648-.155.867-.015,1.009.605C1909.9,542.761,1910.368,544.563,1910.813,546.353Z"/><path class="cls-29" d="M1931.575,537.509c17.718.6,34.1,5.461,48.891,15.286a89.867,89.867,0,0,1,21.821,20.773,91.4,91.4,0,0,1,14.7,28.291,93.52,93.52,0,0,1,4,29.764c-.011.614-.156.879-.825.863-1.687-.039-3.377-.045-5.064,0-.737.021-.964-.214-.951-.952a94.946,94.946,0,0,0-.409-11.274,82.255,82.255,0,0,0-16.362-41.884,85.585,85.585,0,0,0-16.274-16.736,83.656,83.656,0,0,0-40.832-16.613,86.243,86.243,0,0,0-12.839-.653c-.8.014-1.125-.167-1.086-1.042.071-1.614.064-3.236,0-4.851-.032-.821.267-1.019,1.029-.99C1928.779,537.547,1930.187,537.509,1931.575,537.509Z"/><path class="cls-29" d="M1931.133,719.751c-1.513,0-3.025-.02-4.537.01-.6.013-.806-.208-.8-.8.024-1.688.044-3.377-.008-5.064-.024-.785.221-1.031,1.015-1.019a93.019,93.019,0,0,0,10.956-.408,84.134,84.134,0,0,0,36.058-12.177c17.362-10.744,29.148-25.945,35.683-45.254.558-1.65.541-1.658,2.161-1.135,1.3.42,2.592.9,3.916,1.249.84.22.894.563.658,1.33a85.981,85.981,0,0,1-12.111,24.359c-14.865,21.056-35.217,33.367-60.5,37.734A91.51,91.51,0,0,1,1931.133,719.751Z"/><path class="cls-29" d="M1914.757,712.322c-.3,1.172-.566,2.34-.911,3.482-.27.891-.148,2.205-.9,2.558-.648.3-1.726-.284-2.605-.512a108.627,108.627,0,0,1-22.088-7.91c-.826-.419-.99-.722-.541-1.543.776-1.416,1.451-2.889,2.125-4.358.25-.544.467-.76,1.087-.435,7.244,3.8,15.024,6.09,22.9,8.11C1914.18,711.806,1914.728,711.7,1914.757,712.322Z"/><path class="cls-27" d="M1915.112,645.809c0-2.954,0-5.908,0-8.863,0-.539.009-.944.757-.928,5.73.118,11.466-.227,17.191.224a19.7,19.7,0,0,1,6.044,1.371c2.932,1.214,5.142,3.106,5.587,6.434a9.14,9.14,0,0,1-3.547,9.057,13.006,13.006,0,0,1-7.921,2.491c-5.767.1-11.536.028-17.3.064-.8,0-.811-.406-.809-.986C1915.119,651.718,1915.112,648.764,1915.112,645.809Z"/><path class="cls-27" d="M1915.112,610.816c0-2.707.022-5.415-.014-8.122-.01-.774.139-1.109,1.027-1.1,4.149.05,8.3-.011,12.448.039a18.252,18.252,0,0,1,7.2,1.4,7.573,7.573,0,0,1,4.968,6.739c.256,3.554-.914,6.433-4.032,8.344a13.6,13.6,0,0,1-7.059,1.854c-4.536.06-9.072.006-13.608.04-.751,0-.952-.243-.943-.964C1915.133,616.3,1915.112,613.559,1915.112,610.816Z"/><rect class="cls-30" x="345.847" y="325.788" width="1922.332" height="1922.332"/></g></g></svg>