<?xml version="1.0" encoding="utf-8" ?>	<!-- Generator: Assembly 2.4 - http://assemblyapp.co -->	<svg version="1.1" xmlns="http://www.w3.org/2000/svg" xmlns:xlink="http://www.w3.org/1999/xlink" width="4096.00" height="4096.00" viewBox="0 0 4096.0 4096.0">		<g id="document" transform="scale(13.653333333333334 13.653333333333334) translate(150.0 150.0)">			<g>				<path d="M19.8291,98.1896 C51.8456,98.1896 62.8808,98.1896 62.8808,98.1896 C62.8808,98.1896 77.9408,98.1879 102.742,98.1851 C102.094,77.8729 85.3041,65.8522 65.2649,65.0906 C42.375,64.2207 22.55,72.2723 20.0552,95.0425 C19.9396,96.097 19.8647,97.1465 19.8291,98.1896 Z " fill="#65a7f3" fill-opacity="1.00" />				<path d="M82.5757,44.5112 C80.7332,32.7522 69.707,24.7133 57.948,26.5559 C46.189,28.3984 38.1501,39.4246 39.9927,51.1836 C41.8352,62.9426 52.8614,70.9814 64.6204,69.1389 C76.3794,67.2963 84.4182,56.2701 82.5757,44.5112 Z " fill="#65a7f3" fill-opacity="1.00" />			</g>			<g>				<path d="M-103.422,98.1896 C-71.4052,98.1896 -60.37,98.1896 -60.37,98.1896 C-60.37,98.1896 -45.31,98.1879 -20.5084,98.1851 C-21.1563,77.8729 -37.9467,65.8522 -57.9859,65.0906 C-80.8758,64.2207 -100.701,72.2723 -103.196,95.0425 C-103.311,96.097 -103.386,97.1465 -103.422,98.1896 Z " fill="#65a7f3" fill-opacity="1.00" />				<path d="M-40.6751,44.5112 C-42.5176,32.7522 -53.5438,24.7133 -65.3028,26.5559 C-77.0618,28.3984 -85.1007,39.4246 -83.2581,51.1836 C-81.4156,62.9426 -70.3894,70.9814 -58.6304,69.1389 C-46.8714,67.2963 -38.8326,56.2701 -40.6751,44.5112 Z " fill="#65a7f3" fill-opacity="1.00" />			</g>			<g>				<g>					<g>						<path d="M-51.088,-25.8711 L-51.088,-11.5017 " fill="none" stroke-width="1.95" stroke="#65a6f3" stroke-linecap="square" stroke-linejoin="miter" />						<path d="M-66.6132,-17.2715 L-66.6132,-6.29376 " fill="none" stroke-width="1.95" stroke="#65a6f3" stroke-linecap="square" stroke-linejoin="miter" />						<path d="M-81.7197,-24.3426 L-81.7197,-15.4775 " fill="none" stroke-width="1.95" stroke="#65a6f3" stroke-linecap="square" stroke-linejoin="miter" />						<path d="M-66.6132,-2.31881 L-66.6132,0.379482 " fill="none" stroke-width="1.95" stroke="#65a6f3" stroke-linecap="square" stroke-linejoin="miter" />						<path d="M-66.6132,4.62327 L-66.6132,7.32156 " fill="none" stroke-width="1.95" stroke="#65a6f3" stroke-linecap="square" stroke-linejoin="miter" />						<path d="M-81.7197,-11.3804 L-81.7197,0.42711 " fill="none" stroke-width="1.95" stroke="#65a6f3" stroke-linecap="square" stroke-linejoin="miter" />					</g>					<g>						<g>							<path d="M-47.3062,-32.0064 C-47.3062,-42.1972 -55.5674,-50.4584 -65.7581,-50.4584 C-75.9488,-50.4584 -84.21,-42.1972 -84.21,-32.0064 C-84.21,-21.8157 -75.9488,-13.5545 -65.7581,-13.5545 C-55.5674,-13.5545 -47.3062,-21.8157 -47.3062,-32.0064 Z " fill="#65a6f3" fill-opacity="1.00" />							<path d="M-69.8044,-46.7554 C-71.287,-46.3847 -72.7387,-45.7361 -74.0051,-44.9021 C-75.9511,-43.6666 -77.5572,-41.9678 -78.7928,-40.0218 C-79.5341,-38.8481 -80.1518,-37.489 -80.5225,-36.13 C-80.8622,-34.7709 -81.0785,-33.381 -81.0785,-31.9292 C-81.0785,-29.0875 -80.3063,-26.4621 -79.009,-24.1764 C-78.5148,-23.2806 -77.8661,-22.4467 -77.1557,-21.6436 C-76.6615,-21.1185 -76.1364,-20.5934 -75.5495,-20.1301 M-72.4299,-18.1533 C-71.4106,-17.6591 -70.2986,-17.3193 -69.1249,-17.0104 M-65.8816,-16.6706 C-63.5033,-16.6706 -61.2485,-17.2266 -59.2717,-18.1533 C-58.067,-18.7401 -56.9551,-19.4197 -55.9667,-20.2536 C-55.4107,-20.7787 -54.8547,-21.242 -54.3605,-21.8289 C-53.7736,-22.4776 -53.2485,-23.2189 -52.7543,-23.9911 C-52.1983,-24.9486 -51.7041,-25.8752 -51.3644,-26.9254 M-50.4377,-31.9292 C-50.4377,-34.4311 -50.9937,-36.7477 -52.0439,-38.8172 C-52.5072,-39.713 -52.9705,-40.516 -53.5574,-41.2265 C-54.2678,-42.2149 -55.0709,-43.0488 -55.9975,-43.821 C-56.3682,-44.1608 -56.7389,-44.4079 -57.1713,-44.7168 C-58.4068,-45.5508 -59.7659,-46.1994 -61.2485,-46.6627 C-62.7311,-47.0951 -64.2137,-47.3422 -65.789,-47.3422 " fill="none" stroke-width="1.20" stroke="#21212b" stroke-linecap="square" stroke-linejoin="miter" />						</g>						<g>							<path d="M-70.7898,-27.7219 L-65.5409,-27.7219 C-64.9738,-27.7219 -64.4036,-27.7822 -63.8305,-27.9029 C-63.2573,-28.0235 -62.7415,-28.2226 -62.2829,-28.5002 C-61.8244,-28.7777 -61.4503,-29.1427 -61.1607,-29.5952 C-60.8711,-30.0477 -60.7263,-30.6118 -60.7263,-31.2875 C-60.7263,-31.6978 -60.7927,-32.0839 -60.9254,-32.4459 C-61.0582,-32.8079 -61.2482,-33.1247 -61.4956,-33.3962 C-61.7429,-33.6677 -62.0386,-33.8909 -62.3825,-34.0659 C-62.7264,-34.2408 -63.1095,-34.3585 -63.5318,-34.4188 L-63.5318,-34.455 C-62.8682,-34.6601 -62.3342,-35.001 -61.93,-35.4776 C-61.5257,-35.9543 -61.3236,-36.5546 -61.3236,-37.2786 C-61.3236,-37.9784 -61.4624,-38.5395 -61.7399,-38.9619 C-62.0175,-39.3842 -62.3795,-39.713 -62.8259,-39.9483 C-63.2724,-40.1836 -63.7762,-40.3405 -64.3373,-40.4189 C-64.8984,-40.4973 -65.4564,-40.5365 -66.0115,-40.5365 L-70.7898,-40.5365 L-70.7898,-27.7219 Z M-67.9663,-38.1474 L-66.0477,-38.1474 C-65.8305,-38.1474 -65.6073,-38.1263 -65.378,-38.084 C-65.1487,-38.0418 -64.9436,-37.9724 -64.7626,-37.8759 C-64.5816,-37.7793 -64.4338,-37.6436 -64.3192,-37.4686 C-64.2045,-37.2937 -64.1472,-37.0734 -64.1472,-36.808 C-64.1472,-36.5546 -64.1985,-36.3374 -64.3011,-36.1564 C-64.4036,-35.9754 -64.5394,-35.8306 -64.7083,-35.722 C-64.8772,-35.6134 -65.0673,-35.535 -65.2784,-35.4867 C-65.4896,-35.4384 -65.7038,-35.4143 -65.921,-35.4143 L-67.9663,-35.4143 L-67.9663,-38.1474 Z M-67.9663,-33.0251 L-65.8305,-33.0251 C-65.6012,-33.0251 -65.3539,-33.007 -65.0884,-32.9708 C-64.8229,-32.9346 -64.5756,-32.8682 -64.3463,-32.7717 C-64.117,-32.6752 -63.927,-32.5334 -63.7762,-32.3464 C-63.6253,-32.1593 -63.5499,-31.915 -63.5499,-31.6133 C-63.5499,-31.3358 -63.6072,-31.1005 -63.7219,-30.9074 C-63.8365,-30.7144 -63.9843,-30.5575 -64.1653,-30.4368 C-64.3463,-30.3162 -64.5484,-30.2317 -64.7717,-30.1834 C-64.9949,-30.1352 -65.2151,-30.111 -65.4323,-30.111 L-67.9663,-30.111 L-67.9663,-33.0251 Z " fill="#332b44" fill-opacity="1.00" />							<path d="M-70.7898,-24.4878 L-60.7263,-24.4878 " fill="none" stroke-width="2.02" stroke="#332b44" stroke-linecap="square" stroke-linejoin="miter" />						</g>					</g>				</g>				<g>					<g>						<path d="M-41.9217,-0.274373 L-41.9217,14.0776 " fill="none" stroke-width="1.17" stroke="#65a6f3" stroke-linecap="square" stroke-linejoin="miter" />						<path d="M-51.357,7.48881 L-51.357,21.8408 " fill="none" stroke-width="1.17" stroke="#65a6f3" stroke-linecap="square" stroke-linejoin="miter" />						<path d="M-60.4599,3.22792 L-60.4599,8.56983 " fill="none" stroke-width="1.17" stroke="#65a6f3" stroke-linecap="square" stroke-linejoin="miter" />						<path d="M-41.9217,16.4989 L-41.9217,21.8408 " fill="none" stroke-width="1.17" stroke="#65a6f3" stroke-linecap="square" stroke-linejoin="miter" />						<path d="M-51.357,24.0799 L-51.357,25.7058 " fill="none" stroke-width="1.17" stroke="#65a6f3" stroke-linecap="square" stroke-linejoin="miter" />						<path d="M-60.4599,11.0386 L-60.4599,12.6646 " fill="none" stroke-width="1.17" stroke="#65a6f3" stroke-linecap="square" stroke-linejoin="miter" />					</g>					<g>						<g>							<path d="M-39.7201,2.48116 C-39.7201,-3.48701 -44.5582,-8.32517 -50.5264,-8.32517 C-56.4945,-8.32517 -61.3327,-3.48701 -61.3327,2.48116 C-61.3327,8.44932 -56.4945,13.2875 -50.5264,13.2875 C-44.5582,13.2875 -39.7201,8.44932 -39.7201,2.48116 Z " fill="#65a6f3" fill-opacity="1.00" />							<path d="M-52.8961,-6.15652 C-53.7644,-5.93945 -54.6146,-5.55957 -55.3562,-5.07116 C-56.4959,-4.34759 -57.4365,-3.35267 -58.1601,-2.21304 C-58.5942,-1.52564 -58.956,-0.729709 -59.1731,0.0662241 C-59.3721,0.862157 -59.4987,1.67618 -59.4987,2.52638 C-59.4987,4.1906 -59.0465,5.7282 -58.2867,7.06682 C-57.9973,7.59141 -57.6174,8.07982 -57.2014,8.55014 C-56.9119,8.85766 -56.6044,9.16518 -56.2607,9.43652 M-54.4337,10.5942 C-53.8367,10.8837 -53.1855,11.0827 -52.4981,11.2636 M-50.5987,11.4625 C-49.2059,11.4625 -47.8853,11.1369 -46.7276,10.5942 C-46.0221,10.2505 -45.3709,9.85258 -44.792,9.36417 C-44.4664,9.05665 -44.1408,8.78531 -43.8514,8.44161 C-43.5077,8.06173 -43.2002,7.62759 -42.9107,7.17535 C-42.5851,6.61458 -42.2957,6.0719 -42.0967,5.45686 M-41.554,2.52638 C-41.554,1.06114 -41.8797,-0.295563 -42.4947,-1.50755 C-42.766,-2.03214 -43.0374,-2.50247 -43.3811,-2.91852 C-43.7971,-3.49738 -44.2675,-3.9858 -44.8101,-4.43803 C-45.0272,-4.63702 -45.2443,-4.78173 -45.4975,-4.96262 C-46.2211,-5.45104 -47.017,-5.83091 -47.8853,-6.10226 C-48.7536,-6.35551 -49.6219,-6.50022 -50.5445,-6.50022 " fill="none" stroke-width="0.70" stroke="#21212b" stroke-linecap="square" stroke-linejoin="miter" />						</g>						<g>							<path d="M-53.2223,4.77677 L-50.41,4.77677 C-50.1061,4.77677 -49.8007,4.74444 -49.4936,4.67979 C-49.1865,4.61514 -48.9101,4.50847 -48.6644,4.35977 C-48.4188,4.21107 -48.2183,4.01551 -48.0632,3.77307 C-47.908,3.53063 -47.8304,3.22838 -47.8304,2.86634 C-47.8304,2.64653 -47.866,2.43964 -47.9371,2.24569 C-48.0082,2.05174 -48.1101,1.88203 -48.2426,1.73657 C-48.3751,1.5911 -48.5335,1.4715 -48.7178,1.37776 C-48.902,1.28401 -49.1073,1.22098 -49.3336,1.18865 L-49.3336,1.16926 C-48.978,1.05935 -48.6919,0.876713 -48.4753,0.621343 C-48.2588,0.365972 -48.1505,0.0443348 -48.1505,-0.34357 C-48.1505,-0.718544 -48.2248,-1.01917 -48.3735,-1.24545 C-48.5222,-1.47172 -48.7162,-1.6479 -48.9554,-1.77397 C-49.1946,-1.90004 -49.4645,-1.98408 -49.7651,-2.02611 C-50.0657,-2.06813 -50.3648,-2.08914 -50.6621,-2.08914 L-53.2223,-2.08914 L-53.2223,4.77677 Z M-51.7095,-0.809055 L-50.6815,-0.809055 C-50.5652,-0.809055 -50.4456,-0.797741 -50.3227,-0.775113 C-50.1999,-0.752486 -50.09,-0.715311 -49.993,-0.663591 C-49.896,-0.61187 -49.8168,-0.539138 -49.7554,-0.445395 C-49.694,-0.351651 -49.6633,-0.233663 -49.6633,-0.0914317 C-49.6633,0.0443348 -49.6908,0.160706 -49.7457,0.257682 C-49.8007,0.354658 -49.8734,0.432239 -49.9639,0.490425 C-50.0544,0.548611 -50.1563,0.590634 -50.2694,0.616494 C-50.3825,0.642354 -50.4973,0.655284 -50.6137,0.655284 L-51.7095,0.655284 L-51.7095,-0.809055 Z M-51.7095,1.93537 L-50.5652,1.93537 C-50.4423,1.93537 -50.3098,1.94507 -50.1676,1.96446 C-50.0253,1.98386 -49.8928,2.01941 -49.77,2.07114 C-49.6471,2.12286 -49.5453,2.19882 -49.4645,2.29903 C-49.3837,2.39924 -49.3433,2.53016 -49.3433,2.69178 C-49.3433,2.84048 -49.374,2.96655 -49.4354,3.06999 C-49.4968,3.17343 -49.576,3.25748 -49.673,3.32213 C-49.77,3.38678 -49.8783,3.43203 -49.9979,3.45789 C-50.1175,3.48375 -50.2355,3.49668 -50.3518,3.49668 L-51.7095,3.49668 L-51.7095,1.93537 Z " fill="#332b44" fill-opacity="1.00" />							<path d="M-53.2223,6.50952 L-47.8304,6.50952 " fill="none" stroke-width="1.08" stroke="#332b44" stroke-linecap="square" stroke-linejoin="miter" />						</g>					</g>				</g>			</g>			<g>				<g>					<g>						<path d="M61.7121,-6.24165 L61.7121,-19.387 " fill="none" stroke-width="1.78" stroke="#65a6f3" stroke-linecap="square" stroke-linejoin="miter" />						<path d="M75.9149,-14.1087 L75.9149,-24.1513 " fill="none" stroke-width="1.78" stroke="#65a6f3" stroke-linecap="square" stroke-linejoin="miter" />						<path d="M89.7345,-7.63996 L89.7345,-15.7499 " fill="none" stroke-width="1.78" stroke="#65a6f3" stroke-linecap="square" stroke-linejoin="miter" />						<path d="M75.9149,-27.7876 L75.9149,-30.2561 " fill="none" stroke-width="1.78" stroke="#65a6f3" stroke-linecap="square" stroke-linejoin="miter" />						<path d="M75.9149,-34.1384 L75.9149,-36.6068 " fill="none" stroke-width="1.78" stroke="#65a6f3" stroke-linecap="square" stroke-linejoin="miter" />						<path d="M61.9501,-23.1907 L61.9501,-33.9924 " fill="none" stroke-width="1.78" stroke="#65a6f3" stroke-linecap="square" stroke-linejoin="miter" />					</g>					<g>						<g>							<path d="M75.1326,16.2511 C84.4552,16.2511 92.0127,8.69367 92.0127,-0.628947 C92.0127,-9.95157 84.4552,-17.509 75.1326,-17.509 C65.8099,-17.509 58.2525,-9.95157 58.2525,-0.62895 C58.2525,8.69367 65.8099,16.2511 75.1326,16.2511 Z " fill="#65a6f3" fill-opacity="1.00" />							<path d="M88.6251,-4.33057 C88.286,-5.68689 87.6926,-7.01495 86.9297,-8.17347 C85.7994,-9.95364 84.2453,-11.423 82.4652,-12.5533 C81.3914,-13.2314 80.1481,-13.7965 78.9048,-14.1356 C77.6615,-14.4465 76.39,-14.6442 75.0619,-14.6442 C72.4623,-14.6442 70.0605,-13.9378 67.9695,-12.7511 C67.1501,-12.2989 66.3871,-11.7056 65.6525,-11.0557 C65.1721,-10.6035 64.6917,-10.1232 64.2679,-9.58631 M62.4595,-6.73239 C62.0073,-5.79992 61.6965,-4.78268 61.414,-3.70893 M61.1031,-0.741977 C61.1031,1.43379 61.6118,3.49652 62.4595,5.30495 C62.9963,6.40696 63.618,7.4242 64.3809,8.32841 C64.8613,8.83703 65.2851,9.34565 65.822,9.79776 C66.4154,10.3346 67.0935,10.815 67.8,11.2671 C68.6759,11.7757 69.5236,12.2278 70.4843,12.5387 M75.0619,13.3864 C77.3507,13.3864 79.47,12.8777 81.3632,11.917 C82.1826,11.4932 82.9173,11.0693 83.5672,10.5324 C84.4714,9.88253 85.2343,9.14785 85.9407,8.30015 C86.2516,7.96107 86.4776,7.62199 86.7602,7.2264 C87.5231,6.09614 88.1165,4.85284 88.5403,3.49652 C88.9359,2.1402 89.162,0.783885 89.162,-0.657204 " fill="none" stroke-width="1.09" stroke="#21212b" stroke-linecap="square" stroke-linejoin="miter" />						</g>						<g>							<path d="M70.5294,3.29065 L75.3313,3.29065 C75.8501,3.29065 76.3716,3.23546 76.896,3.12507 C77.4203,3.01469 77.8922,2.83255 78.3117,2.57866 C78.7312,2.32477 79.0734,1.99085 79.3383,1.5769 C79.6032,1.16295 79.7357,0.646891 79.7357,0.0287254 C79.7357,-0.346589 79.675,-0.699827 79.5535,-1.03099 C79.4321,-1.36215 79.2583,-1.65191 79.032,-1.90028 C78.8057,-2.14865 78.5352,-2.35287 78.2206,-2.51293 C77.906,-2.67299 77.5555,-2.78062 77.1692,-2.83581 L77.1692,-2.86893 C77.7763,-3.05658 78.2648,-3.36843 78.6346,-3.80445 C79.0044,-4.24048 79.1893,-4.78965 79.1893,-5.45198 C79.1893,-6.09222 79.0623,-6.60552 78.8084,-6.99187 C78.5545,-7.37822 78.2234,-7.67903 77.815,-7.89428 C77.4065,-8.10954 76.9457,-8.25304 76.4324,-8.32479 C75.9191,-8.39654 75.4085,-8.43242 74.9007,-8.43242 L70.5294,-8.43242 L70.5294,3.29065 Z M73.1125,-6.24676 L74.8676,-6.24676 C75.0663,-6.24676 75.2705,-6.22744 75.4803,-6.18881 C75.69,-6.15017 75.8777,-6.0867 76.0432,-5.99839 C76.2088,-5.91008 76.3441,-5.7859 76.4489,-5.62583 C76.5538,-5.46577 76.6062,-5.26432 76.6062,-5.02147 C76.6062,-4.78966 76.5593,-4.59096 76.4655,-4.42538 C76.3717,-4.2598 76.2475,-4.12733 76.0929,-4.02799 C75.9384,-3.92864 75.7645,-3.85689 75.5713,-3.81273 C75.3782,-3.76858 75.1822,-3.7465 74.9835,-3.7465 L73.1125,-3.7465 L73.1125,-6.24676 Z M73.1125,-1.56084 L75.0663,-1.56084 C75.2761,-1.56084 75.5024,-1.54429 75.7452,-1.51117 C75.9881,-1.47805 76.2143,-1.41734 76.4241,-1.32903 C76.6338,-1.24072 76.8077,-1.11102 76.9457,-0.939918 C77.0836,-0.768819 77.1526,-0.545286 77.1526,-0.269319 C77.1526,-0.0154295 77.1002,0.199825 76.9953,0.376443 C76.8905,0.553062 76.7552,0.696565 76.5897,0.806951 C76.4241,0.917338 76.2392,0.994609 76.035,1.03876 C75.8308,1.08292 75.6293,1.105 75.4306,1.105 L73.1125,1.105 L73.1125,-1.56084 Z " fill="#332b44" fill-opacity="1.00" />							<path d="M70.5294,6.24921 L79.7357,6.24921 " fill="none" stroke-width="1.85" stroke="#332b44" stroke-linecap="square" stroke-linejoin="miter" />						</g>					</g>				</g>				<g>					<g>						<path d="M84.985,-26.1541 L84.985,-39.2836 " fill="none" stroke-width="1.07" stroke="#65a6f3" stroke-linecap="square" stroke-linejoin="miter" />						<path d="M93.6165,-33.256 L93.6165,-46.3855 " fill="none" stroke-width="1.07" stroke="#65a6f3" stroke-linecap="square" stroke-linejoin="miter" />						<path d="M101.944,-29.3581 L101.944,-34.245 " fill="none" stroke-width="1.07" stroke="#65a6f3" stroke-linecap="square" stroke-linejoin="miter" />						<path d="M84.985,-41.4986 L84.985,-46.3855 " fill="none" stroke-width="1.07" stroke="#65a6f3" stroke-linecap="square" stroke-linejoin="miter" />						<path d="M93.6165,-48.4338 L93.6165,-49.9212 " fill="none" stroke-width="1.07" stroke="#65a6f3" stroke-linecap="square" stroke-linejoin="miter" />						<path d="M101.944,-36.5035 L101.944,-37.9909 " fill="none" stroke-width="1.07" stroke="#65a6f3" stroke-linecap="square" stroke-linejoin="miter" />					</g>					<g>						<g>							<path d="M92.8566,-18.7892 C98.3164,-18.7891 102.742,-23.2152 102.742,-28.6749 C102.742,-34.1347 98.3164,-38.5607 92.8566,-38.5607 C87.3969,-38.5607 82.9708,-34.1347 82.9708,-28.6749 C82.9708,-23.2152 87.3969,-18.7892 92.8566,-18.7892 Z " fill="#65a6f3" fill-opacity="1.00" />							<path d="M100.759,-30.8428 C100.56,-31.6371 100.212,-32.4149 99.7656,-33.0934 C99.1037,-34.1359 98.1935,-34.9964 97.1509,-35.6584 C96.5221,-36.0555 95.794,-36.3865 95.0658,-36.5851 C94.3377,-36.7671 93.593,-36.883 92.8153,-36.883 C91.2928,-36.883 89.8862,-36.4693 88.6616,-35.7742 C88.1817,-35.5095 87.7349,-35.1619 87.3046,-34.7813 C87.0233,-34.5165 86.742,-34.2352 86.4937,-33.9208 M85.4346,-32.2494 C85.1699,-31.7033 84.9878,-31.1076 84.8224,-30.4787 M84.6403,-28.7411 C84.6403,-27.4669 84.9382,-26.2589 85.4346,-25.1998 C85.7491,-24.5544 86.1131,-23.9586 86.5599,-23.4291 C86.8413,-23.1312 87.0895,-22.8333 87.4039,-22.5686 C87.7514,-22.2541 88.1486,-21.9728 88.5623,-21.708 C89.0753,-21.4102 89.5718,-21.1454 90.1344,-20.9634 M92.8153,-20.4669 C94.1557,-20.4669 95.3968,-20.7648 96.5056,-21.3274 C96.9855,-21.5757 97.4157,-21.8239 97.7963,-22.1383 C98.3259,-22.5189 98.7727,-22.9492 99.1864,-23.4456 C99.3684,-23.6442 99.5008,-23.8428 99.6663,-24.0745 C100.113,-24.7364 100.461,-25.4645 100.709,-26.2589 C100.941,-27.0532 101.073,-27.8475 101.073,-28.6915 " fill="none" stroke-width="0.64" stroke="#21212b" stroke-linecap="square" stroke-linejoin="miter" />						</g>						<g>							<path d="M90.3903,-26.5749 L92.9631,-26.5749 C93.2411,-26.5749 93.5205,-26.6045 93.8014,-26.6636 C94.0824,-26.7227 94.3352,-26.8203 94.56,-26.9564 C94.7847,-27.0924 94.968,-27.2713 95.11,-27.4931 C95.2519,-27.7149 95.3229,-27.9914 95.3229,-28.3226 C95.3229,-28.5237 95.2904,-28.7129 95.2253,-28.8903 C95.1603,-29.0678 95.0671,-29.223 94.9459,-29.3561 C94.8246,-29.4892 94.6797,-29.5986 94.5112,-29.6843 C94.3426,-29.7701 94.1548,-29.8278 93.9478,-29.8573 L93.9478,-29.8751 C94.2731,-29.9756 94.5348,-30.1427 94.733,-30.3763 C94.9311,-30.6099 95.0301,-30.9042 95.0301,-31.259 C95.0301,-31.6021 94.9621,-31.8771 94.8261,-32.0841 C94.6901,-32.2911 94.5126,-32.4523 94.2938,-32.5676 C94.075,-32.6829 93.8281,-32.7598 93.553,-32.7983 C93.278,-32.8367 93.0045,-32.8559 92.7324,-32.8559 L90.3903,-32.8559 L90.3903,-26.5749 Z M91.7743,-31.6849 L92.7147,-31.6849 C92.8211,-31.6849 92.9306,-31.6745 93.0429,-31.6538 C93.1553,-31.6331 93.2558,-31.5991 93.3446,-31.5518 C93.4333,-31.5045 93.5057,-31.438 93.5619,-31.3522 C93.6181,-31.2664 93.6462,-31.1585 93.6462,-31.0284 C93.6462,-30.9042 93.6211,-30.7977 93.5708,-30.709 C93.5205,-30.6203 93.454,-30.5493 93.3712,-30.4961 C93.2884,-30.4429 93.1952,-30.4044 93.0917,-30.3808 C92.9882,-30.3571 92.8832,-30.3453 92.7768,-30.3453 L91.7743,-30.3453 L91.7743,-31.6849 Z M91.7743,-29.1742 L92.8211,-29.1742 C92.9335,-29.1742 93.0548,-29.1654 93.1849,-29.1476 C93.315,-29.1299 93.4362,-29.0973 93.5486,-29.05 C93.661,-29.0027 93.7541,-28.9332 93.8281,-28.8416 C93.902,-28.7499 93.939,-28.6301 93.939,-28.4823 C93.939,-28.3462 93.9109,-28.2309 93.8547,-28.1363 C93.7985,-28.0416 93.726,-27.9648 93.6373,-27.9056 C93.5486,-27.8465 93.4495,-27.8051 93.3401,-27.7814 C93.2307,-27.7577 93.1228,-27.7459 93.0163,-27.7459 L91.7743,-27.7459 L91.7743,-29.1742 Z " fill="#332b44" fill-opacity="1.00" />							<path d="M90.3903,-24.9897 L95.3229,-24.9897 " fill="none" stroke-width="0.99" stroke="#332b44" stroke-linecap="square" stroke-linejoin="miter" />						</g>					</g>				</g>			</g>			<g>				<g>					<path d="M-105.876,85.23 C-95.3266,85.23 -86.7759,82.7807 -86.7759,80.1798 C-86.7759,77.579 -95.3266,75.8115 -105.876,75.8115 C-116.425,75.8115 -125.066,77.579 -125.066,80.1798 C-125.066,82.7807 -116.425,85.23 -105.876,85.23 Z " fill="#21212b" fill-opacity="1.00" />					<path d="M-105.876,84.263 C-95.3266,84.263 -86.7748,82.1546 -86.7748,79.5538 C-86.7748,76.9529 -95.3266,74.8445 -105.876,74.8445 C-116.425,74.8445 -124.977,76.9529 -124.977,79.5538 C-124.977,82.1546 -116.425,84.263 -105.876,84.263 Z " fill="#65a6f3" fill-opacity="1.00" />				</g>				<g>					<path d="M-105.832,102.709 C-95.2829,102.709 -86.7321,100.26 -86.7321,97.6593 C-86.7321,95.0584 -95.2829,93.291 -105.832,93.291 C-116.381,93.291 -125.022,95.0584 -125.022,97.6593 C-125.022,100.26 -116.381,102.709 -105.832,102.709 Z " fill="#21212b" fill-opacity="1.00" />					<path d="M-105.832,101.742 C-95.2829,101.742 -86.731,99.6341 -86.731,97.0332 C-86.731,94.4324 -95.2829,92.324 -105.832,92.324 C-116.381,92.324 -124.933,94.4324 -124.933,97.0332 C-124.933,99.6341 -116.381,101.742 -105.832,101.742 Z " fill="#65a6f3" fill-opacity="1.00" />				</g>				<g>					<path d="M-105.876,99.4179 C-95.3266,99.4179 -86.7759,96.9686 -86.7759,94.3677 C-86.7759,91.7669 -95.3266,89.9994 -105.876,89.9994 C-116.425,89.9994 -125.066,91.7669 -125.066,94.3677 C-125.066,96.9686 -116.425,99.4179 -105.876,99.4179 Z " fill="#21212b" fill-opacity="1.00" />					<path d="M-105.876,98.4509 C-95.3266,98.4509 -86.7748,96.3425 -86.7748,93.7417 C-86.7748,91.1408 -95.3266,89.0324 -105.876,89.0324 C-116.425,89.0324 -124.977,91.1408 -124.977,93.7417 C-124.977,96.3425 -116.425,98.4509 -105.876,98.4509 Z " fill="#65a6f3" fill-opacity="1.00" />				</g>				<g>					<path d="M-105.876,99.4179 C-95.3266,99.4179 -86.7759,96.9686 -86.7759,94.3677 C-86.7759,91.7669 -95.3266,89.9994 -105.876,89.9994 C-116.425,89.9994 -125.066,91.7669 -125.066,94.3677 C-125.066,96.9686 -116.425,99.4179 -105.876,99.4179 Z " fill="#21212b" fill-opacity="1.00" />					<path d="M-105.876,98.4509 C-95.3266,98.4509 -86.7748,96.3425 -86.7748,93.7417 C-86.7748,91.1408 -95.3266,89.0324 -105.876,89.0324 C-116.425,89.0324 -124.977,91.1408 -124.977,93.7417 C-124.977,96.3425 -116.425,98.4509 -105.876,98.4509 Z " fill="#65a6f3" fill-opacity="1.00" />				</g>				<g>					<path d="M-105.832,95.6155 C-95.2829,95.6155 -86.7321,93.1662 -86.7321,90.5653 C-86.7321,87.9645 -95.2829,86.197 -105.832,86.197 C-116.381,86.197 -125.022,87.9645 -125.022,90.5653 C-125.022,93.1662 -116.381,95.6155 -105.832,95.6155 Z " fill="#21212b" fill-opacity="1.00" />					<path d="M-105.832,94.6485 C-95.2829,94.6485 -86.731,92.5401 -86.731,89.9393 C-86.731,87.3384 -95.2829,85.23 -105.832,85.23 C-116.381,85.23 -124.933,87.3384 -124.933,89.9393 C-124.933,92.5401 -116.381,94.6485 -105.832,94.6485 Z " fill="#65a6f3" fill-opacity="1.00" />				</g>				<g>					<path d="M-105.876,95.6155 C-95.3266,95.6155 -86.7759,93.1662 -86.7759,90.5653 C-86.7759,87.9645 -95.3266,86.197 -105.876,86.197 C-116.425,86.197 -125.066,87.9645 -125.066,90.5653 C-125.066,93.1662 -116.425,95.6155 -105.876,95.6155 Z " fill="#21212b" fill-opacity="1.00" />					<path d="M-105.876,94.6485 C-95.3266,94.6485 -86.7748,92.5401 -86.7748,89.9393 C-86.7748,87.3384 -95.3266,85.23 -105.876,85.23 C-116.425,85.23 -124.977,87.3384 -124.977,89.9393 C-124.977,92.5401 -116.425,94.6485 -105.876,94.6485 Z " fill="#65a6f3" fill-opacity="1.00" />				</g>				<g>					<path d="M-105.876,92.324 C-95.3266,92.324 -86.7759,89.8746 -86.7759,87.2738 C-86.7759,84.6729 -95.3266,82.9055 -105.876,82.9055 C-116.425,82.9055 -125.066,84.6729 -125.066,87.2738 C-125.066,89.8746 -116.425,92.324 -105.876,92.324 Z " fill="#21212b" fill-opacity="1.00" />					<path d="M-105.876,91.357 C-95.3266,91.357 -86.7748,89.2486 -86.7748,86.6477 C-86.7748,84.0469 -95.3266,81.9385 -105.876,81.9385 C-116.425,81.9385 -124.977,84.0469 -124.977,86.6477 C-124.977,89.2486 -116.425,91.357 -105.876,91.357 Z " fill="#65a6f3" fill-opacity="1.00" />				</g>				<g>					<path d="M-105.876,88.5216 C-95.3266,88.5216 -86.7759,86.0722 -86.7759,83.4714 C-86.7759,80.8705 -95.3266,79.1031 -105.876,79.1031 C-116.425,79.1031 -125.066,80.8705 -125.066,83.4714 C-125.066,86.0722 -116.425,88.5216 -105.876,88.5216 Z " fill="#21212b" fill-opacity="1.00" />					<path d="M-105.876,87.5546 C-95.3266,87.5546 -86.7748,85.4462 -86.7748,82.8453 C-86.7748,80.2445 -95.3266,78.1361 -105.876,78.1361 C-116.425,78.1361 -124.977,80.2445 -124.977,82.8453 C-124.977,85.4462 -116.425,87.5546 -105.876,87.5546 Z " fill="#65a6f3" fill-opacity="1.00" />				</g>				<g>					<path d="M-105.876,85.23 C-95.3266,85.23 -86.7759,82.7807 -86.7759,80.1798 C-86.7759,77.579 -95.3266,75.8115 -105.876,75.8115 C-116.425,75.8115 -125.066,77.579 -125.066,80.1798 C-125.066,82.7807 -116.425,85.23 -105.876,85.23 Z " fill="#21212b" fill-opacity="1.00" />					<path d="M-105.876,84.263 C-95.3266,84.263 -86.7748,82.1546 -86.7748,79.5538 C-86.7748,76.9529 -95.3266,74.8445 -105.876,74.8445 C-116.425,74.8445 -124.977,76.9529 -124.977,79.5538 C-124.977,82.1546 -116.425,84.263 -105.876,84.263 Z " fill="#65a6f3" fill-opacity="1.00" />				</g>				<g>					<path d="M-105.876,81.9385 C-95.3266,81.9385 -86.7759,79.4891 -86.7759,76.8883 C-86.7759,74.2874 -95.3266,72.52 -105.876,72.52 C-116.425,72.52 -125.066,74.2874 -125.066,76.8883 C-125.066,79.4891 -116.425,81.9385 -105.876,81.9385 Z " fill="#21212b" fill-opacity="1.00" />					<path d="M-105.876,80.9715 C-95.3266,80.9715 -86.7748,78.8631 -86.7748,76.2622 C-86.7748,73.6614 -95.3266,71.553 -105.876,71.553 C-116.425,71.553 -124.977,73.6614 -124.977,76.2622 C-124.977,78.8631 -116.425,80.9715 -105.876,80.9715 Z " fill="#65a6f3" fill-opacity="1.00" />				</g>				<g>					<path d="M-105.876,78.5685 C-95.3266,78.5685 -86.7759,76.1192 -86.7759,73.5183 C-86.7759,70.9175 -95.3266,69.15 -105.876,69.15 C-116.425,69.15 -125.066,70.9175 -125.066,73.5183 C-125.066,76.1192 -116.425,78.5685 -105.876,78.5685 Z " fill="#21212b" fill-opacity="1.00" />					<path d="M-105.876,77.6016 C-95.3266,77.6016 -86.7748,75.4931 -86.7748,72.8923 C-86.7748,70.2915 -95.3266,68.183 -105.876,68.183 C-116.425,68.183 -124.977,70.2915 -124.977,72.8923 C-124.977,75.4931 -116.425,77.6016 -105.876,77.6016 Z " fill="#65a6f3" fill-opacity="1.00" />				</g>			</g>			<g>				<g>					<path d="M27.7166,-18.8324 C32.5041,-18.8324 36.3676,-22.7799 36.4516,-27.4834 L36.4516,-99.1449 C36.4516,-103.932 32.5881,-107.88 27.7166,-107.88 L-27.7166,-107.88 C-32.5041,-107.88 -36.4516,-104.016 -36.4516,-99.1449 L-36.4516,-27.5673 C-36.4516,-22.7799 -32.5881,-18.8324 -27.7166,-18.8324 L27.7166,-18.8324 Z " fill="#9966c1" fill-opacity="1.00" />					<path d="M34.7242,-2.82917 C44.4026,-2.82917 52.2376,-10.6641 52.2376,-20.3425 C52.2376,-30.021 44.4026,-37.8559 34.7242,-37.8559 C25.0457,-37.8559 17.2108,-30.021 17.2108,-20.3425 C17.2108,-10.6641 25.0457,-2.82917 34.7242,-2.82917 Z " fill="#9966c1" fill-opacity="1.00" stroke-width="1.61" stroke="#21212b" stroke-linecap="square" stroke-linejoin="miter" />					<path d="M47.1029,-22.1294 L49.4239,-23.5662 C49.0555,-25.2609 48.3923,-26.8819 47.4345,-28.3924 L44.7819,-27.7661 C44.0451,-28.724 43.1977,-29.6082 42.203,-30.345 L42.8293,-33.0344 C41.3188,-33.9923 39.6978,-34.6554 38.0031,-35.0238 L36.5663,-32.7028 C35.3505,-32.887 34.0979,-32.887 32.919,-32.7028 L31.4821,-35.0607 C29.7874,-34.6923 28.1664,-34.0291 26.6559,-33.0712 L27.2822,-30.4187 C26.3244,-29.6818 25.4402,-28.8345 24.7033,-27.8398 L22.0139,-28.4292 C21.056,-26.9187 20.3929,-25.2977 20.0245,-23.603 L22.3455,-22.1662 C22.1613,-20.9504 22.1613,-19.6978 22.3455,-18.5189 L20.0245,-17.0821 C20.3929,-15.3874 21.056,-13.7664 22.0139,-12.2559 L24.6665,-12.8822 C25.4033,-11.9243 26.2507,-11.0401 27.2454,-10.3033 L26.6191,-7.61385 C28.1296,-6.65598 29.7506,-5.99283 31.4453,-5.62442 L32.8821,-7.94543 C34.0979,-7.76122 35.3505,-7.76122 36.5294,-7.94543 L37.9662,-5.62442 C39.6609,-5.99283 41.282,-6.65598 42.7924,-7.61385 L42.1661,-10.2664 C43.124,-11.0033 44.0082,-11.8506 44.745,-12.8453 L47.3976,-12.219 C48.3555,-13.7295 49.0186,-15.3505 49.3871,-17.0452 L47.1029,-18.4821 C47.2871,-19.6978 47.2871,-20.9504 47.1029,-22.1294 Z M39.7715,-18.2242 C38.5925,-15.4242 35.3873,-14.0979 32.6242,-15.2769 C29.8243,-16.4558 28.498,-19.661 29.6769,-22.4241 C30.819,-25.224 34.061,-26.5503 36.8241,-25.3714 C39.6241,-24.2293 40.9504,-21.0241 39.7715,-18.2242 Z " fill="#21212b" fill-opacity="1.00" />				</g>				<path d="M-28.8484,-91.8354 L28.8484,-91.8354 " fill="none" stroke-width="2.25" stroke="#734894" stroke-linecap="square" stroke-linejoin="miter" />				<path d="M-28.8775,-84.0433 L28.8194,-84.0433 " fill="none" stroke-width="2.25" stroke="#734894" stroke-linecap="square" stroke-linejoin="miter" />				<path d="M-28.8484,-76.2512 L28.8484,-76.2512 " fill="none" stroke-width="2.25" stroke="#734894" stroke-linecap="square" stroke-linejoin="miter" />				<path d="M-28.8484,-68.4591 L28.8484,-68.4591 " fill="none" stroke-width="2.25" stroke="#734894" stroke-linecap="square" stroke-linejoin="miter" />				<path d="M-28.8484,-60.667 L28.8484,-60.667 " fill="none" stroke-width="2.25" stroke="#734894" stroke-linecap="square" stroke-linejoin="miter" />				<path d="M-28.8775,-52.8748 L28.8194,-52.8748 " fill="none" stroke-width="2.25" stroke="#734894" stroke-linecap="square" stroke-linejoin="miter" />				<path d="M-28.8484,-45.0827 L28.8484,-45.0827 " fill="none" stroke-width="2.25" stroke="#734894" stroke-linecap="square" stroke-linejoin="miter" />				<path d="M-28.8484,-37.2906 L18.9377,-37.2906 " fill="none" stroke-width="2.25" stroke="#734894" stroke-linecap="square" stroke-linejoin="miter" />			</g>			<path d="M-95.5943,121.285 L-86.2586,121.285 L-86.2586,118.264 L-92.3216,118.264 L-92.3216,106.432 L-95.5943,106.432 L-95.5943,121.285 Z M-77.4055,117.907 C-77.6713,118.271 -77.9825,118.568 -78.3391,118.799 C-78.6957,119.03 -79.1328,119.145 -79.6503,119.145 C-80.2657,119.145 -80.7831,118.967 -81.2027,118.61 C-81.6223,118.253 -81.895,117.774 -82.0209,117.173 L-74.7202,117.173 L-74.7202,116.187 C-74.7202,115.376 -74.8321,114.642 -75.0559,113.984 C-75.2797,113.327 -75.5978,112.764 -76.0104,112.295 C-76.423,111.827 -76.9265,111.467 -77.5209,111.215 C-78.1153,110.963 -78.7762,110.837 -79.5034,110.837 C-80.2866,110.837 -81.0244,110.963 -81.7167,111.215 C-82.409,111.467 -83.0104,111.827 -83.5209,112.295 C-84.0314,112.764 -84.4335,113.327 -84.7272,113.984 C-85.0209,114.642 -85.1677,115.376 -85.1677,116.187 C-85.1677,116.998 -85.0209,117.732 -84.7272,118.39 C-84.4335,119.047 -84.0314,119.61 -83.5209,120.079 C-83.0104,120.547 -82.409,120.907 -81.7167,121.159 C-81.0244,121.411 -80.2866,121.537 -79.5034,121.537 C-78.6783,121.537 -77.8811,121.362 -77.1118,121.012 C-76.3426,120.663 -75.7062,120.166 -75.2027,119.523 L-77.4055,117.907 Z M-82.0209,115.033 C-82.0069,114.781 -81.9475,114.54 -81.8426,114.309 C-81.7377,114.079 -81.5908,113.876 -81.402,113.701 C-81.2132,113.526 -80.9859,113.383 -80.7202,113.271 C-80.4545,113.159 -80.1468,113.103 -79.7971,113.103 C-79.2237,113.103 -78.7552,113.292 -78.3915,113.67 C-78.0279,114.047 -77.8531,114.502 -77.8671,115.033 L-82.0209,115.033 Z M-72.8111,121.285 L-69.6643,121.285 L-69.6643,116.208 C-69.6643,115.872 -69.6433,115.551 -69.6014,115.243 C-69.5594,114.935 -69.472,114.659 -69.3391,114.414 C-69.2063,114.17 -69.014,113.974 -68.7622,113.827 C-68.5105,113.68 -68.1818,113.607 -67.7762,113.607 C-67.3706,113.607 -67.0594,113.691 -66.8426,113.858 C-66.6259,114.026 -66.465,114.243 -66.3601,114.509 C-66.2552,114.774 -66.1923,115.065 -66.1713,115.379 C-66.1503,115.694 -66.1398,115.998 -66.1398,116.292 L-66.1398,121.285 L-62.993,121.285 L-62.993,115.663 C-62.993,114.977 -63.042,114.341 -63.1399,113.753 C-63.2378,113.166 -63.4231,112.656 -63.6958,112.222 C-63.9685,111.788 -64.3496,111.449 -64.8391,111.205 C-65.3287,110.96 -65.972,110.837 -66.7692,110.837 C-67.1468,110.837 -67.4965,110.886 -67.8182,110.984 C-68.1398,111.082 -68.4265,111.208 -68.6783,111.362 C-68.93,111.516 -69.1468,111.691 -69.3286,111.886 C-69.5105,112.082 -69.6503,112.278 -69.7482,112.474 L-69.7902,112.474 L-69.7902,111.089 L-72.8111,111.089 L-72.8111,121.285 Z M-50.07,105.425 L-53.2168,105.425 L-53.2168,112.18 L-53.2588,112.18 C-53.6224,111.691 -54.0874,111.344 -54.6539,111.142 C-55.2203,110.939 -55.8322,110.837 -56.4895,110.837 C-57.2168,110.837 -57.8671,110.988 -58.4406,111.288 C-59.014,111.589 -59.5,111.991 -59.8986,112.495 C-60.2972,112.998 -60.6049,113.575 -60.8217,114.226 C-61.0385,114.876 -61.1469,115.558 -61.1469,116.271 C-61.1469,117.04 -61.028,117.746 -60.7902,118.39 C-60.5524,119.033 -60.2133,119.589 -59.7727,120.058 C-59.3322,120.526 -58.8042,120.89 -58.1888,121.149 C-57.5734,121.407 -56.8881,121.537 -56.1329,121.537 C-55.7832,121.537 -55.4441,121.488 -55.1154,121.39 C-54.7867,121.292 -54.486,121.166 -54.2133,121.012 C-53.9406,120.858 -53.7028,120.687 -53.5,120.498 C-53.2972,120.309 -53.1329,120.124 -53.007,119.942 L-52.9651,119.942 L-52.9651,121.285 L-50.07,121.285 L-50.07,105.425 Z M-52.9651,116.187 C-52.9651,116.956 -53.1853,117.579 -53.6259,118.054 C-54.0665,118.53 -54.6853,118.767 -55.4825,118.767 C-56.2797,118.767 -56.8986,118.53 -57.3392,118.054 C-57.7797,117.579 -58,116.956 -58,116.187 C-58,115.418 -57.7797,114.795 -57.3392,114.32 C-56.8986,113.844 -56.2797,113.607 -55.4825,113.607 C-54.6853,113.607 -54.0665,113.844 -53.6259,114.32 C-53.1853,114.795 -52.9651,115.418 -52.9651,116.187 Z M-40.105,117.907 C-40.3707,118.271 -40.6819,118.568 -41.0385,118.799 C-41.3952,119.03 -41.8322,119.145 -42.3497,119.145 C-42.9651,119.145 -43.4826,118.967 -43.9022,118.61 C-44.3217,118.253 -44.5945,117.774 -44.7203,117.173 L-37.4197,117.173 L-37.4197,116.187 C-37.4197,115.376 -37.5316,114.642 -37.7553,113.984 C-37.9791,113.327 -38.2973,112.764 -38.7099,112.295 C-39.1225,111.827 -39.626,111.467 -40.2204,111.215 C-40.8148,110.963 -41.4756,110.837 -42.2029,110.837 C-42.9861,110.837 -43.7238,110.963 -44.4161,111.215 C-45.1085,111.467 -45.7099,111.827 -46.2203,112.295 C-46.7308,112.764 -47.1329,113.327 -47.4266,113.984 C-47.7203,114.642 -47.8672,115.376 -47.8672,116.187 C-47.8672,116.998 -47.7203,117.732 -47.4266,118.39 C-47.1329,119.047 -46.7308,119.61 -46.2203,120.079 C-45.7099,120.547 -45.1085,120.907 -44.4161,121.159 C-43.7238,121.411 -42.9861,121.537 -42.2029,121.537 C-41.3777,121.537 -40.5805,121.362 -39.8113,121.012 C-39.042,120.663 -38.4057,120.166 -37.9022,119.523 L-40.105,117.907 Z M-44.7203,115.033 C-44.7064,114.781 -44.6469,114.54 -44.542,114.309 C-44.4371,114.079 -44.2903,113.876 -44.1015,113.701 C-43.9127,113.526 -43.6854,113.383 -43.4196,113.271 C-43.1539,113.159 -42.8462,113.103 -42.4966,113.103 C-41.9232,113.103 -41.4546,113.292 -41.091,113.67 C-40.7274,114.047 -40.5525,114.502 -40.5665,115.033 L-44.7203,115.033 Z M-35.5106,121.285 L-32.3637,121.285 L-32.3637,117.026 C-32.3637,116.523 -32.3358,116.061 -32.2798,115.642 C-32.2239,115.222 -32.1015,114.862 -31.9127,114.561 C-31.7239,114.26 -31.4547,114.026 -31.105,113.858 C-30.7554,113.691 -30.2798,113.607 -29.6784,113.607 C-29.4407,113.607 -29.2134,113.624 -28.9966,113.659 C-28.7798,113.694 -28.5596,113.746 -28.3358,113.816 L-28.3358,110.942 C-28.4896,110.9 -28.6575,110.872 -28.8393,110.858 C-29.0211,110.844 -29.2029,110.837 -29.3847,110.837 C-30.084,110.837 -30.6645,110.995 -31.126,111.309 C-31.5875,111.624 -31.9861,112.096 -32.3218,112.726 L-32.3637,112.726 L-32.3637,111.089 L-35.5106,111.089 L-35.5106,121.285 Z " fill="#a3cfff" fill-opacity="1.00" />			<path d="M19.8291,121.537 L25.279,121.537 C25.8678,121.537 26.4598,121.474 27.0549,121.349 C27.65,121.223 28.1856,121.017 28.6617,120.729 C29.1378,120.44 29.5261,120.061 29.8268,119.592 C30.1275,119.122 30.2778,118.536 30.2778,117.835 C30.2778,117.409 30.2089,117.008 30.0711,116.632 C29.9333,116.256 29.736,115.927 29.4792,115.645 C29.2223,115.363 28.9154,115.132 28.5583,114.95 C28.2013,114.768 27.8035,114.646 27.365,114.583 L27.365,114.546 C28.054,114.333 28.6084,113.979 29.0281,113.484 C29.4478,112.989 29.6577,112.366 29.6577,111.614 C29.6577,110.887 29.5136,110.305 29.2255,109.866 C28.9373,109.428 28.5614,109.087 28.0979,108.842 C27.6343,108.598 27.1113,108.435 26.5287,108.354 C25.9461,108.272 25.3667,108.231 24.7904,108.231 L19.8291,108.231 L19.8291,121.537 Z M22.7608,110.712 L24.7528,110.712 C24.9783,110.712 25.2101,110.734 25.4481,110.778 C25.6862,110.822 25.8992,110.894 26.0871,110.994 C26.275,111.094 26.4285,111.235 26.5475,111.417 C26.6665,111.598 26.726,111.827 26.726,112.103 C26.726,112.366 26.6728,112.591 26.5663,112.779 C26.4598,112.967 26.3189,113.118 26.1435,113.23 C25.9681,113.343 25.7707,113.425 25.5515,113.475 C25.3322,113.525 25.1099,113.55 24.8843,113.55 L22.7608,113.55 L22.7608,110.712 Z M22.7608,116.03 L24.9783,116.03 C25.2164,116.03 25.4732,116.049 25.7488,116.087 C26.0244,116.124 26.2813,116.193 26.5193,116.294 C26.7574,116.394 26.9547,116.541 27.1113,116.735 C27.2679,116.929 27.3462,117.183 27.3462,117.496 C27.3462,117.784 27.2867,118.029 27.1677,118.229 C27.0486,118.43 26.8952,118.592 26.7072,118.718 C26.5193,118.843 26.3095,118.931 26.0777,118.981 C25.8459,119.031 25.6173,119.056 25.3917,119.056 L22.7608,119.056 L22.7608,116.03 Z M31.3114,116.97 C31.3114,117.697 31.443,118.354 31.7061,118.943 C31.9692,119.532 32.3294,120.036 32.7867,120.456 C33.244,120.876 33.7827,121.198 34.4028,121.424 C35.023,121.649 35.6839,121.762 36.3855,121.762 C37.0871,121.762 37.7479,121.649 38.3681,121.424 C38.9883,121.198 39.527,120.876 39.9843,120.456 C40.4416,120.036 40.8017,119.532 41.0648,118.943 C41.3279,118.354 41.4595,117.697 41.4595,116.97 C41.4595,116.243 41.3279,115.586 41.0648,114.997 C40.8017,114.408 40.4416,113.904 39.9843,113.484 C39.527,113.064 38.9883,112.742 38.3681,112.516 C37.7479,112.291 37.0871,112.178 36.3855,112.178 C35.6839,112.178 35.023,112.291 34.4028,112.516 C33.7827,112.742 33.244,113.064 32.7867,113.484 C32.3294,113.904 31.9692,114.408 31.7061,114.997 C31.443,115.586 31.3114,116.243 31.3114,116.97 Z M34.1303,116.97 C34.1303,116.281 34.3277,115.723 34.7223,115.298 C35.117,114.872 35.6713,114.659 36.3855,114.659 C37.0996,114.659 37.654,114.872 38.0486,115.298 C38.4433,115.723 38.6406,116.281 38.6406,116.97 C38.6406,117.659 38.4433,118.217 38.0486,118.643 C37.654,119.069 37.0996,119.282 36.3855,119.282 C35.6713,119.282 35.117,119.069 34.7223,118.643 C34.3277,118.217 34.1303,117.659 34.1303,116.97 Z M43.1132,121.537 L45.9321,121.537 L45.9321,117.722 C45.9321,117.271 45.9572,116.857 46.0073,116.481 C46.0574,116.106 46.1671,115.783 46.3362,115.514 C46.5053,115.244 46.7465,115.034 47.0597,114.884 C47.3729,114.734 47.7989,114.659 48.3376,114.659 C48.5506,114.659 48.7542,114.674 48.9484,114.706 C49.1426,114.737 49.3399,114.784 49.5403,114.846 L49.5403,112.272 C49.4025,112.234 49.2522,112.209 49.0893,112.197 C48.9264,112.184 48.7636,112.178 48.6007,112.178 C47.9743,112.178 47.4544,112.319 47.0409,112.601 C46.6275,112.883 46.2704,113.305 45.9697,113.869 L45.9321,113.869 L45.9321,112.403 L43.1132,112.403 L43.1132,121.537 Z M50.7619,121.537 L53.5808,121.537 L53.5808,117.722 C53.5808,117.271 53.6058,116.857 53.6559,116.481 C53.7061,116.106 53.8157,115.783 53.9848,115.514 C54.1539,115.244 54.3951,115.034 54.7083,114.884 C55.0215,114.734 55.4475,114.659 55.9862,114.659 C56.1992,114.659 56.4028,114.674 56.597,114.706 C56.7912,114.737 56.9885,114.784 57.189,114.846 L57.189,112.272 C57.0512,112.234 56.9008,112.209 56.7379,112.197 C56.5751,112.184 56.4122,112.178 56.2493,112.178 C55.6229,112.178 55.103,112.319 54.6895,112.601 C54.2761,112.883 53.919,113.305 53.6184,113.869 L53.5808,113.869 L53.5808,112.403 L50.7619,112.403 L50.7619,121.537 Z M58.0722,116.97 C58.0722,117.697 58.2038,118.354 58.4669,118.943 C58.73,119.532 59.0902,120.036 59.5474,120.456 C60.0047,120.876 60.5435,121.198 61.1636,121.424 C61.7838,121.649 62.4446,121.762 63.1462,121.762 C63.8478,121.762 64.5087,121.649 65.1289,121.424 C65.749,121.198 66.2878,120.876 66.745,120.456 C67.2023,120.036 67.5625,119.532 67.8256,118.943 C68.0887,118.354 68.2203,117.697 68.2203,116.97 C68.2203,116.243 68.0887,115.586 67.8256,114.997 C67.5625,114.408 67.2023,113.904 66.745,113.484 C66.2878,113.064 65.749,112.742 65.1289,112.516 C64.5087,112.291 63.8478,112.178 63.1462,112.178 C62.4446,112.178 61.7838,112.291 61.1636,112.516 C60.5435,112.742 60.0047,113.064 59.5474,113.484 C59.0902,113.904 58.73,114.408 58.4669,114.997 C58.2038,115.586 58.0722,116.243 58.0722,116.97 Z M60.8911,116.97 C60.8911,116.281 61.0884,115.723 61.4831,115.298 C61.8777,114.872 62.4321,114.659 63.1462,114.659 C63.8604,114.659 64.4147,114.872 64.8094,115.298 C65.204,115.723 65.4014,116.281 65.4014,116.97 C65.4014,117.659 65.204,118.217 64.8094,118.643 C64.4147,119.069 63.8604,119.282 63.1462,119.282 C62.4321,119.282 61.8777,119.069 61.4831,118.643 C61.0884,118.217 60.8911,117.659 60.8911,116.97 Z M72.1291,121.537 L74.9668,121.537 L76.6582,115.467 L76.6958,115.467 L78.5938,121.537 L81.3751,121.537 L84.6263,112.403 L81.7698,112.403 L80.0597,118.135 L80.0221,118.135 L78.3307,112.403 L75.2487,112.403 L73.6889,118.135 L73.6514,118.135 L71.7909,112.403 L68.784,112.403 L72.1291,121.537 Z M92.1997,118.511 C91.9617,118.837 91.6829,119.103 91.3635,119.31 C91.044,119.516 90.6525,119.62 90.1889,119.62 C89.6377,119.62 89.1741,119.46 88.7983,119.141 C88.4224,118.821 88.1781,118.392 88.0653,117.853 L94.6052,117.853 L94.6052,116.97 C94.6052,116.243 94.505,115.586 94.3045,114.997 C94.1041,114.408 93.819,113.904 93.4494,113.484 C93.0798,113.064 92.6288,112.742 92.0964,112.516 C91.5639,112.291 90.9719,112.178 90.3205,112.178 C89.6189,112.178 88.958,112.291 88.3378,112.516 C87.7177,112.742 87.1789,113.064 86.7217,113.484 C86.2644,113.904 85.9042,114.408 85.6411,114.997 C85.378,115.586 85.2464,116.243 85.2464,116.97 C85.2464,117.697 85.378,118.354 85.6411,118.943 C85.9042,119.532 86.2644,120.036 86.7217,120.456 C87.1789,120.876 87.7177,121.198 88.3378,121.424 C88.958,121.649 89.6189,121.762 90.3205,121.762 C91.0596,121.762 91.7738,121.606 92.4628,121.292 C93.1519,120.979 93.7219,120.534 94.173,119.958 L92.1997,118.511 Z M88.0653,115.936 C88.0779,115.711 88.1311,115.495 88.2251,115.288 C88.319,115.081 88.4506,114.9 88.6197,114.743 C88.7889,114.587 88.9924,114.458 89.2305,114.358 C89.4685,114.258 89.7441,114.208 90.0574,114.208 C90.571,114.208 90.9907,114.377 91.3165,114.715 C91.6422,115.053 91.7988,115.46 91.7863,115.936 L88.0653,115.936 Z M96.3153,121.537 L99.1342,121.537 L99.1342,117.722 C99.1342,117.271 99.1593,116.857 99.2094,116.481 C99.2595,116.106 99.3691,115.783 99.5383,115.514 C99.7074,115.244 99.9486,115.034 100.262,114.884 C100.575,114.734 101.001,114.659 101.54,114.659 C101.753,114.659 101.956,114.674 102.15,114.706 C102.345,114.737 102.542,114.784 102.742,114.846 L102.742,112.272 C102.605,112.234 102.454,112.209 102.291,112.197 C102.129,112.184 101.966,112.178 101.803,112.178 C101.176,112.178 100.656,112.319 100.243,112.601 C99.8296,112.883 99.4725,113.305 99.1718,113.869 L99.1342,113.869 L99.1342,112.403 L96.3153,112.403 L96.3153,121.537 Z " fill="#a3cfff" fill-opacity="1.00" />			<g>				<path d="M-83.8282,-70.1604 L-80.6165,-70.1604 L-48.0029,-70.1604 L-44.8323,-75.384 L-39.4035,-75.384 " fill="none" stroke-width="1.83" stroke="#734894" stroke-linecap="square" stroke-linejoin="miter" />				<path d="M-44.7284,-76.2989 L-44.7284,-79.5106 L-44.7284,-112.124 L-34.8661,-116.308 L-0.914944,-116.308 " fill="none" stroke-width="1.83" stroke="#734894" stroke-linecap="square" stroke-linejoin="miter" />				<path d="M-1.40151,-121.176 L-3.09153,-121.176 L-22.7135,-121.176 " fill="none" stroke-width="1.83" stroke="#734894" stroke-linecap="square" stroke-linejoin="miter" />				<path d="M45.9011,-98.0614 L45.9011,-96.3714 L45.9011,-76.7494 " fill="none" stroke-width="1.83" stroke="#734894" stroke-linecap="square" stroke-linejoin="miter" />			</g>			<g>				<path d="M57.3818,-125.904 L57.3818,-97.9558 L51.339,-89.9756 " fill="none" stroke-width="1.74" stroke="#734894" stroke-linecap="square" stroke-linejoin="miter" />				<path d="M11.4222,-114.994 L50.8924,-114.994 L50.8924,-65.0992 L39.2726,-58.0463 L39.2726,-43.8319 " fill="none" stroke-width="1.74" stroke="#734894" stroke-linecap="square" stroke-linejoin="miter" />			</g>			<g>				<g>					<defs>						<filter id="5HHb2VUx" x="-7.78%" y="-6.34%" width="126.21%" height="124.77%" filterUnits="objectBoundingBox">							<feOffset dx="0.53" dy="1.06" in="SourceAlpha" result="shadowOffsetOuter1" />							<feGaussianBlur stdDeviation="1.70" in="shadowOffsetOuter1" result="shadowBlurOuter1" />							<feFlood flood-color="#000000" flood-opacity="0.20" />							<feComposite in2="shadowBlurOuter1" operator="in" />							<feMerge>								<feMergeNode />								<feMergeNode in="SourceGraphic" />							</feMerge>						</filter>					</defs>					<path d="M-87.4464,55.7219 C-87.4464,45.5312 -95.7076,37.27 -105.898,37.27 C-116.089,37.27 -124.35,45.5312 -124.35,55.7219 C-124.35,65.9126 -116.089,74.1738 -105.898,74.1738 C-95.7076,74.1738 -87.4464,65.9126 -87.4464,55.7219 Z " fill="#65a6f3" fill-opacity="1.00" filter="url(#5HHb2VUx)" />					<path d="M-109.945,40.973 C-111.427,41.3436 -112.879,41.9923 -114.145,42.8262 C-116.091,44.0617 -117.697,45.7606 -118.933,47.7065 C-119.674,48.8802 -120.292,50.2393 -120.663,51.5984 C-121.002,52.9574 -121.219,54.3474 -121.219,55.7991 C-121.219,58.6408 -120.446,61.2663 -119.149,63.552 C-118.655,64.4477 -118.006,65.2817 -117.296,66.0848 C-116.802,66.6098 -116.277,67.1349 -115.69,67.5983 M-112.57,69.5751 C-111.551,70.0693 -110.439,70.409 -109.265,70.7179 M-106.022,71.0577 C-103.643,71.0577 -101.389,70.5017 -99.4118,69.5751 C-98.2072,68.9882 -97.0953,68.3087 -96.1069,67.4747 C-95.5509,66.9496 -94.9949,66.4863 -94.5007,65.8994 C-93.9138,65.2508 -93.3887,64.5095 -92.8945,63.7373 C-92.3385,62.7798 -91.8443,61.8531 -91.5046,60.8029 M-90.5779,55.7991 C-90.5779,53.2972 -91.1339,50.9806 -92.1841,48.9111 C-92.6474,48.0154 -93.1107,47.2123 -93.6976,46.5019 C-94.408,45.5135 -95.2111,44.6795 -96.1377,43.9073 C-96.5084,43.5675 -96.879,43.3204 -97.3115,43.0116 C-98.547,42.1776 -99.9061,41.5289 -101.389,41.0656 C-102.871,40.6332 -104.354,40.3861 -105.929,40.3861 " fill="none" stroke-width="1.20" stroke="#21212b" stroke-linecap="square" stroke-linejoin="miter" />				</g>				<g>					<path d="M-110.93,60.0065 L-105.681,60.0065 C-105.114,60.0065 -104.544,59.9461 -103.971,59.8255 C-103.397,59.7048 -102.882,59.5057 -102.423,59.2282 C-101.965,58.9506 -101.591,58.5856 -101.301,58.1331 C-101.011,57.6806 -100.867,57.1165 -100.867,56.4408 C-100.867,56.0305 -100.933,55.6444 -101.066,55.2824 C-101.198,54.9204 -101.388,54.6037 -101.636,54.3322 C-101.883,54.0607 -102.179,53.8374 -102.523,53.6625 C-102.867,53.4875 -103.25,53.3699 -103.672,53.3095 L-103.672,53.2733 C-103.008,53.0682 -102.474,52.7273 -102.07,52.2507 C-101.666,51.7741 -101.464,51.1738 -101.464,50.4498 C-101.464,49.7499 -101.603,49.1888 -101.88,48.7665 C-102.158,48.3441 -102.52,48.0153 -102.966,47.78 C-103.413,47.5447 -103.916,47.3879 -104.477,47.3094 C-105.039,47.231 -105.597,47.1918 -106.152,47.1918 L-110.93,47.1918 L-110.93,60.0065 Z M-108.106,49.581 L-106.188,49.581 C-105.971,49.581 -105.747,49.6021 -105.518,49.6443 C-105.289,49.6866 -105.084,49.7559 -104.903,49.8525 C-104.722,49.949 -104.574,50.0847 -104.459,50.2597 C-104.345,50.4347 -104.287,50.6549 -104.287,50.9204 C-104.287,51.1738 -104.339,51.391 -104.441,51.572 C-104.544,51.7529 -104.68,51.8977 -104.848,52.0063 C-105.017,52.1149 -105.207,52.1934 -105.419,52.2416 C-105.63,52.2899 -105.844,52.314 -106.061,52.314 L-108.106,52.314 L-108.106,49.581 Z M-108.106,54.7032 L-105.971,54.7032 C-105.741,54.7032 -105.494,54.7213 -105.229,54.7575 C-104.963,54.7937 -104.716,54.8601 -104.487,54.9566 C-104.257,55.0532 -104.067,55.1949 -103.916,55.382 C-103.766,55.569 -103.69,55.8133 -103.69,56.115 C-103.69,56.3925 -103.747,56.6278 -103.862,56.8209 C-103.977,57.014 -104.125,57.1708 -104.306,57.2915 C-104.487,57.4122 -104.689,57.4966 -104.912,57.5449 C-105.135,57.5932 -105.355,57.6173 -105.572,57.6173 L-108.106,57.6173 L-108.106,54.7032 Z " fill="#332b44" fill-opacity="1.00" />					<path d="M-110.93,63.2405 L-100.867,63.2405 " fill="none" stroke-width="2.02" stroke="#332b44" stroke-linecap="square" stroke-linejoin="miter" />				</g>			</g>			<g>				<path d="M3.09762,-122.176 L3.09762,-114.381 L7.77652,-114.381 L7.77652,-122.176 L3.09762,-122.176 Z " fill="#9966c1" fill-opacity="0.18" />				<path d="M-1.58128,-7.79517 L-1.58128,-5.01973e-07 L3.09762,-1.82077e-14 L3.09762,-7.79517 L-1.58128,-7.79517 Z " fill="#9966c1" fill-opacity="0.18" />				<path d="M-75.974,-89.1621 L-75.974,-81.3669 L-71.2951,-81.3669 L-71.2951,-89.1621 L-75.974,-89.1621 Z " fill="#9966c1" fill-opacity="0.18" />				<path d="M-43.2335,-72.8534 L-43.2335,-65.0582 L-38.5546,-65.0582 L-38.5546,-72.8534 L-43.2335,-72.8534 Z " fill="#9966c1" fill-opacity="0.18" />				<path d="M62.0484,-127.735 L62.0484,-108.823 L80.961,-108.823 L80.961,-127.735 L62.0484,-127.735 Z " fill="#483d5b" fill-opacity="0.26" />				<path d="M-69.1105,-94.7208 L-69.1105,-75.8082 L-50.1979,-75.8082 L-50.1979,-94.7208 L-69.1105,-94.7208 Z " fill="#483d5b" fill-opacity="0.26" />				<path d="M69.1652,-106.351 L69.1652,-101.673 L73.8441,-101.673 L73.8441,-106.351 L69.1652,-106.351 Z " fill="#483d5b" fill-opacity="0.26" />				<path d="M44.7844,-54.7982 L44.7844,-50.1193 L49.4633,-50.1193 L49.4633,-54.7982 L44.7844,-54.7982 Z " fill="#483d5b" fill-opacity="0.26" />				<path d="M-8.57649,-12.4741 L-8.57649,-7.79517 L-3.89759,-7.79517 L-3.89759,-12.4741 L-8.57649,-12.4741 Z " fill="#483d5b" fill-opacity="0.26" />			</g>		</g>	</svg>