<?xml version="1.0" encoding="UTF-8"?><svg xmlns="http://www.w3.org/2000/svg" xmlns:xlink="http://www.w3.org/1999/xlink" viewBox="0 0 1024 1024"><defs><style>.cls-1,.cls-2,.cls-3,.cls-4{stroke:#b68bcc;}.cls-1,.cls-2,.cls-5,.cls-6,.cls-4{fill:none;stroke-miterlimit:10;}.cls-1,.cls-3{stroke-width:2.7px;}.cls-7{fill:url(#linear-gradient-2);}.cls-8{filter:url(#outer-glow-3);}.cls-9{filter:url(#outer-glow-4);}.cls-2,.cls-3,.cls-5{stroke-linecap:square;}.cls-2,.cls-5{stroke-width:10.92px;}.cls-10,.cls-11{fill:#18131f;opacity:.5;}.cls-3{fill:url(#GlassPanel);filter:url(#outer-glow-5);stroke-miterlimit:54.61;}.cls-5,.cls-6{stroke:#ffe69f;}.cls-6,.cls-4{stroke-linecap:round;stroke-width:10.92px;}.cls-12{fill:url(#linear-gradient-6);}.cls-13{filter:url(#outer-glow-1);}.cls-11{isolation:isolate;}.cls-14{fill:url(#linear-gradient-5);}.cls-15{opacity:0;}.cls-16{filter:url(#luminosity-noclip-2);}.cls-17{mask:url(#mask-1);}.cls-18{mask:url(#mask);}.cls-19{fill:url(#linear-gradient-3);}.cls-20{fill:url(#linear-gradient);}.cls-21{fill:url(#linear-gradient-4);}.cls-22{filter:url(#outer-glow-2);}.cls-23{filter:url(#luminosity-noclip-3);}</style><filter id="luminosity-noclip-2" x="-22.46" y="191.94" width="619.69" height="619.31" color-interpolation-filters="sRGB" filterUnits="userSpaceOnUse"><feFlood flood-color="#fff" result="bg"/><feBlend in="SourceGraphic" in2="bg"/></filter><linearGradient id="linear-gradient" x1="1207.61" y1="-30.85" x2="1656.88" y2="-30.85" gradientTransform="translate(-1144.87 532.44)" gradientUnits="userSpaceOnUse"><stop offset="0" stop-color="#231f20"/><stop offset="1" stop-color="#fff"/></linearGradient><mask id="mask" x="-22.46" y="191.94" width="619.69" height="619.31" maskUnits="userSpaceOnUse"><g class="cls-16"><rect class="cls-20" x="62.75" y="276.37" width="449.27" height="450.45" transform="translate(12.93 1010.38) rotate(-121.85)"/></g></mask><filter id="outer-glow-1" filterUnits="userSpaceOnUse"><feOffset dx="0" dy="0"/><feGaussianBlur result="blur" stdDeviation="5.4"/><feFlood flood-color="#8c29ff" flood-opacity="1"/><feComposite in2="blur" operator="in"/><feComposite in="SourceGraphic"/></filter><linearGradient id="linear-gradient-2" x1="-237.65" y1="715.69" x2="-237.65" y2="318.75" gradientTransform="translate(524.01 1024.14) scale(1 -1)" gradientUnits="userSpaceOnUse"><stop offset="0" stop-color="#9d79b3"/><stop offset="1" stop-color="#5c5396"/></linearGradient><filter id="outer-glow-2" filterUnits="userSpaceOnUse"><feOffset dx="0" dy="0"/><feGaussianBlur result="blur-2" stdDeviation="3.6"/><feFlood flood-color="#3b6dff" flood-opacity=".75"/><feComposite in2="blur-2" operator="in"/><feComposite in="SourceGraphic"/></filter><linearGradient id="linear-gradient-3" x1="-230.35" y1="539.89" x2="-230.35" y2="207.56" gradientTransform="translate(515.92 899.05) scale(1 -1)" gradientUnits="userSpaceOnUse"><stop offset="0" stop-color="#6bcdff"/><stop offset=".17" stop-color="#65c7fd"/><stop offset=".39" stop-color="#55b7f8"/><stop offset=".63" stop-color="#3a9df0"/><stop offset=".9" stop-color="#1479e5"/><stop offset="1" stop-color="#0469e0"/></linearGradient><filter id="outer-glow-3" filterUnits="userSpaceOnUse"><feOffset dx="0" dy="0"/><feGaussianBlur result="blur-3" stdDeviation="4.07"/><feFlood flood-color="#ff4545" flood-opacity=".7"/><feComposite in2="blur-3" operator="in"/><feComposite in="SourceGraphic"/></filter><linearGradient id="linear-gradient-4" x1="593.89" y1="566.96" x2="593.89" y2="431.19" gradientUnits="userSpaceOnUse"><stop offset="0" stop-color="#ffbd6b"/><stop offset="1" stop-color="#fffab8"/></linearGradient><filter id="outer-glow-4" filterUnits="userSpaceOnUse"><feOffset dx="0" dy="0"/><feGaussianBlur result="blur-4" stdDeviation="4.07"/><feFlood flood-color="#ff4545" flood-opacity=".7"/><feComposite in2="blur-4" operator="in"/><feComposite in="SourceGraphic"/></filter><linearGradient id="linear-gradient-5" x1="746.63" y1="806.77" x2="746.63" y2="671.01" gradientTransform="translate(0 -104.82)" xlink:href="#linear-gradient-4"/><filter id="luminosity-noclip-3" x="514.82" y="288.36" width="202.91" height="217.61" color-interpolation-filters="sRGB" filterUnits="userSpaceOnUse"><feFlood flood-color="#fff" result="bg"/><feBlend in="SourceGraphic" in2="bg"/></filter><linearGradient id="linear-gradient-6" x1="283.2" y1="283.98" x2="283.2" y2="392.74" gradientTransform="translate(333.07 -195.51) scale(1 1.75)" gradientUnits="userSpaceOnUse"><stop offset="0" stop-color="#000"/><stop offset="1" stop-color="#fff"/></linearGradient><mask id="mask-1" x="514.82" y="288.36" width="202.91" height="217.61" maskUnits="userSpaceOnUse"><g class="cls-23"><rect class="cls-12" x="561.68" y="301.86" width="109.19" height="190.62" transform="translate(1346.8 334.98) rotate(142.33)"/></g></mask><linearGradient id="GlassPanel" x1="1088.01" y1="320.65" x2="1088.01" y2="405.35" gradientTransform="translate(-499.46)" gradientUnits="userSpaceOnUse"><stop offset="0" stop-color="#9d79b3"/><stop offset="1" stop-color="#5c5396"/></linearGradient><filter id="outer-glow-5" filterUnits="userSpaceOnUse"><feOffset dx="0" dy="0"/><feGaussianBlur result="blur-5" stdDeviation="4"/><feFlood flood-color="#6636c6" flood-opacity=".8"/><feComposite in2="blur-5" operator="in"/><feComposite in="SourceGraphic"/></filter></defs><g id="Frame"><rect class="cls-15" width="1024" height="1024"/></g><g id="Master"><g id="Cadet"><g class="cls-18"><g class="cls-13"><g id="HexPlate-3"><polygon class="cls-7" points="286.24 698.72 116.95 601.47 116.95 405.85 286.36 308.04 455.78 405.85 455.78 601.47 286.24 698.72"/><polygon class="cls-1" points="286.24 698.72 116.95 601.47 116.95 405.85 286.36 308.04 455.78 405.85 455.78 601.47 286.24 698.72"/></g></g></g><polygon id="HexPlate-4" class="cls-11" points="286.28 678.03 134.36 591.06 134.36 415.71 286.22 328.03 438.08 415.71 438.08 591.06 286.28 678.03"/><g id="Cadet-2" class="cls-22"><path class="cls-19" d="M285.1,438.23c-30.74,0-35.81,2.85-35.81,2.85l-13.27,13.21-26.36,9.05v26.59s7.86,8.41,7.86,8.41l14.14,42.88-18.33,5.16-25.49-62.59,8.73-13.66c0,14.47,0-42.43,1.57-46.76s11.17-19.18,33.94-33.53c25.5-16.08,53-16.22,53-16.22h5.87s21.45,.15,46.95,16.22c22.77,14.35,32.37,29.18,33.94,33.53,1.57,4.34,1.57,46.76,1.57,46.76l8.73,13.66-25.49,62.59-18.33-5.15,14.14-42.88,7.86-8.41v-26.6s-26.36-9.05-26.36-9.05l-13.27-13.21s-4.86-2.85-35.6-2.85Zm7.87,59.18c4.26,2.32,7.01,10.61,12.9,11.58,12.27,2.01,38.3-8.11,38.3-8.11l3.01-9.15,5.76-4.86v-16.72l-21.32-6.41-14.69-14.08-12.21-1.37-3.71,3.17h-31.34s-3.45-3.17-3.45-3.17l-12.96,1.37-14.69,14.08-21.32,6.41v16.72l5.76,4.86,3.01,9.15s26.02,10.11,38.3,8.11c5.89-.96,8.64-9.26,12.9-11.58,4.97-2.4,10.77-2.4,15.75,0h0Zm15.89,71.8c2.78-1.57,16.95-18.51,19.38-23.7,2.43-5.19,12.33-34.07,12.33-34.07,0,0-32.28,8.69-38.43,6.67-4.67-1.54-8.82-9.36-12.31-13.12-1.66-1.73-4.83-1.6-4.83-1.6,0,0-3.06-.09-4.71,1.63-3.49,3.75-7.64,11.58-12.31,13.12-6.16,2.03-38.43-6.67-38.43-6.67,0,0,9.32,28.19,12.33,34.07,3.01,5.88,16.02,22.34,19.38,23.7,3.36,1.36,44.83,1.54,47.61-.03h0Zm-50.35,11.77c7.09,8.99,26.27,30.89,26.27,30.89,0,0,18.47-21.08,26.27-30.89-3.57,.64-16.79,1.06-26.27,1.1-9.35,.04-23.03-.57-26.27-1.1h0Zm143.76,6l-42.95-9.76-1.36-14.51-20.99-2.58-50.04,58.46v14.66h-4.3v-14.69s-49.5-58.44-49.5-58.44l-20.99,2.58-2.63,14.51-41.68,9.76-8.96,18.16,127.4,72.89,125.97-72.18-9.97-18.87Z"/></g></g><g><line class="cls-6" x1="672.35" y1="499.36" x2="771.2" y2="499.36"/><polyline class="cls-5" points="760.01 484.09 776.03 499.35 760.01 514.62"/><line class="cls-6" x1="407.47" y1="499.36" x2="515.94" y2="499.36"/></g><g><line class="cls-4" x1="625.59" y1="324.49" x2="650.46" y2="299.62"/><polyline class="cls-2" points="631.75 296.73 653.87 296.2 653.34 318.32"/><line class="cls-4" x1="340.58" y1="363.26" x2="535.58" y2="363.26"/></g><g><line class="cls-6" x1="667.39" y1="635" x2="567.18" y2="635"/><polyline class="cls-5" points="578.38 650.27 562.35 635 578.38 619.73"/><line class="cls-6" x1="909.14" y1="635" x2="825.35" y2="635"/></g><g id="ETH" class="cls-8"><path class="cls-21" d="M615.43,488.33h-36.29v-11.54h16.28c4.84,0,15.91,.3,20.01,11.54Zm-36.49,33.6s11.91,0,17.13,0c4.2,0,15.06,.05,19.14-10.98h-36.27v10.98Zm82.82-23.12c.65,37.48-29.2,68.4-66.69,69.06-37.48,.65-68.4-29.2-69.06-66.69-.65-37.48,29.2-68.4,66.69-69.06,37.48-.65,68.4,29.2,69.06,66.69Zm-71.21-57.38l.08,4.4,2.2-.04c5.26-.09,10.53,.6,16.09,2.12,5.25,1.54,10.14,3.77,14.49,6.6l.78,.53c1.25,.85,2.33,1.59,3.46,2.59,3.46,2.78,6.32,5.72,8.76,8.99l.09,.12c2.22,2.6,3.94,5.56,5.45,8.36,3.89,7.35,5.94,15.5,6.09,24.24l.04,2.2,4.4-.08-.04-2.2c-.16-9.43-2.39-18.26-6.61-26.24-1.55-2.87-3.46-6.19-5.94-9.09-2.65-3.55-5.76-6.73-9.4-9.66-1.26-1.12-2.51-1.97-3.82-2.86l-.81-.55c-4.76-3.09-10.04-5.5-15.74-7.17-6-1.64-11.68-2.39-17.36-2.28l-2.2,.04Zm36.71,54.7h9.05v-7.06h-10.22c-5.22-19.82-24.41-22.7-32.48-22.7h-25.54v22.7h-16.61v7.06h16.61v7.27h-16.61v7.06h16.61v22.7s18.68,0,26.86,0c7.12,0,26.47-2.36,31.36-22.7h10.02v-7.06h-8.99c.07-1.05,.11-2.13,.11-3.25,0-1.4-.07-2.73-.17-4.02Zm-65.55,47.76l-1.75-1.33c-2.21-1.68-4.15-3.6-5.72-5.2-2.99-3.26-5.11-6.06-6.71-8.83-5.01-8.48-7.64-17.67-7.8-27.3-.08-4.71,.48-9.6,1.71-14.91,1.18-4.63,3.26-9.54,5.86-13.82,4.48-7.33,10.07-13.24,16.66-17.59,4.47-3.06,9.54-5.4,14.66-6.78l2.13-.57-1.14-4.25-2.13,.57c-5.59,1.5-11.13,4.06-15.97,7.37-7.1,4.69-13.15,11.06-17.97,18.95-2.86,4.71-5.06,9.91-6.38,15.07-1.32,5.7-1.92,10.94-1.83,16.02,.18,10.41,3.01,20.32,8.4,29.44,1.75,3.04,4.05,6.08,7.31,9.64,1.72,1.77,3.81,3.83,6.25,5.68l1.75,1.33,2.67-3.5Zm23.41,9.87l-2.14-.52c-3.68-.9-7.97-2.06-11.83-3.85l-2-.93-1.85,3.99,2,.93c4.2,1.95,8.74,3.18,12.63,4.13l2.14,.52,1.04-4.27Zm64.78-37.46l-4.21-1.28-.64,2.11c-1.08,3.56-2.68,6.75-4.69,10.37-2,3.25-3.77,5.72-5.6,7.82-1.24,1.52-2.62,2.83-4.08,4.22-.52,.49-1.04,.99-1.47,1.41-3.21,2.81-7,5.31-11.54,7.62-7.26,3.56-15.31,5.51-23.29,5.65l-2.2,.04,.08,4.4,2.2-.04c8.62-.15,17.31-2.26,25.18-6.12,4.9-2.49,8.98-5.19,12.56-8.33,.51-.5,1.01-.97,1.51-1.45,1.5-1.42,3.05-2.89,4.41-4.57,1.95-2.23,3.85-4.89,6.03-8.43,2.2-3.95,3.91-7.38,5.11-11.31l.64-2.11Zm-70.76-20.09v6.67h37.69c.1-1.06,.16-2.17,.16-3.35s-.06-2.26-.16-3.32h-37.69Z"/></g><g id="ETH-2" class="cls-9"><path id="Coin" class="cls-14" d="M748.59,620.77c.86-.2,1.64-.52,2.33-.96,.69-.44,1.25-1.04,1.67-1.78,.42-.74,.63-1.63,.63-2.66s-.23-1.99-.7-2.7-1.07-1.27-1.81-1.67c-.74-.39-1.58-.68-2.52-.85-.94-.17-1.85-.26-2.74-.26h-7.85s0,11.18,0,11.18h8.36c.89,0,1.76-.1,2.63-.3Zm3.81,11.1c-.94-.39-1.95-.67-3.03-.81-1.09-.15-2.1-.22-3.03-.22h-8.73s0,11.92,0,11.92h10.36c.89,0,1.79-.1,2.7-.3s1.74-.54,2.48-1.04,1.34-1.13,1.81-1.92c.47-.79,.7-1.75,.7-2.89,0-1.23-.31-2.23-.93-3-.62-.76-1.39-1.34-2.33-1.74Zm-6.96-64.74c-37.48,.65-67.34,31.57-66.69,69.06,.65,37.48,31.57,67.34,69.06,66.69,37.48-.65,67.34-31.57,66.69-69.06-.65-37.48-31.57-67.34-69.06-66.69Zm.05,9.26c5.69-.1,11.36,.65,17.36,2.28,5.7,1.67,10.99,4.08,15.74,7.17l.81,.55c1.32,.9,2.56,1.75,3.82,2.86,3.65,2.93,6.75,6.11,9.4,9.66,2.48,2.91,4.39,6.23,5.94,9.09,4.23,7.98,6.45,16.8,6.61,26.24l.04,2.2-4.4,.08-.04-2.2c-.15-8.74-2.2-16.89-6.09-24.24-1.51-2.8-3.22-5.76-5.45-8.36l-.09-.12c-2.44-3.27-5.3-6.21-8.76-8.99-1.14-1-2.21-1.74-3.46-2.59l-.78-.53c-4.35-2.83-9.24-5.06-14.49-6.6-5.55-1.51-10.82-2.21-16.09-2.12l-2.2,.04-.08-4.4,2.2-.04Zm14.94,50.19c1.41,.72,2.62,1.63,3.63,2.74s1.79,2.41,2.33,3.89c.54,1.48,.81,3.06,.81,4.74,0,2.76-.59,5.07-1.78,6.92-1.18,1.85-2.71,3.34-4.59,4.48-1.88,1.13-3.98,1.95-6.33,2.44-2.34,.49-4.68,.74-6.99,.74h-21.46s0-52.4,0-52.4h19.54c2.27,0,4.55,.16,6.85,.48,2.29,.32,4.35,.96,6.18,1.92s3.31,2.31,4.44,4.03c1.13,1.73,1.7,4.02,1.7,6.88s-.83,5.42-2.48,7.36c-1.65,1.95-3.84,3.34-6.55,4.18v.15c1.73,.25,3.29,.73,4.7,1.44Zm10.91,35.03v8.27s-49.43,0-49.43,0v-8.27s49.43,0,49.43,0Zm-71.06,1.92c1.59,2.77,3.72,5.57,6.71,8.83,1.56,1.6,3.51,3.52,5.72,5.2l1.75,1.33-2.67,3.5-1.75-1.33c-2.43-1.85-4.52-3.91-6.25-5.68-3.26-3.55-5.57-6.6-7.31-9.64-5.39-9.12-8.22-19.03-8.4-29.44-.09-5.08,.51-10.32,1.83-16.02,1.31-5.16,3.51-10.36,6.38-15.07,4.82-7.89,10.86-14.27,17.97-18.95,4.85-3.32,10.38-5.87,15.97-7.37l2.13-.57,1.14,4.25-2.13,.57c-5.12,1.37-10.19,3.72-14.66,6.78-6.59,4.35-12.18,10.26-16.66,17.59-2.6,4.28-4.68,9.19-5.86,13.82-1.23,5.3-1.79,10.19-1.71,14.91,.17,9.64,2.79,18.82,7.8,27.3Zm36.54,29.5l-2.14-.52c-3.89-.95-8.43-2.19-12.63-4.13l-2-.93,1.85-3.99,2,.93c3.86,1.79,8.14,2.95,11.83,3.85l2.14,.52-1.04,4.27Zm65.18-39.63c-1.2,3.93-2.91,7.37-5.11,11.31-2.18,3.55-4.08,6.2-6.03,8.43-1.37,1.68-2.91,3.15-4.41,4.57-.5,.48-1.01,.96-1.51,1.45-3.58,3.14-7.66,5.83-12.56,8.33-7.86,3.86-16.56,5.97-25.18,6.12l-2.2,.04-.08-4.4,2.2-.04c7.97-.14,16.03-2.09,23.29-5.65,4.54-2.31,8.33-4.81,11.54-7.62,.43-.43,.95-.92,1.47-1.41,1.46-1.39,2.84-2.69,4.08-4.22,1.84-2.11,3.6-4.57,5.6-7.82,2.01-3.62,3.61-6.81,4.69-10.37l.64-2.11,4.21,1.28-.64,2.11Z"/></g><g class="cls-17"><g><path class="cls-3" d="M588.55,405.22c23.4,0,42.35-18.95,42.35-42.35s-18.95-42.35-42.35-42.35-42.35,18.95-42.35,42.35c0,23.4,18.95,42.35,42.35,42.35Z"/><path class="cls-10" d="M613.29,350.88c0-.24-.06-.47-.14-.68-.08-.21-.2-.41-.36-.59-.02-.02-.04-.04-.06-.06l-10.74-11.44c-.61-.65-1.59-.92-2.4-.54-1.34,.64-1.57,2.29-.65,3.28l5.41,5.77c-3.05,1.01-5.12,4.17-4.43,7.67,.5,2.51,2.48,4.56,4.97,5.13,1.54,.35,3.02,.16,4.29-.41v19.02c0,4.89-1.23,5.48-2.81,5.48-1.39,0-2.53-.55-2.53-5.24,0-.4,0-.87,.02-1.4,.07-3.56,.17-8.95-1.69-11.85-2.59-4.05-7.48-3.88-8.72-3.77v-18.06c0-3.28-1.12-9.46-14.08-9.46s-14.08,6.48-14.08,9.46v42.42c0,.89,.72,1.62,1.62,1.62h24.93c.89,0,1.62-.72,1.62-1.62v-20.26c.09,0,.18,0,.28,0,.03,0,3.5-.43,4.99,1.89,1.19,1.86,1.1,6.87,1.05,9.56-.01,.55-.02,1.05-.02,1.47,0,2.63,0,9.01,6.63,9.01s6.91-6.56,6.91-9.25v-27.07s0-.05,0-.08Zm-6.2,4.54c-1.9,.46-3.58-1.22-3.12-3.12,.22-.89,.95-1.63,1.84-1.84,1.9-.46,3.58,1.22,3.12,3.12-.22,.89-.95,1.63-1.84,1.84Zm-19.87-1.35h-15.69c-.91,0-1.65-.74-1.65-1.65v-7.78c0-2.01,.75-6.38,9.5-6.38s9.5,4.17,9.5,6.38v7.78c0,.91-.74,1.65-1.65,1.65Z"/></g></g></g></svg>