<?xml version="1.0" encoding="UTF-8"?><svg xmlns="http://www.w3.org/2000/svg" xmlns:xlink="http://www.w3.org/1999/xlink" viewBox="0 0 1024 1024"><defs><style>.cls-1,.cls-2,.cls-3,.cls-4,.cls-5,.cls-6,.cls-7{stroke-miterlimit:10;}.cls-1,.cls-2,.cls-3,.cls-5,.cls-7{fill:none;}.cls-1,.cls-8{stroke:#b68bcc;stroke-width:2.7px;}.cls-2{stroke-width:5.6px;}.cls-2,.cls-3{stroke:#dfbc8c;}.cls-9{fill:url(#linear-gradient-2);}.cls-3{stroke-width:4.47px;}.cls-10{filter:url(#outer-glow-3);}.cls-11{filter:url(#outer-glow-4);}.cls-12,.cls-13{fill:#18131f;opacity:.5;}.cls-14{filter:url(#luminosity-noclip-5);}.cls-15{mask:url(#mask-2);}.cls-16{mask:url(#mask-3);}.cls-17{filter:url(#outer-glow-1);}.cls-13{isolation:isolate;}.cls-18{fill:url(#linear-gradient-10);}.cls-4{fill:url(#linear-gradient-5);}.cls-4,.cls-5,.cls-6,.cls-7{stroke:#79468f;}.cls-4,.cls-7{stroke-width:3.52px;}.cls-19{filter:url(#luminosity-noclip-4);}.cls-20{filter:url(#luminosity-noclip-6);}.cls-8{fill:url(#GlassPanel);filter:url(#outer-glow-6);stroke-linecap:square;stroke-miterlimit:54.61;}.cls-21{mask:url(#mask-4);}.cls-22{opacity:0;}.cls-23{filter:url(#outer-glow-5);}.cls-24{fill:url(#linear-gradient-7);}.cls-25{filter:url(#outer-glow-7);}.cls-5{stroke-width:3.6px;}.cls-26{fill:url(#linear-gradient-9);}.cls-27{filter:url(#luminosity-noclip-2);}.cls-28{mask:url(#mask-1);}.cls-29{mask:url(#mask);}.cls-30{fill:url(#linear-gradient-3);}.cls-31{fill:url(#linear-gradient);}.cls-6{fill:url(#linear-gradient-6);stroke-width:3.9px;}.cls-32{fill:url(#GlassPanel_6);filter:url(#outer-glow-8);}.cls-33{fill:url(#linear-gradient-4);}.cls-34{filter:url(#outer-glow-2);}.cls-35{fill:url(#linear-gradient-8);}.cls-36{filter:url(#luminosity-noclip-3);}</style><filter id="luminosity-noclip-2" x="464.51" y="393.42" width="619.69" height="619.31" color-interpolation-filters="sRGB" filterUnits="userSpaceOnUse"><feFlood flood-color="#fff" result="bg"/><feBlend in="SourceGraphic" in2="bg"/></filter><linearGradient id="linear-gradient" x1="779.52" y1="276.51" x2="1228.78" y2="276.51" gradientTransform="translate(-229.8 426.57)" gradientUnits="userSpaceOnUse"><stop offset="0" stop-color="#231f20"/><stop offset="1" stop-color="#fff"/></linearGradient><mask id="mask" x="464.51" y="393.42" width="619.69" height="619.31" maskUnits="userSpaceOnUse"><g class="cls-27"><rect class="cls-31" x="549.72" y="477.85" width="449.27" height="450.45" transform="translate(585.7 1731.83) rotate(-121.85)"/></g></mask><filter id="outer-glow-1" filterUnits="userSpaceOnUse"><feOffset dx="0" dy="0"/><feGaussianBlur result="blur" stdDeviation="5.4"/><feFlood flood-color="#8c29ff" flood-opacity="1"/><feComposite in2="blur" operator="in"/><feComposite in="SourceGraphic"/></filter><linearGradient id="linear-gradient-2" x1="249.32" y1="514.21" x2="249.32" y2="117.27" gradientTransform="translate(524.01 1024.14) scale(1 -1)" gradientUnits="userSpaceOnUse"><stop offset="0" stop-color="#9d79b3"/><stop offset="1" stop-color="#5c5396"/></linearGradient><filter id="outer-glow-2" filterUnits="userSpaceOnUse"><feOffset dx="0" dy="0"/><feGaussianBlur result="blur-2" stdDeviation="3.6"/><feFlood flood-color="#3b6dff" flood-opacity=".75"/><feComposite in2="blur-2" operator="in"/><feComposite in="SourceGraphic"/></filter><linearGradient id="linear-gradient-3" x1="256.62" y1="338.41" x2="256.62" y2="6.08" gradientTransform="translate(515.92 899.05) scale(1 -1)" gradientUnits="userSpaceOnUse"><stop offset="0" stop-color="#6bcdff"/><stop offset=".17" stop-color="#65c7fd"/><stop offset=".39" stop-color="#55b7f8"/><stop offset=".63" stop-color="#3a9df0"/><stop offset=".9" stop-color="#1479e5"/><stop offset="1" stop-color="#0469e0"/></linearGradient><filter id="outer-glow-3" filterUnits="userSpaceOnUse"><feOffset dx="0" dy="0"/><feGaussianBlur result="blur-3" stdDeviation="5.1"/><feFlood flood-color="#ff4545" flood-opacity="1"/><feComposite in2="blur-3" operator="in"/><feComposite in="SourceGraphic"/></filter><linearGradient id="linear-gradient-4" x1="669.85" y1="308.58" x2="669.85" y2="440.53" gradientTransform="translate(-81.69)" gradientUnits="userSpaceOnUse"><stop offset="0" stop-color="#fffab8"/><stop offset="1" stop-color="#ffbd6b"/></linearGradient><filter id="outer-glow-4" filterUnits="userSpaceOnUse"><feOffset dx="0" dy="0"/><feGaussianBlur result="blur-4" stdDeviation="3.6"/><feFlood flood-color="#6636c6" flood-opacity=".75"/><feComposite in2="blur-4" operator="in"/><feComposite in="SourceGraphic"/></filter><filter id="luminosity-noclip-3" x="-129.01" y="595.95" width="717.36" height="185.11" color-interpolation-filters="sRGB" filterUnits="userSpaceOnUse"><feFlood flood-color="#fff" result="bg"/><feBlend in="SourceGraphic" in2="bg"/></filter><linearGradient id="linear-gradient-5" x1="479.89" y1="688.5" x2="1193.73" y2="688.5" gradientTransform="translate(-607.14 1377.01) scale(1 -1)" gradientUnits="userSpaceOnUse"><stop offset="0" stop-color="#fff"/><stop offset="1" stop-color="#000"/></linearGradient><mask id="mask-1" x="-129.01" y="595.95" width="717.36" height="185.11" maskUnits="userSpaceOnUse"><g class="cls-36"><rect class="cls-4" x="-127.25" y="597.71" width="713.84" height="181.59" transform="translate(459.34 1377.01) rotate(-180)"/></g></mask><filter id="luminosity-noclip-4" x="452.72" y="267.39" width="727.12" height="266.46" color-interpolation-filters="sRGB" filterUnits="userSpaceOnUse"><feFlood flood-color="#fff" result="bg"/><feBlend in="SourceGraphic" in2="bg"/></filter><linearGradient id="linear-gradient-6" x1="-111.42" y1="400.62" x2="611.81" y2="400.62" gradientTransform="translate(566.08 801.24) scale(1 -1)" gradientUnits="userSpaceOnUse"><stop offset="0" stop-color="#000"/><stop offset="1" stop-color="#fff"/></linearGradient><mask id="mask-2" x="452.72" y="267.39" width="727.12" height="266.46" maskUnits="userSpaceOnUse"><g class="cls-19"><rect class="cls-6" x="454.66" y="269.34" width="723.23" height="262.56" transform="translate(1632.56 801.24) rotate(-180)"/></g></mask><filter id="luminosity-noclip-5" x="-105.09" y="13.49" width="729.13" height="754.47" color-interpolation-filters="sRGB" filterUnits="userSpaceOnUse"><feFlood flood-color="#fff" result="bg"/><feBlend in="SourceGraphic" in2="bg"/></filter><linearGradient id="linear-gradient-7" x1="1397.26" y1="8.6" x2="1848.31" y2="8.6" gradientTransform="translate(-1820.18 381.23) scale(1.28 1.1)" xlink:href="#linear-gradient"/><mask id="mask-3" x="-105.09" y="13.49" width="729.13" height="754.47" maskUnits="userSpaceOnUse"><g class="cls-14"><rect class="cls-24" x="-29.54" y="141.08" width="578.04" height="499.29" transform="translate(64.48 817.31) rotate(-121.85)"/></g></mask><filter id="outer-glow-5" filterUnits="userSpaceOnUse"><feOffset dx="0" dy="0"/><feGaussianBlur result="blur-5" stdDeviation="5.4"/><feFlood flood-color="#8c29ff" flood-opacity="1"/><feComposite in2="blur-5" operator="in"/><feComposite in="SourceGraphic"/></filter><linearGradient id="linear-gradient-8" x1="-273.35" y1="899.84" x2="-273.35" y2="414.92" xlink:href="#linear-gradient-2"/><filter id="luminosity-noclip-6" x="245.75" y="454.97" width="272.63" height="292.38" color-interpolation-filters="sRGB" filterUnits="userSpaceOnUse"><feFlood flood-color="#fff" result="bg"/><feBlend in="SourceGraphic" in2="bg"/></filter><linearGradient id="linear-gradient-9" x1="593.25" y1="254.87" x2="593.25" y2="401.01" gradientTransform="translate(-211.19 26.84) scale(1 1.75)" gradientUnits="userSpaceOnUse"><stop offset="0" stop-color="#000"/><stop offset="1" stop-color="#fff"/></linearGradient><mask id="mask-4" x="245.75" y="454.97" width="272.63" height="292.38" maskUnits="userSpaceOnUse"><g class="cls-20"><rect class="cls-26" x="308.71" y="473.11" width="146.71" height="256.11" transform="translate(1051.85 843.57) rotate(142.33)"/></g></mask><linearGradient id="GlassPanel" x1="844.28" y1="498.35" x2="844.28" y2="612.15" gradientTransform="translate(-499.46)" gradientUnits="userSpaceOnUse"><stop offset="0" stop-color="#9d79b3"/><stop offset="1" stop-color="#5c5396"/></linearGradient><filter id="outer-glow-6" filterUnits="userSpaceOnUse"><feOffset dx="0" dy="0"/><feGaussianBlur result="blur-6" stdDeviation="5.4"/><feFlood flood-color="#6636c6" flood-opacity="1"/><feComposite in2="blur-6" operator="in"/><feComposite in="SourceGraphic"/></filter><filter id="outer-glow-7" filterUnits="userSpaceOnUse"><feOffset dx="0" dy="0"/><feGaussianBlur result="blur-7" stdDeviation="4.07"/><feFlood flood-color="#ff4545" flood-opacity="1"/><feComposite in2="blur-7" operator="in"/><feComposite in="SourceGraphic"/></filter><linearGradient id="linear-gradient-10" x1="481.7" y1="924.33" x2="481.7" y2="788.57" gradientTransform="translate(0 -104.82)" gradientUnits="userSpaceOnUse"><stop offset="0" stop-color="#ffbd6b"/><stop offset="1" stop-color="#fffab8"/></linearGradient><linearGradient id="GlassPanel_6" x1="249.51" y1="220.71" x2="249.51" y2="507" gradientUnits="userSpaceOnUse"><stop offset="0" stop-color="#f099ff"/><stop offset="1" stop-color="#605ee0"/></linearGradient><filter id="outer-glow-8" filterUnits="userSpaceOnUse"><feOffset dx="0" dy="0"/><feGaussianBlur result="blur-8" stdDeviation="3.81"/><feFlood flood-color="#6636c6" flood-opacity=".5"/><feComposite in2="blur-8" operator="in"/><feComposite in="SourceGraphic"/></filter></defs><g id="Frame"><rect class="cls-22" width="1024" height="1024"/></g><g id="Master"><g id="Cadet"><g class="cls-29"><g class="cls-17"><g id="HexPlate-3"><polygon class="cls-9" points="773.21 900.2 603.92 802.95 603.92 607.33 773.33 509.52 942.75 607.33 942.75 802.95 773.21 900.2"/><polygon class="cls-1" points="773.21 900.2 603.92 802.95 603.92 607.33 773.33 509.52 942.75 607.33 942.75 802.95 773.21 900.2"/></g></g></g><polygon id="HexPlate-4" class="cls-13" points="773.25 879.51 621.33 792.54 621.33 617.18 773.19 529.51 925.05 617.18 925.05 792.54 773.25 879.51"/><g id="Cadet-2" class="cls-34"><path class="cls-30" d="M772.07,639.71c-30.74,0-35.81,2.85-35.81,2.85l-13.27,13.21-26.36,9.05v26.59s7.86,8.41,7.86,8.41l14.14,42.88-18.33,5.16-25.49-62.59,8.73-13.66c0,14.47,0-42.43,1.57-46.76s11.17-19.18,33.94-33.53c25.5-16.08,53-16.22,53-16.22h5.87s21.45,.15,46.95,16.22c22.77,14.35,32.37,29.18,33.94,33.53s1.57,46.76,1.57,46.76l8.73,13.66-25.49,62.59-18.33-5.15,14.14-42.88,7.86-8.41v-26.6s-26.36-9.05-26.36-9.05l-13.27-13.21s-4.86-2.85-35.6-2.85Zm7.87,59.18c4.26,2.32,7.01,10.61,12.9,11.58,12.27,2.01,38.3-8.11,38.3-8.11l3.01-9.15,5.76-4.86v-16.72l-21.32-6.41-14.69-14.08-12.21-1.37-3.71,3.17h-31.34s-3.45-3.17-3.45-3.17l-12.96,1.37-14.69,14.08-21.32,6.41v16.72l5.76,4.86,3.01,9.15s26.02,10.11,38.3,8.11c5.89-.96,8.64-9.26,12.9-11.58,4.97-2.4,10.77-2.4,15.75,0h0Zm15.89,71.8c2.78-1.57,16.95-18.51,19.38-23.7,2.43-5.19,12.33-34.07,12.33-34.07,0,0-32.28,8.69-38.43,6.67-4.67-1.54-8.82-9.36-12.31-13.12-1.66-1.73-4.83-1.6-4.83-1.6,0,0-3.06-.09-4.71,1.63-3.49,3.75-7.64,11.58-12.31,13.12-6.16,2.03-38.43-6.67-38.43-6.67,0,0,9.32,28.19,12.33,34.07,3.01,5.88,16.02,22.34,19.38,23.7s44.83,1.54,47.61-.03h0Zm-50.35,11.77c7.09,8.99,26.27,30.89,26.27,30.89,0,0,18.47-21.08,26.27-30.89-3.57,.64-16.79,1.06-26.27,1.1-9.35,.04-23.03-.57-26.27-1.1h0Zm143.76,6l-42.95-9.76-1.36-14.51-20.99-2.58-50.04,58.46v14.66h-4.3v-14.69s-49.5-58.44-49.5-58.44l-20.99,2.58-2.63,14.51-41.68,9.76-8.96,18.16,127.4,72.89,125.97-72.18-9.97-18.87Z"/></g></g><g id="ETH" class="cls-10"><path id="Trails" class="cls-2" d="M642.33,434.93h-49.75m86.95,0h-28.51m6.45-122.7h-70.98m116.88,0h-38.58m39.99,60.72h-53.67m80.79,0h-19.05"/><path class="cls-33" d="M654.12,372.5c-.64-36.43-30.69-65.45-67.12-64.82-36.43,.64-65.45,30.69-64.82,67.12,.64,36.43,30.69,65.45,67.12,64.82,36.43-.64,65.45-30.69,64.82-67.12m-95.08-42.65c-6.37,4.2-11.81,9.95-16.16,17.07-1.25,2.06-2.37,4.24-3.33,6.5-.98,2.31-1.78,4.64-2.36,6.92-1.2,5.19-1.74,9.94-1.67,14.51,.16,9.37,2.72,18.3,7.59,26.54v.02c1.54,2.66,3.6,5.38,6.5,8.54,1.56,1.6,3.44,3.45,5.58,5.08l1.7,1.3-2.59,3.4-1.7-1.3c-2.37-1.8-4.4-3.8-6.07-5.52l-.05-.05c-3.12-3.4-5.36-6.36-7.05-9.31-2.53-4.28-4.5-8.82-5.87-13.49-1.44-4.91-2.21-10-2.3-15.13-.09-4.93,.5-10.03,1.78-15.57v-.04c1.27-4.97,3.41-10.02,6.2-14.61h0c2.26-3.71,4.85-7.13,7.7-10.16,2.98-3.17,6.25-5.95,9.74-8.25,4.74-3.24,10.11-5.72,15.54-7.18l2.07-.55,1.11,4.13-2.07,.55c-4.97,1.34-9.9,3.61-14.25,6.59l-.03,.02Zm29.11,56.31l-23.86-9.02,23.95-44.75,23.75,44.7-23.84,9.07Zm23.84-4.91l-23.84,30.79-23.86-30.79,23.86,9.52,23.84-9.52Zm-33.38,48.81l-2.08-.51c-3.78-.93-8.2-2.13-12.28-4.02l-1.94-.9,1.8-3.88,1.94,.9c3.75,1.74,7.91,2.87,11.5,3.74l2.08,.51-1.02,4.16Zm63.35-38.52c-1.16,3.82-2.83,7.16-4.96,11l-.02,.04-.02,.04c-2.06,3.35-3.9,5.92-5.79,8.09-1.37,1.68-2.87,3.1-4.31,4.47-.48,.46-.98,.93-1.47,1.41l-.04,.04-.05,.04c-3.39,2.97-7.36,5.59-12.12,8.01h-.03c-3.72,1.84-7.63,3.26-11.64,4.26-4.2,1.04-8.51,1.61-12.81,1.69l-2.14,.04-.07-4.28,2.14-.04c7.75-.14,15.57-2.03,22.62-5.49,4.42-2.25,8.08-4.66,11.19-7.37,.5-.48,.99-.96,1.47-1.41,1.42-1.35,2.76-2.62,3.96-4.1l.05-.06c1.73-1.98,3.44-4.37,5.37-7.5,1.99-3.58,3.54-6.67,4.59-10.12l.62-2.05,4.09,1.25-.62,2.05Zm-1.15-16.39l-.04-2.14c-.15-8.49-2.14-16.41-5.92-23.55-1.48-2.73-3.14-5.61-5.3-8.14l-.05-.05-.04-.06c-2.37-3.18-5.15-6.03-8.51-8.74l-.04-.03-.04-.03c-1.03-.91-2.07-1.62-3.29-2.45-.24-.16-.48-.33-.73-.5-4.26-2.77-9-4.93-14.09-6.42-5.43-1.48-10.55-2.15-15.66-2.07l-2.14,.04-.07-4.28,2.14-.04c5.52-.1,11.04,.63,16.88,2.22h.04c5.5,1.63,10.64,3.97,15.26,6.97l.05,.03c.25,.17,.5,.34,.74,.51,1.27,.86,2.46,1.68,3.68,2.75,3.61,2.9,6.61,5.99,9.18,9.42,2.41,2.83,4.27,6.05,5.77,8.84h0c4.1,7.76,6.26,16.33,6.42,25.5l.04,2.14-4.28,.07Z"/></g><g class="cls-11"><g class="cls-28"><g id="Trails-2"><polyline class="cls-7" points="349.96 721.86 215.41 721.86 188.16 749.11 93.24 749.11"/><polyline class="cls-7" points="225.2 644.09 255.72 674.6 350.63 674.6"/><g id="Chain_03"><line class="cls-7" x1="483.41" y1="662.93" x2="428.54" y2="662.93"/><polyline class="cls-7" points="569.5 641.77 449.57 641.77 419.93 612.13"/></g><line class="cls-7" x1="152.52" y1="710.84" x2="274.56" y2="710.84"/><g id="Cube_01"><polyline class="cls-7" points="122.18 672.6 122.18 676.63 148.3 690.65 162.69 682.63"/><line class="cls-7" x1="122.18" y1="663.67" x2="122.18" y2="668.38"/><polyline class="cls-7" points="168.14 679.59 173.46 676.63 173.46 645.14 148.3 629.77 122.18 644.37 122.18 658.77"/><polyline class="cls-7" points="148.3 690.65 148.3 660.21 173.46 645.14"/><line class="cls-7" x1="122.18" y1="644.37" x2="148.3" y2="660.21"/></g></g></g><g class="cls-15"><g id="Trails-2"><g id="Chain_04"><polyline class="cls-7" points="842.2 507.52 809.38 475.7 733.37 475.7 722.37 490.29 653.67 490.29"/></g><line class="cls-7" x1="800.93" y1="396.99" x2="950.24" y2="396.99"/><g id="Chain_03-2"><polyline class="cls-7" points="470.37 446.92 531.27 446.92 560.36 476.01 711.57 476.01"/></g><line class="cls-7" x1="837.26" y1="426.49" x2="755.16" y2="426.49"/><g id="Cube_01-2"><polyline class="cls-7" points="855.81 459.06 855.81 463.09 881.93 477.11 896.32 469.09"/><line class="cls-7" x1="855.81" y1="450.13" x2="855.81" y2="454.84"/><polyline class="cls-7" points="901.77 466.06 907.09 463.09 907.09 431.6 881.93 416.23 855.81 430.83 855.81 445.23"/><polyline class="cls-7" points="881.93 477.11 881.93 446.67 907.09 431.6"/><line class="cls-7" x1="855.81" y1="430.83" x2="881.93" y2="446.67"/></g><polyline class="cls-5" points="869.38 382.79 789.07 382.79 761.79 411.19 723.04 411.19"/><line class="cls-7" x1="462.45" y1="426.49" x2="502.97" y2="426.49"/></g></g></g><g><g id="Cadet-2"><g class="cls-16"><g class="cls-23"><g id="HexPlate-3-2"><polygon class="cls-35" points="250.53 601.08 80.57 503.44 80.57 222 250.66 123.8 420.74 222 420.74 503.44 250.53 601.08"/><polygon class="cls-1" points="250.53 601.08 80.57 503.44 80.57 222 250.66 123.8 420.74 222 420.74 503.44 250.53 601.08"/></g></g></g><polygon id="HexPlate-4-2" class="cls-13" points="250.57 580.31 98.05 492.99 98.05 231.9 250.51 143.87 402.98 231.9 402.98 492.99 250.57 580.31"/></g><g class="cls-21"><g><path class="cls-8" d="M344.82,611.98c31.44,0,56.9-25.45,56.9-56.9s-25.46-56.9-56.9-56.9-56.9,25.45-56.9,56.9c0,31.44,25.46,56.9,56.9,56.9Z"/><path class="cls-12" d="M385.03,549.27l7.54-4.67c-1.2-5.51-3.35-10.77-6.46-15.68l-8.62,2.04c-2.39-3.11-5.15-5.98-8.38-8.38l2.04-8.74c-4.91-3.11-10.17-5.27-15.68-6.46l-4.67,7.54c-3.95-.6-8.02-.6-11.85,0l-4.67-7.66c-5.51,1.2-10.77,3.35-15.68,6.46l2.03,8.62c-3.11,2.39-5.98,5.15-8.38,8.38l-8.74-1.92c-3.11,4.91-5.27,10.17-6.46,15.68l7.54,4.67c-.6,3.95-.6,8.02,0,11.85l-7.54,4.67c1.2,5.51,3.35,10.77,6.46,15.68l8.62-2.03c2.39,3.11,5.15,5.98,8.38,8.38l-2.04,8.74c4.91,3.11,10.17,5.27,15.68,6.46l4.67-7.54c3.95,.6,8.02,.6,11.85,0l4.67,7.54c5.51-1.2,10.77-3.35,15.68-6.46l-2.03-8.62c3.11-2.39,5.98-5.15,8.38-8.38l8.62,2.03c3.11-4.91,5.27-10.17,6.46-15.68l-7.42-4.67c.6-3.95,.6-8.02,0-11.85Zm-23.82,12.69c-3.83,9.1-14.24,13.41-23.22,9.58-9.1-3.83-13.41-14.24-9.58-23.22,3.71-9.1,14.24-13.41,23.22-9.58,9.1,3.71,13.41,14.12,9.58,23.22Z"/></g></g></g><g id="ETH-2" class="cls-25"><path id="Trails-3" class="cls-3" d="M474.72,815.69h-51.18m-8.94,0h-29.33m95.72-126.25h-73.03m-7.52,0h-39.7m53.77,62.48h-55.22m-8.31,0h-19.6"/><path id="Coin" class="cls-18" d="M483.66,738.33c.86-.2,1.64-.52,2.33-.96,.69-.44,1.25-1.04,1.67-1.78,.42-.74,.63-1.63,.63-2.66s-.23-1.99-.7-2.7-1.07-1.27-1.81-1.67c-.74-.39-1.58-.68-2.52-.85-.94-.17-1.85-.26-2.74-.26h-7.85s0,11.18,0,11.18h8.36c.89,0,1.76-.1,2.63-.3Zm3.81,11.1c-.94-.39-1.95-.67-3.03-.81-1.09-.15-2.1-.22-3.03-.22h-8.73s0,11.92,0,11.92h10.36c.89,0,1.79-.1,2.7-.3s1.74-.54,2.48-1.04,1.34-1.13,1.81-1.92c.47-.79,.7-1.75,.7-2.89,0-1.23-.31-2.23-.93-3-.62-.76-1.39-1.34-2.33-1.74Zm-6.96-64.74c-37.48,.65-67.34,31.57-66.69,69.06,.65,37.48,31.57,67.34,69.06,66.69,37.48-.65,67.34-31.57,66.69-69.06-.65-37.48-31.57-67.34-69.06-66.69Zm.05,9.26c5.69-.1,11.36,.65,17.36,2.28,5.7,1.67,10.99,4.08,15.74,7.17l.81,.55c1.32,.9,2.56,1.75,3.82,2.86,3.65,2.93,6.75,6.11,9.4,9.66,2.48,2.91,4.39,6.23,5.94,9.09,4.23,7.98,6.45,16.8,6.61,26.24l.04,2.2-4.4,.08-.04-2.2c-.15-8.74-2.2-16.89-6.09-24.24-1.51-2.8-3.22-5.76-5.45-8.36l-.09-.12c-2.44-3.27-5.3-6.21-8.76-8.99-1.14-1-2.21-1.74-3.46-2.59l-.78-.53c-4.35-2.83-9.24-5.06-14.49-6.6-5.55-1.51-10.82-2.21-16.09-2.12l-2.2,.04-.08-4.4,2.2-.04Zm14.94,50.19c1.41,.72,2.62,1.63,3.63,2.74s1.79,2.41,2.33,3.89,.81,3.06,.81,4.74c0,2.76-.59,5.07-1.78,6.92-1.18,1.85-2.71,3.34-4.59,4.48-1.88,1.13-3.98,1.95-6.33,2.44-2.34,.49-4.68,.74-6.99,.74h-21.46s0-52.4,0-52.4h19.54c2.27,0,4.55,.16,6.85,.48,2.29,.32,4.35,.96,6.18,1.92s3.31,2.31,4.44,4.03c1.13,1.73,1.7,4.02,1.7,6.88s-.83,5.42-2.48,7.36c-1.65,1.95-3.84,3.34-6.55,4.18v.15c1.73,.25,3.29,.73,4.7,1.44Zm10.91,35.03v8.27s-49.43,0-49.43,0v-8.27s49.43,0,49.43,0Zm-71.06,1.92c1.59,2.77,3.72,5.57,6.71,8.83,1.56,1.6,3.51,3.52,5.72,5.2l1.75,1.33-2.67,3.5-1.75-1.33c-2.43-1.85-4.52-3.91-6.25-5.68-3.26-3.55-5.57-6.6-7.31-9.64-5.39-9.12-8.22-19.03-8.4-29.44-.09-5.08,.51-10.32,1.83-16.02,1.31-5.16,3.51-10.36,6.38-15.07,4.82-7.89,10.86-14.27,17.97-18.95,4.85-3.32,10.38-5.87,15.97-7.37l2.13-.57,1.14,4.25-2.13,.57c-5.12,1.37-10.19,3.72-14.66,6.78-6.59,4.35-12.18,10.26-16.66,17.59-2.6,4.28-4.68,9.19-5.86,13.82-1.23,5.3-1.79,10.19-1.71,14.91,.17,9.64,2.79,18.82,7.8,27.3Zm36.54,29.5l-2.14-.52c-3.89-.95-8.43-2.19-12.63-4.13l-2-.93,1.85-3.99,2,.93c3.86,1.79,8.14,2.95,11.83,3.85l2.14,.52-1.04,4.27Zm65.18-39.63c-1.2,3.93-2.91,7.37-5.11,11.31-2.18,3.55-4.08,6.2-6.03,8.43-1.37,1.68-2.91,3.15-4.41,4.57-.5,.48-1.01,.96-1.51,1.45-3.58,3.14-7.66,5.83-12.56,8.33-7.86,3.86-16.56,5.97-25.18,6.12l-2.2,.04-.08-4.4,2.2-.04c7.97-.14,16.03-2.09,23.29-5.65,4.54-2.31,8.33-4.81,11.54-7.62,.43-.43,.95-.92,1.47-1.41,1.46-1.39,2.84-2.69,4.08-4.22,1.84-2.11,3.6-4.57,5.6-7.82,2.01-3.62,3.61-6.81,4.69-10.37l.64-2.11,4.21,1.28-.64,2.11Z"/></g><path class="cls-32" d="M296.74,335.12l25.04,34.12-24.8,37.86-23.77-.05,15.12-24.58-46.78-.08-7.76-12.1h32.3l1.82-10.33,20.26-.1-15.87-24.77,24.44,.03Zm-33.69,32.16l3.48-21.71-54.31,.17,15.73-24.95-23.77-.05-24.8,37.24,25.04,34.12,24.44,.03-16.09-24.84h50.27Zm110.85-42.33l-25.96,14.99h.37v47.88l25.59,14.77v33.2l-28.76,16.6-26.41-15.25-40.61,23.45v29.46l-28.76,16.6-28.76-16.6v-29.63l-40.31-23.28-26.41,15.25-28.76-16.6v-33.2l25.59-14.77v-47.71h.67l-26.26-15.16v-33.2l28.76-16.6,25.13,14.51,41.59-24.01v-30.84l28.76-16.6,28.76,16.6v30.67l41.89,24.19,25.13-14.51,28.76,16.6v33.2Zm-146.96-60.61l22.42,12.94,22.42-12.94v-25.89l-22.42-12.94-22.42,12.94v25.89Zm-73.06,69.89l22.42-12.94v-25.89l-22.42-12.94-22.42,12.94v25.89l22.42,12.94Zm22.42,72.02l-22.42-12.94-22.42,12.94v25.89l22.42,12.94,22.42-12.94v-25.89Zm95.48,54.26l-22.42-12.94-22.42,12.94v25.89l22.42,12.94,22.42-12.94v-25.89Zm70.19-72.69v-47.88h.37l-25.96-14.99v-30.07l-42.41-24.49-24.61,14.21-24.46-14.12-42.26,24.4v30.07l-26.26,15.16h.67v47.71l25.59,14.77v29.47l.38-.65,40.84,23.58,25.51-14.73,25.66,14.82,41.36-23.88v-28.6l25.59-14.77Zm3.17,5.49l-22.42,12.94v25.89l22.42,12.94,22.42-12.94v-25.89l-22.42-12.94Zm22.42-97.91l-22.42-12.94-22.42,12.94v25.89l22.42,12.94,22.42-12.94v-25.89Z"/></g></svg>