<svg id="esbvhypphbdc1" xmlns="http://www.w3.org/2000/svg" xmlns:xlink="http://www.w3.org/1999/xlink" viewBox="0 0 120 35" shape-rendering="geometricPrecision" text-rendering="geometricPrecision" class="svg-animated-logo"><defs><filter id="esbvhypphbdc4-filter" x="-400%" width="600%" y="-400%" height="600%"><feColorMatrix id="esbvhypphbdc4-filter-hue-rotate-0" type="hueRotate" values="-360" result="result"></feColorMatrix></filter></defs><path id="esbvhypphbdc2" d="M78.600000,24.200000L78.600000,10L88.300000,20.100000L88.300000,10.900000L90.300000,10.900000L90.300000,25L80.600000,14.900000L80.600000,24.200000L78.600000,24.200000ZM108.800000,10.600000C107.700000,10.600000,106.700000,10.900000,106,11.600000C105.200000,12.300000,104.900000,13.100000,104.900000,14.100000C104.900000,15.600000,105.800000,16.700000,107.600000,17.500000L108.900000,18C109.200000,18.100000,109.500000,18.300000,109.800000,18.500000C110,18.600000,110.200000,18.800000,110.400000,19C110.600000,19.200000,110.700000,19.400000,110.700000,19.600000C110.800000,19.800000,110.800000,20.100000,110.800000,20.300000C110.800000,20.900000,110.600000,21.500000,110.200000,21.900000C109.800000,22.300000,109.300000,22.500000,108.600000,22.500000C107.800000,22.500000,107.200000,22.200000,106.800000,21.600000C106.600000,21.300000,106.400000,20.800000,106.300000,20L104.300000,20.500000C104.500000,21.700000,105,22.700000,105.700000,23.400000C106.500000,24.100000,107.400000,24.400000,108.600000,24.400000C109.800000,24.400000,110.800000,24,111.700000,23.200000C112.500000,22.400000,112.900000,21.400000,112.900000,20.200000C112.900000,19.300000,112.600000,18.500000,112.100000,17.900000C111.600000,17.300000,110.800000,16.700000,109.700000,16.300000L108.400000,15.800000C107.400000,15.400000,107,14.900000,107,14.200000C107,13.700000,107.200000,13.300000,107.600000,13C108,12.700000,108.400000,12.500000,109,12.500000C109.400000,12.500000,109.800000,12.600000,110.100000,12.800000C110.400000,13,110.700000,13.300000,111,13.800000L112.600000,12.800000C111.600000,11.300000,110.400000,10.600000,108.800000,10.600000ZM101.700000,13L101.700000,11.100000L93.600000,11.100000L93.600000,13L96.700000,13L96.700000,24.400000L98.700000,24.400000L98.700000,13C98.600000,13,101.700000,13,101.700000,13ZM67,19.300000L69.100000,14.800000L71.100000,19.300000L67,19.300000ZM73.300000,24.400000L75.500000,24.400000L69.200000,10.300000L62.600000,24.400000L64.800000,24.400000L66.300000,21.200000L72,21.200000L73.300000,24.400000ZM54,13L54.700000,13C56.500000,13,57.500000,13.700000,57.500000,15C57.500000,16.400000,56.500000,17.200000,54.700000,17.200000L54,17.200000L54,13L54,13ZM58.600000,17.400000C59.100000,16.700000,59.400000,15.900000,59.400000,15C59.400000,13.800000,59,12.800000,58.100000,12.100000C57.300000,11.400000,56.100000,11.100000,54.300000,11.100000L52,11.100000L52,24.400000L54,24.400000L54,19L54.400000,19L58.200000,24.400000L60.700000,24.400000L56.600000,18.700000C57.400000,18.500000,58.100000,18.100000,58.600000,17.400000ZM42.500000,19.100000L45.800000,19.100000C45.700000,20,45.300000,20.800000,44.500000,21.500000C43.700000,22.200000,42.800000,22.500000,41.800000,22.500000C40.600000,22.500000,39.600000,22.100000,38.600000,21.200000C37.500000,20.200000,37,19,37,17.500000C37,16.100000,37.500000,14.900000,38.400000,13.900000C39.400000,12.900000,40.500000,12.500000,41.900000,12.500000C43.500000,12.500000,44.800000,13.200000,45.900000,14.700000L47.300000,13.300000C46.500000,12.400000,45.600000,11.700000,44.800000,11.200000C43.900000,10.800000,42.900000,10.600000,41.900000,10.600000C40,10.600000,38.300000,11.300000,37,12.600000C35.600000,13.900000,35,15.600000,35,17.500000C35,19.400000,35.700000,21,37,22.400000C38.300000,23.800000,39.900000,24.400000,41.800000,24.400000C43.700000,24.400000,45.300000,23.700000,46.500000,22.300000C47,21.700000,47.400000,21,47.700000,20.300000C47.900000,19.500000,48,18.700000,48,17.700000L48,17.300000L42.500000,17.300000L42.500000,19.100000Z" fill="white" stroke="none" stroke-width="1"></path><path id="esbvhypphbdc3" d="M 31.1 28.7 L 22.8 14.399999999999999 C 22.5 13.799999999999999 21.7 13.599999999999998 21.1 13.899999999999999 C 20.5 14.2 20.3 14.999999999999998 20.6 15.599999999999998 L 21.6 17.4 L 13 17.4 L 14 15.599999999999998 C 14.3 14.999999999999998 14.1 14.199999999999998 13.5 13.899999999999999 C 12.9 13.599999999999998 12.1 13.799999999999999 11.8 14.399999999999999 L 3.6 28.7 C 3.4 29.099999999999998 3.4 29.599999999999998 3.6 30 C 3.8000000000000003 30.400000000000002 4.2 30.6 4.7 30.6 L 17.3 30.6 L 17.3 30.6 L 30 30.6 C 30.4 30.6 30.9 30.400000000000002 31.1 30 C 31.300000000000004 29.599999999999998 31.3 29.1 31.1 28.7 Z M 21.3 20 L 17.3 26.9 L 13.3 20 L 21.3 20 Z M 11 20.9 L 15.2 28.099999999999998 L 6.9 28.099999999999998 L 11 20.9 Z M 19.5 28.1 L 23.7 20.900000000000002 L 27.9 28.1 L 19.5 28.1 Z" fill="white" stroke="none" stroke-width="1"></path><path id="esbvhypphbdc4" d="M19.900000,11.400000C19.500000,11.400000,19,11.200000,18.800000,10.800000L17.300000,8.200000L15.800000,10.800000C15.500000,11.400000,14.700000,11.600000,14.100000,11.300000C13.500000,11,13.300000,10.200000,13.600000,9.600000L16.200000,5.100000C16.400000,4.700000,16.800000,4.500000,17.300000,4.500000C17.300000,4.500000,17.300000,4.500000,17.300000,4.500000C17.700000,4.500000,18.200000,4.700000,18.400000,5.100000L21,9.500000C21.300000,10.100000,21.100000,10.900000,20.500000,11.200000C20.300000,11.400000,20.100000,11.400000,19.900000,11.400000Z" filter="url(#esbvhypphbdc4-filter)" fill="rgb(15,206,124)" stroke="none" stroke-width="1" transform="matrix(1 0 0 1 0 0)"></path></svg>
