<?xml version="1.0" encoding="utf-8"?>
<!-- Generator: Adobe Illustrator 26.0.1, SVG Export Plug-In . SVG Version: 6.00 Build 0)  -->
<svg version="1.1" id="Layer_1" xmlns="http://www.w3.org/2000/svg" xmlns:xlink="http://www.w3.org/1999/xlink" x="0px" y="0px"
	 viewBox="0 0 60 60" style="enable-background:new 0 0 60 60;" xml:space="preserve">
<style type="text/css">
  .stw{fill:#FFFFFF;}
	.st0{fill:#FFD7A5;}
	.st1{fill:#398AFF;}
	.st2{fill:#522302;}
	.st3{fill:#006206;}
</style>
<path class="stw" d="M10.36,32.17c0-0.97,0-1.93,0-2.9c-0.47,0-0.95,0-1.43,0c0-3.89,0-7.76,0-11.65c4.36,0,8.72,0,13.08,0
	c0,3.88,0,7.75,0,11.64c-0.48,0-0.95,0-1.44,0c0,0.98,0,1.93,0,2.9c1.93,0,3.86,0,5.8,0c0,1.46,0,2.91,0,4.37c-1.93,0-3.86,0-5.8,0
	c0,5.83,0,11.64,0,17.46c-1.46,0-2.91,0-4.37,0c0-2.89,0-5.8,0-8.71h-1.45c0,2.9,0,5.81,0,8.71c-1.46,0-2.91,0-4.37,0
	c0-3.88,0-7.74,0-11.63c-0.97,0-1.94,0-2.91,0c0-3.41,0-6.79,0-10.2C8.43,32.17,9.39,32.17,10.36,32.17z"/>
<path class="stw" d="M51.11,32.16c0-0.97,0-1.93,0-2.9c0.47,0,0.95,0,1.43,0c0-3.89,0-7.76,0-11.65c-4.36,0-8.72,0-13.08,0
	c0,3.88,0,7.75,0,11.64c0.48,0,0.95,0,1.44,0c0,0.98,0,1.93,0,2.9c-1.93,0-3.86,0-5.8,0c0,1.46,0,2.91,0,4.37c1.93,0,3.86,0,5.8,0
	c0,5.83,0,11.64,0,17.46c1.46,0,2.91,0,4.37,0c0-2.89,0-5.8,0-8.71h1.45c0,2.9,0,5.81,0,8.71c1.46,0,2.91,0,4.37,0
	c0-3.88,0-7.74,0-11.63c0.97,0,1.94,0,2.91,0c0-3.41,0-6.79,0-10.2C53.04,32.16,52.08,32.16,51.11,32.16z"/>
<path class="stw" d="M51.11,54c-1.47,0-2.91,0-4.38,0c0-2.91,0-5.81,0-8.72c-0.49,0-0.96,0-1.45,0c0,2.9,0,5.8,0,8.71c-1.46,0-2.91,0-4.37,0
	c0-5.81,0-11.62,0-17.45c-1.94,0-3.87,0-5.81,0c0-1.46,0-2.91,0-4.37c1.92,0,3.86,0,5.8,0c0-0.98,0-1.93,0-2.91
	c-0.48,0-0.95,0-1.44,0c0-3.89,0-7.76,0-11.65c4.36,0,8.72,0,13.08,0c0,3.88,0,7.75,0,11.64c-0.48,0-0.95,0-1.44,0
	c0,0.97,0,1.93,0,2.9c0.96,0,1.92,0,2.89,0c0,3.41,0,6.79,0,10.2c-0.96,0-1.92,0-2.89,0C51.11,46.24,51.11,50.11,51.11,54z
	 M49.63,43.8c0-4.85,0-9.69,0-14.53c-2.42,0-4.84,0-7.25,0c0,4.85,0,9.69,0,14.53C44.8,43.8,47.2,43.8,49.63,43.8z M51.09,19.08
	c-3.4,0-6.78,0-10.16,0c0,2.91,0,5.81,0,8.71c3.39,0,6.77,0,10.16,0C51.09,24.88,51.09,21.99,51.09,19.08z M51.11,33.63
	c0,2.43,0,4.84,0,7.26c0.48,0,0.96,0,1.43,0c0-2.42,0-4.84,0-7.26C52.06,33.63,51.59,33.63,51.11,33.63z M42.38,45.28
	c0,2.43,0,4.84,0,7.26c0.48,0,0.96,0,1.43,0c0-2.42,0-4.84,0-7.26C43.33,45.28,42.86,45.28,42.38,45.28z M49.63,52.54
	c0-2.43,0-4.84,0-7.26c-0.48,0-0.96,0-1.43,0c0,2.42,0,4.84,0,7.26C48.68,52.54,49.14,52.54,49.63,52.54z M36.56,35.06
	c1.46,0,2.9,0,4.34,0c0-0.48,0-0.96,0-1.43c-1.45,0-2.89,0-4.34,0C36.56,34.11,36.56,34.58,36.56,35.06z"/>
<path class="stw" d="M36.54,30.71c-3.88,0-7.75,0-11.63,0c0-3.39,0-6.78,0-10.18c3.87,0,7.74,0,11.63,0C36.54,23.92,36.54,27.31,36.54,30.71z
	 M35.07,29.24c0-1.45,0-2.89,0-4.35c-0.97,0-1.92,0-2.9,0c0-0.97,0-1.93,0-2.89c-1.94,0-3.87,0-5.79,0c0,0.48,0,0.95,0,1.43
	c0.97,0,1.92,0,2.89,0c0,0.98,0,1.94,0,2.92c-0.48,0-0.96,0-1.45,0c0,0.49,0,0.97,0,1.46c-0.49,0-0.97,0-1.44,0
	c0,0.49,0,0.95,0,1.42c1.45,0,2.89,0,4.34,0c0-0.97,0-1.92,0-2.89c0.98,0,1.94,0,2.92,0c0,0.97,0,1.93,0,2.89
	C34.13,29.24,34.6,29.24,35.07,29.24z"/>
<path class="stw" d="M40.91,14.7c-0.48,0-0.96,0-1.45,0c0-0.97,0-1.93,0-2.9c-1.94,0-3.87,0-5.81,0c0,0.96,0,1.92,0,2.89c-0.49,0-0.97,0-1.46,0
	c0-2.41,0-4.84,0-7.27c0.48,0,0.95,0,1.44,0c0-0.49,0-0.97,0-1.45c1.95,0,3.88,0,5.82,0c0,0.48,0,0.95,0,1.44c0.49,0,0.97,0,1.45,0
	C40.91,9.85,40.91,12.26,40.91,14.7z M38,7.44c-0.98,0-1.94,0-2.91,0c0,0.49,0,0.96,0,1.45c-0.49,0-0.97,0-1.44,0
	c0,0.49,0,0.96,0,1.43c1.94,0,3.86,0,5.79,0c0-0.48,0-0.95,0-1.44c-0.49,0-0.96,0-1.44,0C38,8.39,38,7.92,38,7.44z"/>
<path class="stw" d="M6,5.97c0.48,0,0.96,0,1.45,0c0,1.45,0,2.9,0,4.35c1.46,0,2.9,0,4.36,0c0-1.45,0-2.89,0-4.35c0.49,0,0.97,0,1.46,0
	c0,2.9,0,5.81,0,8.72c-0.48,0-0.96,0-1.45,0c0-0.96,0-1.92,0-2.89c-1.45,0-2.9,0-4.36,0c0,0.96,0,1.92,0,2.89c-0.49,0-0.97,0-1.46,0
	C6,11.79,6,8.89,6,5.97z"/>
<path class="stw" d="M24.91,13.24c0,0.48,0,0.96,0,1.45c-1.93,0-3.87,0-5.81,0c0-2.9,0-5.81,0-8.72c1.93,0,3.86,0,5.81,0c0,0.49,0,0.97,0,1.45
	l0,0c-0.06,0-0.12,0-0.17,0c-1.34,0-2.68,0-4.01,0c-0.06,0-0.11,0-0.17,0c0,1.95,0,3.88,0,5.82c0.06,0,0.11,0,0.17,0
	c0.74,0,1.48,0,2.22,0C23.6,13.24,24.25,13.24,24.91,13.24L24.91,13.24z"/>
<path class="stw" d="M24.91,7.42c0.48,0,0.96,0,1.45,0c0,1.94,0,3.87,0,5.82c-0.48,0-0.97,0-1.45,0l0,0c0-0.06,0-0.12,0-0.17
	c0-1.8,0-3.59,0-5.39C24.9,7.59,24.91,7.51,24.91,7.42L24.91,7.42z"/>
<path class="stw" d="M48.19,13.24c-0.48,0-0.96,0-1.45,0c0-1.94,0-3.87,0-5.82c0.48,0,0.97,0,1.45,0l0,0c0,0.06,0,0.12,0,0.17
	c0,1.8,0,3.59,0,5.39C48.19,13.07,48.19,13.16,48.19,13.24C48.18,13.25,48.19,13.24,48.19,13.24z"/>
<path class="stw" d="M52.55,7.42c0.48,0,0.96,0,1.45,0c0,1.94,0,3.87,0,5.82c-0.48,0-0.97,0-1.45,0l0,0c0-0.06,0-0.12,0-0.17
	c0-1.8,0-3.59,0-5.39C52.55,7.59,52.55,7.51,52.55,7.42L52.55,7.42z"/>
<path class="stw" d="M48.19,7.42c0-0.48,0-0.96,0-1.45c1.45,0,2.9,0,4.36,0c0,0.48,0,0.97,0,1.45l0,0c-0.69,0-1.38,0-2.08,0
	C49.71,7.42,48.95,7.42,48.19,7.42L48.19,7.42z"/>
<path class="stw" d="M52.55,13.24c0,0.48,0,0.96,0,1.45c-1.45,0-2.9,0-4.36,0c0-0.48,0-0.97,0-1.45l0,0c0.7,0,1.4,0,2.1,0
	C51.04,13.24,51.8,13.24,52.55,13.24L52.55,13.24z"/>
<path class="st0" d="M49.63,43.8c-2.42,0-4.83,0-7.25,0c0-4.84,0-9.68,0-14.53c2.41,0,4.82,0,7.25,0
	C49.63,34.11,49.63,38.95,49.63,43.8z"/>
<path class="st0" d="M51.09,19.08c0,2.91,0,5.8,0,8.71c-3.39,0-6.77,0-10.16,0c0-2.9,0-5.8,0-8.71
	C44.31,19.08,47.69,19.08,51.09,19.08z"/>
<path class="st0" d="M51.11,33.63c0.48,0,0.95,0,1.43,0c0,2.42,0,4.83,0,7.26c-0.47,0-0.94,0-1.43,0
	C51.11,38.47,51.11,36.06,51.11,33.63z"/>
<path class="st0" d="M42.38,45.28c0.48,0,0.95,0,1.43,0c0,2.42,0,4.83,0,7.26c-0.47,0-0.94,0-1.43,0
	C42.38,50.12,42.38,47.7,42.38,45.28z"/>
<path class="st0" d="M49.63,52.54c-0.48,0-0.95,0-1.43,0c0-2.42,0-4.84,0-7.26c0.47,0,0.94,0,1.43,0
	C49.63,47.69,49.63,50.11,49.63,52.54z"/>
<path class="st0" d="M36.56,35.06c0-0.48,0-0.95,0-1.43c1.45,0,2.89,0,4.34,0c0,0.47,0,0.94,0,1.43
	C39.46,35.06,38.01,35.06,36.56,35.06z"/>
<path class="st1" d="M35.07,29.24c-0.47,0-7.24,0-8.69,0c0-0.47,0-6.76,0-7.24c1.92,0,8.69,0,8.69,0v2.89
	C35.07,26.35,35.07,27.79,35.07,29.24z"/>
<path class="st2" d="M11.84,43.8c2.42,0,4.83,0,7.25,0c0-4.84,0-9.68,0-14.53c-2.41,0-4.82,0-7.25,0
	C11.84,34.11,11.84,38.95,11.84,43.8z"/>
<path class="st2" d="M10.38,19.08c0,2.91,0,5.8,0,8.71c3.39,0,6.77,0,10.16,0c0-2.9,0-5.8,0-8.71
	C17.16,19.08,13.78,19.08,10.38,19.08z"/>
<path class="st2" d="M10.36,33.63c-0.48,0-0.95,0-1.43,0c0,2.42,0,4.83,0,7.26c0.47,0,0.94,0,1.43,0
	C10.36,38.47,10.36,36.06,10.36,33.63z"/>
<path class="st2" d="M19.08,45.28c-0.48,0-0.95,0-1.43,0c0,2.42,0,4.83,0,7.26c0.47,0,0.94,0,1.43,0
	C19.08,50.12,19.08,47.7,19.08,45.28z"/>
<path class="st2" d="M11.84,52.54c0.48,0,0.95,0,1.43,0c0-2.42,0-4.83,0-7.26c-0.47,0-0.94,0-1.43,0
	C11.84,47.69,11.84,50.11,11.84,52.54z"/>
<path class="st2" d="M24.91,35.06c0-0.48,0-0.95,0-1.43c-1.45,0-2.89,0-4.34,0c0,0.47,0,0.94,0,1.43
	C22.01,35.06,23.45,35.06,24.91,35.06z"/>
<polygon class="st3" points="33.65,29.24 30.73,29.24 30.73,26.35 33.65,26.35 33.65,27.79 "/>
<rect x="32.15" y="22" class="st3" width="2.92" height="2.89"/>
<rect x="26.38" y="23.45" class="st3" width="2.92" height="2.89"/>
<rect x="26.38" y="26.35" class="st3" width="1.46" height="1.46"/>
</svg>
